ISO-10303-21;
HEADER;
/* Generated by software containing ST-Developer
 * from STEP Tools, Inc. (www.steptools.com) 
 */

FILE_DESCRIPTION(
/* description */ ('STEP AP203'),
/* implementation_level */ '2;1');

FILE_NAME(
/* name */ 'Bracket.step',
/* time_stamp */ '2026-07-23T10:33:01+08:00',
/* author */ (''),
/* organization */ (''),
/* preprocessor_version */ 'ST-DEVELOPER v20.1',
/* originating_system */ 'Autodesk Translation Framework v15.8.0.0',
/* authorisation */ '');

FILE_SCHEMA (('AUTOMOTIVE_DESIGN { 1 0 10303 214 3 1 1 }'));
ENDSEC;

DATA;
#10=MECHANICAL_DESIGN_GEOMETRIC_PRESENTATION_REPRESENTATION('',(#13),#1779);
#11=SHAPE_REPRESENTATION_RELATIONSHIP('SRR','None',#1786,#12);
#12=ADVANCED_BREP_SHAPE_REPRESENTATION('',(#14),#1778);
#13=STYLED_ITEM('',(#1795),#14);
#14=MANIFOLD_SOLID_BREP('Body1',#1069);
#15=FACE_BOUND('',#151,.T.);
#16=FACE_BOUND('',#152,.T.);
#17=FACE_BOUND('',#153,.T.);
#18=FACE_BOUND('',#154,.T.);
#19=FACE_BOUND('',#156,.T.);
#20=FACE_BOUND('',#157,.T.);
#21=FACE_BOUND('',#159,.T.);
#22=FACE_BOUND('',#160,.T.);
#23=FACE_BOUND('',#163,.T.);
#24=FACE_BOUND('',#164,.T.);
#25=FACE_BOUND('',#165,.T.);
#26=FACE_BOUND('',#167,.T.);
#27=FACE_BOUND('',#168,.T.);
#28=FACE_BOUND('',#180,.T.);
#29=FACE_BOUND('',#188,.T.);
#30=FACE_BOUND('',#196,.T.);
#31=FACE_BOUND('',#204,.T.);
#32=PLANE('',#1122);
#33=PLANE('',#1128);
#34=PLANE('',#1129);
#35=PLANE('',#1132);
#36=PLANE('',#1137);
#37=PLANE('',#1138);
#38=PLANE('',#1139);
#39=PLANE('',#1144);
#40=PLANE('',#1145);
#41=PLANE('',#1146);
#42=PLANE('',#1147);
#43=PLANE('',#1148);
#44=PLANE('',#1149);
#45=PLANE('',#1150);
#46=PLANE('',#1151);
#47=PLANE('',#1152);
#48=PLANE('',#1153);
#49=PLANE('',#1154);
#50=PLANE('',#1155);
#51=PLANE('',#1156);
#52=PLANE('',#1157);
#53=PLANE('',#1158);
#54=PLANE('',#1159);
#55=PLANE('',#1160);
#56=PLANE('',#1161);
#57=PLANE('',#1162);
#58=PLANE('',#1163);
#59=PLANE('',#1164);
#60=PLANE('',#1165);
#61=PLANE('',#1166);
#62=PLANE('',#1167);
#63=PLANE('',#1168);
#64=PLANE('',#1169);
#65=PLANE('',#1170);
#66=PLANE('',#1171);
#67=PLANE('',#1172);
#68=PLANE('',#1173);
#69=PLANE('',#1174);
#70=PLANE('',#1175);
#71=CYLINDRICAL_SURFACE('',#1086,1.70000000000001);
#72=CYLINDRICAL_SURFACE('',#1091,1.70000000000001);
#73=CYLINDRICAL_SURFACE('',#1093,40.0000000000002);
#74=CYLINDRICAL_SURFACE('',#1104,37.0000000000002);
#75=CYLINDRICAL_SURFACE('',#1110,1.1);
#76=CYLINDRICAL_SURFACE('',#1113,1.1);
#77=CYLINDRICAL_SURFACE('',#1116,1.1);
#78=CYLINDRICAL_SURFACE('',#1119,1.1);
#79=CYLINDRICAL_SURFACE('',#1130,47.5000000000002);
#80=CYLINDRICAL_SURFACE('',#1140,3.00000000000001);
#81=CYLINDRICAL_SURFACE('',#1141,3.00000000000001);
#82=CYLINDRICAL_SURFACE('',#1142,3.00000000000001);
#83=CYLINDRICAL_SURFACE('',#1143,3.00000000000001);
#84=FACE_OUTER_BOUND('',#139,.T.);
#85=FACE_OUTER_BOUND('',#140,.T.);
#86=FACE_OUTER_BOUND('',#141,.T.);
#87=FACE_OUTER_BOUND('',#142,.T.);
#88=FACE_OUTER_BOUND('',#143,.T.);
#89=FACE_OUTER_BOUND('',#144,.T.);
#90=FACE_OUTER_BOUND('',#145,.T.);
#91=FACE_OUTER_BOUND('',#146,.T.);
#92=FACE_OUTER_BOUND('',#147,.T.);
#93=FACE_OUTER_BOUND('',#148,.T.);
#94=FACE_OUTER_BOUND('',#149,.T.);
#95=FACE_OUTER_BOUND('',#150,.T.);
#96=FACE_OUTER_BOUND('',#155,.T.);
#97=FACE_OUTER_BOUND('',#158,.T.);
#98=FACE_OUTER_BOUND('',#161,.T.);
#99=FACE_OUTER_BOUND('',#162,.T.);
#100=FACE_OUTER_BOUND('',#166,.T.);
#101=FACE_OUTER_BOUND('',#169,.T.);
#102=FACE_OUTER_BOUND('',#170,.T.);
#103=FACE_OUTER_BOUND('',#171,.T.);
#104=FACE_OUTER_BOUND('',#172,.T.);
#105=FACE_OUTER_BOUND('',#173,.T.);
#106=FACE_OUTER_BOUND('',#174,.T.);
#107=FACE_OUTER_BOUND('',#175,.T.);
#108=FACE_OUTER_BOUND('',#176,.T.);
#109=FACE_OUTER_BOUND('',#177,.T.);
#110=FACE_OUTER_BOUND('',#178,.T.);
#111=FACE_OUTER_BOUND('',#179,.T.);
#112=FACE_OUTER_BOUND('',#181,.T.);
#113=FACE_OUTER_BOUND('',#182,.T.);
#114=FACE_OUTER_BOUND('',#183,.T.);
#115=FACE_OUTER_BOUND('',#184,.T.);
#116=FACE_OUTER_BOUND('',#185,.T.);
#117=FACE_OUTER_BOUND('',#186,.T.);
#118=FACE_OUTER_BOUND('',#187,.T.);
#119=FACE_OUTER_BOUND('',#189,.T.);
#120=FACE_OUTER_BOUND('',#190,.T.);
#121=FACE_OUTER_BOUND('',#191,.T.);
#122=FACE_OUTER_BOUND('',#192,.T.);
#123=FACE_OUTER_BOUND('',#193,.T.);
#124=FACE_OUTER_BOUND('',#194,.T.);
#125=FACE_OUTER_BOUND('',#195,.T.);
#126=FACE_OUTER_BOUND('',#197,.T.);
#127=FACE_OUTER_BOUND('',#198,.T.);
#128=FACE_OUTER_BOUND('',#199,.T.);
#129=FACE_OUTER_BOUND('',#200,.T.);
#130=FACE_OUTER_BOUND('',#201,.T.);
#131=FACE_OUTER_BOUND('',#202,.T.);
#132=FACE_OUTER_BOUND('',#203,.T.);
#133=FACE_OUTER_BOUND('',#205,.T.);
#134=FACE_OUTER_BOUND('',#206,.T.);
#135=FACE_OUTER_BOUND('',#207,.T.);
#136=FACE_OUTER_BOUND('',#208,.T.);
#137=FACE_OUTER_BOUND('',#209,.T.);
#138=FACE_OUTER_BOUND('',#210,.T.);
#139=EDGE_LOOP('',(#715,#716,#717,#718));
#140=EDGE_LOOP('',(#719,#720,#721,#722));
#141=EDGE_LOOP('',(#723,#724,#725,#726));
#142=EDGE_LOOP('',(#727,#728,#729,#730));
#143=EDGE_LOOP('',(#731,#732,#733,#734,#735,#736,#737,#738,#739,#740,#741,
#742));
#144=EDGE_LOOP('',(#743,#744,#745,#746,#747));
#145=EDGE_LOOP('',(#748,#749,#750,#751,#752,#753,#754,#755,#756,#757,#758,
#759,#760));
#146=EDGE_LOOP('',(#761,#762,#763,#764));
#147=EDGE_LOOP('',(#765,#766,#767,#768));
#148=EDGE_LOOP('',(#769,#770,#771,#772));
#149=EDGE_LOOP('',(#773,#774,#775,#776));
#150=EDGE_LOOP('',(#777,#778,#779,#780,#781,#782,#783,#784,#785,#786));
#151=EDGE_LOOP('',(#787));
#152=EDGE_LOOP('',(#788));
#153=EDGE_LOOP('',(#789));
#154=EDGE_LOOP('',(#790));
#155=EDGE_LOOP('',(#791,#792));
#156=EDGE_LOOP('',(#793,#794,#795,#796,#797,#798));
#157=EDGE_LOOP('',(#799,#800,#801,#802,#803,#804));
#158=EDGE_LOOP('',(#805,#806));
#159=EDGE_LOOP('',(#807));
#160=EDGE_LOOP('',(#808));
#161=EDGE_LOOP('',(#809,#810,#811,#812));
#162=EDGE_LOOP('',(#813,#814,#815,#816,#817,#818,#819,#820));
#163=EDGE_LOOP('',(#821));
#164=EDGE_LOOP('',(#822));
#165=EDGE_LOOP('',(#823));
#166=EDGE_LOOP('',(#824,#825));
#167=EDGE_LOOP('',(#826,#827,#828,#829,#830,#831));
#168=EDGE_LOOP('',(#832,#833,#834,#835,#836,#837));
#169=EDGE_LOOP('',(#838,#839,#840,#841));
#170=EDGE_LOOP('',(#842,#843,#844,#845));
#171=EDGE_LOOP('',(#846,#847,#848,#849));
#172=EDGE_LOOP('',(#850,#851,#852,#853));
#173=EDGE_LOOP('',(#854,#855,#856,#857));
#174=EDGE_LOOP('',(#858,#859,#860,#861));
#175=EDGE_LOOP('',(#862,#863,#864,#865,#866,#867,#868,#869));
#176=EDGE_LOOP('',(#870,#871,#872,#873,#874,#875,#876,#877));
#177=EDGE_LOOP('',(#878,#879,#880,#881,#882));
#178=EDGE_LOOP('',(#883,#884,#885,#886));
#179=EDGE_LOOP('',(#887,#888,#889,#890,#891,#892));
#180=EDGE_LOOP('',(#893));
#181=EDGE_LOOP('',(#894,#895,#896,#897));
#182=EDGE_LOOP('',(#898,#899,#900,#901));
#183=EDGE_LOOP('',(#902,#903,#904,#905));
#184=EDGE_LOOP('',(#906,#907,#908,#909));
#185=EDGE_LOOP('',(#910,#911,#912,#913));
#186=EDGE_LOOP('',(#914,#915,#916,#917));
#187=EDGE_LOOP('',(#918,#919,#920,#921,#922,#923));
#188=EDGE_LOOP('',(#924));
#189=EDGE_LOOP('',(#925,#926,#927,#928));
#190=EDGE_LOOP('',(#929,#930,#931,#932));
#191=EDGE_LOOP('',(#933,#934,#935,#936));
#192=EDGE_LOOP('',(#937,#938,#939,#940));
#193=EDGE_LOOP('',(#941,#942,#943,#944));
#194=EDGE_LOOP('',(#945,#946,#947,#948));
#195=EDGE_LOOP('',(#949,#950,#951,#952,#953,#954));
#196=EDGE_LOOP('',(#955));
#197=EDGE_LOOP('',(#956,#957,#958,#959));
#198=EDGE_LOOP('',(#960,#961,#962,#963));
#199=EDGE_LOOP('',(#964,#965,#966,#967));
#200=EDGE_LOOP('',(#968,#969,#970,#971));
#201=EDGE_LOOP('',(#972,#973,#974,#975));
#202=EDGE_LOOP('',(#976,#977,#978,#979));
#203=EDGE_LOOP('',(#980,#981,#982,#983,#984,#985));
#204=EDGE_LOOP('',(#986));
#205=EDGE_LOOP('',(#987,#988,#989,#990));
#206=EDGE_LOOP('',(#991,#992,#993,#994));
#207=EDGE_LOOP('',(#995,#996,#997,#998));
#208=EDGE_LOOP('',(#999,#1000,#1001,#1002));
#209=EDGE_LOOP('',(#1003,#1004,#1005,#1006));
#210=EDGE_LOOP('',(#1007,#1008,#1009,#1010));
#211=LINE('',#1479,#321);
#212=LINE('',#1484,#322);
#213=LINE('',#1489,#323);
#214=LINE('',#1494,#324);
#215=LINE('',#1500,#325);
#216=LINE('',#1504,#326);
#217=LINE('',#1508,#327);
#218=LINE('',#1512,#328);
#219=LINE('',#1516,#329);
#220=LINE('',#1519,#330);
#221=LINE('',#1526,#331);
#222=LINE('',#1530,#332);
#223=LINE('',#1534,#333);
#224=LINE('',#1538,#334);
#225=LINE('',#1542,#335);
#226=LINE('',#1546,#336);
#227=LINE('',#1552,#337);
#228=LINE('',#1558,#338);
#229=LINE('',#1564,#339);
#230=LINE('',#1570,#340);
#231=LINE('',#1573,#341);
#232=LINE('',#1577,#342);
#233=LINE('',#1585,#343);
#234=LINE('',#1588,#344);
#235=LINE('',#1591,#345);
#236=LINE('',#1593,#346);
#237=LINE('',#1595,#347);
#238=LINE('',#1597,#348);
#239=LINE('',#1599,#349);
#240=LINE('',#1600,#350);
#241=LINE('',#1603,#351);
#242=LINE('',#1605,#352);
#243=LINE('',#1607,#353);
#244=LINE('',#1609,#354);
#245=LINE('',#1611,#355);
#246=LINE('',#1612,#356);
#247=LINE('',#1614,#357);
#248=LINE('',#1619,#358);
#249=LINE('',#1620,#359);
#250=LINE('',#1624,#360);
#251=LINE('',#1629,#361);
#252=LINE('',#1633,#362);
#253=LINE('',#1636,#363);
#254=LINE('',#1638,#364);
#255=LINE('',#1640,#365);
#256=LINE('',#1642,#366);
#257=LINE('',#1644,#367);
#258=LINE('',#1645,#368);
#259=LINE('',#1648,#369);
#260=LINE('',#1650,#370);
#261=LINE('',#1652,#371);
#262=LINE('',#1654,#372);
#263=LINE('',#1656,#373);
#264=LINE('',#1657,#374);
#265=LINE('',#1659,#375);
#266=LINE('',#1660,#376);
#267=LINE('',#1662,#377);
#268=LINE('',#1663,#378);
#269=LINE('',#1669,#379);
#270=LINE('',#1670,#380);
#271=LINE('',#1672,#381);
#272=LINE('',#1673,#382);
#273=LINE('',#1679,#383);
#274=LINE('',#1681,#384);
#275=LINE('',#1683,#385);
#276=LINE('',#1685,#386);
#277=LINE('',#1687,#387);
#278=LINE('',#1688,#388);
#279=LINE('',#1690,#389);
#280=LINE('',#1691,#390);
#281=LINE('',#1693,#391);
#282=LINE('',#1695,#392);
#283=LINE('',#1697,#393);
#284=LINE('',#1699,#394);
#285=LINE('',#1704,#395);
#286=LINE('',#1706,#396);
#287=LINE('',#1708,#397);
#288=LINE('',#1710,#398);
#289=LINE('',#1712,#399);
#290=LINE('',#1713,#400);
#291=LINE('',#1715,#401);
#292=LINE('',#1716,#402);
#293=LINE('',#1718,#403);
#294=LINE('',#1720,#404);
#295=LINE('',#1722,#405);
#296=LINE('',#1724,#406);
#297=LINE('',#1729,#407);
#298=LINE('',#1731,#408);
#299=LINE('',#1733,#409);
#300=LINE('',#1735,#410);
#301=LINE('',#1737,#411);
#302=LINE('',#1738,#412);
#303=LINE('',#1740,#413);
#304=LINE('',#1741,#414);
#305=LINE('',#1743,#415);
#306=LINE('',#1745,#416);
#307=LINE('',#1747,#417);
#308=LINE('',#1749,#418);
#309=LINE('',#1754,#419);
#310=LINE('',#1756,#420);
#311=LINE('',#1758,#421);
#312=LINE('',#1760,#422);
#313=LINE('',#1762,#423);
#314=LINE('',#1763,#424);
#315=LINE('',#1765,#425);
#316=LINE('',#1766,#426);
#317=LINE('',#1768,#427);
#318=LINE('',#1770,#428);
#319=LINE('',#1772,#429);
#320=LINE('',#1774,#430);
#321=VECTOR('',#1182,3.15000000000001);
#322=VECTOR('',#1189,1.70000000000001);
#323=VECTOR('',#1194,3.15000000000001);
#324=VECTOR('',#1201,1.70000000000001);
#325=VECTOR('',#1206,1000.);
#326=VECTOR('',#1209,1000.);
#327=VECTOR('',#1212,1000.);
#328=VECTOR('',#1215,1000.);
#329=VECTOR('',#1218,1000.);
#330=VECTOR('',#1221,1000.);
#331=VECTOR('',#1228,37.2000000000002);
#332=VECTOR('',#1233,37.0000000000002);
#333=VECTOR('',#1236,1000.);
#334=VECTOR('',#1239,1000.);
#335=VECTOR('',#1242,1000.);
#336=VECTOR('',#1245,1000.);
#337=VECTOR('',#1252,1.1);
#338=VECTOR('',#1259,1.1);
#339=VECTOR('',#1266,1.1);
#340=VECTOR('',#1273,1.1);
#341=VECTOR('',#1278,1000.);
#342=VECTOR('',#1281,1000.);
#343=VECTOR('',#1288,1000.);
#344=VECTOR('',#1293,1000.);
#345=VECTOR('',#1294,1000.);
#346=VECTOR('',#1295,1000.);
#347=VECTOR('',#1296,1000.);
#348=VECTOR('',#1297,1000.);
#349=VECTOR('',#1298,1000.);
#350=VECTOR('',#1299,1000.);
#351=VECTOR('',#1300,1000.);
#352=VECTOR('',#1301,1000.);
#353=VECTOR('',#1302,1000.);
#354=VECTOR('',#1303,1000.);
#355=VECTOR('',#1304,1000.);
#356=VECTOR('',#1305,1000.);
#357=VECTOR('',#1308,1000.);
#358=VECTOR('',#1313,1000.);
#359=VECTOR('',#1314,1000.);
#360=VECTOR('',#1317,1000.);
#361=VECTOR('',#1322,1000.);
#362=VECTOR('',#1329,1000.);
#363=VECTOR('',#1330,1000.);
#364=VECTOR('',#1331,1000.);
#365=VECTOR('',#1332,1000.);
#366=VECTOR('',#1333,1000.);
#367=VECTOR('',#1334,1000.);
#368=VECTOR('',#1335,1000.);
#369=VECTOR('',#1336,1000.);
#370=VECTOR('',#1337,1000.);
#371=VECTOR('',#1338,1000.);
#372=VECTOR('',#1339,1000.);
#373=VECTOR('',#1340,1000.);
#374=VECTOR('',#1341,1000.);
#375=VECTOR('',#1344,1000.);
#376=VECTOR('',#1345,1000.);
#377=VECTOR('',#1348,1000.);
#378=VECTOR('',#1349,1000.);
#379=VECTOR('',#1360,1000.);
#380=VECTOR('',#1361,1000.);
#381=VECTOR('',#1364,1000.);
#382=VECTOR('',#1365,1000.);
#383=VECTOR('',#1372,1000.);
#384=VECTOR('',#1373,1000.);
#385=VECTOR('',#1374,1000.);
#386=VECTOR('',#1375,1000.);
#387=VECTOR('',#1376,1000.);
#388=VECTOR('',#1377,1000.);
#389=VECTOR('',#1380,1000.);
#390=VECTOR('',#1381,1000.);
#391=VECTOR('',#1384,1000.);
#392=VECTOR('',#1387,1000.);
#393=VECTOR('',#1390,1000.);
#394=VECTOR('',#1393,1000.);
#395=VECTOR('',#1398,1000.);
#396=VECTOR('',#1399,1000.);
#397=VECTOR('',#1400,1000.);
#398=VECTOR('',#1401,1000.);
#399=VECTOR('',#1402,1000.);
#400=VECTOR('',#1403,1000.);
#401=VECTOR('',#1406,1000.);
#402=VECTOR('',#1407,1000.);
#403=VECTOR('',#1410,1000.);
#404=VECTOR('',#1413,1000.);
#405=VECTOR('',#1416,1000.);
#406=VECTOR('',#1419,1000.);
#407=VECTOR('',#1424,1000.);
#408=VECTOR('',#1425,1000.);
#409=VECTOR('',#1426,1000.);
#410=VECTOR('',#1427,1000.);
#411=VECTOR('',#1428,1000.);
#412=VECTOR('',#1429,1000.);
#413=VECTOR('',#1432,1000.);
#414=VECTOR('',#1433,1000.);
#415=VECTOR('',#1436,1000.);
#416=VECTOR('',#1439,1000.);
#417=VECTOR('',#1442,1000.);
#418=VECTOR('',#1445,1000.);
#419=VECTOR('',#1450,1000.);
#420=VECTOR('',#1451,1000.);
#421=VECTOR('',#1452,1000.);
#422=VECTOR('',#1453,1000.);
#423=VECTOR('',#1454,1000.);
#424=VECTOR('',#1455,1000.);
#425=VECTOR('',#1458,1000.);
#426=VECTOR('',#1459,1000.);
#427=VECTOR('',#1462,1000.);
#428=VECTOR('',#1465,1000.);
#429=VECTOR('',#1468,1000.);
#430=VECTOR('',#1471,1000.);
#431=CIRCLE('',#1084,1.70000000000001);
#432=CIRCLE('',#1085,3.15000000000001);
#433=CIRCLE('',#1087,1.70000000000001);
#434=CIRCLE('',#1089,1.70000000000001);
#435=CIRCLE('',#1090,3.15000000000001);
#436=CIRCLE('',#1092,1.70000000000001);
#437=CIRCLE('',#1094,40.0000000000002);
#438=CIRCLE('',#1095,40.0000000000002);
#439=CIRCLE('',#1096,40.0000000000002);
#440=CIRCLE('',#1097,40.0000000000002);
#441=CIRCLE('',#1098,40.0000000000002);
#442=CIRCLE('',#1099,40.0000000000002);
#443=CIRCLE('',#1101,37.0000000000002);
#444=CIRCLE('',#1102,37.0000000000002);
#445=CIRCLE('',#1103,37.2000000000002);
#446=CIRCLE('',#1105,37.0000000000002);
#447=CIRCLE('',#1106,37.0000000000002);
#448=CIRCLE('',#1107,37.0000000000002);
#449=CIRCLE('',#1108,37.0000000000002);
#450=CIRCLE('',#1109,37.0000000000002);
#451=CIRCLE('',#1111,1.1);
#452=CIRCLE('',#1112,1.09999999999999);
#453=CIRCLE('',#1114,1.1);
#454=CIRCLE('',#1115,1.09999999999999);
#455=CIRCLE('',#1117,1.1);
#456=CIRCLE('',#1118,1.09999999999999);
#457=CIRCLE('',#1120,1.1);
#458=CIRCLE('',#1121,1.09999999999999);
#459=CIRCLE('',#1123,3.00000000000001);
#460=CIRCLE('',#1124,3.00000000000001);
#461=CIRCLE('',#1125,47.5000000000002);
#462=CIRCLE('',#1126,3.00000000000001);
#463=CIRCLE('',#1127,3.00000000000001);
#464=CIRCLE('',#1131,47.5000000000002);
#465=CIRCLE('',#1133,3.00000000000001);
#466=CIRCLE('',#1134,3.00000000000001);
#467=CIRCLE('',#1135,3.00000000000001);
#468=CIRCLE('',#1136,3.00000000000001);
#469=VERTEX_POINT('',#1476);
#470=VERTEX_POINT('',#1478);
#471=VERTEX_POINT('',#1482);
#472=VERTEX_POINT('',#1486);
#473=VERTEX_POINT('',#1488);
#474=VERTEX_POINT('',#1492);
#475=VERTEX_POINT('',#1496);
#476=VERTEX_POINT('',#1497);
#477=VERTEX_POINT('',#1499);
#478=VERTEX_POINT('',#1501);
#479=VERTEX_POINT('',#1503);
#480=VERTEX_POINT('',#1505);
#481=VERTEX_POINT('',#1507);
#482=VERTEX_POINT('',#1509);
#483=VERTEX_POINT('',#1511);
#484=VERTEX_POINT('',#1513);
#485=VERTEX_POINT('',#1515);
#486=VERTEX_POINT('',#1517);
#487=VERTEX_POINT('',#1521);
#488=VERTEX_POINT('',#1522);
#489=VERTEX_POINT('',#1525);
#490=VERTEX_POINT('',#1529);
#491=VERTEX_POINT('',#1531);
#492=VERTEX_POINT('',#1533);
#493=VERTEX_POINT('',#1535);
#494=VERTEX_POINT('',#1537);
#495=VERTEX_POINT('',#1539);
#496=VERTEX_POINT('',#1541);
#497=VERTEX_POINT('',#1543);
#498=VERTEX_POINT('',#1545);
#499=VERTEX_POINT('',#1549);
#500=VERTEX_POINT('',#1551);
#501=VERTEX_POINT('',#1555);
#502=VERTEX_POINT('',#1557);
#503=VERTEX_POINT('',#1561);
#504=VERTEX_POINT('',#1563);
#505=VERTEX_POINT('',#1567);
#506=VERTEX_POINT('',#1569);
#507=VERTEX_POINT('',#1574);
#508=VERTEX_POINT('',#1576);
#509=VERTEX_POINT('',#1578);
#510=VERTEX_POINT('',#1580);
#511=VERTEX_POINT('',#1582);
#512=VERTEX_POINT('',#1584);
#513=VERTEX_POINT('',#1589);
#514=VERTEX_POINT('',#1590);
#515=VERTEX_POINT('',#1592);
#516=VERTEX_POINT('',#1594);
#517=VERTEX_POINT('',#1596);
#518=VERTEX_POINT('',#1598);
#519=VERTEX_POINT('',#1601);
#520=VERTEX_POINT('',#1602);
#521=VERTEX_POINT('',#1604);
#522=VERTEX_POINT('',#1606);
#523=VERTEX_POINT('',#1608);
#524=VERTEX_POINT('',#1610);
#525=VERTEX_POINT('',#1616);
#526=VERTEX_POINT('',#1617);
#527=VERTEX_POINT('',#1622);
#528=VERTEX_POINT('',#1623);
#529=VERTEX_POINT('',#1626);
#530=VERTEX_POINT('',#1628);
#531=VERTEX_POINT('',#1634);
#532=VERTEX_POINT('',#1635);
#533=VERTEX_POINT('',#1637);
#534=VERTEX_POINT('',#1639);
#535=VERTEX_POINT('',#1641);
#536=VERTEX_POINT('',#1643);
#537=VERTEX_POINT('',#1646);
#538=VERTEX_POINT('',#1647);
#539=VERTEX_POINT('',#1649);
#540=VERTEX_POINT('',#1651);
#541=VERTEX_POINT('',#1653);
#542=VERTEX_POINT('',#1655);
#543=VERTEX_POINT('',#1677);
#544=VERTEX_POINT('',#1678);
#545=VERTEX_POINT('',#1680);
#546=VERTEX_POINT('',#1682);
#547=VERTEX_POINT('',#1684);
#548=VERTEX_POINT('',#1686);
#549=VERTEX_POINT('',#1702);
#550=VERTEX_POINT('',#1703);
#551=VERTEX_POINT('',#1705);
#552=VERTEX_POINT('',#1707);
#553=VERTEX_POINT('',#1709);
#554=VERTEX_POINT('',#1711);
#555=VERTEX_POINT('',#1727);
#556=VERTEX_POINT('',#1728);
#557=VERTEX_POINT('',#1730);
#558=VERTEX_POINT('',#1732);
#559=VERTEX_POINT('',#1734);
#560=VERTEX_POINT('',#1736);
#561=VERTEX_POINT('',#1752);
#562=VERTEX_POINT('',#1753);
#563=VERTEX_POINT('',#1755);
#564=VERTEX_POINT('',#1757);
#565=VERTEX_POINT('',#1759);
#566=VERTEX_POINT('',#1761);
#567=EDGE_CURVE('',#469,#469,#431,.T.);
#568=EDGE_CURVE('',#469,#470,#211,.T.);
#569=EDGE_CURVE('',#470,#470,#432,.T.);
#570=EDGE_CURVE('',#471,#471,#433,.T.);
#571=EDGE_CURVE('',#471,#469,#212,.T.);
#572=EDGE_CURVE('',#472,#472,#434,.T.);
#573=EDGE_CURVE('',#472,#473,#213,.T.);
#574=EDGE_CURVE('',#473,#473,#435,.T.);
#575=EDGE_CURVE('',#474,#474,#436,.T.);
#576=EDGE_CURVE('',#474,#472,#214,.T.);
#577=EDGE_CURVE('',#475,#476,#437,.T.);
#578=EDGE_CURVE('',#475,#477,#215,.T.);
#579=EDGE_CURVE('',#477,#478,#438,.T.);
#580=EDGE_CURVE('',#478,#479,#216,.T.);
#581=EDGE_CURVE('',#480,#479,#439,.T.);
#582=EDGE_CURVE('',#480,#481,#217,.T.);
#583=EDGE_CURVE('',#481,#482,#440,.T.);
#584=EDGE_CURVE('',#482,#483,#218,.T.);
#585=EDGE_CURVE('',#484,#483,#441,.T.);
#586=EDGE_CURVE('',#484,#485,#219,.T.);
#587=EDGE_CURVE('',#485,#486,#442,.T.);
#588=EDGE_CURVE('',#486,#476,#220,.T.);
#589=EDGE_CURVE('',#487,#488,#443,.T.);
#590=EDGE_CURVE('',#488,#487,#444,.T.);
#591=EDGE_CURVE('',#488,#489,#221,.T.);
#592=EDGE_CURVE('',#489,#489,#445,.T.);
#593=EDGE_CURVE('',#487,#490,#222,.T.);
#594=EDGE_CURVE('',#491,#490,#446,.T.);
#595=EDGE_CURVE('',#491,#492,#223,.T.);
#596=EDGE_CURVE('',#492,#493,#447,.T.);
#597=EDGE_CURVE('',#493,#494,#224,.T.);
#598=EDGE_CURVE('',#495,#494,#448,.T.);
#599=EDGE_CURVE('',#495,#496,#225,.T.);
#600=EDGE_CURVE('',#496,#497,#449,.T.);
#601=EDGE_CURVE('',#497,#498,#226,.T.);
#602=EDGE_CURVE('',#490,#498,#450,.T.);
#603=EDGE_CURVE('',#499,#499,#451,.T.);
#604=EDGE_CURVE('',#499,#500,#227,.T.);
#605=EDGE_CURVE('',#500,#500,#452,.T.);
#606=EDGE_CURVE('',#501,#501,#453,.T.);
#607=EDGE_CURVE('',#501,#502,#228,.T.);
#608=EDGE_CURVE('',#502,#502,#454,.T.);
#609=EDGE_CURVE('',#503,#503,#455,.T.);
#610=EDGE_CURVE('',#503,#504,#229,.T.);
#611=EDGE_CURVE('',#504,#504,#456,.T.);
#612=EDGE_CURVE('',#505,#505,#457,.T.);
#613=EDGE_CURVE('',#505,#506,#230,.T.);
#614=EDGE_CURVE('',#506,#506,#458,.T.);
#615=EDGE_CURVE('',#478,#485,#231,.T.);
#616=EDGE_CURVE('',#477,#507,#459,.T.);
#617=EDGE_CURVE('',#508,#507,#232,.T.);
#618=EDGE_CURVE('',#508,#509,#460,.T.);
#619=EDGE_CURVE('',#509,#510,#461,.T.);
#620=EDGE_CURVE('',#510,#511,#462,.T.);
#621=EDGE_CURVE('',#512,#511,#233,.T.);
#622=EDGE_CURVE('',#512,#486,#463,.T.);
#623=EDGE_CURVE('',#492,#493,#234,.T.);
#624=EDGE_CURVE('',#513,#514,#235,.T.);
#625=EDGE_CURVE('',#515,#513,#236,.T.);
#626=EDGE_CURVE('',#516,#515,#237,.T.);
#627=EDGE_CURVE('',#517,#516,#238,.T.);
#628=EDGE_CURVE('',#518,#517,#239,.T.);
#629=EDGE_CURVE('',#514,#518,#240,.T.);
#630=EDGE_CURVE('',#519,#520,#241,.T.);
#631=EDGE_CURVE('',#521,#519,#242,.T.);
#632=EDGE_CURVE('',#522,#521,#243,.T.);
#633=EDGE_CURVE('',#523,#522,#244,.T.);
#634=EDGE_CURVE('',#524,#523,#245,.T.);
#635=EDGE_CURVE('',#520,#524,#246,.T.);
#636=EDGE_CURVE('',#482,#481,#247,.T.);
#637=EDGE_CURVE('',#525,#526,#464,.T.);
#638=EDGE_CURVE('',#526,#510,#248,.T.);
#639=EDGE_CURVE('',#509,#525,#249,.T.);
#640=EDGE_CURVE('',#527,#528,#250,.T.);
#641=EDGE_CURVE('',#528,#526,#465,.T.);
#642=EDGE_CURVE('',#525,#529,#466,.T.);
#643=EDGE_CURVE('',#529,#530,#251,.T.);
#644=EDGE_CURVE('',#530,#475,#467,.T.);
#645=EDGE_CURVE('',#476,#527,#468,.T.);
#646=EDGE_CURVE('',#496,#497,#252,.T.);
#647=EDGE_CURVE('',#531,#532,#253,.T.);
#648=EDGE_CURVE('',#533,#531,#254,.T.);
#649=EDGE_CURVE('',#534,#533,#255,.T.);
#650=EDGE_CURVE('',#535,#534,#256,.T.);
#651=EDGE_CURVE('',#536,#535,#257,.T.);
#652=EDGE_CURVE('',#532,#536,#258,.T.);
#653=EDGE_CURVE('',#537,#538,#259,.T.);
#654=EDGE_CURVE('',#539,#537,#260,.T.);
#655=EDGE_CURVE('',#540,#539,#261,.T.);
#656=EDGE_CURVE('',#541,#540,#262,.T.);
#657=EDGE_CURVE('',#542,#541,#263,.T.);
#658=EDGE_CURVE('',#538,#542,#264,.T.);
#659=EDGE_CURVE('',#529,#508,#265,.T.);
#660=EDGE_CURVE('',#507,#530,#266,.T.);
#661=EDGE_CURVE('',#511,#528,#267,.T.);
#662=EDGE_CURVE('',#527,#512,#268,.T.);
#663=EDGE_CURVE('',#479,#491,#269,.T.);
#664=EDGE_CURVE('',#494,#484,#270,.T.);
#665=EDGE_CURVE('',#483,#495,#271,.T.);
#666=EDGE_CURVE('',#498,#480,#272,.T.);
#667=EDGE_CURVE('',#543,#544,#273,.T.);
#668=EDGE_CURVE('',#544,#545,#274,.T.);
#669=EDGE_CURVE('',#545,#546,#275,.T.);
#670=EDGE_CURVE('',#546,#547,#276,.T.);
#671=EDGE_CURVE('',#547,#548,#277,.T.);
#672=EDGE_CURVE('',#548,#543,#278,.T.);
#673=EDGE_CURVE('',#544,#531,#279,.T.);
#674=EDGE_CURVE('',#543,#533,#280,.T.);
#675=EDGE_CURVE('',#548,#534,#281,.T.);
#676=EDGE_CURVE('',#547,#535,#282,.T.);
#677=EDGE_CURVE('',#546,#536,#283,.T.);
#678=EDGE_CURVE('',#545,#532,#284,.T.);
#679=EDGE_CURVE('',#549,#550,#285,.T.);
#680=EDGE_CURVE('',#550,#551,#286,.T.);
#681=EDGE_CURVE('',#551,#552,#287,.T.);
#682=EDGE_CURVE('',#552,#553,#288,.T.);
#683=EDGE_CURVE('',#553,#554,#289,.T.);
#684=EDGE_CURVE('',#554,#549,#290,.T.);
#685=EDGE_CURVE('',#550,#537,#291,.T.);
#686=EDGE_CURVE('',#549,#539,#292,.T.);
#687=EDGE_CURVE('',#554,#540,#293,.T.);
#688=EDGE_CURVE('',#553,#541,#294,.T.);
#689=EDGE_CURVE('',#552,#542,#295,.T.);
#690=EDGE_CURVE('',#551,#538,#296,.T.);
#691=EDGE_CURVE('',#555,#556,#297,.T.);
#692=EDGE_CURVE('',#556,#557,#298,.T.);
#693=EDGE_CURVE('',#557,#558,#299,.T.);
#694=EDGE_CURVE('',#558,#559,#300,.T.);
#695=EDGE_CURVE('',#559,#560,#301,.T.);
#696=EDGE_CURVE('',#560,#555,#302,.T.);
#697=EDGE_CURVE('',#556,#513,#303,.T.);
#698=EDGE_CURVE('',#555,#515,#304,.T.);
#699=EDGE_CURVE('',#560,#516,#305,.T.);
#700=EDGE_CURVE('',#559,#517,#306,.T.);
#701=EDGE_CURVE('',#558,#518,#307,.T.);
#702=EDGE_CURVE('',#557,#514,#308,.T.);
#703=EDGE_CURVE('',#561,#562,#309,.T.);
#704=EDGE_CURVE('',#562,#563,#310,.T.);
#705=EDGE_CURVE('',#563,#564,#311,.T.);
#706=EDGE_CURVE('',#564,#565,#312,.T.);
#707=EDGE_CURVE('',#565,#566,#313,.T.);
#708=EDGE_CURVE('',#566,#561,#314,.T.);
#709=EDGE_CURVE('',#562,#519,#315,.T.);
#710=EDGE_CURVE('',#561,#521,#316,.T.);
#711=EDGE_CURVE('',#566,#522,#317,.T.);
#712=EDGE_CURVE('',#565,#523,#318,.T.);
#713=EDGE_CURVE('',#564,#524,#319,.T.);
#714=EDGE_CURVE('',#563,#520,#320,.T.);
#715=ORIENTED_EDGE('',*,*,#567,.F.);
#716=ORIENTED_EDGE('',*,*,#568,.T.);
#717=ORIENTED_EDGE('',*,*,#569,.T.);
#718=ORIENTED_EDGE('',*,*,#568,.F.);
#719=ORIENTED_EDGE('',*,*,#570,.F.);
#720=ORIENTED_EDGE('',*,*,#571,.T.);
#721=ORIENTED_EDGE('',*,*,#567,.T.);
#722=ORIENTED_EDGE('',*,*,#571,.F.);
#723=ORIENTED_EDGE('',*,*,#572,.F.);
#724=ORIENTED_EDGE('',*,*,#573,.T.);
#725=ORIENTED_EDGE('',*,*,#574,.T.);
#726=ORIENTED_EDGE('',*,*,#573,.F.);
#727=ORIENTED_EDGE('',*,*,#575,.F.);
#728=ORIENTED_EDGE('',*,*,#576,.T.);
#729=ORIENTED_EDGE('',*,*,#572,.T.);
#730=ORIENTED_EDGE('',*,*,#576,.F.);
#731=ORIENTED_EDGE('',*,*,#577,.F.);
#732=ORIENTED_EDGE('',*,*,#578,.T.);
#733=ORIENTED_EDGE('',*,*,#579,.T.);
#734=ORIENTED_EDGE('',*,*,#580,.T.);
#735=ORIENTED_EDGE('',*,*,#581,.F.);
#736=ORIENTED_EDGE('',*,*,#582,.T.);
#737=ORIENTED_EDGE('',*,*,#583,.T.);
#738=ORIENTED_EDGE('',*,*,#584,.T.);
#739=ORIENTED_EDGE('',*,*,#585,.F.);
#740=ORIENTED_EDGE('',*,*,#586,.T.);
#741=ORIENTED_EDGE('',*,*,#587,.T.);
#742=ORIENTED_EDGE('',*,*,#588,.T.);
#743=ORIENTED_EDGE('',*,*,#589,.F.);
#744=ORIENTED_EDGE('',*,*,#590,.F.);
#745=ORIENTED_EDGE('',*,*,#591,.T.);
#746=ORIENTED_EDGE('',*,*,#592,.F.);
#747=ORIENTED_EDGE('',*,*,#591,.F.);
#748=ORIENTED_EDGE('',*,*,#589,.T.);
#749=ORIENTED_EDGE('',*,*,#590,.T.);
#750=ORIENTED_EDGE('',*,*,#593,.T.);
#751=ORIENTED_EDGE('',*,*,#594,.F.);
#752=ORIENTED_EDGE('',*,*,#595,.T.);
#753=ORIENTED_EDGE('',*,*,#596,.T.);
#754=ORIENTED_EDGE('',*,*,#597,.T.);
#755=ORIENTED_EDGE('',*,*,#598,.F.);
#756=ORIENTED_EDGE('',*,*,#599,.T.);
#757=ORIENTED_EDGE('',*,*,#600,.T.);
#758=ORIENTED_EDGE('',*,*,#601,.T.);
#759=ORIENTED_EDGE('',*,*,#602,.F.);
#760=ORIENTED_EDGE('',*,*,#593,.F.);
#761=ORIENTED_EDGE('',*,*,#603,.F.);
#762=ORIENTED_EDGE('',*,*,#604,.T.);
#763=ORIENTED_EDGE('',*,*,#605,.T.);
#764=ORIENTED_EDGE('',*,*,#604,.F.);
#765=ORIENTED_EDGE('',*,*,#606,.F.);
#766=ORIENTED_EDGE('',*,*,#607,.T.);
#767=ORIENTED_EDGE('',*,*,#608,.T.);
#768=ORIENTED_EDGE('',*,*,#607,.F.);
#769=ORIENTED_EDGE('',*,*,#609,.F.);
#770=ORIENTED_EDGE('',*,*,#610,.T.);
#771=ORIENTED_EDGE('',*,*,#611,.T.);
#772=ORIENTED_EDGE('',*,*,#610,.F.);
#773=ORIENTED_EDGE('',*,*,#612,.F.);
#774=ORIENTED_EDGE('',*,*,#613,.T.);
#775=ORIENTED_EDGE('',*,*,#614,.T.);
#776=ORIENTED_EDGE('',*,*,#613,.F.);
#777=ORIENTED_EDGE('',*,*,#587,.F.);
#778=ORIENTED_EDGE('',*,*,#615,.F.);
#779=ORIENTED_EDGE('',*,*,#579,.F.);
#780=ORIENTED_EDGE('',*,*,#616,.T.);
#781=ORIENTED_EDGE('',*,*,#617,.F.);
#782=ORIENTED_EDGE('',*,*,#618,.T.);
#783=ORIENTED_EDGE('',*,*,#619,.T.);
#784=ORIENTED_EDGE('',*,*,#620,.T.);
#785=ORIENTED_EDGE('',*,*,#621,.F.);
#786=ORIENTED_EDGE('',*,*,#622,.T.);
#787=ORIENTED_EDGE('',*,*,#611,.F.);
#788=ORIENTED_EDGE('',*,*,#614,.F.);
#789=ORIENTED_EDGE('',*,*,#574,.F.);
#790=ORIENTED_EDGE('',*,*,#569,.F.);
#791=ORIENTED_EDGE('',*,*,#596,.F.);
#792=ORIENTED_EDGE('',*,*,#623,.T.);
#793=ORIENTED_EDGE('',*,*,#624,.F.);
#794=ORIENTED_EDGE('',*,*,#625,.F.);
#795=ORIENTED_EDGE('',*,*,#626,.F.);
#796=ORIENTED_EDGE('',*,*,#627,.F.);
#797=ORIENTED_EDGE('',*,*,#628,.F.);
#798=ORIENTED_EDGE('',*,*,#629,.F.);
#799=ORIENTED_EDGE('',*,*,#630,.F.);
#800=ORIENTED_EDGE('',*,*,#631,.F.);
#801=ORIENTED_EDGE('',*,*,#632,.F.);
#802=ORIENTED_EDGE('',*,*,#633,.F.);
#803=ORIENTED_EDGE('',*,*,#634,.F.);
#804=ORIENTED_EDGE('',*,*,#635,.F.);
#805=ORIENTED_EDGE('',*,*,#583,.F.);
#806=ORIENTED_EDGE('',*,*,#636,.F.);
#807=ORIENTED_EDGE('',*,*,#605,.F.);
#808=ORIENTED_EDGE('',*,*,#608,.F.);
#809=ORIENTED_EDGE('',*,*,#637,.T.);
#810=ORIENTED_EDGE('',*,*,#638,.T.);
#811=ORIENTED_EDGE('',*,*,#619,.F.);
#812=ORIENTED_EDGE('',*,*,#639,.T.);
#813=ORIENTED_EDGE('',*,*,#640,.T.);
#814=ORIENTED_EDGE('',*,*,#641,.T.);
#815=ORIENTED_EDGE('',*,*,#637,.F.);
#816=ORIENTED_EDGE('',*,*,#642,.T.);
#817=ORIENTED_EDGE('',*,*,#643,.T.);
#818=ORIENTED_EDGE('',*,*,#644,.T.);
#819=ORIENTED_EDGE('',*,*,#577,.T.);
#820=ORIENTED_EDGE('',*,*,#645,.T.);
#821=ORIENTED_EDGE('',*,*,#570,.T.);
#822=ORIENTED_EDGE('',*,*,#575,.T.);
#823=ORIENTED_EDGE('',*,*,#592,.T.);
#824=ORIENTED_EDGE('',*,*,#600,.F.);
#825=ORIENTED_EDGE('',*,*,#646,.T.);
#826=ORIENTED_EDGE('',*,*,#647,.F.);
#827=ORIENTED_EDGE('',*,*,#648,.F.);
#828=ORIENTED_EDGE('',*,*,#649,.F.);
#829=ORIENTED_EDGE('',*,*,#650,.F.);
#830=ORIENTED_EDGE('',*,*,#651,.F.);
#831=ORIENTED_EDGE('',*,*,#652,.F.);
#832=ORIENTED_EDGE('',*,*,#653,.F.);
#833=ORIENTED_EDGE('',*,*,#654,.F.);
#834=ORIENTED_EDGE('',*,*,#655,.F.);
#835=ORIENTED_EDGE('',*,*,#656,.F.);
#836=ORIENTED_EDGE('',*,*,#657,.F.);
#837=ORIENTED_EDGE('',*,*,#658,.F.);
#838=ORIENTED_EDGE('',*,*,#643,.F.);
#839=ORIENTED_EDGE('',*,*,#659,.T.);
#840=ORIENTED_EDGE('',*,*,#617,.T.);
#841=ORIENTED_EDGE('',*,*,#660,.T.);
#842=ORIENTED_EDGE('',*,*,#621,.T.);
#843=ORIENTED_EDGE('',*,*,#661,.T.);
#844=ORIENTED_EDGE('',*,*,#640,.F.);
#845=ORIENTED_EDGE('',*,*,#662,.T.);
#846=ORIENTED_EDGE('',*,*,#641,.F.);
#847=ORIENTED_EDGE('',*,*,#661,.F.);
#848=ORIENTED_EDGE('',*,*,#620,.F.);
#849=ORIENTED_EDGE('',*,*,#638,.F.);
#850=ORIENTED_EDGE('',*,*,#642,.F.);
#851=ORIENTED_EDGE('',*,*,#639,.F.);
#852=ORIENTED_EDGE('',*,*,#618,.F.);
#853=ORIENTED_EDGE('',*,*,#659,.F.);
#854=ORIENTED_EDGE('',*,*,#644,.F.);
#855=ORIENTED_EDGE('',*,*,#660,.F.);
#856=ORIENTED_EDGE('',*,*,#616,.F.);
#857=ORIENTED_EDGE('',*,*,#578,.F.);
#858=ORIENTED_EDGE('',*,*,#645,.F.);
#859=ORIENTED_EDGE('',*,*,#588,.F.);
#860=ORIENTED_EDGE('',*,*,#622,.F.);
#861=ORIENTED_EDGE('',*,*,#662,.F.);
#862=ORIENTED_EDGE('',*,*,#623,.F.);
#863=ORIENTED_EDGE('',*,*,#595,.F.);
#864=ORIENTED_EDGE('',*,*,#663,.F.);
#865=ORIENTED_EDGE('',*,*,#580,.F.);
#866=ORIENTED_EDGE('',*,*,#615,.T.);
#867=ORIENTED_EDGE('',*,*,#586,.F.);
#868=ORIENTED_EDGE('',*,*,#664,.F.);
#869=ORIENTED_EDGE('',*,*,#597,.F.);
#870=ORIENTED_EDGE('',*,*,#646,.F.);
#871=ORIENTED_EDGE('',*,*,#599,.F.);
#872=ORIENTED_EDGE('',*,*,#665,.F.);
#873=ORIENTED_EDGE('',*,*,#584,.F.);
#874=ORIENTED_EDGE('',*,*,#636,.T.);
#875=ORIENTED_EDGE('',*,*,#582,.F.);
#876=ORIENTED_EDGE('',*,*,#666,.F.);
#877=ORIENTED_EDGE('',*,*,#601,.F.);
#878=ORIENTED_EDGE('',*,*,#594,.T.);
#879=ORIENTED_EDGE('',*,*,#602,.T.);
#880=ORIENTED_EDGE('',*,*,#666,.T.);
#881=ORIENTED_EDGE('',*,*,#581,.T.);
#882=ORIENTED_EDGE('',*,*,#663,.T.);
#883=ORIENTED_EDGE('',*,*,#598,.T.);
#884=ORIENTED_EDGE('',*,*,#664,.T.);
#885=ORIENTED_EDGE('',*,*,#585,.T.);
#886=ORIENTED_EDGE('',*,*,#665,.T.);
#887=ORIENTED_EDGE('',*,*,#667,.T.);
#888=ORIENTED_EDGE('',*,*,#668,.T.);
#889=ORIENTED_EDGE('',*,*,#669,.T.);
#890=ORIENTED_EDGE('',*,*,#670,.T.);
#891=ORIENTED_EDGE('',*,*,#671,.T.);
#892=ORIENTED_EDGE('',*,*,#672,.T.);
#893=ORIENTED_EDGE('',*,*,#603,.T.);
#894=ORIENTED_EDGE('',*,*,#648,.T.);
#895=ORIENTED_EDGE('',*,*,#673,.F.);
#896=ORIENTED_EDGE('',*,*,#667,.F.);
#897=ORIENTED_EDGE('',*,*,#674,.T.);
#898=ORIENTED_EDGE('',*,*,#649,.T.);
#899=ORIENTED_EDGE('',*,*,#674,.F.);
#900=ORIENTED_EDGE('',*,*,#672,.F.);
#901=ORIENTED_EDGE('',*,*,#675,.T.);
#902=ORIENTED_EDGE('',*,*,#650,.T.);
#903=ORIENTED_EDGE('',*,*,#675,.F.);
#904=ORIENTED_EDGE('',*,*,#671,.F.);
#905=ORIENTED_EDGE('',*,*,#676,.T.);
#906=ORIENTED_EDGE('',*,*,#651,.T.);
#907=ORIENTED_EDGE('',*,*,#676,.F.);
#908=ORIENTED_EDGE('',*,*,#670,.F.);
#909=ORIENTED_EDGE('',*,*,#677,.T.);
#910=ORIENTED_EDGE('',*,*,#652,.T.);
#911=ORIENTED_EDGE('',*,*,#677,.F.);
#912=ORIENTED_EDGE('',*,*,#669,.F.);
#913=ORIENTED_EDGE('',*,*,#678,.T.);
#914=ORIENTED_EDGE('',*,*,#647,.T.);
#915=ORIENTED_EDGE('',*,*,#678,.F.);
#916=ORIENTED_EDGE('',*,*,#668,.F.);
#917=ORIENTED_EDGE('',*,*,#673,.T.);
#918=ORIENTED_EDGE('',*,*,#679,.T.);
#919=ORIENTED_EDGE('',*,*,#680,.T.);
#920=ORIENTED_EDGE('',*,*,#681,.T.);
#921=ORIENTED_EDGE('',*,*,#682,.T.);
#922=ORIENTED_EDGE('',*,*,#683,.T.);
#923=ORIENTED_EDGE('',*,*,#684,.T.);
#924=ORIENTED_EDGE('',*,*,#606,.T.);
#925=ORIENTED_EDGE('',*,*,#654,.T.);
#926=ORIENTED_EDGE('',*,*,#685,.F.);
#927=ORIENTED_EDGE('',*,*,#679,.F.);
#928=ORIENTED_EDGE('',*,*,#686,.T.);
#929=ORIENTED_EDGE('',*,*,#655,.T.);
#930=ORIENTED_EDGE('',*,*,#686,.F.);
#931=ORIENTED_EDGE('',*,*,#684,.F.);
#932=ORIENTED_EDGE('',*,*,#687,.T.);
#933=ORIENTED_EDGE('',*,*,#656,.T.);
#934=ORIENTED_EDGE('',*,*,#687,.F.);
#935=ORIENTED_EDGE('',*,*,#683,.F.);
#936=ORIENTED_EDGE('',*,*,#688,.T.);
#937=ORIENTED_EDGE('',*,*,#657,.T.);
#938=ORIENTED_EDGE('',*,*,#688,.F.);
#939=ORIENTED_EDGE('',*,*,#682,.F.);
#940=ORIENTED_EDGE('',*,*,#689,.T.);
#941=ORIENTED_EDGE('',*,*,#658,.T.);
#942=ORIENTED_EDGE('',*,*,#689,.F.);
#943=ORIENTED_EDGE('',*,*,#681,.F.);
#944=ORIENTED_EDGE('',*,*,#690,.T.);
#945=ORIENTED_EDGE('',*,*,#653,.T.);
#946=ORIENTED_EDGE('',*,*,#690,.F.);
#947=ORIENTED_EDGE('',*,*,#680,.F.);
#948=ORIENTED_EDGE('',*,*,#685,.T.);
#949=ORIENTED_EDGE('',*,*,#691,.T.);
#950=ORIENTED_EDGE('',*,*,#692,.T.);
#951=ORIENTED_EDGE('',*,*,#693,.T.);
#952=ORIENTED_EDGE('',*,*,#694,.T.);
#953=ORIENTED_EDGE('',*,*,#695,.T.);
#954=ORIENTED_EDGE('',*,*,#696,.T.);
#955=ORIENTED_EDGE('',*,*,#609,.T.);
#956=ORIENTED_EDGE('',*,*,#625,.T.);
#957=ORIENTED_EDGE('',*,*,#697,.F.);
#958=ORIENTED_EDGE('',*,*,#691,.F.);
#959=ORIENTED_EDGE('',*,*,#698,.T.);
#960=ORIENTED_EDGE('',*,*,#626,.T.);
#961=ORIENTED_EDGE('',*,*,#698,.F.);
#962=ORIENTED_EDGE('',*,*,#696,.F.);
#963=ORIENTED_EDGE('',*,*,#699,.T.);
#964=ORIENTED_EDGE('',*,*,#627,.T.);
#965=ORIENTED_EDGE('',*,*,#699,.F.);
#966=ORIENTED_EDGE('',*,*,#695,.F.);
#967=ORIENTED_EDGE('',*,*,#700,.T.);
#968=ORIENTED_EDGE('',*,*,#628,.T.);
#969=ORIENTED_EDGE('',*,*,#700,.F.);
#970=ORIENTED_EDGE('',*,*,#694,.F.);
#971=ORIENTED_EDGE('',*,*,#701,.T.);
#972=ORIENTED_EDGE('',*,*,#629,.T.);
#973=ORIENTED_EDGE('',*,*,#701,.F.);
#974=ORIENTED_EDGE('',*,*,#693,.F.);
#975=ORIENTED_EDGE('',*,*,#702,.T.);
#976=ORIENTED_EDGE('',*,*,#624,.T.);
#977=ORIENTED_EDGE('',*,*,#702,.F.);
#978=ORIENTED_EDGE('',*,*,#692,.F.);
#979=ORIENTED_EDGE('',*,*,#697,.T.);
#980=ORIENTED_EDGE('',*,*,#703,.T.);
#981=ORIENTED_EDGE('',*,*,#704,.T.);
#982=ORIENTED_EDGE('',*,*,#705,.T.);
#983=ORIENTED_EDGE('',*,*,#706,.T.);
#984=ORIENTED_EDGE('',*,*,#707,.T.);
#985=ORIENTED_EDGE('',*,*,#708,.T.);
#986=ORIENTED_EDGE('',*,*,#612,.T.);
#987=ORIENTED_EDGE('',*,*,#631,.T.);
#988=ORIENTED_EDGE('',*,*,#709,.F.);
#989=ORIENTED_EDGE('',*,*,#703,.F.);
#990=ORIENTED_EDGE('',*,*,#710,.T.);
#991=ORIENTED_EDGE('',*,*,#632,.T.);
#992=ORIENTED_EDGE('',*,*,#710,.F.);
#993=ORIENTED_EDGE('',*,*,#708,.F.);
#994=ORIENTED_EDGE('',*,*,#711,.T.);
#995=ORIENTED_EDGE('',*,*,#633,.T.);
#996=ORIENTED_EDGE('',*,*,#711,.F.);
#997=ORIENTED_EDGE('',*,*,#707,.F.);
#998=ORIENTED_EDGE('',*,*,#712,.T.);
#999=ORIENTED_EDGE('',*,*,#634,.T.);
#1000=ORIENTED_EDGE('',*,*,#712,.F.);
#1001=ORIENTED_EDGE('',*,*,#706,.F.);
#1002=ORIENTED_EDGE('',*,*,#713,.T.);
#1003=ORIENTED_EDGE('',*,*,#635,.T.);
#1004=ORIENTED_EDGE('',*,*,#713,.F.);
#1005=ORIENTED_EDGE('',*,*,#705,.F.);
#1006=ORIENTED_EDGE('',*,*,#714,.T.);
#1007=ORIENTED_EDGE('',*,*,#630,.T.);
#1008=ORIENTED_EDGE('',*,*,#714,.F.);
#1009=ORIENTED_EDGE('',*,*,#704,.F.);
#1010=ORIENTED_EDGE('',*,*,#709,.T.);
#1011=CONICAL_SURFACE('',#1083,3.15000000000001,0.785398163397447);
#1012=CONICAL_SURFACE('',#1088,3.15000000000001,0.785398163397447);
#1013=CONICAL_SURFACE('',#1100,37.2000000000002,0.785398163397466);
#1014=ADVANCED_FACE('',(#84),#1011,.F.);
#1015=ADVANCED_FACE('',(#85),#71,.F.);
#1016=ADVANCED_FACE('',(#86),#1012,.F.);
#1017=ADVANCED_FACE('',(#87),#72,.F.);
#1018=ADVANCED_FACE('',(#88),#73,.T.);
#1019=ADVANCED_FACE('',(#89),#1013,.F.);
#1020=ADVANCED_FACE('',(#90),#74,.F.);
#1021=ADVANCED_FACE('',(#91),#75,.F.);
#1022=ADVANCED_FACE('',(#92),#76,.F.);
#1023=ADVANCED_FACE('',(#93),#77,.F.);
#1024=ADVANCED_FACE('',(#94),#78,.F.);
#1025=ADVANCED_FACE('',(#95,#15,#16,#17,#18),#32,.F.);
#1026=ADVANCED_FACE('',(#96,#19,#20),#33,.F.);
#1027=ADVANCED_FACE('',(#97,#21,#22),#34,.F.);
#1028=ADVANCED_FACE('',(#98),#79,.T.);
#1029=ADVANCED_FACE('',(#99,#23,#24,#25),#35,.F.);
#1030=ADVANCED_FACE('',(#100,#26,#27),#36,.F.);
#1031=ADVANCED_FACE('',(#101),#37,.F.);
#1032=ADVANCED_FACE('',(#102),#38,.F.);
#1033=ADVANCED_FACE('',(#103),#80,.T.);
#1034=ADVANCED_FACE('',(#104),#81,.T.);
#1035=ADVANCED_FACE('',(#105),#82,.F.);
#1036=ADVANCED_FACE('',(#106),#83,.F.);
#1037=ADVANCED_FACE('',(#107),#39,.F.);
#1038=ADVANCED_FACE('',(#108),#40,.F.);
#1039=ADVANCED_FACE('',(#109),#41,.T.);
#1040=ADVANCED_FACE('',(#110),#42,.T.);
#1041=ADVANCED_FACE('',(#111,#28),#43,.T.);
#1042=ADVANCED_FACE('',(#112),#44,.F.);
#1043=ADVANCED_FACE('',(#113),#45,.F.);
#1044=ADVANCED_FACE('',(#114),#46,.F.);
#1045=ADVANCED_FACE('',(#115),#47,.F.);
#1046=ADVANCED_FACE('',(#116),#48,.F.);
#1047=ADVANCED_FACE('',(#117),#49,.F.);
#1048=ADVANCED_FACE('',(#118,#29),#50,.T.);
#1049=ADVANCED_FACE('',(#119),#51,.F.);
#1050=ADVANCED_FACE('',(#120),#52,.F.);
#1051=ADVANCED_FACE('',(#121),#53,.F.);
#1052=ADVANCED_FACE('',(#122),#54,.F.);
#1053=ADVANCED_FACE('',(#123),#55,.F.);
#1054=ADVANCED_FACE('',(#124),#56,.F.);
#1055=ADVANCED_FACE('',(#125,#30),#57,.T.);
#1056=ADVANCED_FACE('',(#126),#58,.F.);
#1057=ADVANCED_FACE('',(#127),#59,.F.);
#1058=ADVANCED_FACE('',(#128),#60,.F.);
#1059=ADVANCED_FACE('',(#129),#61,.F.);
#1060=ADVANCED_FACE('',(#130),#62,.F.);
#1061=ADVANCED_FACE('',(#131),#63,.F.);
#1062=ADVANCED_FACE('',(#132,#31),#64,.T.);
#1063=ADVANCED_FACE('',(#133),#65,.F.);
#1064=ADVANCED_FACE('',(#134),#66,.F.);
#1065=ADVANCED_FACE('',(#135),#67,.F.);
#1066=ADVANCED_FACE('',(#136),#68,.F.);
#1067=ADVANCED_FACE('',(#137),#69,.F.);
#1068=ADVANCED_FACE('',(#138),#70,.F.);
#1069=CLOSED_SHELL('',(#1014,#1015,#1016,#1017,#1018,#1019,#1020,#1021,
#1022,#1023,#1024,#1025,#1026,#1027,#1028,#1029,#1030,#1031,#1032,#1033,
#1034,#1035,#1036,#1037,#1038,#1039,#1040,#1041,#1042,#1043,#1044,#1045,
#1046,#1047,#1048,#1049,#1050,#1051,#1052,#1053,#1054,#1055,#1056,#1057,
#1058,#1059,#1060,#1061,#1062,#1063,#1064,#1065,#1066,#1067,#1068));
#1070=DERIVED_UNIT_ELEMENT(#1072,1.);
#1071=DERIVED_UNIT_ELEMENT(#1781,-3.);
#1072=(
MASS_UNIT()
NAMED_UNIT(*)
SI_UNIT(.KILO.,.GRAM.)
);
#1073=DERIVED_UNIT((#1070,#1071));
#1074=MEASURE_REPRESENTATION_ITEM('density measure',
POSITIVE_RATIO_MEASURE(7850.),#1073);
#1075=PROPERTY_DEFINITION_REPRESENTATION(#1080,#1077);
#1076=PROPERTY_DEFINITION_REPRESENTATION(#1081,#1078);
#1077=REPRESENTATION('material name',(#1079),#1778);
#1078=REPRESENTATION('density',(#1074),#1778);
#1079=DESCRIPTIVE_REPRESENTATION_ITEM('Steel','Steel');
#1080=PROPERTY_DEFINITION('material property','material name',#1788);
#1081=PROPERTY_DEFINITION('material property','density of part',#1788);
#1082=AXIS2_PLACEMENT_3D('',#1474,#1176,#1177);
#1083=AXIS2_PLACEMENT_3D('',#1475,#1178,#1179);
#1084=AXIS2_PLACEMENT_3D('',#1477,#1180,#1181);
#1085=AXIS2_PLACEMENT_3D('',#1480,#1183,#1184);
#1086=AXIS2_PLACEMENT_3D('',#1481,#1185,#1186);
#1087=AXIS2_PLACEMENT_3D('',#1483,#1187,#1188);
#1088=AXIS2_PLACEMENT_3D('',#1485,#1190,#1191);
#1089=AXIS2_PLACEMENT_3D('',#1487,#1192,#1193);
#1090=AXIS2_PLACEMENT_3D('',#1490,#1195,#1196);
#1091=AXIS2_PLACEMENT_3D('',#1491,#1197,#1198);
#1092=AXIS2_PLACEMENT_3D('',#1493,#1199,#1200);
#1093=AXIS2_PLACEMENT_3D('',#1495,#1202,#1203);
#1094=AXIS2_PLACEMENT_3D('',#1498,#1204,#1205);
#1095=AXIS2_PLACEMENT_3D('',#1502,#1207,#1208);
#1096=AXIS2_PLACEMENT_3D('',#1506,#1210,#1211);
#1097=AXIS2_PLACEMENT_3D('',#1510,#1213,#1214);
#1098=AXIS2_PLACEMENT_3D('',#1514,#1216,#1217);
#1099=AXIS2_PLACEMENT_3D('',#1518,#1219,#1220);
#1100=AXIS2_PLACEMENT_3D('',#1520,#1222,#1223);
#1101=AXIS2_PLACEMENT_3D('',#1523,#1224,#1225);
#1102=AXIS2_PLACEMENT_3D('',#1524,#1226,#1227);
#1103=AXIS2_PLACEMENT_3D('',#1527,#1229,#1230);
#1104=AXIS2_PLACEMENT_3D('',#1528,#1231,#1232);
#1105=AXIS2_PLACEMENT_3D('',#1532,#1234,#1235);
#1106=AXIS2_PLACEMENT_3D('',#1536,#1237,#1238);
#1107=AXIS2_PLACEMENT_3D('',#1540,#1240,#1241);
#1108=AXIS2_PLACEMENT_3D('',#1544,#1243,#1244);
#1109=AXIS2_PLACEMENT_3D('',#1547,#1246,#1247);
#1110=AXIS2_PLACEMENT_3D('',#1548,#1248,#1249);
#1111=AXIS2_PLACEMENT_3D('',#1550,#1250,#1251);
#1112=AXIS2_PLACEMENT_3D('',#1553,#1253,#1254);
#1113=AXIS2_PLACEMENT_3D('',#1554,#1255,#1256);
#1114=AXIS2_PLACEMENT_3D('',#1556,#1257,#1258);
#1115=AXIS2_PLACEMENT_3D('',#1559,#1260,#1261);
#1116=AXIS2_PLACEMENT_3D('',#1560,#1262,#1263);
#1117=AXIS2_PLACEMENT_3D('',#1562,#1264,#1265);
#1118=AXIS2_PLACEMENT_3D('',#1565,#1267,#1268);
#1119=AXIS2_PLACEMENT_3D('',#1566,#1269,#1270);
#1120=AXIS2_PLACEMENT_3D('',#1568,#1271,#1272);
#1121=AXIS2_PLACEMENT_3D('',#1571,#1274,#1275);
#1122=AXIS2_PLACEMENT_3D('',#1572,#1276,#1277);
#1123=AXIS2_PLACEMENT_3D('',#1575,#1279,#1280);
#1124=AXIS2_PLACEMENT_3D('',#1579,#1282,#1283);
#1125=AXIS2_PLACEMENT_3D('',#1581,#1284,#1285);
#1126=AXIS2_PLACEMENT_3D('',#1583,#1286,#1287);
#1127=AXIS2_PLACEMENT_3D('',#1586,#1289,#1290);
#1128=AXIS2_PLACEMENT_3D('',#1587,#1291,#1292);
#1129=AXIS2_PLACEMENT_3D('',#1613,#1306,#1307);
#1130=AXIS2_PLACEMENT_3D('',#1615,#1309,#1310);
#1131=AXIS2_PLACEMENT_3D('',#1618,#1311,#1312);
#1132=AXIS2_PLACEMENT_3D('',#1621,#1315,#1316);
#1133=AXIS2_PLACEMENT_3D('',#1625,#1318,#1319);
#1134=AXIS2_PLACEMENT_3D('',#1627,#1320,#1321);
#1135=AXIS2_PLACEMENT_3D('',#1630,#1323,#1324);
#1136=AXIS2_PLACEMENT_3D('',#1631,#1325,#1326);
#1137=AXIS2_PLACEMENT_3D('',#1632,#1327,#1328);
#1138=AXIS2_PLACEMENT_3D('',#1658,#1342,#1343);
#1139=AXIS2_PLACEMENT_3D('',#1661,#1346,#1347);
#1140=AXIS2_PLACEMENT_3D('',#1664,#1350,#1351);
#1141=AXIS2_PLACEMENT_3D('',#1665,#1352,#1353);
#1142=AXIS2_PLACEMENT_3D('',#1666,#1354,#1355);
#1143=AXIS2_PLACEMENT_3D('',#1667,#1356,#1357);
#1144=AXIS2_PLACEMENT_3D('',#1668,#1358,#1359);
#1145=AXIS2_PLACEMENT_3D('',#1671,#1362,#1363);
#1146=AXIS2_PLACEMENT_3D('',#1674,#1366,#1367);
#1147=AXIS2_PLACEMENT_3D('',#1675,#1368,#1369);
#1148=AXIS2_PLACEMENT_3D('',#1676,#1370,#1371);
#1149=AXIS2_PLACEMENT_3D('',#1689,#1378,#1379);
#1150=AXIS2_PLACEMENT_3D('',#1692,#1382,#1383);
#1151=AXIS2_PLACEMENT_3D('',#1694,#1385,#1386);
#1152=AXIS2_PLACEMENT_3D('',#1696,#1388,#1389);
#1153=AXIS2_PLACEMENT_3D('',#1698,#1391,#1392);
#1154=AXIS2_PLACEMENT_3D('',#1700,#1394,#1395);
#1155=AXIS2_PLACEMENT_3D('',#1701,#1396,#1397);
#1156=AXIS2_PLACEMENT_3D('',#1714,#1404,#1405);
#1157=AXIS2_PLACEMENT_3D('',#1717,#1408,#1409);
#1158=AXIS2_PLACEMENT_3D('',#1719,#1411,#1412);
#1159=AXIS2_PLACEMENT_3D('',#1721,#1414,#1415);
#1160=AXIS2_PLACEMENT_3D('',#1723,#1417,#1418);
#1161=AXIS2_PLACEMENT_3D('',#1725,#1420,#1421);
#1162=AXIS2_PLACEMENT_3D('',#1726,#1422,#1423);
#1163=AXIS2_PLACEMENT_3D('',#1739,#1430,#1431);
#1164=AXIS2_PLACEMENT_3D('',#1742,#1434,#1435);
#1165=AXIS2_PLACEMENT_3D('',#1744,#1437,#1438);
#1166=AXIS2_PLACEMENT_3D('',#1746,#1440,#1441);
#1167=AXIS2_PLACEMENT_3D('',#1748,#1443,#1444);
#1168=AXIS2_PLACEMENT_3D('',#1750,#1446,#1447);
#1169=AXIS2_PLACEMENT_3D('',#1751,#1448,#1449);
#1170=AXIS2_PLACEMENT_3D('',#1764,#1456,#1457);
#1171=AXIS2_PLACEMENT_3D('',#1767,#1460,#1461);
#1172=AXIS2_PLACEMENT_3D('',#1769,#1463,#1464);
#1173=AXIS2_PLACEMENT_3D('',#1771,#1466,#1467);
#1174=AXIS2_PLACEMENT_3D('',#1773,#1469,#1470);
#1175=AXIS2_PLACEMENT_3D('',#1775,#1472,#1473);
#1176=DIRECTION('axis',(0.,0.,1.));
#1177=DIRECTION('refdir',(1.,0.,0.));
#1178=DIRECTION('center_axis',(-1.,-7.70371977754894E-33,1.23259516440783E-31));
#1179=DIRECTION('ref_axis',(1.23259516440783E-31,3.79822709830391E-63,1.));
#1180=DIRECTION('center_axis',(-1.,-7.70371977754894E-33,1.23259516440783E-31));
#1181=DIRECTION('ref_axis',(1.23259516440783E-31,9.4955677457598E-64,1.));
#1182=DIRECTION('',(-0.707106781186548,-8.65956056235493E-17,-0.707106781186547));
#1183=DIRECTION('center_axis',(-1.,-7.70371977754894E-33,1.23259516440783E-31));
#1184=DIRECTION('ref_axis',(1.23259516440783E-31,3.79822709830391E-63,1.));
#1185=DIRECTION('center_axis',(-1.,-7.70371977754894E-33,1.23259516440783E-31));
#1186=DIRECTION('ref_axis',(1.23259516440783E-31,3.79822709830391E-63,1.));
#1187=DIRECTION('center_axis',(-1.,-7.70371977754894E-33,1.23259516440783E-31));
#1188=DIRECTION('ref_axis',(1.23259516440783E-31,9.4955677457598E-64,1.));
#1189=DIRECTION('',(-1.,-7.70371977754894E-33,1.23259516440783E-31));
#1190=DIRECTION('center_axis',(-1.,-7.70371977754894E-33,1.23259516440783E-31));
#1191=DIRECTION('ref_axis',(1.23259516440783E-31,3.79822709830391E-63,1.));
#1192=DIRECTION('center_axis',(-1.,-7.70371977754894E-33,1.23259516440783E-31));
#1193=DIRECTION('ref_axis',(1.23259516440783E-31,9.4955677457598E-64,1.));
#1194=DIRECTION('',(-0.707106781186548,-8.65956056235493E-17,-0.707106781186547));
#1195=DIRECTION('center_axis',(-1.,-7.70371977754894E-33,1.23259516440783E-31));
#1196=DIRECTION('ref_axis',(1.23259516440783E-31,3.79822709830391E-63,1.));
#1197=DIRECTION('center_axis',(-1.,-7.70371977754894E-33,1.23259516440783E-31));
#1198=DIRECTION('ref_axis',(1.23259516440783E-31,3.79822709830391E-63,1.));
#1199=DIRECTION('center_axis',(-1.,-7.70371977754894E-33,1.23259516440783E-31));
#1200=DIRECTION('ref_axis',(1.23259516440783E-31,9.4955677457598E-64,1.));
#1201=DIRECTION('',(-1.,-7.70371977754894E-33,1.23259516440783E-31));
#1202=DIRECTION('center_axis',(-1.,-7.70371977754894E-33,1.23259516440783E-31));
#1203=DIRECTION('ref_axis',(-7.70371977754847E-33,1.,3.8359906236829E-15));
#1204=DIRECTION('center_axis',(1.,7.70371977754894E-33,-1.23259516440783E-31));
#1205=DIRECTION('ref_axis',(1.23259516440783E-31,-1.1827415089303E-30,1.));
#1206=DIRECTION('',(-1.,-7.70371977754894E-33,1.23259516440783E-31));
#1207=DIRECTION('center_axis',(1.,7.70371977754894E-33,-1.23259516440783E-31));
#1208=DIRECTION('ref_axis',(1.23259516440783E-31,-1.1827415089303E-30,1.));
#1209=DIRECTION('',(1.,7.70371977754894E-33,-1.23259516440783E-31));
#1210=DIRECTION('center_axis',(-1.,-7.70371977754894E-33,1.23259516440783E-31));
#1211=DIRECTION('ref_axis',(1.23259516440783E-31,-1.1827415089303E-30,1.));
#1212=DIRECTION('',(-1.,-7.70371977754894E-33,1.23259516440783E-31));
#1213=DIRECTION('center_axis',(1.,7.70371977754894E-33,-1.23259516440783E-31));
#1214=DIRECTION('ref_axis',(1.23259516440783E-31,-1.1827415089303E-30,1.));
#1215=DIRECTION('',(1.,7.70371977754894E-33,-1.23259516440783E-31));
#1216=DIRECTION('center_axis',(-1.,-7.70371977754894E-33,1.23259516440783E-31));
#1217=DIRECTION('ref_axis',(1.23259516440783E-31,-1.1827415089303E-30,1.));
#1218=DIRECTION('',(-1.,-7.70371977754894E-33,1.23259516440783E-31));
#1219=DIRECTION('center_axis',(1.,7.70371977754894E-33,-1.23259516440783E-31));
#1220=DIRECTION('ref_axis',(1.23259516440783E-31,-1.1827415089303E-30,1.));
#1221=DIRECTION('',(1.,7.70371977754894E-33,-1.23259516440783E-31));
#1222=DIRECTION('center_axis',(1.,7.70371977754894E-33,-1.23259516440783E-31));
#1223=DIRECTION('ref_axis',(-1.23259516440783E-31,1.1827415089303E-30,-1.));
#1224=DIRECTION('center_axis',(1.,7.70371977754894E-33,-1.23259516440783E-31));
#1225=DIRECTION('ref_axis',(1.23259516440783E-31,-1.1827415089303E-30,1.));
#1226=DIRECTION('center_axis',(1.,7.70371977754894E-33,-1.23259516440783E-31));
#1227=DIRECTION('ref_axis',(1.23259516440783E-31,-1.1827415089303E-30,1.));
#1228=DIRECTION('',(0.707106781186535,-8.65956056235517E-17,0.70710678118656));
#1229=DIRECTION('center_axis',(-1.,-7.70371977754894E-33,1.23259516440783E-31));
#1230=DIRECTION('ref_axis',(1.23259516440783E-31,-1.1827415089303E-30,1.));
#1231=DIRECTION('center_axis',(-1.,-7.70371977754894E-33,1.23259516440783E-31));
#1232=DIRECTION('ref_axis',(1.23259516440783E-31,-1.1827415089303E-30,1.));
#1233=DIRECTION('',(-1.,-7.70371977754894E-33,1.23259516440783E-31));
#1234=DIRECTION('center_axis',(1.,7.70371977754894E-33,-1.23259516440783E-31));
#1235=DIRECTION('ref_axis',(1.23259516440783E-31,5.32907051820075E-15,1.));
#1236=DIRECTION('',(-1.,-7.70371977754894E-33,1.23259516440783E-31));
#1237=DIRECTION('center_axis',(-1.,-7.70371977754894E-33,1.23259516440783E-31));
#1238=DIRECTION('ref_axis',(1.23259516440783E-31,-1.1827415089303E-30,1.));
#1239=DIRECTION('',(1.,7.70371977754894E-33,-1.23259516440783E-31));
#1240=DIRECTION('center_axis',(1.,7.70371977754894E-33,-1.23259516440783E-31));
#1241=DIRECTION('ref_axis',(1.23259516440783E-31,-1.1827415089303E-30,1.));
#1242=DIRECTION('',(-1.,-7.70371977754894E-33,1.23259516440783E-31));
#1243=DIRECTION('center_axis',(-1.,-7.70371977754894E-33,1.23259516440783E-31));
#1244=DIRECTION('ref_axis',(1.23259516440783E-31,-1.1827415089303E-30,1.));
#1245=DIRECTION('',(1.,7.70371977754894E-33,-1.23259516440783E-31));
#1246=DIRECTION('center_axis',(1.,7.70371977754894E-33,-1.23259516440783E-31));
#1247=DIRECTION('ref_axis',(1.23259516440783E-31,5.32907051820075E-15,1.));
#1248=DIRECTION('center_axis',(-1.,-7.70371977754894E-33,1.23259516440783E-31));
#1249=DIRECTION('ref_axis',(1.23259516440783E-31,3.79822709830391E-63,1.));
#1250=DIRECTION('center_axis',(-1.,-7.70371977754894E-33,1.23259516440783E-31));
#1251=DIRECTION('ref_axis',(-1.23259516440783E-31,-9.4955677457598E-64,
-1.));
#1252=DIRECTION('',(-1.,-7.70371977754894E-33,1.23259516440783E-31));
#1253=DIRECTION('center_axis',(-1.,-7.70371977754894E-33,1.23259516440783E-31));
#1254=DIRECTION('ref_axis',(1.23259516440783E-31,3.79822709830391E-63,1.));
#1255=DIRECTION('center_axis',(-1.,-7.70371977754894E-33,1.23259516440783E-31));
#1256=DIRECTION('ref_axis',(1.23259516440783E-31,3.79822709830391E-63,1.));
#1257=DIRECTION('center_axis',(-1.,-7.70371977754894E-33,1.23259516440783E-31));
#1258=DIRECTION('ref_axis',(-1.23259516440783E-31,-9.4955677457598E-64,
-1.));
#1259=DIRECTION('',(-1.,-7.70371977754894E-33,1.23259516440783E-31));
#1260=DIRECTION('center_axis',(-1.,-7.70371977754894E-33,1.23259516440783E-31));
#1261=DIRECTION('ref_axis',(1.23259516440783E-31,3.79822709830391E-63,1.));
#1262=DIRECTION('center_axis',(-1.,-7.70371977754894E-33,1.23259516440783E-31));
#1263=DIRECTION('ref_axis',(1.23259516440783E-31,3.79822709830391E-63,1.));
#1264=DIRECTION('center_axis',(-1.,-7.70371977754894E-33,1.23259516440783E-31));
#1265=DIRECTION('ref_axis',(-1.23259516440783E-31,-9.4955677457598E-64,
-1.));
#1266=DIRECTION('',(-1.,-7.70371977754894E-33,1.23259516440783E-31));
#1267=DIRECTION('center_axis',(-1.,-7.70371977754894E-33,1.23259516440783E-31));
#1268=DIRECTION('ref_axis',(1.23259516440783E-31,3.79822709830391E-63,1.));
#1269=DIRECTION('center_axis',(-1.,-7.70371977754894E-33,1.23259516440783E-31));
#1270=DIRECTION('ref_axis',(1.23259516440783E-31,3.79822709830391E-63,1.));
#1271=DIRECTION('center_axis',(-1.,-7.70371977754894E-33,1.23259516440783E-31));
#1272=DIRECTION('ref_axis',(-1.23259516440783E-31,-9.4955677457598E-64,
-1.));
#1273=DIRECTION('',(-1.,-7.70371977754894E-33,1.23259516440783E-31));
#1274=DIRECTION('center_axis',(-1.,-7.70371977754894E-33,1.23259516440783E-31));
#1275=DIRECTION('ref_axis',(1.23259516440783E-31,3.79822709830391E-63,1.));
#1276=DIRECTION('center_axis',(1.,7.70371977754894E-33,3.69778549322348E-31));
#1277=DIRECTION('ref_axis',(3.69778549322348E-31,1.1827415089303E-30,-1.));
#1278=DIRECTION('',(-3.69778549322348E-31,-1.1827415089303E-30,1.));
#1279=DIRECTION('center_axis',(1.,7.70371977754894E-33,-1.23259516440783E-31));
#1280=DIRECTION('ref_axis',(-1.23259516440783E-31,-3.79822709830391E-63,
-1.));
#1281=DIRECTION('',(7.70371977754891E-33,1.,-4.21242447839414E-16));
#1282=DIRECTION('center_axis',(-1.,-7.70371977754894E-33,1.23259516440783E-31));
#1283=DIRECTION('ref_axis',(-1.23259516440783E-31,-3.79822709830391E-63,
-1.));
#1284=DIRECTION('center_axis',(-1.,-7.70371977754894E-33,1.23259516440783E-31));
#1285=DIRECTION('ref_axis',(1.23259516440783E-31,-1.1827415089303E-30,1.));
#1286=DIRECTION('center_axis',(-1.,-7.70371977754894E-33,1.23259516440783E-31));
#1287=DIRECTION('ref_axis',(-1.23259516440783E-31,4.62592926927146E-15,
-1.));
#1288=DIRECTION('',(-7.70371977754891E-33,-1.,-4.21242447839412E-16));
#1289=DIRECTION('center_axis',(1.,7.70371977754894E-33,-1.23259516440783E-31));
#1290=DIRECTION('ref_axis',(-1.23259516440783E-31,-3.79822709830391E-63,
-1.));
#1291=DIRECTION('center_axis',(-1.,-7.70371977754894E-33,-3.69778549322348E-31));
#1292=DIRECTION('ref_axis',(-3.69778549322348E-31,-1.1827415089303E-30,
1.));
#1293=DIRECTION('',(-3.69778549322348E-31,-1.1827415089303E-30,1.));
#1294=DIRECTION('',(1.04770588974665E-31,0.866025403784439,-0.499999999999999));
#1295=DIRECTION('',(3.69778549322348E-31,1.1827415089303E-30,-1.));
#1296=DIRECTION('',(1.04770588974665E-31,-0.866025403784438,-0.5));
#1297=DIRECTION('',(-2.03378202127291E-31,-0.866025403784439,0.499999999999999));
#1298=DIRECTION('',(-3.69778549322348E-31,-1.1827415089303E-30,1.));
#1299=DIRECTION('',(-2.65007960347682E-31,0.866025403784438,0.500000000000001));
#1300=DIRECTION('',(2.03378202127291E-31,0.866025403784439,-0.499999999999999));
#1301=DIRECTION('',(3.69778549322348E-31,1.1827415089303E-30,-1.));
#1302=DIRECTION('',(2.0954117794933E-31,-0.866025403784439,-0.5));
#1303=DIRECTION('',(-1.78726298839135E-31,-0.866025403784439,0.499999999999999));
#1304=DIRECTION('',(-3.69778549322348E-31,-1.1827415089303E-30,1.));
#1305=DIRECTION('',(-5.54667823983521E-32,0.866025403784438,0.5));
#1306=DIRECTION('center_axis',(1.,7.70371977754894E-33,3.69778549322348E-31));
#1307=DIRECTION('ref_axis',(3.69778549322348E-31,1.1827415089303E-30,-1.));
#1308=DIRECTION('',(3.69778549322348E-31,1.1827415089303E-30,-1.));
#1309=DIRECTION('center_axis',(-1.,-7.70371977754894E-33,1.23259516440783E-31));
#1310=DIRECTION('ref_axis',(1.23259516440783E-31,-1.1827415089303E-30,1.));
#1311=DIRECTION('center_axis',(-1.,-7.70371977754894E-33,1.23259516440783E-31));
#1312=DIRECTION('ref_axis',(1.23259516440783E-31,-1.1827415089303E-30,1.));
#1313=DIRECTION('',(-1.,-7.70371977754894E-33,1.23259516440783E-31));
#1314=DIRECTION('',(1.,7.70371977754894E-33,-1.23259516440783E-31));
#1315=DIRECTION('center_axis',(-1.,-7.70371977754894E-33,-3.69778549322348E-31));
#1316=DIRECTION('ref_axis',(-3.69778549322348E-31,-1.1827415089303E-30,
1.));
#1317=DIRECTION('',(-7.70371977754891E-33,-1.,-4.21242447839412E-16));
#1318=DIRECTION('center_axis',(1.,7.70371977754894E-33,-1.23259516440783E-31));
#1319=DIRECTION('ref_axis',(1.23259516440783E-31,9.4955677457598E-64,1.));
#1320=DIRECTION('center_axis',(1.,7.70371977754894E-33,-1.23259516440783E-31));
#1321=DIRECTION('ref_axis',(1.23259516440783E-31,9.4955677457598E-64,1.));
#1322=DIRECTION('',(7.70371977754891E-33,1.,-4.21242447839414E-16));
#1323=DIRECTION('center_axis',(-1.,-7.70371977754894E-33,1.23259516440783E-31));
#1324=DIRECTION('ref_axis',(1.23259516440783E-31,9.4955677457598E-64,1.));
#1325=DIRECTION('center_axis',(-1.,-7.70371977754894E-33,1.23259516440783E-31));
#1326=DIRECTION('ref_axis',(1.23259516440783E-31,9.4955677457598E-64,1.));
#1327=DIRECTION('center_axis',(-1.,-7.70371977754894E-33,-3.69778549322348E-31));
#1328=DIRECTION('ref_axis',(-3.69778549322348E-31,-1.1827415089303E-30,
1.));
#1329=DIRECTION('',(3.69778549322348E-31,1.1827415089303E-30,-1.));
#1330=DIRECTION('',(1.60237371373017E-31,0.866025403784439,-0.499999999999999));
#1331=DIRECTION('',(3.69778549322348E-31,1.1827415089303E-30,-1.));
#1332=DIRECTION('',(6.77927340424304E-32,-0.866025403784439,-0.5));
#1333=DIRECTION('',(-1.60237371373017E-31,-0.866025403784439,0.499999999999999));
#1334=DIRECTION('',(-3.69778549322348E-31,-1.1827415089303E-30,1.));
#1335=DIRECTION('',(-2.15704153771369E-31,0.866025403784438,0.500000000000001));
#1336=DIRECTION('',(1.60237371373017E-31,0.866025403784439,-0.499999999999999));
#1337=DIRECTION('',(3.69778549322348E-31,1.1827415089303E-30,-1.));
#1338=DIRECTION('',(1.60237371373017E-31,-0.866025403784439,-0.5));
#1339=DIRECTION('',(-2.03378202127291E-31,-0.866025403784439,0.499999999999999));
#1340=DIRECTION('',(-3.69778549322348E-31,-1.1827415089303E-30,1.));
#1341=DIRECTION('',(-5.54667823983521E-32,0.866025403784439,0.5));
#1342=DIRECTION('center_axis',(-5.669937756276E-31,4.21242447839413E-16,
1.));
#1343=DIRECTION('ref_axis',(-7.70371977754891E-33,-1.,4.21242447839414E-16));
#1344=DIRECTION('',(-1.,-7.70371977754894E-33,1.23259516440783E-31));
#1345=DIRECTION('',(1.,7.70371977754894E-33,-1.23259516440783E-31));
#1346=DIRECTION('center_axis',(4.06756404254582E-31,4.21242447839412E-16,
-1.));
#1347=DIRECTION('ref_axis',(7.70371977754891E-33,1.,4.21242447839412E-16));
#1348=DIRECTION('',(1.,7.70371977754894E-33,-1.23259516440783E-31));
#1349=DIRECTION('',(-1.,-7.70371977754894E-33,1.23259516440783E-31));
#1350=DIRECTION('center_axis',(-1.,-7.70371977754894E-33,1.23259516440783E-31));
#1351=DIRECTION('ref_axis',(1.23259516440783E-31,9.4955677457598E-64,1.));
#1352=DIRECTION('center_axis',(-1.,-7.70371977754894E-33,1.23259516440783E-31));
#1353=DIRECTION('ref_axis',(1.23259516440783E-31,9.4955677457598E-64,1.));
#1354=DIRECTION('center_axis',(-1.,-7.70371977754894E-33,1.23259516440783E-31));
#1355=DIRECTION('ref_axis',(1.23259516440783E-31,9.4955677457598E-64,1.));
#1356=DIRECTION('center_axis',(-1.,-7.70371977754894E-33,1.23259516440783E-31));
#1357=DIRECTION('ref_axis',(1.23259516440783E-31,9.4955677457598E-64,1.));
#1358=DIRECTION('center_axis',(-7.70371977754891E-33,-1.,-1.1827415089303E-30));
#1359=DIRECTION('ref_axis',(3.69778549322348E-31,1.1827415089303E-30,-1.));
#1360=DIRECTION('',(-3.69778549322348E-31,-1.1827415089303E-30,1.));
#1361=DIRECTION('',(-3.69778549322348E-31,-1.1827415089303E-30,1.));
#1362=DIRECTION('center_axis',(7.70371977754891E-33,1.,1.1827415089303E-30));
#1363=DIRECTION('ref_axis',(-3.69778549322348E-31,-1.1827415089303E-30,
1.));
#1364=DIRECTION('',(3.69778549322348E-31,1.1827415089303E-30,-1.));
#1365=DIRECTION('',(3.69778549322348E-31,1.1827415089303E-30,-1.));
#1366=DIRECTION('center_axis',(-1.,-7.70371977754894E-33,-3.69778549322348E-31));
#1367=DIRECTION('ref_axis',(-3.69778549322348E-31,-1.1827415089303E-30,
1.));
#1368=DIRECTION('center_axis',(-1.,-7.70371977754894E-33,-3.69778549322348E-31));
#1369=DIRECTION('ref_axis',(-3.69778549322348E-31,-1.1827415089303E-30,
1.));
#1370=DIRECTION('center_axis',(1.,7.70371977754894E-33,3.69778549322348E-31));
#1371=DIRECTION('ref_axis',(3.69778549322348E-31,1.1827415089303E-30,-1.));
#1372=DIRECTION('',(3.69778549322348E-31,1.1827415089303E-30,-1.));
#1373=DIRECTION('',(1.60237371373017E-31,0.866025403784439,-0.499999999999999));
#1374=DIRECTION('',(-2.15704153771369E-31,0.866025403784438,0.500000000000001));
#1375=DIRECTION('',(-3.69778549322348E-31,-1.1827415089303E-30,1.));
#1376=DIRECTION('',(-1.60237371373017E-31,-0.866025403784439,0.499999999999999));
#1377=DIRECTION('',(6.77927340424304E-32,-0.866025403784439,-0.5));
#1378=DIRECTION('center_axis',(-7.70371977754891E-33,-1.,-1.1827415089303E-30));
#1379=DIRECTION('ref_axis',(3.69778549322348E-31,1.1827415089303E-30,-1.));
#1380=DIRECTION('',(1.,7.70371977754894E-33,-1.23259516440783E-31));
#1381=DIRECTION('',(1.,7.70371977754894E-33,-1.23259516440783E-31));
#1382=DIRECTION('center_axis',(-2.71170936169721E-31,-0.5,0.866025403784439));
#1383=DIRECTION('ref_axis',(1.66400347195056E-31,-0.866025403784439,-0.5));
#1384=DIRECTION('',(1.,7.70371977754894E-33,-1.23259516440783E-31));
#1385=DIRECTION('center_axis',(-4.1908235589866E-31,0.5,0.866025403784439));
#1386=DIRECTION('ref_axis',(-1.60237371373017E-31,-0.866025403784439,0.5));
#1387=DIRECTION('',(1.,7.70371977754894E-33,-1.23259516440783E-31));
#1388=DIRECTION('center_axis',(7.70371977754891E-33,1.,1.1827415089303E-30));
#1389=DIRECTION('ref_axis',(-3.69778549322348E-31,-1.1827415089303E-30,
1.));
#1390=DIRECTION('',(1.,7.70371977754894E-33,-1.23259516440783E-31));
#1391=DIRECTION('center_axis',(1.60237371373017E-31,0.500000000000001,-0.866025403784438));
#1392=DIRECTION('ref_axis',(-1.66400347195056E-31,0.866025403784438,0.500000000000001));
#1393=DIRECTION('',(1.,7.70371977754894E-33,-1.23259516440783E-31));
#1394=DIRECTION('center_axis',(4.68386162474973E-31,-0.499999999999999,
-0.866025403784439));
#1395=DIRECTION('ref_axis',(1.35585468084861E-31,0.866025403784439,-0.499999999999999));
#1396=DIRECTION('center_axis',(1.,7.70371977754894E-33,3.69778549322348E-31));
#1397=DIRECTION('ref_axis',(3.69778549322348E-31,1.1827415089303E-30,-1.));
#1398=DIRECTION('',(3.69778549322348E-31,1.1827415089303E-30,-1.));
#1399=DIRECTION('',(1.60237371373017E-31,0.866025403784439,-0.499999999999999));
#1400=DIRECTION('',(-5.54667823983521E-32,0.866025403784439,0.5));
#1401=DIRECTION('',(-3.69778549322348E-31,-1.1827415089303E-30,1.));
#1402=DIRECTION('',(-2.03378202127291E-31,-0.866025403784439,0.499999999999999));
#1403=DIRECTION('',(1.60237371373017E-31,-0.866025403784439,-0.5));
#1404=DIRECTION('center_axis',(-7.70371977754891E-33,-1.,-1.1827415089303E-30));
#1405=DIRECTION('ref_axis',(3.69778549322348E-31,1.1827415089303E-30,-1.));
#1406=DIRECTION('',(1.,7.70371977754894E-33,-1.23259516440783E-31));
#1407=DIRECTION('',(1.,7.70371977754894E-33,-1.23259516440783E-31));
#1408=DIRECTION('center_axis',(-2.15704153771369E-31,-0.5,0.866025403784439));
#1409=DIRECTION('ref_axis',(1.10933564796704E-31,-0.866025403784439,-0.5));
#1410=DIRECTION('',(1.,7.70371977754894E-33,-1.23259516440783E-31));
#1411=DIRECTION('center_axis',(-4.68386162474973E-31,0.499999999999999,
0.866025403784439));
#1412=DIRECTION('ref_axis',(-2.03378202127291E-31,-0.866025403784439,0.499999999999999));
#1413=DIRECTION('',(1.,7.70371977754894E-33,-1.23259516440783E-31));
#1414=DIRECTION('center_axis',(7.70371977754891E-33,1.,1.1827415089303E-30));
#1415=DIRECTION('ref_axis',(-3.69778549322348E-31,-1.1827415089303E-30,
1.));
#1416=DIRECTION('',(1.,7.70371977754894E-33,-1.23259516440783E-31));
#1417=DIRECTION('center_axis',(2.46519032881565E-32,0.5,-0.866025403784439));
#1418=DIRECTION('ref_axis',(-2.03378202127291E-31,0.866025403784439,0.5));
#1419=DIRECTION('',(1.,7.70371977754894E-33,-1.23259516440783E-31));
#1420=DIRECTION('center_axis',(4.1908235589866E-31,-0.5,-0.866025403784439));
#1421=DIRECTION('ref_axis',(1.60237371373017E-31,0.866025403784439,-0.5));
#1422=DIRECTION('center_axis',(1.,7.70371977754894E-33,3.69778549322348E-31));
#1423=DIRECTION('ref_axis',(3.69778549322348E-31,1.1827415089303E-30,-1.));
#1424=DIRECTION('',(3.69778549322348E-31,1.1827415089303E-30,-1.));
#1425=DIRECTION('',(1.04770588974665E-31,0.866025403784439,-0.499999999999999));
#1426=DIRECTION('',(-2.65007960347682E-31,0.866025403784438,0.500000000000001));
#1427=DIRECTION('',(-3.69778549322348E-31,-1.1827415089303E-30,1.));
#1428=DIRECTION('',(-2.03378202127291E-31,-0.866025403784439,0.499999999999999));
#1429=DIRECTION('',(1.04770588974665E-31,-0.866025403784438,-0.5));
#1430=DIRECTION('center_axis',(-7.70371977754891E-33,-1.,-1.1827415089303E-30));
#1431=DIRECTION('ref_axis',(3.69778549322348E-31,1.1827415089303E-30,-1.));
#1432=DIRECTION('',(1.,7.70371977754894E-33,-1.23259516440783E-31));
#1433=DIRECTION('',(1.,7.70371977754894E-33,-1.23259516440783E-31));
#1434=DIRECTION('center_axis',(-2.65007960347682E-31,-0.5,0.866025403784439));
#1435=DIRECTION('ref_axis',(6.16297582203913E-32,-0.866025403784439,-0.5));
#1436=DIRECTION('',(1.,7.70371977754894E-33,-1.23259516440783E-31));
#1437=DIRECTION('center_axis',(-4.68386162474973E-31,0.499999999999999,
0.866025403784439));
#1438=DIRECTION('ref_axis',(-2.03378202127291E-31,-0.866025403784439,0.499999999999999));
#1439=DIRECTION('',(1.,7.70371977754894E-33,-1.23259516440783E-31));
#1440=DIRECTION('center_axis',(7.70371977754891E-33,1.,1.1827415089303E-30));
#1441=DIRECTION('ref_axis',(-3.69778549322348E-31,-1.1827415089303E-30,
1.));
#1442=DIRECTION('',(1.,7.70371977754894E-33,-1.23259516440783E-31));
#1443=DIRECTION('center_axis',(2.15704153771369E-31,0.500000000000001,-0.866025403784438));
#1444=DIRECTION('ref_axis',(-2.65007960347682E-31,0.866025403784438,0.500000000000001));
#1445=DIRECTION('',(1.,7.70371977754894E-33,-1.23259516440783E-31));
#1446=DIRECTION('center_axis',(4.68386162474973E-31,-0.499999999999999,
-0.866025403784439));
#1447=DIRECTION('ref_axis',(1.04770588974665E-31,0.866025403784439,-0.499999999999999));
#1448=DIRECTION('center_axis',(1.,7.70371977754894E-33,3.69778549322348E-31));
#1449=DIRECTION('ref_axis',(3.69778549322348E-31,1.1827415089303E-30,-1.));
#1450=DIRECTION('',(3.69778549322348E-31,1.1827415089303E-30,-1.));
#1451=DIRECTION('',(2.03378202127291E-31,0.866025403784439,-0.499999999999999));
#1452=DIRECTION('',(-5.54667823983521E-32,0.866025403784438,0.5));
#1453=DIRECTION('',(-3.69778549322348E-31,-1.1827415089303E-30,1.));
#1454=DIRECTION('',(-1.78726298839135E-31,-0.866025403784439,0.499999999999999));
#1455=DIRECTION('',(2.0954117794933E-31,-0.866025403784439,-0.5));
#1456=DIRECTION('center_axis',(-7.70371977754891E-33,-1.,-1.1827415089303E-30));
#1457=DIRECTION('ref_axis',(3.69778549322348E-31,1.1827415089303E-30,-1.));
#1458=DIRECTION('',(1.,7.70371977754894E-33,-1.23259516440783E-31));
#1459=DIRECTION('',(1.,7.70371977754894E-33,-1.23259516440783E-31));
#1460=DIRECTION('center_axis',(-1.23259516440782E-31,-0.5,0.866025403784439));
#1461=DIRECTION('ref_axis',(2.0954117794933E-31,-0.866025403784439,-0.5));
#1462=DIRECTION('',(1.,7.70371977754894E-33,-1.23259516440783E-31));
#1463=DIRECTION('center_axis',(-3.69778549322347E-31,0.499999999999999,
0.866025403784439));
#1464=DIRECTION('ref_axis',(-1.78726298839135E-31,-0.866025403784439,0.499999999999999));
#1465=DIRECTION('',(1.,7.70371977754894E-33,-1.23259516440783E-31));
#1466=DIRECTION('center_axis',(7.70371977754891E-33,1.,1.1827415089303E-30));
#1467=DIRECTION('ref_axis',(-3.69778549322348E-31,-1.1827415089303E-30,
1.));
#1468=DIRECTION('',(1.,7.70371977754894E-33,-1.23259516440783E-31));
#1469=DIRECTION('center_axis',(2.15704153771369E-31,0.5,-0.866025403784439));
#1470=DIRECTION('ref_axis',(-1.54074395550978E-31,0.866025403784439,0.5));
#1471=DIRECTION('',(1.,7.70371977754894E-33,-1.23259516440783E-31));
#1472=DIRECTION('center_axis',(4.68386162474973E-31,-0.499999999999999,
-0.866025403784439));
#1473=DIRECTION('ref_axis',(2.03378202127291E-31,0.866025403784439,-0.499999999999999));
#1474=CARTESIAN_POINT('',(0.,0.,0.));
#1475=CARTESIAN_POINT('Origin',(0.,-41.0000000000004,-11.5000000000003));
#1476=CARTESIAN_POINT('',(1.44999999999998,-41.0000000000004,-13.2000000000003));
#1477=CARTESIAN_POINT('Origin',(1.44999999999995,-41.0000000000004,-11.5000000000003));
#1478=CARTESIAN_POINT('',(-2.42382507408947E-16,-41.0000000000004,-14.6500000000003));
#1479=CARTESIAN_POINT('',(-3.88267476788468E-31,-41.0000000000004,-14.6500000000003));
#1480=CARTESIAN_POINT('Origin',(0.,-41.0000000000004,-11.5000000000003));
#1481=CARTESIAN_POINT('Origin',(0.,-41.0000000000004,-11.5000000000003));
#1482=CARTESIAN_POINT('',(6.00000000000001,-41.0000000000004,-13.2000000000003));
#1483=CARTESIAN_POINT('Origin',(6.00000000000001,-41.0000000000004,-11.5000000000003));
#1484=CARTESIAN_POINT('',(-2.09541177949332E-31,-41.0000000000004,-13.2000000000003));
#1485=CARTESIAN_POINT('Origin',(0.,-41.0000000000002,11.5000000000003));
#1486=CARTESIAN_POINT('',(1.45000000000004,-41.0000000000002,9.80000000000028));
#1487=CARTESIAN_POINT('Origin',(1.45000000000006,-41.0000000000002,11.5000000000003));
#1488=CARTESIAN_POINT('',(-5.55111512312579E-16,-41.0000000000002,8.35000000000024));
#1489=CARTESIAN_POINT('',(-3.88267476788468E-31,-41.0000000000002,8.35000000000024));
#1490=CARTESIAN_POINT('Origin',(0.,-41.0000000000002,11.5000000000003));
#1491=CARTESIAN_POINT('Origin',(0.,-41.0000000000002,11.5000000000003));
#1492=CARTESIAN_POINT('',(6.00000000000001,-41.0000000000002,9.80000000000025));
#1493=CARTESIAN_POINT('Origin',(6.00000000000001,-41.0000000000002,11.5000000000003));
#1494=CARTESIAN_POINT('',(-2.09541177949332E-31,-41.0000000000002,9.80000000000025));
#1495=CARTESIAN_POINT('Origin',(10.,0.,0.));
#1496=CARTESIAN_POINT('',(6.00000000000001,-34.9054196079885,-19.5348837209305));
#1497=CARTESIAN_POINT('',(6.00000000000001,-34.9054196079886,19.5348837209302));
#1498=CARTESIAN_POINT('Origin',(6.00000000000001,0.,0.));
#1499=CARTESIAN_POINT('',(0.,-34.9054196079885,-19.5348837209305));
#1500=CARTESIAN_POINT('',(10.,-34.9054196079885,-19.5348837209305));
#1501=CARTESIAN_POINT('',(0.,-9.00000000000004,-38.9743505398103));
#1502=CARTESIAN_POINT('Origin',(0.,0.,0.));
#1503=CARTESIAN_POINT('',(3.,-9.00000000000004,-38.9743505398103));
#1504=CARTESIAN_POINT('',(10.,-9.00000000000004,-38.9743505398103));
#1505=CARTESIAN_POINT('',(3.,8.9999999999998,-38.9743505398104));
#1506=CARTESIAN_POINT('Origin',(3.,0.,0.));
#1507=CARTESIAN_POINT('',(0.,8.9999999999998,-38.9743505398104));
#1508=CARTESIAN_POINT('',(10.,8.9999999999998,-38.9743505398104));
#1509=CARTESIAN_POINT('',(-1.11022302462516E-12,8.99999999999991,38.9743505398103));
#1510=CARTESIAN_POINT('Origin',(0.,0.,0.));
#1511=CARTESIAN_POINT('',(2.99999999999889,8.99999999999991,38.9743505398103));
#1512=CARTESIAN_POINT('',(9.9999999999989,8.99999999999991,38.9743505398103));
#1513=CARTESIAN_POINT('',(2.99999999999889,-8.99999999999998,38.9743505398104));
#1514=CARTESIAN_POINT('Origin',(3.,0.,0.));
#1515=CARTESIAN_POINT('',(-1.11022302462516E-12,-8.99999999999998,38.9743505398104));
#1516=CARTESIAN_POINT('',(9.9999999999989,-8.99999999999998,38.9743505398103));
#1517=CARTESIAN_POINT('',(0.,-34.9054196079886,19.5348837209302));
#1518=CARTESIAN_POINT('Origin',(0.,0.,0.));
#1519=CARTESIAN_POINT('',(10.,-34.9054196079886,19.5348837209302));
#1520=CARTESIAN_POINT('Origin',(6.00000000000001,0.,0.));
#1521=CARTESIAN_POINT('',(5.80000000000003,4.53119315684525E-15,-37.));
#1522=CARTESIAN_POINT('',(5.80000000000001,-4.53119315684527E-15,37.0000000000002));
#1523=CARTESIAN_POINT('Origin',(5.80000000000003,0.,0.));
#1524=CARTESIAN_POINT('Origin',(5.80000000000003,0.,0.));
#1525=CARTESIAN_POINT('',(6.00000000000001,-4.55568609282822E-15,37.2000000000002));
#1526=CARTESIAN_POINT('',(6.00000000000001,-4.55568609282822E-15,37.2000000000002));
#1527=CARTESIAN_POINT('Origin',(6.00000000000001,0.,0.));
#1528=CARTESIAN_POINT('Origin',(-5.88192419825073,0.,0.));
#1529=CARTESIAN_POINT('',(3.,-4.53119315684518E-15,-37.0000000000002));
#1530=CARTESIAN_POINT('',(-5.88192419825073,-4.53119315684518E-15,-37.0000000000002));
#1531=CARTESIAN_POINT('',(3.,-9.00000000000001,-35.8887168898528));
#1532=CARTESIAN_POINT('Origin',(3.,0.,0.));
#1533=CARTESIAN_POINT('',(2.90000000000001,-9.00000000000001,-35.8887168898528));
#1534=CARTESIAN_POINT('',(-5.88192419825073,-9.00000000000001,-35.8887168898528));
#1535=CARTESIAN_POINT('',(2.8999999999989,-9.00000000000001,35.888716889853));
#1536=CARTESIAN_POINT('Origin',(2.90000000000001,0.,0.));
#1537=CARTESIAN_POINT('',(2.99999999999889,-8.99999999999999,35.888716889853));
#1538=CARTESIAN_POINT('',(-5.88192419825184,-8.99999999999999,35.888716889853));
#1539=CARTESIAN_POINT('',(2.99999999999889,9.00000000000008,35.8887168898528));
#1540=CARTESIAN_POINT('Origin',(3.,0.,0.));
#1541=CARTESIAN_POINT('',(2.8999999999989,9.00000000000008,35.8887168898528));
#1542=CARTESIAN_POINT('',(-5.88192419825184,9.00000000000008,35.8887168898528));
#1543=CARTESIAN_POINT('',(2.90000000000001,9.00000000000002,-35.888716889853));
#1544=CARTESIAN_POINT('Origin',(2.90000000000001,0.,0.));
#1545=CARTESIAN_POINT('',(3.,9.00000000000002,-35.888716889853));
#1546=CARTESIAN_POINT('',(-5.88192419825073,9.00000000000002,-35.888716889853));
#1547=CARTESIAN_POINT('Origin',(3.,0.,0.));
#1548=CARTESIAN_POINT('Origin',(0.,11.9999999999997,6.00000000000001));
#1549=CARTESIAN_POINT('',(1.19999999999998,11.9999999999997,4.90000000000001));
#1550=CARTESIAN_POINT('Origin',(1.19999999999998,11.9999999999997,6.00000000000001));
#1551=CARTESIAN_POINT('',(-1.35585468084861E-31,11.9999999999997,4.90000000000001));
#1552=CARTESIAN_POINT('',(-1.35585468084861E-31,11.9999999999997,4.90000000000001));
#1553=CARTESIAN_POINT('Origin',(0.,11.9999999999997,6.00000000000001));
#1554=CARTESIAN_POINT('Origin',(0.,11.9999999999998,-6.00000000000028));
#1555=CARTESIAN_POINT('',(1.19999999999998,11.9999999999998,-7.10000000000028));
#1556=CARTESIAN_POINT('Origin',(1.19999999999998,11.9999999999998,-6.00000000000028));
#1557=CARTESIAN_POINT('',(-1.35585468084861E-31,11.9999999999998,-7.10000000000028));
#1558=CARTESIAN_POINT('',(-1.35585468084861E-31,11.9999999999998,-7.10000000000028));
#1559=CARTESIAN_POINT('Origin',(0.,11.9999999999998,-6.00000000000028));
#1560=CARTESIAN_POINT('Origin',(0.,-12.,-6.00000000000028));
#1561=CARTESIAN_POINT('',(1.19999999999998,-12.,-7.10000000000028));
#1562=CARTESIAN_POINT('Origin',(1.19999999999998,-12.,-6.00000000000028));
#1563=CARTESIAN_POINT('',(-1.35585468084861E-31,-12.,-7.10000000000028));
#1564=CARTESIAN_POINT('',(-1.35585468084861E-31,-12.,-7.10000000000028));
#1565=CARTESIAN_POINT('Origin',(0.,-12.,-6.00000000000028));
#1566=CARTESIAN_POINT('Origin',(0.,-12.,6.00000000000001));
#1567=CARTESIAN_POINT('',(1.19999999999998,-12.,4.90000000000001));
#1568=CARTESIAN_POINT('Origin',(1.19999999999998,-12.,6.00000000000001));
#1569=CARTESIAN_POINT('',(-1.35585468084861E-31,-12.,4.90000000000001));
#1570=CARTESIAN_POINT('',(-1.35585468084861E-31,-12.,4.90000000000001));
#1571=CARTESIAN_POINT('Origin',(0.,-12.,6.00000000000001));
#1572=CARTESIAN_POINT('Origin',(0.,0.,0.));
#1573=CARTESIAN_POINT('',(0.,-9.00000000000013,-40.0000000000001));
#1574=CARTESIAN_POINT('',(0.,-37.5233260785876,-18.0000000000003));
#1575=CARTESIAN_POINT('Origin',(0.,-37.5233260785877,-21.0000000000003));
#1576=CARTESIAN_POINT('',(0.,-41.8957038370286,-18.0000000000001));
#1577=CARTESIAN_POINT('',(0.,-35.7211421989837,-18.0000000000003));
#1578=CARTESIAN_POINT('',(0.,-44.720133309188,-16.0112359550562));
#1579=CARTESIAN_POINT('Origin',(0.,-41.8957038370287,-15.0000000000001));
#1580=CARTESIAN_POINT('',(0.,-44.7201333091878,16.0112359550565));
#1581=CARTESIAN_POINT('Origin',(0.,0.,0.));
#1582=CARTESIAN_POINT('',(0.,-41.8957038370286,18.0000000000004));
#1583=CARTESIAN_POINT('Origin',(0.,-41.8957038370287,15.0000000000004));
#1584=CARTESIAN_POINT('',(0.,-37.5233260785876,18.));
#1585=CARTESIAN_POINT('',(0.,-35.7211421989837,18.));
#1586=CARTESIAN_POINT('Origin',(0.,-37.5233260785877,21.));
#1587=CARTESIAN_POINT('Origin',(2.90000000000001,37.0000000000001,2.77555756156289E-13));
#1588=CARTESIAN_POINT('',(2.90000000000001,-9.00000000000001,2.77555756156289E-13));
#1589=CARTESIAN_POINT('',(2.90000000000001,-13.9999999999999,-7.15470053837952));
#1590=CARTESIAN_POINT('',(2.90000000000001,-12.,-8.30940107675879));
#1591=CARTESIAN_POINT('',(2.90000000000001,-13.9999999999999,-7.15470053837952));
#1592=CARTESIAN_POINT('',(2.90000000000001,-14.0000000000001,-4.84529946162102));
#1593=CARTESIAN_POINT('',(2.90000000000001,-14.0000000000001,-4.84529946162102));
#1594=CARTESIAN_POINT('',(2.90000000000001,-12.0000000000001,-3.69059892324178));
#1595=CARTESIAN_POINT('',(2.90000000000001,-12.0000000000001,-3.69059892324178));
#1596=CARTESIAN_POINT('',(2.90000000000001,-10.0000000000001,-4.84529946162102));
#1597=CARTESIAN_POINT('',(2.90000000000001,-10.0000000000001,-4.84529946162102));
#1598=CARTESIAN_POINT('',(2.90000000000001,-9.99999999999986,-7.15470053837952));
#1599=CARTESIAN_POINT('',(2.90000000000001,-9.99999999999986,-7.15470053837952));
#1600=CARTESIAN_POINT('',(2.90000000000001,-12.,-8.30940107675879));
#1601=CARTESIAN_POINT('',(2.90000000000001,-14.,4.84529946162074));
#1602=CARTESIAN_POINT('',(2.90000000000001,-12.,3.6905989232415));
#1603=CARTESIAN_POINT('',(2.90000000000001,-14.,4.84529946162074));
#1604=CARTESIAN_POINT('',(2.90000000000001,-14.0000000000001,7.15470053837924));
#1605=CARTESIAN_POINT('',(2.90000000000001,-14.0000000000001,7.15470053837924));
#1606=CARTESIAN_POINT('',(2.90000000000001,-12.0000000000001,8.30940107675851));
#1607=CARTESIAN_POINT('',(2.90000000000001,-12.0000000000001,8.30940107675851));
#1608=CARTESIAN_POINT('',(2.90000000000001,-10.0000000000001,7.15470053837924));
#1609=CARTESIAN_POINT('',(2.90000000000001,-10.0000000000001,7.15470053837924));
#1610=CARTESIAN_POINT('',(2.90000000000001,-10.,4.84529946162074));
#1611=CARTESIAN_POINT('',(2.90000000000001,-10.,4.84529946162074));
#1612=CARTESIAN_POINT('',(2.90000000000001,-12.,3.6905989232415));
#1613=CARTESIAN_POINT('Origin',(0.,0.,0.));
#1614=CARTESIAN_POINT('',(0.,8.9999999999998,-40.0000000000003));
#1615=CARTESIAN_POINT('Origin',(-5.88192419825073,0.,0.));
#1616=CARTESIAN_POINT('',(6.00000000000001,-44.720133309188,-16.0112359550562));
#1617=CARTESIAN_POINT('',(6.00000000000001,-44.7201333091878,16.0112359550565));
#1618=CARTESIAN_POINT('Origin',(6.00000000000001,0.,0.));
#1619=CARTESIAN_POINT('',(-5.88192419825073,-44.7201333091878,16.0112359550565));
#1620=CARTESIAN_POINT('',(-5.88192419825073,-44.720133309188,-16.0112359550562));
#1621=CARTESIAN_POINT('Origin',(6.00000000000001,37.0000000000001,2.77555756156289E-13));
#1622=CARTESIAN_POINT('',(6.00000000000001,-37.5233260785876,18.));
#1623=CARTESIAN_POINT('',(6.00000000000001,-41.8957038370286,18.0000000000003));
#1624=CARTESIAN_POINT('',(6.00000000000001,36.9999999999997,18.0000000000003));
#1625=CARTESIAN_POINT('Origin',(6.00000000000001,-41.8957038370287,15.0000000000003));
#1626=CARTESIAN_POINT('',(6.00000000000001,-41.8957038370286,-18.0000000000002));
#1627=CARTESIAN_POINT('Origin',(6.00000000000001,-41.8957038370287,-15.0000000000003));
#1628=CARTESIAN_POINT('',(6.00000000000001,-37.5233260785876,-18.0000000000003));
#1629=CARTESIAN_POINT('',(6.00000000000001,36.9999999999998,-18.));
#1630=CARTESIAN_POINT('Origin',(6.00000000000001,-37.5233260785877,-21.0000000000003));
#1631=CARTESIAN_POINT('Origin',(6.00000000000001,-37.5233260785877,21.));
#1632=CARTESIAN_POINT('Origin',(2.90000000000001,37.0000000000001,2.77555756156289E-13));
#1633=CARTESIAN_POINT('',(2.90000000000001,9.00000000000011,0.));
#1634=CARTESIAN_POINT('',(2.90000000000001,9.99999999999966,4.84529946162074));
#1635=CARTESIAN_POINT('',(2.90000000000001,11.9999999999996,3.6905989232415));
#1636=CARTESIAN_POINT('',(2.90000000000001,9.99999999999966,4.84529946162074));
#1637=CARTESIAN_POINT('',(2.90000000000001,9.9999999999998,7.15470053837924));
#1638=CARTESIAN_POINT('',(2.90000000000001,9.9999999999998,7.15470053837924));
#1639=CARTESIAN_POINT('',(2.90000000000001,11.9999999999998,8.30940107675851));
#1640=CARTESIAN_POINT('',(2.90000000000001,11.9999999999998,8.30940107675851));
#1641=CARTESIAN_POINT('',(2.90000000000001,13.9999999999998,7.15470053837952));
#1642=CARTESIAN_POINT('',(2.90000000000001,13.9999999999998,7.15470053837952));
#1643=CARTESIAN_POINT('',(2.90000000000001,13.9999999999997,4.84529946162102));
#1644=CARTESIAN_POINT('',(2.90000000000001,13.9999999999997,4.84529946162102));
#1645=CARTESIAN_POINT('',(2.90000000000001,11.9999999999996,3.6905989232415));
#1646=CARTESIAN_POINT('',(2.90000000000001,9.99999999999963,-7.15470053837952));
#1647=CARTESIAN_POINT('',(2.90000000000001,11.9999999999996,-8.30940107675879));
#1648=CARTESIAN_POINT('',(2.90000000000001,9.99999999999963,-7.15470053837952));
#1649=CARTESIAN_POINT('',(2.90000000000001,9.9999999999998,-4.84529946162102));
#1650=CARTESIAN_POINT('',(2.90000000000001,9.9999999999998,-4.84529946162102));
#1651=CARTESIAN_POINT('',(2.90000000000001,11.9999999999998,-3.69059892324178));
#1652=CARTESIAN_POINT('',(2.90000000000001,11.9999999999998,-3.69059892324178));
#1653=CARTESIAN_POINT('',(2.90000000000001,13.9999999999998,-4.84529946162074));
#1654=CARTESIAN_POINT('',(2.90000000000001,13.9999999999998,-4.84529946162074));
#1655=CARTESIAN_POINT('',(2.90000000000001,13.9999999999997,-7.15470053837924));
#1656=CARTESIAN_POINT('',(2.90000000000001,13.9999999999997,-7.15470053837924));
#1657=CARTESIAN_POINT('',(2.90000000000001,11.9999999999996,-8.30940107675879));
#1658=CARTESIAN_POINT('Origin',(10.,-35.7211421989837,-18.0000000000003));
#1659=CARTESIAN_POINT('',(10.,-41.8957038370286,-18.0000000000002));
#1660=CARTESIAN_POINT('',(6.00000000000001,-37.5233260785876,-18.0000000000003));
#1661=CARTESIAN_POINT('Origin',(10.,-35.7211421989837,18.));
#1662=CARTESIAN_POINT('',(10.,-41.8957038370286,18.0000000000003));
#1663=CARTESIAN_POINT('',(0.,-37.5233260785876,18.));
#1664=CARTESIAN_POINT('Origin',(-5.88192419825073,-41.8957038370287,15.0000000000005));
#1665=CARTESIAN_POINT('Origin',(-5.88192419825073,-41.8957038370287,-14.9999999999999));
#1666=CARTESIAN_POINT('Origin',(10.,-37.5233260785877,-21.0000000000003));
#1667=CARTESIAN_POINT('Origin',(10.,-37.5233260785877,21.));
#1668=CARTESIAN_POINT('Origin',(3.,-9.00000000000013,-40.0000000000001));
#1669=CARTESIAN_POINT('',(3.,-9.00000000000013,-40.0000000000001));
#1670=CARTESIAN_POINT('',(3.,-9.00000000000013,-40.0000000000001));
#1671=CARTESIAN_POINT('Origin',(3.,8.9999999999998,-40.0000000000003));
#1672=CARTESIAN_POINT('',(3.,8.9999999999998,-40.0000000000003));
#1673=CARTESIAN_POINT('',(3.,8.9999999999998,-40.0000000000003));
#1674=CARTESIAN_POINT('Origin',(3.,0.,0.));
#1675=CARTESIAN_POINT('Origin',(3.,0.,0.));
#1676=CARTESIAN_POINT('Origin',(1.19999999999998,0.,0.));
#1677=CARTESIAN_POINT('',(1.19999999999998,9.9999999999998,7.15470053837924));
#1678=CARTESIAN_POINT('',(1.19999999999998,9.99999999999966,4.84529946162074));
#1679=CARTESIAN_POINT('',(1.19999999999998,9.9999999999998,7.15470053837924));
#1680=CARTESIAN_POINT('',(1.19999999999998,11.9999999999996,3.6905989232415));
#1681=CARTESIAN_POINT('',(1.19999999999998,9.99999999999966,4.84529946162074));
#1682=CARTESIAN_POINT('',(1.19999999999998,13.9999999999997,4.84529946162102));
#1683=CARTESIAN_POINT('',(1.19999999999998,11.9999999999996,3.6905989232415));
#1684=CARTESIAN_POINT('',(1.19999999999998,13.9999999999998,7.15470053837952));
#1685=CARTESIAN_POINT('',(1.19999999999998,13.9999999999997,4.84529946162102));
#1686=CARTESIAN_POINT('',(1.19999999999998,11.9999999999998,8.30940107675851));
#1687=CARTESIAN_POINT('',(1.19999999999998,13.9999999999998,7.15470053837952));
#1688=CARTESIAN_POINT('',(1.19999999999998,11.9999999999998,8.30940107675851));
#1689=CARTESIAN_POINT('Origin',(1.19999999999998,9.9999999999998,7.15470053837924));
#1690=CARTESIAN_POINT('',(1.19999999999998,9.99999999999966,4.84529946162074));
#1691=CARTESIAN_POINT('',(1.19999999999998,9.9999999999998,7.15470053837924));
#1692=CARTESIAN_POINT('Origin',(1.19999999999998,11.9999999999998,8.30940107675851));
#1693=CARTESIAN_POINT('',(1.19999999999998,11.9999999999998,8.30940107675851));
#1694=CARTESIAN_POINT('Origin',(1.19999999999998,13.9999999999998,7.15470053837952));
#1695=CARTESIAN_POINT('',(1.19999999999998,13.9999999999998,7.15470053837952));
#1696=CARTESIAN_POINT('Origin',(1.19999999999998,13.9999999999997,4.84529946162102));
#1697=CARTESIAN_POINT('',(1.19999999999998,13.9999999999997,4.84529946162102));
#1698=CARTESIAN_POINT('Origin',(1.19999999999998,11.9999999999996,3.6905989232415));
#1699=CARTESIAN_POINT('',(1.19999999999998,11.9999999999996,3.6905989232415));
#1700=CARTESIAN_POINT('Origin',(1.19999999999998,9.99999999999966,4.84529946162074));
#1701=CARTESIAN_POINT('Origin',(1.19999999999998,0.,0.));
#1702=CARTESIAN_POINT('',(1.19999999999998,9.9999999999998,-4.84529946162102));
#1703=CARTESIAN_POINT('',(1.19999999999998,9.99999999999963,-7.15470053837952));
#1704=CARTESIAN_POINT('',(1.19999999999998,9.9999999999998,-4.84529946162102));
#1705=CARTESIAN_POINT('',(1.19999999999998,11.9999999999996,-8.30940107675879));
#1706=CARTESIAN_POINT('',(1.19999999999998,9.99999999999963,-7.15470053837952));
#1707=CARTESIAN_POINT('',(1.19999999999998,13.9999999999997,-7.15470053837924));
#1708=CARTESIAN_POINT('',(1.19999999999998,11.9999999999996,-8.30940107675879));
#1709=CARTESIAN_POINT('',(1.19999999999998,13.9999999999998,-4.84529946162074));
#1710=CARTESIAN_POINT('',(1.19999999999998,13.9999999999997,-7.15470053837924));
#1711=CARTESIAN_POINT('',(1.19999999999998,11.9999999999998,-3.69059892324178));
#1712=CARTESIAN_POINT('',(1.19999999999998,13.9999999999998,-4.84529946162074));
#1713=CARTESIAN_POINT('',(1.19999999999998,11.9999999999998,-3.69059892324178));
#1714=CARTESIAN_POINT('Origin',(1.19999999999998,9.9999999999998,-4.84529946162102));
#1715=CARTESIAN_POINT('',(1.19999999999998,9.99999999999963,-7.15470053837952));
#1716=CARTESIAN_POINT('',(1.19999999999998,9.9999999999998,-4.84529946162102));
#1717=CARTESIAN_POINT('Origin',(1.19999999999998,11.9999999999998,-3.69059892324178));
#1718=CARTESIAN_POINT('',(1.19999999999998,11.9999999999998,-3.69059892324178));
#1719=CARTESIAN_POINT('Origin',(1.19999999999998,13.9999999999998,-4.84529946162074));
#1720=CARTESIAN_POINT('',(1.19999999999998,13.9999999999998,-4.84529946162074));
#1721=CARTESIAN_POINT('Origin',(1.19999999999998,13.9999999999997,-7.15470053837924));
#1722=CARTESIAN_POINT('',(1.19999999999998,13.9999999999997,-7.15470053837924));
#1723=CARTESIAN_POINT('Origin',(1.19999999999998,11.9999999999996,-8.30940107675879));
#1724=CARTESIAN_POINT('',(1.19999999999998,11.9999999999996,-8.30940107675879));
#1725=CARTESIAN_POINT('Origin',(1.19999999999998,9.99999999999963,-7.15470053837952));
#1726=CARTESIAN_POINT('Origin',(1.19999999999998,0.,0.));
#1727=CARTESIAN_POINT('',(1.19999999999998,-14.0000000000001,-4.84529946162102));
#1728=CARTESIAN_POINT('',(1.19999999999998,-13.9999999999999,-7.15470053837952));
#1729=CARTESIAN_POINT('',(1.19999999999998,-14.0000000000001,-4.84529946162102));
#1730=CARTESIAN_POINT('',(1.19999999999998,-12.,-8.30940107675879));
#1731=CARTESIAN_POINT('',(1.19999999999998,-13.9999999999999,-7.15470053837952));
#1732=CARTESIAN_POINT('',(1.19999999999998,-9.99999999999986,-7.15470053837952));
#1733=CARTESIAN_POINT('',(1.19999999999998,-12.,-8.30940107675879));
#1734=CARTESIAN_POINT('',(1.19999999999998,-10.0000000000001,-4.84529946162102));
#1735=CARTESIAN_POINT('',(1.19999999999998,-9.99999999999986,-7.15470053837952));
#1736=CARTESIAN_POINT('',(1.19999999999998,-12.0000000000001,-3.69059892324178));
#1737=CARTESIAN_POINT('',(1.19999999999998,-10.0000000000001,-4.84529946162102));
#1738=CARTESIAN_POINT('',(1.19999999999998,-12.0000000000001,-3.69059892324178));
#1739=CARTESIAN_POINT('Origin',(1.19999999999998,-14.0000000000001,-4.84529946162102));
#1740=CARTESIAN_POINT('',(1.19999999999998,-13.9999999999999,-7.15470053837952));
#1741=CARTESIAN_POINT('',(1.19999999999998,-14.0000000000001,-4.84529946162102));
#1742=CARTESIAN_POINT('Origin',(1.19999999999998,-12.0000000000001,-3.69059892324178));
#1743=CARTESIAN_POINT('',(1.19999999999998,-12.0000000000001,-3.69059892324178));
#1744=CARTESIAN_POINT('Origin',(1.19999999999998,-10.0000000000001,-4.84529946162102));
#1745=CARTESIAN_POINT('',(1.19999999999998,-10.0000000000001,-4.84529946162102));
#1746=CARTESIAN_POINT('Origin',(1.19999999999998,-9.99999999999986,-7.15470053837952));
#1747=CARTESIAN_POINT('',(1.19999999999998,-9.99999999999986,-7.15470053837952));
#1748=CARTESIAN_POINT('Origin',(1.19999999999998,-12.,-8.30940107675879));
#1749=CARTESIAN_POINT('',(1.19999999999998,-12.,-8.30940107675879));
#1750=CARTESIAN_POINT('Origin',(1.19999999999998,-13.9999999999999,-7.15470053837952));
#1751=CARTESIAN_POINT('Origin',(1.19999999999998,0.,0.));
#1752=CARTESIAN_POINT('',(1.19999999999998,-14.0000000000001,7.15470053837924));
#1753=CARTESIAN_POINT('',(1.19999999999998,-14.,4.84529946162074));
#1754=CARTESIAN_POINT('',(1.19999999999998,-14.0000000000001,7.15470053837924));
#1755=CARTESIAN_POINT('',(1.19999999999998,-12.,3.6905989232415));
#1756=CARTESIAN_POINT('',(1.19999999999998,-14.,4.84529946162074));
#1757=CARTESIAN_POINT('',(1.19999999999998,-10.,4.84529946162074));
#1758=CARTESIAN_POINT('',(1.19999999999998,-12.,3.6905989232415));
#1759=CARTESIAN_POINT('',(1.19999999999998,-10.0000000000001,7.15470053837924));
#1760=CARTESIAN_POINT('',(1.19999999999998,-10.,4.84529946162074));
#1761=CARTESIAN_POINT('',(1.19999999999998,-12.0000000000001,8.30940107675851));
#1762=CARTESIAN_POINT('',(1.19999999999998,-10.0000000000001,7.15470053837924));
#1763=CARTESIAN_POINT('',(1.19999999999998,-12.0000000000001,8.30940107675851));
#1764=CARTESIAN_POINT('Origin',(1.19999999999998,-14.0000000000001,7.15470053837924));
#1765=CARTESIAN_POINT('',(1.19999999999998,-14.,4.84529946162074));
#1766=CARTESIAN_POINT('',(1.19999999999998,-14.0000000000001,7.15470053837924));
#1767=CARTESIAN_POINT('Origin',(1.19999999999998,-12.0000000000001,8.30940107675851));
#1768=CARTESIAN_POINT('',(1.19999999999998,-12.0000000000001,8.30940107675851));
#1769=CARTESIAN_POINT('Origin',(1.19999999999998,-10.0000000000001,7.15470053837924));
#1770=CARTESIAN_POINT('',(1.19999999999998,-10.0000000000001,7.15470053837924));
#1771=CARTESIAN_POINT('Origin',(1.19999999999998,-10.,4.84529946162074));
#1772=CARTESIAN_POINT('',(1.19999999999998,-10.,4.84529946162074));
#1773=CARTESIAN_POINT('Origin',(1.19999999999998,-12.,3.6905989232415));
#1774=CARTESIAN_POINT('',(1.19999999999998,-12.,3.6905989232415));
#1775=CARTESIAN_POINT('Origin',(1.19999999999998,-14.,4.84529946162074));
#1776=UNCERTAINTY_MEASURE_WITH_UNIT(LENGTH_MEASURE(0.01),#1780,
'DISTANCE_ACCURACY_VALUE',
'Maximum model space distance between geometric entities at asserted c
onnectivities');
#1777=UNCERTAINTY_MEASURE_WITH_UNIT(LENGTH_MEASURE(0.01),#1780,
'DISTANCE_ACCURACY_VALUE',
'Maximum model space distance between geometric entities at asserted c
onnectivities');
#1778=(
GEOMETRIC_REPRESENTATION_CONTEXT(3)
GLOBAL_UNCERTAINTY_ASSIGNED_CONTEXT((#1776))
GLOBAL_UNIT_ASSIGNED_CONTEXT((#1780,#1782,#1783))
REPRESENTATION_CONTEXT('','3D')
);
#1779=(
GEOMETRIC_REPRESENTATION_CONTEXT(3)
GLOBAL_UNCERTAINTY_ASSIGNED_CONTEXT((#1777))
GLOBAL_UNIT_ASSIGNED_CONTEXT((#1780,#1782,#1783))
REPRESENTATION_CONTEXT('','3D')
);
#1780=(
LENGTH_UNIT()
NAMED_UNIT(*)
SI_UNIT(.MILLI.,.METRE.)
);
#1781=(
LENGTH_UNIT()
NAMED_UNIT(*)
SI_UNIT($,.METRE.)
);
#1782=(
NAMED_UNIT(*)
PLANE_ANGLE_UNIT()
SI_UNIT($,.RADIAN.)
);
#1783=(
NAMED_UNIT(*)
SI_UNIT($,.STERADIAN.)
SOLID_ANGLE_UNIT()
);
#1784=SHAPE_DEFINITION_REPRESENTATION(#1785,#1786);
#1785=PRODUCT_DEFINITION_SHAPE('',$,#1788);
#1786=SHAPE_REPRESENTATION('',(#1082),#1778);
#1787=PRODUCT_DEFINITION_CONTEXT('part definition',#1792,'design');
#1788=PRODUCT_DEFINITION('PT1.00.00.242 Bracket','Bracket v1',#1789,#1787);
#1789=PRODUCT_DEFINITION_FORMATION('',$,#1794);
#1790=PRODUCT_RELATED_PRODUCT_CATEGORY('Bracket v1','Bracket v1',(#1794));
#1791=APPLICATION_PROTOCOL_DEFINITION('international standard',
'automotive_design',2009,#1792);
#1792=APPLICATION_CONTEXT(
'Core Data for Automotive Mechanical Design Process');
#1793=PRODUCT_CONTEXT('part definition',#1792,'mechanical');
#1794=PRODUCT('PT1.00.00.242 Bracket','Bracket v1','STEP AP203',(#1793));
#1795=PRESENTATION_STYLE_ASSIGNMENT((#1796));
#1796=SURFACE_STYLE_USAGE(.BOTH.,#1797);
#1797=SURFACE_SIDE_STYLE('',(#1798));
#1798=SURFACE_STYLE_FILL_AREA(#1799);
#1799=FILL_AREA_STYLE('Steel - Satin',(#1800));
#1800=FILL_AREA_STYLE_COLOUR('Steel - Satin',#1801);
#1801=COLOUR_RGB('Steel - Satin',0.627450980392157,0.627450980392157,0.627450980392157);
ENDSEC;
END-ISO-10303-21;
