ISO-10303-21;
HEADER;
/* Generated by software containing ST-Developer
 * from STEP Tools, Inc. (www.steptools.com) 
 */

FILE_DESCRIPTION(
/* description */ ('STEP AP203'),
/* implementation_level */ '2;1');

FILE_NAME(
/* name */ 'Camera upper body.step',
/* time_stamp */ '2026-07-23T10:32:31+08:00',
/* author */ (''),
/* organization */ (''),
/* preprocessor_version */ 'ST-DEVELOPER v20.1',
/* originating_system */ 'Autodesk Translation Framework v15.8.0.0',
/* authorisation */ '');

FILE_SCHEMA (('AUTOMOTIVE_DESIGN { 1 0 10303 214 3 1 1 }'));
ENDSEC;

DATA;
#10=MECHANICAL_DESIGN_GEOMETRIC_PRESENTATION_REPRESENTATION('',(#13),#1093);
#11=SHAPE_REPRESENTATION_RELATIONSHIP('SRR','None',#1100,#12);
#12=ADVANCED_BREP_SHAPE_REPRESENTATION('',(#14),#1092);
#13=STYLED_ITEM('',(#1109),#14);
#14=MANIFOLD_SOLID_BREP('Body1',#645);
#15=FACE_BOUND('',#107,.T.);
#16=FACE_BOUND('',#110,.T.);
#17=FACE_BOUND('',#113,.T.);
#18=FACE_BOUND('',#114,.T.);
#19=FACE_BOUND('',#115,.T.);
#20=FACE_BOUND('',#116,.T.);
#21=FACE_BOUND('',#117,.T.);
#22=FACE_BOUND('',#118,.T.);
#23=FACE_BOUND('',#119,.T.);
#24=FACE_BOUND('',#120,.T.);
#25=FACE_BOUND('',#123,.T.);
#26=FACE_BOUND('',#126,.T.);
#27=FACE_BOUND('',#127,.T.);
#28=FACE_BOUND('',#128,.T.);
#29=FACE_BOUND('',#129,.T.);
#30=FACE_BOUND('',#132,.T.);
#31=FACE_BOUND('',#133,.T.);
#32=FACE_BOUND('',#136,.T.);
#33=FACE_BOUND('',#137,.T.);
#34=FACE_BOUND('',#139,.T.);
#35=FACE_BOUND('',#141,.T.);
#36=FACE_BOUND('',#143,.T.);
#37=FACE_BOUND('',#145,.T.);
#38=PLANE('',#701);
#39=PLANE('',#706);
#40=PLANE('',#707);
#41=PLANE('',#708);
#42=PLANE('',#711);
#43=PLANE('',#712);
#44=PLANE('',#713);
#45=PLANE('',#714);
#46=PLANE('',#715);
#47=PLANE('',#716);
#48=PLANE('',#717);
#49=PLANE('',#718);
#50=PLANE('',#719);
#51=PLANE('',#720);
#52=PLANE('',#721);
#53=PLANE('',#722);
#54=PLANE('',#723);
#55=PLANE('',#724);
#56=PLANE('',#725);
#57=FACE_OUTER_BOUND('',#92,.T.);
#58=FACE_OUTER_BOUND('',#93,.T.);
#59=FACE_OUTER_BOUND('',#94,.T.);
#60=FACE_OUTER_BOUND('',#95,.T.);
#61=FACE_OUTER_BOUND('',#96,.T.);
#62=FACE_OUTER_BOUND('',#97,.T.);
#63=FACE_OUTER_BOUND('',#98,.T.);
#64=FACE_OUTER_BOUND('',#99,.T.);
#65=FACE_OUTER_BOUND('',#100,.T.);
#66=FACE_OUTER_BOUND('',#101,.T.);
#67=FACE_OUTER_BOUND('',#102,.T.);
#68=FACE_OUTER_BOUND('',#103,.T.);
#69=FACE_OUTER_BOUND('',#104,.T.);
#70=FACE_OUTER_BOUND('',#105,.T.);
#71=FACE_OUTER_BOUND('',#106,.T.);
#72=FACE_OUTER_BOUND('',#108,.T.);
#73=FACE_OUTER_BOUND('',#109,.T.);
#74=FACE_OUTER_BOUND('',#111,.T.);
#75=FACE_OUTER_BOUND('',#112,.T.);
#76=FACE_OUTER_BOUND('',#121,.T.);
#77=FACE_OUTER_BOUND('',#122,.T.);
#78=FACE_OUTER_BOUND('',#124,.T.);
#79=FACE_OUTER_BOUND('',#125,.T.);
#80=FACE_OUTER_BOUND('',#130,.T.);
#81=FACE_OUTER_BOUND('',#131,.T.);
#82=FACE_OUTER_BOUND('',#134,.T.);
#83=FACE_OUTER_BOUND('',#135,.T.);
#84=FACE_OUTER_BOUND('',#138,.T.);
#85=FACE_OUTER_BOUND('',#140,.T.);
#86=FACE_OUTER_BOUND('',#142,.T.);
#87=FACE_OUTER_BOUND('',#144,.T.);
#88=FACE_OUTER_BOUND('',#146,.T.);
#89=FACE_OUTER_BOUND('',#147,.T.);
#90=FACE_OUTER_BOUND('',#148,.T.);
#91=FACE_OUTER_BOUND('',#149,.T.);
#92=EDGE_LOOP('',(#426,#427,#428,#429));
#93=EDGE_LOOP('',(#430,#431,#432,#433));
#94=EDGE_LOOP('',(#434,#435,#436,#437));
#95=EDGE_LOOP('',(#438,#439,#440,#441));
#96=EDGE_LOOP('',(#442,#443,#444,#445));
#97=EDGE_LOOP('',(#446,#447,#448,#449));
#98=EDGE_LOOP('',(#450,#451,#452,#453));
#99=EDGE_LOOP('',(#454,#455,#456,#457));
#100=EDGE_LOOP('',(#458,#459,#460,#461));
#101=EDGE_LOOP('',(#462,#463,#464,#465));
#102=EDGE_LOOP('',(#466,#467,#468,#469));
#103=EDGE_LOOP('',(#470,#471,#472,#473));
#104=EDGE_LOOP('',(#474,#475,#476,#477));
#105=EDGE_LOOP('',(#478,#479,#480,#481));
#106=EDGE_LOOP('',(#482,#483,#484,#485));
#107=EDGE_LOOP('',(#486,#487,#488,#489));
#108=EDGE_LOOP('',(#490,#491,#492,#493));
#109=EDGE_LOOP('',(#494,#495,#496,#497,#498,#499,#500,#501));
#110=EDGE_LOOP('',(#502,#503,#504,#505));
#111=EDGE_LOOP('',(#506,#507,#508,#509,#510,#511,#512,#513));
#112=EDGE_LOOP('',(#514,#515,#516,#517));
#113=EDGE_LOOP('',(#518));
#114=EDGE_LOOP('',(#519));
#115=EDGE_LOOP('',(#520));
#116=EDGE_LOOP('',(#521));
#117=EDGE_LOOP('',(#522));
#118=EDGE_LOOP('',(#523));
#119=EDGE_LOOP('',(#524));
#120=EDGE_LOOP('',(#525));
#121=EDGE_LOOP('',(#526,#527,#528,#529));
#122=EDGE_LOOP('',(#530,#531,#532,#533));
#123=EDGE_LOOP('',(#534,#535,#536,#537));
#124=EDGE_LOOP('',(#538,#539,#540,#541));
#125=EDGE_LOOP('',(#542,#543,#544,#545));
#126=EDGE_LOOP('',(#546));
#127=EDGE_LOOP('',(#547));
#128=EDGE_LOOP('',(#548));
#129=EDGE_LOOP('',(#549));
#130=EDGE_LOOP('',(#550,#551,#552,#553));
#131=EDGE_LOOP('',(#554,#555,#556,#557));
#132=EDGE_LOOP('',(#558));
#133=EDGE_LOOP('',(#559));
#134=EDGE_LOOP('',(#560,#561,#562,#563));
#135=EDGE_LOOP('',(#564,#565,#566,#567));
#136=EDGE_LOOP('',(#568));
#137=EDGE_LOOP('',(#569));
#138=EDGE_LOOP('',(#570));
#139=EDGE_LOOP('',(#571));
#140=EDGE_LOOP('',(#572));
#141=EDGE_LOOP('',(#573));
#142=EDGE_LOOP('',(#574));
#143=EDGE_LOOP('',(#575));
#144=EDGE_LOOP('',(#576));
#145=EDGE_LOOP('',(#577));
#146=EDGE_LOOP('',(#578,#579,#580,#581));
#147=EDGE_LOOP('',(#582,#583,#584,#585));
#148=EDGE_LOOP('',(#586,#587,#588,#589));
#149=EDGE_LOOP('',(#590,#591,#592,#593));
#150=LINE('',#919,#202);
#151=LINE('',#925,#203);
#152=LINE('',#931,#204);
#153=LINE('',#937,#205);
#154=LINE('',#943,#206);
#155=LINE('',#949,#207);
#156=LINE('',#955,#208);
#157=LINE('',#961,#209);
#158=LINE('',#967,#210);
#159=LINE('',#973,#211);
#160=LINE('',#979,#212);
#161=LINE('',#985,#213);
#162=LINE('',#992,#214);
#163=LINE('',#995,#215);
#164=LINE('',#1001,#216);
#165=LINE('',#1004,#217);
#166=LINE('',#1009,#218);
#167=LINE('',#1010,#219);
#168=LINE('',#1014,#220);
#169=LINE('',#1015,#221);
#170=LINE('',#1018,#222);
#171=LINE('',#1021,#223);
#172=LINE('',#1025,#224);
#173=LINE('',#1027,#225);
#174=LINE('',#1028,#226);
#175=LINE('',#1030,#227);
#176=LINE('',#1031,#228);
#177=LINE('',#1034,#229);
#178=LINE('',#1036,#230);
#179=LINE('',#1038,#231);
#180=LINE('',#1039,#232);
#181=LINE('',#1043,#233);
#182=LINE('',#1045,#234);
#183=LINE('',#1046,#235);
#184=LINE('',#1048,#236);
#185=LINE('',#1049,#237);
#186=LINE('',#1051,#238);
#187=LINE('',#1052,#239);
#188=LINE('',#1057,#240);
#189=LINE('',#1058,#241);
#190=LINE('',#1060,#242);
#191=LINE('',#1063,#243);
#192=LINE('',#1065,#244);
#193=LINE('',#1067,#245);
#194=LINE('',#1068,#246);
#195=LINE('',#1070,#247);
#196=LINE('',#1073,#248);
#197=LINE('',#1076,#249);
#198=LINE('',#1083,#250);
#199=LINE('',#1084,#251);
#200=LINE('',#1086,#252);
#201=LINE('',#1088,#253);
#202=VECTOR('',#732,1.1);
#203=VECTOR('',#739,1.1);
#204=VECTOR('',#746,1.1);
#205=VECTOR('',#753,1.1);
#206=VECTOR('',#760,2.25);
#207=VECTOR('',#767,2.25);
#208=VECTOR('',#774,2.25);
#209=VECTOR('',#781,2.25);
#210=VECTOR('',#788,1.59999999999999);
#211=VECTOR('',#795,1.59999999999999);
#212=VECTOR('',#802,1.59999999999999);
#213=VECTOR('',#809,1.59999999999999);
#214=VECTOR('',#816,1000.);
#215=VECTOR('',#819,1000.);
#216=VECTOR('',#824,1000.);
#217=VECTOR('',#827,1000.);
#218=VECTOR('',#832,1000.);
#219=VECTOR('',#833,1000.);
#220=VECTOR('',#836,1000.);
#221=VECTOR('',#837,1000.);
#222=VECTOR('',#840,1000.);
#223=VECTOR('',#843,1000.);
#224=VECTOR('',#846,1000.);
#225=VECTOR('',#847,1000.);
#226=VECTOR('',#848,1000.);
#227=VECTOR('',#849,1000.);
#228=VECTOR('',#850,1000.);
#229=VECTOR('',#851,1000.);
#230=VECTOR('',#852,1000.);
#231=VECTOR('',#853,1000.);
#232=VECTOR('',#854,1000.);
#233=VECTOR('',#857,1000.);
#234=VECTOR('',#858,1000.);
#235=VECTOR('',#859,1000.);
#236=VECTOR('',#860,1000.);
#237=VECTOR('',#861,1000.);
#238=VECTOR('',#864,1000.);
#239=VECTOR('',#865,1000.);
#240=VECTOR('',#870,1000.);
#241=VECTOR('',#871,1000.);
#242=VECTOR('',#874,1000.);
#243=VECTOR('',#875,1000.);
#244=VECTOR('',#876,1000.);
#245=VECTOR('',#877,1000.);
#246=VECTOR('',#878,1000.);
#247=VECTOR('',#881,1000.);
#248=VECTOR('',#886,1000.);
#249=VECTOR('',#891,1000.);
#250=VECTOR('',#904,1000.);
#251=VECTOR('',#905,1000.);
#252=VECTOR('',#908,1000.);
#253=VECTOR('',#911,1000.);
#254=CIRCLE('',#660,1.1);
#255=CIRCLE('',#661,1.1);
#256=CIRCLE('',#663,1.1);
#257=CIRCLE('',#664,1.1);
#258=CIRCLE('',#666,1.1);
#259=CIRCLE('',#667,1.1);
#260=CIRCLE('',#669,1.1);
#261=CIRCLE('',#670,1.1);
#262=CIRCLE('',#672,2.25);
#263=CIRCLE('',#673,2.25);
#264=CIRCLE('',#675,2.25);
#265=CIRCLE('',#676,2.25);
#266=CIRCLE('',#678,2.25);
#267=CIRCLE('',#679,2.25);
#268=CIRCLE('',#681,2.25);
#269=CIRCLE('',#682,2.25);
#270=CIRCLE('',#684,1.59999999999999);
#271=CIRCLE('',#685,1.59999999999999);
#272=CIRCLE('',#687,1.59999999999999);
#273=CIRCLE('',#688,1.59999999999999);
#274=CIRCLE('',#690,1.59999999999999);
#275=CIRCLE('',#691,1.59999999999999);
#276=CIRCLE('',#693,1.59999999999999);
#277=CIRCLE('',#694,1.59999999999999);
#278=CIRCLE('',#696,17.5);
#279=CIRCLE('',#697,17.5);
#280=CIRCLE('',#699,20.);
#281=CIRCLE('',#700,20.);
#282=CIRCLE('',#702,20.);
#283=CIRCLE('',#703,17.5);
#284=CIRCLE('',#705,20.);
#285=CIRCLE('',#710,17.5);
#286=VERTEX_POINT('',#916);
#287=VERTEX_POINT('',#918);
#288=VERTEX_POINT('',#922);
#289=VERTEX_POINT('',#924);
#290=VERTEX_POINT('',#928);
#291=VERTEX_POINT('',#930);
#292=VERTEX_POINT('',#934);
#293=VERTEX_POINT('',#936);
#294=VERTEX_POINT('',#940);
#295=VERTEX_POINT('',#942);
#296=VERTEX_POINT('',#946);
#297=VERTEX_POINT('',#948);
#298=VERTEX_POINT('',#952);
#299=VERTEX_POINT('',#954);
#300=VERTEX_POINT('',#958);
#301=VERTEX_POINT('',#960);
#302=VERTEX_POINT('',#964);
#303=VERTEX_POINT('',#966);
#304=VERTEX_POINT('',#970);
#305=VERTEX_POINT('',#972);
#306=VERTEX_POINT('',#976);
#307=VERTEX_POINT('',#978);
#308=VERTEX_POINT('',#982);
#309=VERTEX_POINT('',#984);
#310=VERTEX_POINT('',#988);
#311=VERTEX_POINT('',#989);
#312=VERTEX_POINT('',#991);
#313=VERTEX_POINT('',#993);
#314=VERTEX_POINT('',#997);
#315=VERTEX_POINT('',#998);
#316=VERTEX_POINT('',#1000);
#317=VERTEX_POINT('',#1002);
#318=VERTEX_POINT('',#1006);
#319=VERTEX_POINT('',#1007);
#320=VERTEX_POINT('',#1011);
#321=VERTEX_POINT('',#1012);
#322=VERTEX_POINT('',#1017);
#323=VERTEX_POINT('',#1019);
#324=VERTEX_POINT('',#1023);
#325=VERTEX_POINT('',#1024);
#326=VERTEX_POINT('',#1026);
#327=VERTEX_POINT('',#1029);
#328=VERTEX_POINT('',#1032);
#329=VERTEX_POINT('',#1033);
#330=VERTEX_POINT('',#1035);
#331=VERTEX_POINT('',#1037);
#332=VERTEX_POINT('',#1041);
#333=VERTEX_POINT('',#1042);
#334=VERTEX_POINT('',#1044);
#335=VERTEX_POINT('',#1047);
#336=VERTEX_POINT('',#1054);
#337=VERTEX_POINT('',#1055);
#338=VERTEX_POINT('',#1061);
#339=VERTEX_POINT('',#1062);
#340=VERTEX_POINT('',#1064);
#341=VERTEX_POINT('',#1066);
#342=EDGE_CURVE('',#286,#286,#254,.T.);
#343=EDGE_CURVE('',#286,#287,#150,.T.);
#344=EDGE_CURVE('',#287,#287,#255,.T.);
#345=EDGE_CURVE('',#288,#288,#256,.T.);
#346=EDGE_CURVE('',#288,#289,#151,.T.);
#347=EDGE_CURVE('',#289,#289,#257,.T.);
#348=EDGE_CURVE('',#290,#290,#258,.T.);
#349=EDGE_CURVE('',#290,#291,#152,.T.);
#350=EDGE_CURVE('',#291,#291,#259,.T.);
#351=EDGE_CURVE('',#292,#292,#260,.T.);
#352=EDGE_CURVE('',#292,#293,#153,.T.);
#353=EDGE_CURVE('',#293,#293,#261,.T.);
#354=EDGE_CURVE('',#294,#294,#262,.T.);
#355=EDGE_CURVE('',#294,#295,#154,.T.);
#356=EDGE_CURVE('',#295,#295,#263,.T.);
#357=EDGE_CURVE('',#296,#296,#264,.T.);
#358=EDGE_CURVE('',#296,#297,#155,.T.);
#359=EDGE_CURVE('',#297,#297,#265,.T.);
#360=EDGE_CURVE('',#298,#298,#266,.T.);
#361=EDGE_CURVE('',#298,#299,#156,.T.);
#362=EDGE_CURVE('',#299,#299,#267,.T.);
#363=EDGE_CURVE('',#300,#300,#268,.T.);
#364=EDGE_CURVE('',#300,#301,#157,.T.);
#365=EDGE_CURVE('',#301,#301,#269,.T.);
#366=EDGE_CURVE('',#302,#302,#270,.T.);
#367=EDGE_CURVE('',#302,#303,#158,.T.);
#368=EDGE_CURVE('',#303,#303,#271,.T.);
#369=EDGE_CURVE('',#304,#304,#272,.T.);
#370=EDGE_CURVE('',#304,#305,#159,.T.);
#371=EDGE_CURVE('',#305,#305,#273,.T.);
#372=EDGE_CURVE('',#306,#306,#274,.T.);
#373=EDGE_CURVE('',#306,#307,#160,.T.);
#374=EDGE_CURVE('',#307,#307,#275,.T.);
#375=EDGE_CURVE('',#308,#308,#276,.T.);
#376=EDGE_CURVE('',#308,#309,#161,.T.);
#377=EDGE_CURVE('',#309,#309,#277,.T.);
#378=EDGE_CURVE('',#310,#311,#278,.T.);
#379=EDGE_CURVE('',#311,#312,#162,.T.);
#380=EDGE_CURVE('',#313,#312,#279,.T.);
#381=EDGE_CURVE('',#310,#313,#163,.T.);
#382=EDGE_CURVE('',#314,#315,#280,.T.);
#383=EDGE_CURVE('',#314,#316,#164,.T.);
#384=EDGE_CURVE('',#317,#316,#281,.T.);
#385=EDGE_CURVE('',#315,#317,#165,.T.);
#386=EDGE_CURVE('',#318,#319,#282,.T.);
#387=EDGE_CURVE('',#319,#314,#166,.T.);
#388=EDGE_CURVE('',#315,#318,#167,.T.);
#389=EDGE_CURVE('',#320,#321,#283,.T.);
#390=EDGE_CURVE('',#311,#320,#168,.T.);
#391=EDGE_CURVE('',#321,#310,#169,.T.);
#392=EDGE_CURVE('',#318,#322,#170,.T.);
#393=EDGE_CURVE('',#323,#322,#284,.T.);
#394=EDGE_CURVE('',#319,#323,#171,.T.);
#395=EDGE_CURVE('',#324,#325,#172,.T.);
#396=EDGE_CURVE('',#326,#325,#173,.T.);
#397=EDGE_CURVE('',#316,#326,#174,.T.);
#398=EDGE_CURVE('',#327,#323,#175,.T.);
#399=EDGE_CURVE('',#327,#324,#176,.T.);
#400=EDGE_CURVE('',#328,#329,#177,.T.);
#401=EDGE_CURVE('',#330,#328,#178,.T.);
#402=EDGE_CURVE('',#331,#330,#179,.T.);
#403=EDGE_CURVE('',#329,#331,#180,.T.);
#404=EDGE_CURVE('',#332,#333,#181,.T.);
#405=EDGE_CURVE('',#334,#333,#182,.T.);
#406=EDGE_CURVE('',#322,#334,#183,.T.);
#407=EDGE_CURVE('',#335,#317,#184,.T.);
#408=EDGE_CURVE('',#335,#332,#185,.T.);
#409=EDGE_CURVE('',#333,#324,#186,.T.);
#410=EDGE_CURVE('',#325,#332,#187,.T.);
#411=EDGE_CURVE('',#336,#337,#285,.T.);
#412=EDGE_CURVE('',#320,#336,#188,.T.);
#413=EDGE_CURVE('',#321,#337,#189,.T.);
#414=EDGE_CURVE('',#337,#313,#190,.T.);
#415=EDGE_CURVE('',#338,#339,#191,.T.);
#416=EDGE_CURVE('',#340,#338,#192,.T.);
#417=EDGE_CURVE('',#341,#340,#193,.T.);
#418=EDGE_CURVE('',#339,#341,#194,.T.);
#419=EDGE_CURVE('',#312,#336,#195,.T.);
#420=EDGE_CURVE('',#326,#335,#196,.T.);
#421=EDGE_CURVE('',#334,#327,#197,.T.);
#422=EDGE_CURVE('',#339,#330,#198,.T.);
#423=EDGE_CURVE('',#338,#328,#199,.T.);
#424=EDGE_CURVE('',#341,#331,#200,.T.);
#425=EDGE_CURVE('',#340,#329,#201,.T.);
#426=ORIENTED_EDGE('',*,*,#342,.T.);
#427=ORIENTED_EDGE('',*,*,#343,.T.);
#428=ORIENTED_EDGE('',*,*,#344,.T.);
#429=ORIENTED_EDGE('',*,*,#343,.F.);
#430=ORIENTED_EDGE('',*,*,#345,.T.);
#431=ORIENTED_EDGE('',*,*,#346,.T.);
#432=ORIENTED_EDGE('',*,*,#347,.T.);
#433=ORIENTED_EDGE('',*,*,#346,.F.);
#434=ORIENTED_EDGE('',*,*,#348,.T.);
#435=ORIENTED_EDGE('',*,*,#349,.T.);
#436=ORIENTED_EDGE('',*,*,#350,.T.);
#437=ORIENTED_EDGE('',*,*,#349,.F.);
#438=ORIENTED_EDGE('',*,*,#351,.T.);
#439=ORIENTED_EDGE('',*,*,#352,.T.);
#440=ORIENTED_EDGE('',*,*,#353,.T.);
#441=ORIENTED_EDGE('',*,*,#352,.F.);
#442=ORIENTED_EDGE('',*,*,#354,.T.);
#443=ORIENTED_EDGE('',*,*,#355,.T.);
#444=ORIENTED_EDGE('',*,*,#356,.F.);
#445=ORIENTED_EDGE('',*,*,#355,.F.);
#446=ORIENTED_EDGE('',*,*,#357,.T.);
#447=ORIENTED_EDGE('',*,*,#358,.T.);
#448=ORIENTED_EDGE('',*,*,#359,.F.);
#449=ORIENTED_EDGE('',*,*,#358,.F.);
#450=ORIENTED_EDGE('',*,*,#360,.T.);
#451=ORIENTED_EDGE('',*,*,#361,.T.);
#452=ORIENTED_EDGE('',*,*,#362,.F.);
#453=ORIENTED_EDGE('',*,*,#361,.F.);
#454=ORIENTED_EDGE('',*,*,#363,.T.);
#455=ORIENTED_EDGE('',*,*,#364,.T.);
#456=ORIENTED_EDGE('',*,*,#365,.F.);
#457=ORIENTED_EDGE('',*,*,#364,.F.);
#458=ORIENTED_EDGE('',*,*,#366,.F.);
#459=ORIENTED_EDGE('',*,*,#367,.T.);
#460=ORIENTED_EDGE('',*,*,#368,.T.);
#461=ORIENTED_EDGE('',*,*,#367,.F.);
#462=ORIENTED_EDGE('',*,*,#369,.F.);
#463=ORIENTED_EDGE('',*,*,#370,.T.);
#464=ORIENTED_EDGE('',*,*,#371,.T.);
#465=ORIENTED_EDGE('',*,*,#370,.F.);
#466=ORIENTED_EDGE('',*,*,#372,.F.);
#467=ORIENTED_EDGE('',*,*,#373,.T.);
#468=ORIENTED_EDGE('',*,*,#374,.T.);
#469=ORIENTED_EDGE('',*,*,#373,.F.);
#470=ORIENTED_EDGE('',*,*,#375,.F.);
#471=ORIENTED_EDGE('',*,*,#376,.T.);
#472=ORIENTED_EDGE('',*,*,#377,.T.);
#473=ORIENTED_EDGE('',*,*,#376,.F.);
#474=ORIENTED_EDGE('',*,*,#378,.T.);
#475=ORIENTED_EDGE('',*,*,#379,.T.);
#476=ORIENTED_EDGE('',*,*,#380,.F.);
#477=ORIENTED_EDGE('',*,*,#381,.F.);
#478=ORIENTED_EDGE('',*,*,#382,.F.);
#479=ORIENTED_EDGE('',*,*,#383,.T.);
#480=ORIENTED_EDGE('',*,*,#384,.F.);
#481=ORIENTED_EDGE('',*,*,#385,.F.);
#482=ORIENTED_EDGE('',*,*,#386,.T.);
#483=ORIENTED_EDGE('',*,*,#387,.T.);
#484=ORIENTED_EDGE('',*,*,#382,.T.);
#485=ORIENTED_EDGE('',*,*,#388,.T.);
#486=ORIENTED_EDGE('',*,*,#389,.F.);
#487=ORIENTED_EDGE('',*,*,#390,.F.);
#488=ORIENTED_EDGE('',*,*,#378,.F.);
#489=ORIENTED_EDGE('',*,*,#391,.F.);
#490=ORIENTED_EDGE('',*,*,#392,.T.);
#491=ORIENTED_EDGE('',*,*,#393,.F.);
#492=ORIENTED_EDGE('',*,*,#394,.F.);
#493=ORIENTED_EDGE('',*,*,#386,.F.);
#494=ORIENTED_EDGE('',*,*,#395,.T.);
#495=ORIENTED_EDGE('',*,*,#396,.F.);
#496=ORIENTED_EDGE('',*,*,#397,.F.);
#497=ORIENTED_EDGE('',*,*,#383,.F.);
#498=ORIENTED_EDGE('',*,*,#387,.F.);
#499=ORIENTED_EDGE('',*,*,#394,.T.);
#500=ORIENTED_EDGE('',*,*,#398,.F.);
#501=ORIENTED_EDGE('',*,*,#399,.T.);
#502=ORIENTED_EDGE('',*,*,#400,.F.);
#503=ORIENTED_EDGE('',*,*,#401,.F.);
#504=ORIENTED_EDGE('',*,*,#402,.F.);
#505=ORIENTED_EDGE('',*,*,#403,.F.);
#506=ORIENTED_EDGE('',*,*,#404,.T.);
#507=ORIENTED_EDGE('',*,*,#405,.F.);
#508=ORIENTED_EDGE('',*,*,#406,.F.);
#509=ORIENTED_EDGE('',*,*,#392,.F.);
#510=ORIENTED_EDGE('',*,*,#388,.F.);
#511=ORIENTED_EDGE('',*,*,#385,.T.);
#512=ORIENTED_EDGE('',*,*,#407,.F.);
#513=ORIENTED_EDGE('',*,*,#408,.T.);
#514=ORIENTED_EDGE('',*,*,#395,.F.);
#515=ORIENTED_EDGE('',*,*,#409,.F.);
#516=ORIENTED_EDGE('',*,*,#404,.F.);
#517=ORIENTED_EDGE('',*,*,#410,.F.);
#518=ORIENTED_EDGE('',*,*,#342,.F.);
#519=ORIENTED_EDGE('',*,*,#345,.F.);
#520=ORIENTED_EDGE('',*,*,#348,.F.);
#521=ORIENTED_EDGE('',*,*,#351,.F.);
#522=ORIENTED_EDGE('',*,*,#366,.T.);
#523=ORIENTED_EDGE('',*,*,#369,.T.);
#524=ORIENTED_EDGE('',*,*,#372,.T.);
#525=ORIENTED_EDGE('',*,*,#375,.T.);
#526=ORIENTED_EDGE('',*,*,#411,.F.);
#527=ORIENTED_EDGE('',*,*,#412,.F.);
#528=ORIENTED_EDGE('',*,*,#389,.T.);
#529=ORIENTED_EDGE('',*,*,#413,.T.);
#530=ORIENTED_EDGE('',*,*,#414,.F.);
#531=ORIENTED_EDGE('',*,*,#413,.F.);
#532=ORIENTED_EDGE('',*,*,#391,.T.);
#533=ORIENTED_EDGE('',*,*,#381,.T.);
#534=ORIENTED_EDGE('',*,*,#415,.F.);
#535=ORIENTED_EDGE('',*,*,#416,.F.);
#536=ORIENTED_EDGE('',*,*,#417,.F.);
#537=ORIENTED_EDGE('',*,*,#418,.F.);
#538=ORIENTED_EDGE('',*,*,#419,.F.);
#539=ORIENTED_EDGE('',*,*,#379,.F.);
#540=ORIENTED_EDGE('',*,*,#390,.T.);
#541=ORIENTED_EDGE('',*,*,#412,.T.);
#542=ORIENTED_EDGE('',*,*,#411,.T.);
#543=ORIENTED_EDGE('',*,*,#414,.T.);
#544=ORIENTED_EDGE('',*,*,#380,.T.);
#545=ORIENTED_EDGE('',*,*,#419,.T.);
#546=ORIENTED_EDGE('',*,*,#354,.F.);
#547=ORIENTED_EDGE('',*,*,#357,.F.);
#548=ORIENTED_EDGE('',*,*,#360,.F.);
#549=ORIENTED_EDGE('',*,*,#363,.F.);
#550=ORIENTED_EDGE('',*,*,#410,.T.);
#551=ORIENTED_EDGE('',*,*,#408,.F.);
#552=ORIENTED_EDGE('',*,*,#420,.F.);
#553=ORIENTED_EDGE('',*,*,#396,.T.);
#554=ORIENTED_EDGE('',*,*,#384,.T.);
#555=ORIENTED_EDGE('',*,*,#397,.T.);
#556=ORIENTED_EDGE('',*,*,#420,.T.);
#557=ORIENTED_EDGE('',*,*,#407,.T.);
#558=ORIENTED_EDGE('',*,*,#368,.F.);
#559=ORIENTED_EDGE('',*,*,#371,.F.);
#560=ORIENTED_EDGE('',*,*,#409,.T.);
#561=ORIENTED_EDGE('',*,*,#399,.F.);
#562=ORIENTED_EDGE('',*,*,#421,.F.);
#563=ORIENTED_EDGE('',*,*,#405,.T.);
#564=ORIENTED_EDGE('',*,*,#393,.T.);
#565=ORIENTED_EDGE('',*,*,#406,.T.);
#566=ORIENTED_EDGE('',*,*,#421,.T.);
#567=ORIENTED_EDGE('',*,*,#398,.T.);
#568=ORIENTED_EDGE('',*,*,#374,.F.);
#569=ORIENTED_EDGE('',*,*,#377,.F.);
#570=ORIENTED_EDGE('',*,*,#365,.T.);
#571=ORIENTED_EDGE('',*,*,#344,.F.);
#572=ORIENTED_EDGE('',*,*,#362,.T.);
#573=ORIENTED_EDGE('',*,*,#347,.F.);
#574=ORIENTED_EDGE('',*,*,#359,.T.);
#575=ORIENTED_EDGE('',*,*,#353,.F.);
#576=ORIENTED_EDGE('',*,*,#356,.T.);
#577=ORIENTED_EDGE('',*,*,#350,.F.);
#578=ORIENTED_EDGE('',*,*,#415,.T.);
#579=ORIENTED_EDGE('',*,*,#422,.T.);
#580=ORIENTED_EDGE('',*,*,#401,.T.);
#581=ORIENTED_EDGE('',*,*,#423,.F.);
#582=ORIENTED_EDGE('',*,*,#418,.T.);
#583=ORIENTED_EDGE('',*,*,#424,.T.);
#584=ORIENTED_EDGE('',*,*,#402,.T.);
#585=ORIENTED_EDGE('',*,*,#422,.F.);
#586=ORIENTED_EDGE('',*,*,#417,.T.);
#587=ORIENTED_EDGE('',*,*,#425,.T.);
#588=ORIENTED_EDGE('',*,*,#403,.T.);
#589=ORIENTED_EDGE('',*,*,#424,.F.);
#590=ORIENTED_EDGE('',*,*,#416,.T.);
#591=ORIENTED_EDGE('',*,*,#423,.T.);
#592=ORIENTED_EDGE('',*,*,#400,.T.);
#593=ORIENTED_EDGE('',*,*,#425,.F.);
#594=CYLINDRICAL_SURFACE('',#659,1.1);
#595=CYLINDRICAL_SURFACE('',#662,1.1);
#596=CYLINDRICAL_SURFACE('',#665,1.1);
#597=CYLINDRICAL_SURFACE('',#668,1.1);
#598=CYLINDRICAL_SURFACE('',#671,2.25);
#599=CYLINDRICAL_SURFACE('',#674,2.25);
#600=CYLINDRICAL_SURFACE('',#677,2.25);
#601=CYLINDRICAL_SURFACE('',#680,2.25);
#602=CYLINDRICAL_SURFACE('',#683,1.59999999999999);
#603=CYLINDRICAL_SURFACE('',#686,1.59999999999999);
#604=CYLINDRICAL_SURFACE('',#689,1.59999999999999);
#605=CYLINDRICAL_SURFACE('',#692,1.59999999999999);
#606=CYLINDRICAL_SURFACE('',#695,17.5);
#607=CYLINDRICAL_SURFACE('',#698,20.);
#608=CYLINDRICAL_SURFACE('',#704,20.);
#609=CYLINDRICAL_SURFACE('',#709,17.5);
#610=ADVANCED_FACE('',(#57),#594,.F.);
#611=ADVANCED_FACE('',(#58),#595,.F.);
#612=ADVANCED_FACE('',(#59),#596,.F.);
#613=ADVANCED_FACE('',(#60),#597,.F.);
#614=ADVANCED_FACE('',(#61),#598,.T.);
#615=ADVANCED_FACE('',(#62),#599,.T.);
#616=ADVANCED_FACE('',(#63),#600,.T.);
#617=ADVANCED_FACE('',(#64),#601,.T.);
#618=ADVANCED_FACE('',(#65),#602,.F.);
#619=ADVANCED_FACE('',(#66),#603,.F.);
#620=ADVANCED_FACE('',(#67),#604,.F.);
#621=ADVANCED_FACE('',(#68),#605,.F.);
#622=ADVANCED_FACE('',(#69),#606,.F.);
#623=ADVANCED_FACE('',(#70),#607,.T.);
#624=ADVANCED_FACE('',(#71,#15),#38,.F.);
#625=ADVANCED_FACE('',(#72),#608,.T.);
#626=ADVANCED_FACE('',(#73,#16),#39,.F.);
#627=ADVANCED_FACE('',(#74),#40,.F.);
#628=ADVANCED_FACE('',(#75,#17,#18,#19,#20,#21,#22,#23,#24),#41,.T.);
#629=ADVANCED_FACE('',(#76),#609,.F.);
#630=ADVANCED_FACE('',(#77,#25),#42,.T.);
#631=ADVANCED_FACE('',(#78),#43,.T.);
#632=ADVANCED_FACE('',(#79,#26,#27,#28,#29),#44,.F.);
#633=ADVANCED_FACE('',(#80),#45,.F.);
#634=ADVANCED_FACE('',(#81,#30,#31),#46,.T.);
#635=ADVANCED_FACE('',(#82),#47,.F.);
#636=ADVANCED_FACE('',(#83,#32,#33),#48,.T.);
#637=ADVANCED_FACE('',(#84,#34),#49,.T.);
#638=ADVANCED_FACE('',(#85,#35),#50,.T.);
#639=ADVANCED_FACE('',(#86,#36),#51,.T.);
#640=ADVANCED_FACE('',(#87,#37),#52,.T.);
#641=ADVANCED_FACE('',(#88),#53,.F.);
#642=ADVANCED_FACE('',(#89),#54,.F.);
#643=ADVANCED_FACE('',(#90),#55,.F.);
#644=ADVANCED_FACE('',(#91),#56,.F.);
#645=CLOSED_SHELL('',(#610,#611,#612,#613,#614,#615,#616,#617,#618,#619,
#620,#621,#622,#623,#624,#625,#626,#627,#628,#629,#630,#631,#632,#633,#634,
#635,#636,#637,#638,#639,#640,#641,#642,#643,#644));
#646=DERIVED_UNIT_ELEMENT(#648,1.);
#647=DERIVED_UNIT_ELEMENT(#1095,-3.);
#648=(
MASS_UNIT()
NAMED_UNIT(*)
SI_UNIT(.KILO.,.GRAM.)
);
#649=DERIVED_UNIT((#646,#647));
#650=MEASURE_REPRESENTATION_ITEM('density measure',
POSITIVE_RATIO_MEASURE(7850.),#649);
#651=PROPERTY_DEFINITION_REPRESENTATION(#656,#653);
#652=PROPERTY_DEFINITION_REPRESENTATION(#657,#654);
#653=REPRESENTATION('material name',(#655),#1092);
#654=REPRESENTATION('density',(#650),#1092);
#655=DESCRIPTIVE_REPRESENTATION_ITEM('Steel','Steel');
#656=PROPERTY_DEFINITION('material property','material name',#1102);
#657=PROPERTY_DEFINITION('material property','density of part',#1102);
#658=AXIS2_PLACEMENT_3D('',#914,#726,#727);
#659=AXIS2_PLACEMENT_3D('',#915,#728,#729);
#660=AXIS2_PLACEMENT_3D('',#917,#730,#731);
#661=AXIS2_PLACEMENT_3D('',#920,#733,#734);
#662=AXIS2_PLACEMENT_3D('',#921,#735,#736);
#663=AXIS2_PLACEMENT_3D('',#923,#737,#738);
#664=AXIS2_PLACEMENT_3D('',#926,#740,#741);
#665=AXIS2_PLACEMENT_3D('',#927,#742,#743);
#666=AXIS2_PLACEMENT_3D('',#929,#744,#745);
#667=AXIS2_PLACEMENT_3D('',#932,#747,#748);
#668=AXIS2_PLACEMENT_3D('',#933,#749,#750);
#669=AXIS2_PLACEMENT_3D('',#935,#751,#752);
#670=AXIS2_PLACEMENT_3D('',#938,#754,#755);
#671=AXIS2_PLACEMENT_3D('',#939,#756,#757);
#672=AXIS2_PLACEMENT_3D('',#941,#758,#759);
#673=AXIS2_PLACEMENT_3D('',#944,#761,#762);
#674=AXIS2_PLACEMENT_3D('',#945,#763,#764);
#675=AXIS2_PLACEMENT_3D('',#947,#765,#766);
#676=AXIS2_PLACEMENT_3D('',#950,#768,#769);
#677=AXIS2_PLACEMENT_3D('',#951,#770,#771);
#678=AXIS2_PLACEMENT_3D('',#953,#772,#773);
#679=AXIS2_PLACEMENT_3D('',#956,#775,#776);
#680=AXIS2_PLACEMENT_3D('',#957,#777,#778);
#681=AXIS2_PLACEMENT_3D('',#959,#779,#780);
#682=AXIS2_PLACEMENT_3D('',#962,#782,#783);
#683=AXIS2_PLACEMENT_3D('',#963,#784,#785);
#684=AXIS2_PLACEMENT_3D('',#965,#786,#787);
#685=AXIS2_PLACEMENT_3D('',#968,#789,#790);
#686=AXIS2_PLACEMENT_3D('',#969,#791,#792);
#687=AXIS2_PLACEMENT_3D('',#971,#793,#794);
#688=AXIS2_PLACEMENT_3D('',#974,#796,#797);
#689=AXIS2_PLACEMENT_3D('',#975,#798,#799);
#690=AXIS2_PLACEMENT_3D('',#977,#800,#801);
#691=AXIS2_PLACEMENT_3D('',#980,#803,#804);
#692=AXIS2_PLACEMENT_3D('',#981,#805,#806);
#693=AXIS2_PLACEMENT_3D('',#983,#807,#808);
#694=AXIS2_PLACEMENT_3D('',#986,#810,#811);
#695=AXIS2_PLACEMENT_3D('',#987,#812,#813);
#696=AXIS2_PLACEMENT_3D('',#990,#814,#815);
#697=AXIS2_PLACEMENT_3D('',#994,#817,#818);
#698=AXIS2_PLACEMENT_3D('',#996,#820,#821);
#699=AXIS2_PLACEMENT_3D('',#999,#822,#823);
#700=AXIS2_PLACEMENT_3D('',#1003,#825,#826);
#701=AXIS2_PLACEMENT_3D('',#1005,#828,#829);
#702=AXIS2_PLACEMENT_3D('',#1008,#830,#831);
#703=AXIS2_PLACEMENT_3D('',#1013,#834,#835);
#704=AXIS2_PLACEMENT_3D('',#1016,#838,#839);
#705=AXIS2_PLACEMENT_3D('',#1020,#841,#842);
#706=AXIS2_PLACEMENT_3D('',#1022,#844,#845);
#707=AXIS2_PLACEMENT_3D('',#1040,#855,#856);
#708=AXIS2_PLACEMENT_3D('',#1050,#862,#863);
#709=AXIS2_PLACEMENT_3D('',#1053,#866,#867);
#710=AXIS2_PLACEMENT_3D('',#1056,#868,#869);
#711=AXIS2_PLACEMENT_3D('',#1059,#872,#873);
#712=AXIS2_PLACEMENT_3D('',#1069,#879,#880);
#713=AXIS2_PLACEMENT_3D('',#1071,#882,#883);
#714=AXIS2_PLACEMENT_3D('',#1072,#884,#885);
#715=AXIS2_PLACEMENT_3D('',#1074,#887,#888);
#716=AXIS2_PLACEMENT_3D('',#1075,#889,#890);
#717=AXIS2_PLACEMENT_3D('',#1077,#892,#893);
#718=AXIS2_PLACEMENT_3D('',#1078,#894,#895);
#719=AXIS2_PLACEMENT_3D('',#1079,#896,#897);
#720=AXIS2_PLACEMENT_3D('',#1080,#898,#899);
#721=AXIS2_PLACEMENT_3D('',#1081,#900,#901);
#722=AXIS2_PLACEMENT_3D('',#1082,#902,#903);
#723=AXIS2_PLACEMENT_3D('',#1085,#906,#907);
#724=AXIS2_PLACEMENT_3D('',#1087,#909,#910);
#725=AXIS2_PLACEMENT_3D('',#1089,#912,#913);
#726=DIRECTION('axis',(0.,0.,1.));
#727=DIRECTION('refdir',(1.,0.,0.));
#728=DIRECTION('center_axis',(3.94430452610506E-30,-4.44089209850066E-16,
1.));
#729=DIRECTION('ref_axis',(1.,1.75162308040603E-45,-3.94430452610506E-30));
#730=DIRECTION('center_axis',(-3.94430452610506E-30,4.44089209850066E-16,
-1.));
#731=DIRECTION('ref_axis',(-1.,-3.50324616081207E-45,3.94430452610506E-30));
#732=DIRECTION('',(3.94430452610506E-30,-4.44089209850066E-16,1.));
#733=DIRECTION('center_axis',(3.94430452610506E-30,-4.44089209850066E-16,
1.));
#734=DIRECTION('ref_axis',(1.,1.75162308040603E-45,-3.94430452610506E-30));
#735=DIRECTION('center_axis',(3.94430452610506E-30,-4.44089209850066E-16,
1.));
#736=DIRECTION('ref_axis',(1.,1.75162308040603E-45,-3.94430452610506E-30));
#737=DIRECTION('center_axis',(-3.94430452610506E-30,4.44089209850066E-16,
-1.));
#738=DIRECTION('ref_axis',(-1.,-1.75162308040603E-45,3.94430452610506E-30));
#739=DIRECTION('',(3.94430452610506E-30,-4.44089209850066E-16,1.));
#740=DIRECTION('center_axis',(3.94430452610506E-30,-4.44089209850066E-16,
1.));
#741=DIRECTION('ref_axis',(1.,1.75162308040603E-45,-3.94430452610506E-30));
#742=DIRECTION('center_axis',(3.94430452610506E-30,-4.44089209850066E-16,
1.));
#743=DIRECTION('ref_axis',(1.,1.75162308040603E-45,-3.94430452610506E-30));
#744=DIRECTION('center_axis',(-3.94430452610506E-30,4.44089209850066E-16,
-1.));
#745=DIRECTION('ref_axis',(-1.,-1.75162308040603E-45,3.94430452610506E-30));
#746=DIRECTION('',(3.94430452610506E-30,-4.44089209850066E-16,1.));
#747=DIRECTION('center_axis',(3.94430452610506E-30,-4.44089209850066E-16,
1.));
#748=DIRECTION('ref_axis',(1.,1.75162308040603E-45,-3.94430452610506E-30));
#749=DIRECTION('center_axis',(3.94430452610506E-30,-4.44089209850066E-16,
1.));
#750=DIRECTION('ref_axis',(1.,1.75162308040603E-45,-3.94430452610506E-30));
#751=DIRECTION('center_axis',(-3.94430452610506E-30,4.44089209850066E-16,
-1.));
#752=DIRECTION('ref_axis',(-1.,-3.50324616081207E-45,3.94430452610506E-30));
#753=DIRECTION('',(3.94430452610506E-30,-4.44089209850066E-16,1.));
#754=DIRECTION('center_axis',(3.94430452610506E-30,-4.44089209850066E-16,
1.));
#755=DIRECTION('ref_axis',(1.,1.75162308040603E-45,-3.94430452610506E-30));
#756=DIRECTION('center_axis',(-3.94430452610506E-30,4.44089209850066E-16,
-1.));
#757=DIRECTION('ref_axis',(-1.,-1.75162308040603E-45,3.94430452610506E-30));
#758=DIRECTION('center_axis',(3.94430452610506E-30,-4.44089209850066E-16,
1.));
#759=DIRECTION('ref_axis',(-1.,-1.75162308040603E-45,3.94430452610506E-30));
#760=DIRECTION('',(3.94430452610506E-30,-4.44089209850066E-16,1.));
#761=DIRECTION('center_axis',(3.94430452610506E-30,-4.44089209850066E-16,
1.));
#762=DIRECTION('ref_axis',(1.,1.75162308040603E-45,-3.94430452610506E-30));
#763=DIRECTION('center_axis',(-3.94430452610506E-30,4.44089209850066E-16,
-1.));
#764=DIRECTION('ref_axis',(-1.,-1.75162308040603E-45,3.94430452610506E-30));
#765=DIRECTION('center_axis',(3.94430452610506E-30,-4.44089209850066E-16,
1.));
#766=DIRECTION('ref_axis',(-1.,-1.75162308040603E-45,3.94430452610506E-30));
#767=DIRECTION('',(3.94430452610506E-30,-4.44089209850066E-16,1.));
#768=DIRECTION('center_axis',(3.94430452610506E-30,-4.44089209850066E-16,
1.));
#769=DIRECTION('ref_axis',(1.,1.75162308040603E-45,-3.94430452610506E-30));
#770=DIRECTION('center_axis',(-3.94430452610506E-30,4.44089209850066E-16,
-1.));
#771=DIRECTION('ref_axis',(-1.,-1.75162308040603E-45,3.94430452610506E-30));
#772=DIRECTION('center_axis',(3.94430452610506E-30,-4.44089209850066E-16,
1.));
#773=DIRECTION('ref_axis',(-1.,-1.75162308040603E-45,3.94430452610506E-30));
#774=DIRECTION('',(3.94430452610506E-30,-4.44089209850066E-16,1.));
#775=DIRECTION('center_axis',(3.94430452610506E-30,-4.44089209850066E-16,
1.));
#776=DIRECTION('ref_axis',(1.,1.75162308040603E-45,-3.94430452610506E-30));
#777=DIRECTION('center_axis',(-3.94430452610506E-30,4.44089209850066E-16,
-1.));
#778=DIRECTION('ref_axis',(-1.,-1.75162308040603E-45,3.94430452610506E-30));
#779=DIRECTION('center_axis',(3.94430452610506E-30,-4.44089209850066E-16,
1.));
#780=DIRECTION('ref_axis',(-1.,-1.75162308040603E-45,3.94430452610506E-30));
#781=DIRECTION('',(3.94430452610506E-30,-4.44089209850066E-16,1.));
#782=DIRECTION('center_axis',(3.94430452610506E-30,-4.44089209850066E-16,
1.));
#783=DIRECTION('ref_axis',(1.,1.75162308040603E-45,-3.94430452610506E-30));
#784=DIRECTION('center_axis',(3.94430452610506E-30,-4.44089209850066E-16,
1.));
#785=DIRECTION('ref_axis',(1.,1.75162308040603E-45,-3.94430452610506E-30));
#786=DIRECTION('center_axis',(3.94430452610506E-30,-4.44089209850066E-16,
1.));
#787=DIRECTION('ref_axis',(1.,3.50324616081207E-45,-3.94430452610506E-30));
#788=DIRECTION('',(3.94430452610506E-30,-4.44089209850066E-16,1.));
#789=DIRECTION('center_axis',(3.94430452610506E-30,-4.44089209850066E-16,
1.));
#790=DIRECTION('ref_axis',(1.,1.75162308040603E-45,-3.94430452610506E-30));
#791=DIRECTION('center_axis',(3.94430452610506E-30,-4.44089209850066E-16,
1.));
#792=DIRECTION('ref_axis',(1.,1.75162308040603E-45,-3.94430452610506E-30));
#793=DIRECTION('center_axis',(3.94430452610506E-30,-4.44089209850066E-16,
1.));
#794=DIRECTION('ref_axis',(1.,3.50324616081207E-45,-3.94430452610506E-30));
#795=DIRECTION('',(3.94430452610506E-30,-4.44089209850066E-16,1.));
#796=DIRECTION('center_axis',(3.94430452610506E-30,-4.44089209850066E-16,
1.));
#797=DIRECTION('ref_axis',(1.,1.75162308040603E-45,-3.94430452610506E-30));
#798=DIRECTION('center_axis',(3.94430452610506E-30,-4.44089209850066E-16,
1.));
#799=DIRECTION('ref_axis',(1.,1.75162308040603E-45,-3.94430452610506E-30));
#800=DIRECTION('center_axis',(3.94430452610506E-30,-4.44089209850066E-16,
1.));
#801=DIRECTION('ref_axis',(1.,3.50324616081207E-45,-3.94430452610506E-30));
#802=DIRECTION('',(3.94430452610506E-30,-4.44089209850066E-16,1.));
#803=DIRECTION('center_axis',(3.94430452610506E-30,-4.44089209850066E-16,
1.));
#804=DIRECTION('ref_axis',(1.,1.75162308040603E-45,-3.94430452610506E-30));
#805=DIRECTION('center_axis',(3.94430452610506E-30,-4.44089209850066E-16,
1.));
#806=DIRECTION('ref_axis',(1.,1.75162308040603E-45,-3.94430452610506E-30));
#807=DIRECTION('center_axis',(3.94430452610506E-30,-4.44089209850066E-16,
1.));
#808=DIRECTION('ref_axis',(1.,3.50324616081207E-45,-3.94430452610506E-30));
#809=DIRECTION('',(3.94430452610506E-30,-4.44089209850066E-16,1.));
#810=DIRECTION('center_axis',(3.94430452610506E-30,-4.44089209850066E-16,
1.));
#811=DIRECTION('ref_axis',(1.,1.75162308040603E-45,-3.94430452610506E-30));
#812=DIRECTION('center_axis',(-3.94430452610506E-30,4.44089209850066E-16,
-1.));
#813=DIRECTION('ref_axis',(-1.,2.81736037578933E-30,3.94430452610506E-30));
#814=DIRECTION('center_axis',(3.94430452610506E-30,-4.44089209850066E-16,
1.));
#815=DIRECTION('ref_axis',(-1.,-1.77635683940025E-15,3.15544362088404E-30));
#816=DIRECTION('',(-3.94430452610506E-30,4.44089209850066E-16,-1.));
#817=DIRECTION('center_axis',(3.94430452610506E-30,-4.44089209850066E-16,
1.));
#818=DIRECTION('ref_axis',(-1.,6.66133814775094E-14,3.35265884718932E-29));
#819=DIRECTION('',(-3.94430452610506E-30,4.44089209850066E-16,-1.));
#820=DIRECTION('center_axis',(-3.94430452610506E-30,4.44089209850066E-16,
-1.));
#821=DIRECTION('ref_axis',(-1.,4.93038065763132E-30,3.94430452610506E-30));
#822=DIRECTION('center_axis',(3.94430452610506E-30,-4.44089209850066E-16,
1.));
#823=DIRECTION('ref_axis',(1.,-4.93038065763132E-30,-3.94430452610506E-30));
#824=DIRECTION('',(-3.94430452610506E-30,4.44089209850066E-16,-1.));
#825=DIRECTION('center_axis',(-3.94430452610506E-30,4.44089209850066E-16,
-1.));
#826=DIRECTION('ref_axis',(1.,-3.69778549322349E-30,-3.94430452610506E-30));
#827=DIRECTION('',(-3.94430452610506E-30,4.44089209850066E-16,-1.));
#828=DIRECTION('center_axis',(3.94430452610506E-30,4.44089209850066E-16,
-1.));
#829=DIRECTION('ref_axis',(-1.,3.74708929979981E-30,-3.94430452610506E-30));
#830=DIRECTION('center_axis',(3.94430452610506E-30,-4.44089209850066E-16,
1.));
#831=DIRECTION('ref_axis',(-1.,4.93038065763132E-30,3.94430452610506E-30));
#832=DIRECTION('',(-1.,-1.41610079671572E-16,-3.94430452610506E-30));
#833=DIRECTION('',(1.,1.41610079671572E-16,3.94430452610506E-30));
#834=DIRECTION('center_axis',(3.94430452610506E-30,-4.44089209850066E-16,
1.));
#835=DIRECTION('ref_axis',(-1.,2.81736037578933E-30,3.94430452610506E-30));
#836=DIRECTION('',(1.,1.41610079671572E-16,3.94430452610506E-30));
#837=DIRECTION('',(-1.,-1.41610079671572E-16,-3.94430452610506E-30));
#838=DIRECTION('center_axis',(-3.94430452610506E-30,4.44089209850066E-16,
-1.));
#839=DIRECTION('ref_axis',(1.,-1.2246467991474E-16,-3.99868976904294E-30));
#840=DIRECTION('',(-3.94430452610506E-30,4.44089209850066E-16,-1.));
#841=DIRECTION('center_axis',(-3.94430452610506E-30,4.44089209850066E-16,
-1.));
#842=DIRECTION('ref_axis',(1.,-3.7470892997998E-30,-3.94430452610506E-30));
#843=DIRECTION('',(-3.94430452610506E-30,4.44089209850066E-16,-1.));
#844=DIRECTION('center_axis',(1.41610079671572E-16,-1.,4.44089209850066E-16));
#845=DIRECTION('ref_axis',(1.,1.41610079671572E-16,3.94430452610506E-30));
#846=DIRECTION('',(-1.,-1.41610079671572E-16,-3.94430452610506E-30));
#847=DIRECTION('',(-3.94430452610506E-30,4.44089209850066E-16,-1.));
#848=DIRECTION('',(-1.,2.47817639425262E-16,-3.94430452610506E-30));
#849=DIRECTION('',(-1.,3.74708929979981E-30,-3.94430452610506E-30));
#850=DIRECTION('',(-3.94430452610506E-30,4.44089209850066E-16,-1.));
#851=DIRECTION('',(-1.,-2.31296463463571E-16,1.15648231731783E-16));
#852=DIRECTION('',(-3.94430452610506E-30,4.44089209850066E-16,-1.));
#853=DIRECTION('',(1.,2.31296463463571E-16,-1.15648231731783E-16));
#854=DIRECTION('',(3.94430452610506E-30,-4.44089209850066E-16,1.));
#855=DIRECTION('center_axis',(-1.41610079671572E-16,1.,-4.44089209850066E-16));
#856=DIRECTION('ref_axis',(-1.,-1.41610079671572E-16,-3.94430452610506E-30));
#857=DIRECTION('',(1.,1.41610079671572E-16,3.94430452610506E-30));
#858=DIRECTION('',(-3.94430452610506E-30,4.44089209850066E-16,-1.));
#859=DIRECTION('',(1.,1.23908819712625E-16,4.73316543132607E-30));
#860=DIRECTION('',(1.,-3.74708929979981E-30,3.94430452610506E-30));
#861=DIRECTION('',(-3.94430452610506E-30,4.44089209850066E-16,-1.));
#862=DIRECTION('center_axis',(3.94430452610506E-30,4.44089209850066E-16,
-1.));
#863=DIRECTION('ref_axis',(-1.,3.74708929979981E-30,-3.94430452610506E-30));
#864=DIRECTION('',(-3.59917788007087E-30,1.,-4.44089209850066E-16));
#865=DIRECTION('',(-1.73472347597677E-16,-1.,4.44089209850066E-16));
#866=DIRECTION('center_axis',(-3.94430452610506E-30,4.44089209850066E-16,
-1.));
#867=DIRECTION('ref_axis',(1.,1.22464679914732E-16,-3.88991928316718E-30));
#868=DIRECTION('center_axis',(3.94430452610506E-30,-4.44089209850066E-16,
1.));
#869=DIRECTION('ref_axis',(-1.,3.7470892997998E-30,3.94430452610506E-30));
#870=DIRECTION('',(-3.94430452610506E-30,4.44089209850066E-16,-1.));
#871=DIRECTION('',(-3.94430452610506E-30,4.44089209850066E-16,-1.));
#872=DIRECTION('center_axis',(1.41610079671572E-16,-1.,4.44089209850066E-16));
#873=DIRECTION('ref_axis',(1.,1.41610079671572E-16,3.94430452610506E-30));
#874=DIRECTION('',(-1.,-1.41610079671572E-16,-3.94430452610506E-30));
#875=DIRECTION('',(3.94430452610506E-30,-4.44089209850066E-16,1.));
#876=DIRECTION('',(1.,1.41610079671573E-16,-1.15648231731783E-16));
#877=DIRECTION('',(-3.94430452610506E-30,4.44089209850066E-16,-1.));
#878=DIRECTION('',(-1.,-1.41610079671573E-16,1.15648231731783E-16));
#879=DIRECTION('center_axis',(-1.41610079671572E-16,1.,-4.44089209850066E-16));
#880=DIRECTION('ref_axis',(-1.,-1.41610079671572E-16,-3.94430452610506E-30));
#881=DIRECTION('',(1.,1.41610079671572E-16,3.94430452610506E-30));
#882=DIRECTION('center_axis',(3.94430452610506E-30,4.44089209850066E-16,
-1.));
#883=DIRECTION('ref_axis',(-1.,3.74708929979981E-30,-3.94430452610506E-30));
#884=DIRECTION('center_axis',(1.,-1.73472347597677E-16,4.73316543132607E-30));
#885=DIRECTION('ref_axis',(1.73472347597677E-16,1.,-4.44089209850066E-16));
#886=DIRECTION('',(-1.73472347597677E-16,-1.,4.44089209850066E-16));
#887=DIRECTION('center_axis',(-3.94430452610506E-30,-4.44089209850066E-16,
1.));
#888=DIRECTION('ref_axis',(1.,-3.74708929979981E-30,3.94430452610506E-30));
#889=DIRECTION('center_axis',(-1.,3.7470892997998E-30,3.94430452610506E-30));
#890=DIRECTION('ref_axis',(3.94430452610506E-30,-4.44089209850066E-16,1.));
#891=DIRECTION('',(-3.59917788007087E-30,1.,-4.44089209850066E-16));
#892=DIRECTION('center_axis',(-3.94430452610506E-30,-4.44089209850066E-16,
1.));
#893=DIRECTION('ref_axis',(1.,-3.74708929979981E-30,3.94430452610506E-30));
#894=DIRECTION('center_axis',(-3.94430452610506E-30,-4.44089209850066E-16,
1.));
#895=DIRECTION('ref_axis',(1.,-3.74708929979981E-30,3.94430452610506E-30));
#896=DIRECTION('center_axis',(-3.94430452610506E-30,-4.44089209850066E-16,
1.));
#897=DIRECTION('ref_axis',(1.,-3.74708929979981E-30,3.94430452610506E-30));
#898=DIRECTION('center_axis',(-3.94430452610506E-30,-4.44089209850066E-16,
1.));
#899=DIRECTION('ref_axis',(1.,-3.74708929979981E-30,3.94430452610506E-30));
#900=DIRECTION('center_axis',(-3.94430452610506E-30,-4.44089209850066E-16,
1.));
#901=DIRECTION('ref_axis',(1.,-3.74708929979981E-30,3.94430452610506E-30));
#902=DIRECTION('center_axis',(1.,1.33440267382835E-16,4.73316543132607E-30));
#903=DIRECTION('ref_axis',(-1.33440267382835E-16,1.,-4.44089209850066E-16));
#904=DIRECTION('',(-1.33440267382835E-16,1.,-4.44089209850066E-16));
#905=DIRECTION('',(-1.33440267382835E-16,1.,-4.44089209850066E-16));
#906=DIRECTION('center_axis',(1.15648231731783E-16,-4.44089209850066E-16,
1.));
#907=DIRECTION('ref_axis',(1.,-3.54987407349455E-30,-1.15648231731783E-16));
#908=DIRECTION('',(-1.33440267382835E-16,1.,-4.44089209850066E-16));
#909=DIRECTION('center_axis',(-1.,-1.33440267382835E-16,-4.73316543132607E-30));
#910=DIRECTION('ref_axis',(1.33440267382835E-16,-1.,4.44089209850066E-16));
#911=DIRECTION('',(-1.33440267382835E-16,1.,-4.44089209850066E-16));
#912=DIRECTION('center_axis',(-1.15648231731783E-16,4.44089209850066E-16,
-1.));
#913=DIRECTION('ref_axis',(-1.,3.54987407349455E-30,1.15648231731783E-16));
#914=CARTESIAN_POINT('',(0.,0.,0.));
#915=CARTESIAN_POINT('Origin',(-14.0000000000001,6.74999999999998,10.));
#916=CARTESIAN_POINT('',(-15.1000000000001,6.74999999999998,0.));
#917=CARTESIAN_POINT('Origin',(-14.,6.74999999999987,0.));
#918=CARTESIAN_POINT('',(-15.1000000000001,6.74999999999998,10.));
#919=CARTESIAN_POINT('',(-15.1000000000001,6.74999999999998,10.));
#920=CARTESIAN_POINT('Origin',(-14.0000000000001,6.74999999999998,10.));
#921=CARTESIAN_POINT('Origin',(14.0000000000001,6.75000000000003,9.99999999999979));
#922=CARTESIAN_POINT('',(12.9000000000001,6.75000000000004,-2.22044604925031E-13));
#923=CARTESIAN_POINT('Origin',(14.,6.75000000000003,-2.22044604925031E-13));
#924=CARTESIAN_POINT('',(12.9000000000001,6.75000000000003,9.99999999999979));
#925=CARTESIAN_POINT('',(12.9000000000001,6.75000000000003,9.99999999999979));
#926=CARTESIAN_POINT('Origin',(14.0000000000001,6.75000000000003,9.99999999999979));
#927=CARTESIAN_POINT('Origin',(14.0000000000001,-6.75000000000003,9.99999999999979));
#928=CARTESIAN_POINT('',(12.9000000000001,-6.75000000000003,-2.22044604925031E-13));
#929=CARTESIAN_POINT('Origin',(14.0000000000001,-6.75000000000003,-2.22044604925031E-13));
#930=CARTESIAN_POINT('',(12.9000000000001,-6.75000000000003,9.99999999999979));
#931=CARTESIAN_POINT('',(12.9000000000001,-6.75000000000003,9.99999999999979));
#932=CARTESIAN_POINT('Origin',(14.0000000000001,-6.75000000000003,9.99999999999979));
#933=CARTESIAN_POINT('Origin',(-14.0000000000001,-6.75000000000009,10.));
#934=CARTESIAN_POINT('',(-15.1000000000001,-6.75000000000009,0.));
#935=CARTESIAN_POINT('Origin',(-14.0000000000001,-6.7500000000002,0.));
#936=CARTESIAN_POINT('',(-15.1000000000001,-6.75000000000009,10.));
#937=CARTESIAN_POINT('',(-15.1000000000001,-6.75000000000009,10.));
#938=CARTESIAN_POINT('Origin',(-14.0000000000001,-6.75000000000009,10.));
#939=CARTESIAN_POINT('Origin',(14.0000000000001,-6.75000000000003,9.99999999999979));
#940=CARTESIAN_POINT('',(16.2500000000001,-6.75000000000003,2.99999999999978));
#941=CARTESIAN_POINT('Origin',(14.0000000000001,-6.75000000000003,2.99999999999978));
#942=CARTESIAN_POINT('',(16.2500000000001,-6.75000000000003,9.99999999999979));
#943=CARTESIAN_POINT('',(16.2500000000001,-6.75000000000003,9.99999999999979));
#944=CARTESIAN_POINT('Origin',(14.0000000000001,-6.75000000000003,9.99999999999979));
#945=CARTESIAN_POINT('Origin',(-14.0000000000001,-6.75000000000009,10.));
#946=CARTESIAN_POINT('',(-11.7500000000001,-6.75000000000009,3.));
#947=CARTESIAN_POINT('Origin',(-14.0000000000001,-6.75000000000009,3.));
#948=CARTESIAN_POINT('',(-11.7500000000001,-6.75000000000009,10.));
#949=CARTESIAN_POINT('',(-11.7500000000001,-6.75000000000009,10.));
#950=CARTESIAN_POINT('Origin',(-14.0000000000001,-6.75000000000009,10.));
#951=CARTESIAN_POINT('Origin',(14.0000000000001,6.75000000000003,9.99999999999979));
#952=CARTESIAN_POINT('',(16.2500000000001,6.75000000000004,2.99999999999978));
#953=CARTESIAN_POINT('Origin',(14.0000000000001,6.75000000000003,2.99999999999978));
#954=CARTESIAN_POINT('',(16.2500000000001,6.75000000000003,9.99999999999979));
#955=CARTESIAN_POINT('',(16.2500000000001,6.75000000000003,9.99999999999979));
#956=CARTESIAN_POINT('Origin',(14.0000000000001,6.75000000000003,9.99999999999979));
#957=CARTESIAN_POINT('Origin',(-14.0000000000001,6.74999999999998,10.));
#958=CARTESIAN_POINT('',(-11.7500000000001,6.74999999999998,3.));
#959=CARTESIAN_POINT('Origin',(-14.0000000000001,6.74999999999998,3.));
#960=CARTESIAN_POINT('',(-11.7500000000001,6.74999999999998,10.));
#961=CARTESIAN_POINT('',(-11.7500000000001,6.74999999999998,10.));
#962=CARTESIAN_POINT('Origin',(-14.0000000000001,6.74999999999998,10.));
#963=CARTESIAN_POINT('Origin',(-47.5,10.9999999999997,29.9999999999999));
#964=CARTESIAN_POINT('',(-49.1,10.9999999999997,0.));
#965=CARTESIAN_POINT('Origin',(-47.4999999999999,10.9999999999998,0.));
#966=CARTESIAN_POINT('',(-49.1,10.9999999999997,4.99999999999989));
#967=CARTESIAN_POINT('',(-49.1,10.9999999999997,29.9999999999999));
#968=CARTESIAN_POINT('Origin',(-47.5000000000002,11.,4.99999999999989));
#969=CARTESIAN_POINT('Origin',(-47.5,-11.0000000000003,29.9999999999999));
#970=CARTESIAN_POINT('',(-49.1,-11.0000000000003,0.));
#971=CARTESIAN_POINT('Origin',(-47.4999999999999,-11.0000000000002,0.));
#972=CARTESIAN_POINT('',(-49.1,-11.0000000000003,5.));
#973=CARTESIAN_POINT('',(-49.1,-11.0000000000003,29.9999999999999));
#974=CARTESIAN_POINT('Origin',(-47.5000000000002,-11.0000000000001,5.));
#975=CARTESIAN_POINT('Origin',(47.4999999999999,-11.0000000000002,29.9999999999999));
#976=CARTESIAN_POINT('',(45.8999999999999,-11.0000000000002,0.));
#977=CARTESIAN_POINT('Origin',(47.4999999999999,-11.,0.));
#978=CARTESIAN_POINT('',(45.8999999999999,-11.0000000000002,5.));
#979=CARTESIAN_POINT('',(45.8999999999999,-11.0000000000002,29.9999999999999));
#980=CARTESIAN_POINT('Origin',(47.4999999999999,-11.,5.));
#981=CARTESIAN_POINT('Origin',(47.4999999999999,10.9999999999997,29.9999999999999));
#982=CARTESIAN_POINT('',(45.8999999999999,10.9999999999997,0.));
#983=CARTESIAN_POINT('Origin',(47.4999999999999,11.,0.));
#984=CARTESIAN_POINT('',(45.8999999999999,10.9999999999997,5.));
#985=CARTESIAN_POINT('',(45.8999999999999,10.9999999999997,29.9999999999999));
#986=CARTESIAN_POINT('Origin',(47.4999999999999,11.,5.));
#987=CARTESIAN_POINT('Origin',(-24.4999999999999,-4.44089209850063E-13,
30.));
#988=CARTESIAN_POINT('',(-24.4999999999999,17.4999999999996,30.));
#989=CARTESIAN_POINT('',(-24.4999999999999,-17.5000000000004,30.));
#990=CARTESIAN_POINT('Origin',(-24.4999999999999,-4.44089209850063E-13,
30.));
#991=CARTESIAN_POINT('',(-24.5,-17.5,3.));
#992=CARTESIAN_POINT('',(-24.4999999999999,-17.5000000000004,30.));
#993=CARTESIAN_POINT('',(-24.4999999999999,17.4999999999999,3.));
#994=CARTESIAN_POINT('Origin',(-24.5,-5.55111512312578E-14,3.));
#995=CARTESIAN_POINT('',(-24.4999999999999,17.4999999999996,30.));
#996=CARTESIAN_POINT('Origin',(-24.4999999999999,-4.44089209850063E-13,
30.));
#997=CARTESIAN_POINT('',(-24.4999999999999,19.9999999999996,30.));
#998=CARTESIAN_POINT('',(-24.4999999999999,-20.0000000000004,30.));
#999=CARTESIAN_POINT('Origin',(-24.4999999999999,-4.44089209850063E-13,
30.));
#1000=CARTESIAN_POINT('',(-24.5,20.,5.));
#1001=CARTESIAN_POINT('',(-24.4999999999999,19.9999999999996,30.));
#1002=CARTESIAN_POINT('',(-24.5,-20.0000000000001,5.));
#1003=CARTESIAN_POINT('Origin',(-24.5,-5.55111512312578E-14,5.));
#1004=CARTESIAN_POINT('',(-24.4999999999999,-20.0000000000004,30.));
#1005=CARTESIAN_POINT('Origin',(24.5,-2.77555756156289E-13,29.9999999999998));
#1006=CARTESIAN_POINT('',(24.5,-20.0000000000002,29.9999999999998));
#1007=CARTESIAN_POINT('',(24.5,19.9999999999997,29.9999999999998));
#1008=CARTESIAN_POINT('Origin',(24.5,-2.77555756156289E-13,29.9999999999998));
#1009=CARTESIAN_POINT('',(-24.4999999999999,19.9999999999996,30.));
#1010=CARTESIAN_POINT('',(-24.4999999999999,-20.0000000000004,30.));
#1011=CARTESIAN_POINT('',(24.5,-17.5000000000002,29.9999999999998));
#1012=CARTESIAN_POINT('',(24.5,17.4999999999998,29.9999999999998));
#1013=CARTESIAN_POINT('Origin',(24.5,-2.77555756156289E-13,29.9999999999998));
#1014=CARTESIAN_POINT('',(24.5,-17.5000000000002,29.9999999999998));
#1015=CARTESIAN_POINT('',(24.5,17.4999999999998,29.9999999999998));
#1016=CARTESIAN_POINT('Origin',(24.5,-2.77555756156289E-13,29.9999999999998));
#1017=CARTESIAN_POINT('',(24.5,-20.,4.99999999999973));
#1018=CARTESIAN_POINT('',(24.5,-20.0000000000002,29.9999999999998));
#1019=CARTESIAN_POINT('',(24.5,20.,4.99999999999973));
#1020=CARTESIAN_POINT('Origin',(24.5,0.,4.99999999999978));
#1021=CARTESIAN_POINT('',(24.5,19.9999999999997,29.9999999999998));
#1022=CARTESIAN_POINT('Origin',(-24.4999999999999,19.9999999999996,30.));
#1023=CARTESIAN_POINT('',(52.5,20.,0.));
#1024=CARTESIAN_POINT('',(-52.4999999999999,19.9999999999999,-2.77555756156289E-13));
#1025=CARTESIAN_POINT('',(-24.4999999999999,19.9999999999999,0.));
#1026=CARTESIAN_POINT('',(-52.5000000000001,19.9999999999999,4.99999999999973));
#1027=CARTESIAN_POINT('',(-52.5000000000001,19.9999999999999,4.99999999999973));
#1028=CARTESIAN_POINT('',(-24.5,20.,5.));
#1029=CARTESIAN_POINT('',(52.5000000000001,20.,5.));
#1030=CARTESIAN_POINT('',(52.5000000000001,20.,5.));
#1031=CARTESIAN_POINT('',(52.5000000000001,20.,5.));
#1032=CARTESIAN_POINT('',(15.,20.,8.9999999999999));
#1033=CARTESIAN_POINT('',(-15.,20.,8.99999999999984));
#1034=CARTESIAN_POINT('',(15.,20.,8.9999999999999));
#1035=CARTESIAN_POINT('',(15.,19.9999999999998,13.9999999999999));
#1036=CARTESIAN_POINT('',(15.,19.9999999999998,13.9999999999999));
#1037=CARTESIAN_POINT('',(-15.,20.,13.9999999999998));
#1038=CARTESIAN_POINT('',(15.,19.9999999999998,13.9999999999999));
#1039=CARTESIAN_POINT('',(-15.,20.,13.9999999999998));
#1040=CARTESIAN_POINT('Origin',(-24.4999999999999,-20.0000000000004,30.));
#1041=CARTESIAN_POINT('',(-52.5000000000001,-20.0000000000002,-2.77555756156289E-13));
#1042=CARTESIAN_POINT('',(52.5000000000001,-20.,0.));
#1043=CARTESIAN_POINT('',(-24.5,-20.0000000000002,0.));
#1044=CARTESIAN_POINT('',(52.5,-20.,5.));
#1045=CARTESIAN_POINT('',(52.5,-20.,5.));
#1046=CARTESIAN_POINT('',(24.5,-20.,4.99999999999973));
#1047=CARTESIAN_POINT('',(-52.5000000000001,-20.0000000000002,4.99999999999973));
#1048=CARTESIAN_POINT('',(-52.5000000000001,-20.0000000000002,4.99999999999973));
#1049=CARTESIAN_POINT('',(-52.5000000000001,-20.0000000000002,4.99999999999973));
#1050=CARTESIAN_POINT('Origin',(24.5,0.,-2.22044604925031E-13));
#1051=CARTESIAN_POINT('',(52.5000000000001,-20.,0.));
#1052=CARTESIAN_POINT('',(-52.4999999999999,19.9999999999999,-2.77555756156289E-13));
#1053=CARTESIAN_POINT('Origin',(24.5,-2.77555756156289E-13,29.9999999999998));
#1054=CARTESIAN_POINT('',(24.5,-17.5,2.99999999999984));
#1055=CARTESIAN_POINT('',(24.5,17.5,2.99999999999973));
#1056=CARTESIAN_POINT('Origin',(24.5,0.,2.99999999999978));
#1057=CARTESIAN_POINT('',(24.5,-17.5000000000002,29.9999999999998));
#1058=CARTESIAN_POINT('',(24.5,17.4999999999998,29.9999999999998));
#1059=CARTESIAN_POINT('Origin',(-24.4999999999999,17.4999999999996,30.));
#1060=CARTESIAN_POINT('',(24.5,17.5,2.99999999999973));
#1061=CARTESIAN_POINT('',(15.,17.5000000000001,8.99999999999979));
#1062=CARTESIAN_POINT('',(15.,17.4999999999999,13.9999999999998));
#1063=CARTESIAN_POINT('',(14.9999999999999,17.4999999999998,29.9999999999998));
#1064=CARTESIAN_POINT('',(-15.,17.4999999999999,8.99999999999984));
#1065=CARTESIAN_POINT('',(-24.5,17.4999999999999,9.00000000000001));
#1066=CARTESIAN_POINT('',(-15.,17.5,13.9999999999998));
#1067=CARTESIAN_POINT('',(-15.0000000000001,17.4999999999996,29.9999999999999));
#1068=CARTESIAN_POINT('',(-24.5,17.5,14.));
#1069=CARTESIAN_POINT('Origin',(-24.4999999999999,-17.5000000000004,30.));
#1070=CARTESIAN_POINT('',(24.5,-17.5,2.99999999999984));
#1071=CARTESIAN_POINT('Origin',(24.5,0.,2.99999999999978));
#1072=CARTESIAN_POINT('Origin',(-52.5000000000001,19.9999999999999,4.99999999999973));
#1073=CARTESIAN_POINT('',(-52.5000000000001,19.9999999999999,4.99999999999973));
#1074=CARTESIAN_POINT('Origin',(-24.5,-5.55111512312578E-14,5.));
#1075=CARTESIAN_POINT('Origin',(52.5,-20.,5.));
#1076=CARTESIAN_POINT('',(52.5,-20.,5.));
#1077=CARTESIAN_POINT('Origin',(24.5,0.,4.99999999999978));
#1078=CARTESIAN_POINT('Origin',(-14.0000000000001,6.74999999999998,10.));
#1079=CARTESIAN_POINT('Origin',(14.0000000000001,6.75000000000003,9.99999999999979));
#1080=CARTESIAN_POINT('Origin',(-14.0000000000001,-6.75000000000009,10.));
#1081=CARTESIAN_POINT('Origin',(14.0000000000001,-6.75000000000003,9.99999999999979));
#1082=CARTESIAN_POINT('Origin',(15.,14.9999999999998,13.9999999999998));
#1083=CARTESIAN_POINT('',(15.,14.9999999999998,13.9999999999998));
#1084=CARTESIAN_POINT('',(15.,15.,8.99999999999979));
#1085=CARTESIAN_POINT('Origin',(15.,14.9999999999998,13.9999999999998));
#1086=CARTESIAN_POINT('',(-15.,15.,13.9999999999998));
#1087=CARTESIAN_POINT('Origin',(-15.,15.,13.9999999999998));
#1088=CARTESIAN_POINT('',(-15.,15.,8.99999999999984));
#1089=CARTESIAN_POINT('Origin',(15.,15.,8.99999999999979));
#1090=UNCERTAINTY_MEASURE_WITH_UNIT(LENGTH_MEASURE(0.01),#1094,
'DISTANCE_ACCURACY_VALUE',
'Maximum model space distance between geometric entities at asserted c
onnectivities');
#1091=UNCERTAINTY_MEASURE_WITH_UNIT(LENGTH_MEASURE(0.01),#1094,
'DISTANCE_ACCURACY_VALUE',
'Maximum model space distance between geometric entities at asserted c
onnectivities');
#1092=(
GEOMETRIC_REPRESENTATION_CONTEXT(3)
GLOBAL_UNCERTAINTY_ASSIGNED_CONTEXT((#1090))
GLOBAL_UNIT_ASSIGNED_CONTEXT((#1094,#1096,#1097))
REPRESENTATION_CONTEXT('','3D')
);
#1093=(
GEOMETRIC_REPRESENTATION_CONTEXT(3)
GLOBAL_UNCERTAINTY_ASSIGNED_CONTEXT((#1091))
GLOBAL_UNIT_ASSIGNED_CONTEXT((#1094,#1096,#1097))
REPRESENTATION_CONTEXT('','3D')
);
#1094=(
LENGTH_UNIT()
NAMED_UNIT(*)
SI_UNIT(.MILLI.,.METRE.)
);
#1095=(
LENGTH_UNIT()
NAMED_UNIT(*)
SI_UNIT($,.METRE.)
);
#1096=(
NAMED_UNIT(*)
PLANE_ANGLE_UNIT()
SI_UNIT($,.RADIAN.)
);
#1097=(
NAMED_UNIT(*)
SI_UNIT($,.STERADIAN.)
SOLID_ANGLE_UNIT()
);
#1098=SHAPE_DEFINITION_REPRESENTATION(#1099,#1100);
#1099=PRODUCT_DEFINITION_SHAPE('',$,#1102);
#1100=SHAPE_REPRESENTATION('',(#658),#1092);
#1101=PRODUCT_DEFINITION_CONTEXT('part definition',#1106,'design');
#1102=PRODUCT_DEFINITION('PT1.00.00.032 Camera upper body',
'Camera upper body v1',#1103,#1101);
#1103=PRODUCT_DEFINITION_FORMATION('',$,#1108);
#1104=PRODUCT_RELATED_PRODUCT_CATEGORY('Camera upper body v1',
'Camera upper body v1',(#1108));
#1105=APPLICATION_PROTOCOL_DEFINITION('international standard',
'automotive_design',2009,#1106);
#1106=APPLICATION_CONTEXT(
'Core Data for Automotive Mechanical Design Process');
#1107=PRODUCT_CONTEXT('part definition',#1106,'mechanical');
#1108=PRODUCT('PT1.00.00.032 Camera upper body','Camera upper body v1',
'STEP AP203',(#1107));
#1109=PRESENTATION_STYLE_ASSIGNMENT((#1110));
#1110=SURFACE_STYLE_USAGE(.BOTH.,#1111);
#1111=SURFACE_SIDE_STYLE('',(#1112));
#1112=SURFACE_STYLE_FILL_AREA(#1113);
#1113=FILL_AREA_STYLE('Steel - Satin',(#1114));
#1114=FILL_AREA_STYLE_COLOUR('Steel - Satin',#1115);
#1115=COLOUR_RGB('Steel - Satin',0.627450980392157,0.627450980392157,0.627450980392157);
ENDSEC;
END-ISO-10303-21;
