ISO-10303-21;
HEADER;
/* Generated by software containing ST-Developer
 * from STEP Tools, Inc. (www.steptools.com) 
 */

FILE_DESCRIPTION(
/* description */ ('STEP AP203'),
/* implementation_level */ '2;1');

FILE_NAME(
/* name */ 'Drive shaft.step',
/* time_stamp */ '2026-07-23T10:30:31+08:00',
/* author */ (''),
/* organization */ (''),
/* preprocessor_version */ 'ST-DEVELOPER v20.1',
/* originating_system */ 'Autodesk Translation Framework v15.8.0.0',
/* authorisation */ '');

FILE_SCHEMA (('AUTOMOTIVE_DESIGN { 1 0 10303 214 3 1 1 }'));
ENDSEC;

DATA;
#10=MECHANICAL_DESIGN_GEOMETRIC_PRESENTATION_REPRESENTATION('',(#13),#958);
#11=SHAPE_REPRESENTATION_RELATIONSHIP('SRR','None',#965,#12);
#12=ADVANCED_BREP_SHAPE_REPRESENTATION('',(#14),#957);
#13=STYLED_ITEM('',(#974),#14);
#14=MANIFOLD_SOLID_BREP('Body1',#501);
#15=PLANE('',#555);
#16=PLANE('',#560);
#17=PLANE('',#561);
#18=PLANE('',#562);
#19=PLANE('',#563);
#20=PLANE('',#565);
#21=PLANE('',#567);
#22=PLANE('',#569);
#23=PLANE('',#570);
#24=FACE_BOUND('',#158,.T.);
#25=FACE_BOUND('',#160,.T.);
#26=FACE_BOUND('',#163,.T.);
#27=FACE_BOUND('',#165,.T.);
#28=(
BOUNDED_CURVE()
B_SPLINE_CURVE(2,(#833,#834,#835),.UNSPECIFIED.,.F.,.F.)
B_SPLINE_CURVE_WITH_KNOTS((3,3),(-0.324608649878464,-0.157525791050947),
 .UNSPECIFIED.)
CURVE()
GEOMETRIC_REPRESENTATION_ITEM()
RATIONAL_B_SPLINE_CURVE((1.92857142857142,1.71907024550282,1.47922484317989))
REPRESENTATION_ITEM('')
);
#29=(
BOUNDED_CURVE()
B_SPLINE_CURVE(2,(#854,#855,#856),.UNSPECIFIED.,.F.,.F.)
B_SPLINE_CURVE_WITH_KNOTS((3,3),(-1.28392794276425,-1.01734949746879),
 .UNSPECIFIED.)
CURVE()
GEOMETRIC_REPRESENTATION_ITEM()
RATIONAL_B_SPLINE_CURVE((1.29935898524964,1.32142857142857,1.32142857142857))
REPRESENTATION_ITEM('')
);
#30=(
BOUNDED_CURVE()
B_SPLINE_CURVE(2,(#859,#860,#861),.UNSPECIFIED.,.F.,.F.)
B_SPLINE_CURVE_WITH_KNOTS((3,3),(-1.01734949746879,-0.750771052173336),
 .UNSPECIFIED.)
CURVE()
GEOMETRIC_REPRESENTATION_ITEM()
RATIONAL_B_SPLINE_CURVE((1.32142857142857,1.32142857142857,1.29935898524964))
REPRESENTATION_ITEM('')
);
#31=(
BOUNDED_CURVE()
B_SPLINE_CURVE(2,(#879,#880,#881),.UNSPECIFIED.,.F.,.F.)
B_SPLINE_CURVE_WITH_KNOTS((3,3),(-2.79882330876794,-2.63174044994042),
 .UNSPECIFIED.)
CURVE()
GEOMETRIC_REPRESENTATION_ITEM()
RATIONAL_B_SPLINE_CURVE((1.4792248431799,1.71907024550283,1.92857142857145))
REPRESENTATION_ITEM('')
);
#32=(
BOUNDED_CURVE()
B_SPLINE_CURVE(2,(#920,#921,#922),.UNSPECIFIED.,.F.,.F.)
B_SPLINE_CURVE_WITH_KNOTS((3,3),(1.40554805691572,1.42364530226418),
 .UNSPECIFIED.)
CURVE()
GEOMETRIC_REPRESENTATION_ITEM()
RATIONAL_B_SPLINE_CURVE((1.18571428571442,1.16167520454333,1.13698630136986))
REPRESENTATION_ITEM('')
);
#33=(
BOUNDED_CURVE()
B_SPLINE_CURVE(2,(#923,#924,#925),.UNSPECIFIED.,.F.,.F.)
B_SPLINE_CURVE_WITH_KNOTS((3,3),(0.0484959953020663,0.0665932406505241),
 .UNSPECIFIED.)
CURVE()
GEOMETRIC_REPRESENTATION_ITEM()
RATIONAL_B_SPLINE_CURVE((1.13698630136986,1.16167520454333,1.18571428571441))
REPRESENTATION_ITEM('')
);
#34=CONICAL_SURFACE('',#527,14.7,0.785398163397463);
#35=CONICAL_SURFACE('',#531,12.2000000000001,0.785398163397466);
#36=CONICAL_SURFACE('',#535,8.00000000000002,0.785398163397417);
#37=CONICAL_SURFACE('',#538,15.,0.785398163397448);
#38=CONICAL_SURFACE('',#545,8.00000000000003,0.785398163397442);
#39=CONICAL_SURFACE('',#553,10.5,0.785398163397454);
#40=CONICAL_SURFACE('',#559,5.3,0.785398163397441);
#41=LINE('',#764,#70);
#42=LINE('',#767,#71);
#43=LINE('',#782,#72);
#44=LINE('',#790,#73);
#45=LINE('',#796,#74);
#46=LINE('',#802,#75);
#47=LINE('',#805,#76);
#48=LINE('',#811,#77);
#49=LINE('',#814,#78);
#50=LINE('',#821,#79);
#51=LINE('',#827,#80);
#52=LINE('',#830,#81);
#53=LINE('',#857,#82);
#54=LINE('',#883,#83);
#55=LINE('',#885,#84);
#56=LINE('',#905,#85);
#57=LINE('',#909,#86);
#58=LINE('',#913,#87);
#59=LINE('',#917,#88);
#60=LINE('',#929,#89);
#61=LINE('',#931,#90);
#62=LINE('',#933,#91);
#63=LINE('',#935,#92);
#64=LINE('',#938,#93);
#65=LINE('',#939,#94);
#66=LINE('',#941,#95);
#67=LINE('',#943,#96);
#68=LINE('',#946,#97);
#69=LINE('',#949,#98);
#70=VECTOR('',#591,1000.);
#71=VECTOR('',#594,1000.);
#72=VECTOR('',#611,14.7);
#73=VECTOR('',#620,12.2000000000001);
#74=VECTOR('',#627,8.00000000000002);
#75=VECTOR('',#634,15.);
#76=VECTOR('',#639,12.5);
#77=VECTOR('',#646,8.00000000000002);
#78=VECTOR('',#649,8.00000000000003);
#79=VECTOR('',#658,10.5);
#80=VECTOR('',#663,1000.);
#81=VECTOR('',#666,1000.);
#82=VECTOR('',#669,10.5);
#83=VECTOR('',#672,15.);
#84=VECTOR('',#673,1000.);
#85=VECTOR('',#674,1000.);
#86=VECTOR('',#677,1000.);
#87=VECTOR('',#680,1000.);
#88=VECTOR('',#683,1000.);
#89=VECTOR('',#694,1000.);
#90=VECTOR('',#697,1000.);
#91=VECTOR('',#700,1000.);
#92=VECTOR('',#703,1000.);
#93=VECTOR('',#708,1000.);
#94=VECTOR('',#709,1000.);
#95=VECTOR('',#712,1000.);
#96=VECTOR('',#715,1000.);
#97=VECTOR('',#718,1000.);
#98=VECTOR('',#721,1000.);
#99=B_SPLINE_CURVE_WITH_KNOTS('',3,(#745,#746,#747,#748,#749,#750,#751,
#752,#753,#754,#755,#756,#757,#758,#759,#760,#761,#762),.UNSPECIFIED.,.F.,
 .F.,(4,2,2,2,2,2,2,2,4),(-1.21174242229605,-1.06026079426587,-0.908779166235692,
-0.757325188691858,-0.605871211148024,-0.45441723360419,-0.302963256060356,
-0.151481628030178,0.),.UNSPECIFIED.);
#100=B_SPLINE_CURVE_WITH_KNOTS('',3,(#837,#838,#839,#840,#841,#842,#843,
#844,#845,#846,#847,#848,#849,#850,#851,#852),.UNSPECIFIED.,.F.,.F.,(4,
2,2,2,2,2,2,4),(-0.111229591892925,-0.109195179415326,-0.101026830431762,
-0.094312630919581,-0.0909555311634904,-0.0875984314073999,-0.0842413316513093,
-0.083400200826544),.UNSPECIFIED.);
#101=B_SPLINE_CURVE_WITH_KNOTS('',3,(#863,#864,#865,#866,#867,#868,#869,
#870,#871,#872,#873,#874,#875,#876,#877,#878),.UNSPECIFIED.,.F.,.F.,(4,
2,2,2,2,2,2,4),(-0.0917966619882598,-0.0909555311634903,-0.0875984314073997,
-0.0842413316513091,-0.0808842318952185,-0.0741700323830372,-0.0660016833994739,
-0.0639672709218755),.UNSPECIFIED.);
#102=B_SPLINE_CURVE_WITH_KNOTS('',3,(#887,#888,#889,#890,#891,#892,#893,
#894,#895,#896,#897,#898,#899,#900,#901,#902,#903,#904),.UNSPECIFIED.,.F.,
 .F.,(4,2,2,2,2,2,2,2,4),(0.,0.151481628030179,0.302963256060357,0.454417233604191,
0.605871211148025,0.757325188691859,0.908779166235693,1.06026079426587,
1.21174242229605),.UNSPECIFIED.);
#103=CYLINDRICAL_SURFACE('',#520,4.);
#104=CYLINDRICAL_SURFACE('',#541,12.5);
#105=CYLINDRICAL_SURFACE('',#542,8.00000000000002);
#106=CYLINDRICAL_SURFACE('',#548,10.5);
#107=CYLINDRICAL_SURFACE('',#550,5.00000000000002);
#108=CYLINDRICAL_SURFACE('',#554,15.);
#109=CYLINDRICAL_SURFACE('',#564,0.16);
#110=CYLINDRICAL_SURFACE('',#566,0.16);
#111=CYLINDRICAL_SURFACE('',#568,4.);
#112=CYLINDRICAL_SURFACE('',#572,0.200000000000001);
#113=CYLINDRICAL_SURFACE('',#576,0.200000000000001);
#114=FACE_OUTER_BOUND('',#144,.T.);
#115=FACE_OUTER_BOUND('',#145,.T.);
#116=FACE_OUTER_BOUND('',#146,.T.);
#117=FACE_OUTER_BOUND('',#147,.T.);
#118=FACE_OUTER_BOUND('',#148,.T.);
#119=FACE_OUTER_BOUND('',#149,.T.);
#120=FACE_OUTER_BOUND('',#150,.T.);
#121=FACE_OUTER_BOUND('',#151,.T.);
#122=FACE_OUTER_BOUND('',#152,.T.);
#123=FACE_OUTER_BOUND('',#153,.T.);
#124=FACE_OUTER_BOUND('',#154,.T.);
#125=FACE_OUTER_BOUND('',#155,.T.);
#126=FACE_OUTER_BOUND('',#156,.T.);
#127=FACE_OUTER_BOUND('',#157,.T.);
#128=FACE_OUTER_BOUND('',#159,.T.);
#129=FACE_OUTER_BOUND('',#161,.T.);
#130=FACE_OUTER_BOUND('',#162,.T.);
#131=FACE_OUTER_BOUND('',#164,.T.);
#132=FACE_OUTER_BOUND('',#166,.T.);
#133=FACE_OUTER_BOUND('',#167,.T.);
#134=FACE_OUTER_BOUND('',#168,.T.);
#135=FACE_OUTER_BOUND('',#169,.T.);
#136=FACE_OUTER_BOUND('',#170,.T.);
#137=FACE_OUTER_BOUND('',#171,.T.);
#138=FACE_OUTER_BOUND('',#172,.T.);
#139=FACE_OUTER_BOUND('',#173,.T.);
#140=FACE_OUTER_BOUND('',#174,.T.);
#141=FACE_OUTER_BOUND('',#175,.T.);
#142=FACE_OUTER_BOUND('',#176,.T.);
#143=FACE_OUTER_BOUND('',#177,.T.);
#144=EDGE_LOOP('',(#326,#327,#328,#329));
#145=EDGE_LOOP('',(#330,#331,#332,#333));
#146=EDGE_LOOP('',(#334,#335,#336,#337,#338));
#147=EDGE_LOOP('',(#339,#340,#341,#342,#343));
#148=EDGE_LOOP('',(#344,#345,#346,#347,#348));
#149=EDGE_LOOP('',(#349,#350,#351,#352));
#150=EDGE_LOOP('',(#353,#354,#355,#356));
#151=EDGE_LOOP('',(#357,#358,#359,#360,#361,#362));
#152=EDGE_LOOP('',(#363,#364,#365,#366,#367));
#153=EDGE_LOOP('',(#368,#369,#370,#371,#372,#373));
#154=EDGE_LOOP('',(#374,#375,#376,#377,#378));
#155=EDGE_LOOP('',(#379,#380,#381,#382));
#156=EDGE_LOOP('',(#383,#384,#385,#386,#387,#388,#389,#390,#391,#392));
#157=EDGE_LOOP('',(#393,#394,#395,#396,#397));
#158=EDGE_LOOP('',(#398,#399,#400,#401));
#159=EDGE_LOOP('',(#402));
#160=EDGE_LOOP('',(#403,#404,#405,#406,#407,#408));
#161=EDGE_LOOP('',(#409,#410,#411,#412));
#162=EDGE_LOOP('',(#413));
#163=EDGE_LOOP('',(#414));
#164=EDGE_LOOP('',(#415));
#165=EDGE_LOOP('',(#416));
#166=EDGE_LOOP('',(#417,#418,#419,#420,#421));
#167=EDGE_LOOP('',(#422,#423,#424,#425,#426));
#168=EDGE_LOOP('',(#427,#428,#429,#430));
#169=EDGE_LOOP('',(#431,#432,#433,#434,#435));
#170=EDGE_LOOP('',(#436,#437,#438,#439));
#171=EDGE_LOOP('',(#440,#441,#442,#443));
#172=EDGE_LOOP('',(#444,#445,#446,#447));
#173=EDGE_LOOP('',(#448,#449,#450,#451));
#174=EDGE_LOOP('',(#452,#453,#454,#455));
#175=EDGE_LOOP('',(#456,#457,#458,#459));
#176=EDGE_LOOP('',(#460,#461,#462,#463));
#177=EDGE_LOOP('',(#464,#465,#466,#467));
#178=CIRCLE('',#516,3.8);
#179=CIRCLE('',#517,0.200000000000001);
#180=CIRCLE('',#518,4.);
#181=CIRCLE('',#519,0.200000000000001);
#182=CIRCLE('',#521,4.);
#183=CIRCLE('',#523,12.7);
#184=CIRCLE('',#524,0.2);
#185=CIRCLE('',#525,12.5);
#186=CIRCLE('',#526,12.5);
#187=CIRCLE('',#528,15.);
#188=CIRCLE('',#529,15.);
#189=CIRCLE('',#530,14.7);
#190=CIRCLE('',#532,12.5);
#191=CIRCLE('',#533,12.5);
#192=CIRCLE('',#534,12.2000000000001);
#193=CIRCLE('',#536,8.00000000000002);
#194=CIRCLE('',#537,8.30000000000009);
#195=CIRCLE('',#539,15.);
#196=CIRCLE('',#540,14.7);
#197=CIRCLE('',#543,8.00000000000002);
#198=CIRCLE('',#544,8.00000000000002);
#199=CIRCLE('',#546,10.5);
#200=CIRCLE('',#547,10.5);
#201=CIRCLE('',#549,10.5);
#202=CIRCLE('',#551,5.00000000000002);
#203=CIRCLE('',#552,5.00000000000002);
#204=CIRCLE('',#556,5.3);
#205=CIRCLE('',#557,0.16);
#206=CIRCLE('',#558,0.16);
#207=CIRCLE('',#571,3.8);
#208=CIRCLE('',#573,0.200000000000001);
#209=CIRCLE('',#575,0.200000000000001);
#210=VERTEX_POINT('',#734);
#211=VERTEX_POINT('',#735);
#212=VERTEX_POINT('',#737);
#213=VERTEX_POINT('',#739);
#214=VERTEX_POINT('',#743);
#215=VERTEX_POINT('',#744);
#216=VERTEX_POINT('',#763);
#217=VERTEX_POINT('',#765);
#218=VERTEX_POINT('',#769);
#219=VERTEX_POINT('',#771);
#220=VERTEX_POINT('',#773);
#221=VERTEX_POINT('',#777);
#222=VERTEX_POINT('',#778);
#223=VERTEX_POINT('',#781);
#224=VERTEX_POINT('',#785);
#225=VERTEX_POINT('',#786);
#226=VERTEX_POINT('',#789);
#227=VERTEX_POINT('',#793);
#228=VERTEX_POINT('',#795);
#229=VERTEX_POINT('',#799);
#230=VERTEX_POINT('',#801);
#231=VERTEX_POINT('',#807);
#232=VERTEX_POINT('',#808);
#233=VERTEX_POINT('',#813);
#234=VERTEX_POINT('',#815);
#235=VERTEX_POINT('',#819);
#236=VERTEX_POINT('',#823);
#237=VERTEX_POINT('',#824);
#238=VERTEX_POINT('',#826);
#239=VERTEX_POINT('',#828);
#240=VERTEX_POINT('',#832);
#241=VERTEX_POINT('',#836);
#242=VERTEX_POINT('',#853);
#243=VERTEX_POINT('',#858);
#244=VERTEX_POINT('',#862);
#245=VERTEX_POINT('',#884);
#246=VERTEX_POINT('',#886);
#247=VERTEX_POINT('',#907);
#248=VERTEX_POINT('',#908);
#249=VERTEX_POINT('',#910);
#250=VERTEX_POINT('',#912);
#251=VERTEX_POINT('',#914);
#252=VERTEX_POINT('',#916);
#253=VERTEX_POINT('',#945);
#254=VERTEX_POINT('',#947);
#255=EDGE_CURVE('',#210,#211,#178,.T.);
#256=EDGE_CURVE('',#210,#212,#179,.T.);
#257=EDGE_CURVE('',#213,#212,#180,.T.);
#258=EDGE_CURVE('',#211,#213,#181,.T.);
#259=EDGE_CURVE('',#214,#215,#99,.T.);
#260=EDGE_CURVE('',#215,#216,#41,.T.);
#261=EDGE_CURVE('',#216,#217,#182,.T.);
#262=EDGE_CURVE('',#214,#217,#42,.T.);
#263=EDGE_CURVE('',#218,#218,#183,.T.);
#264=EDGE_CURVE('',#218,#219,#184,.T.);
#265=EDGE_CURVE('',#220,#219,#185,.T.);
#266=EDGE_CURVE('',#219,#220,#186,.T.);
#267=EDGE_CURVE('',#221,#222,#187,.T.);
#268=EDGE_CURVE('',#222,#221,#188,.T.);
#269=EDGE_CURVE('',#222,#223,#43,.T.);
#270=EDGE_CURVE('',#223,#223,#189,.T.);
#271=EDGE_CURVE('',#224,#225,#190,.T.);
#272=EDGE_CURVE('',#225,#224,#191,.T.);
#273=EDGE_CURVE('',#225,#226,#44,.T.);
#274=EDGE_CURVE('',#226,#226,#192,.T.);
#275=EDGE_CURVE('',#227,#227,#193,.T.);
#276=EDGE_CURVE('',#227,#228,#45,.T.);
#277=EDGE_CURVE('',#228,#228,#194,.T.);
#278=EDGE_CURVE('',#229,#229,#195,.T.);
#279=EDGE_CURVE('',#229,#230,#46,.T.);
#280=EDGE_CURVE('',#230,#230,#196,.T.);
#281=EDGE_CURVE('',#224,#220,#47,.T.);
#282=EDGE_CURVE('',#231,#232,#197,.T.);
#283=EDGE_CURVE('',#232,#231,#198,.T.);
#284=EDGE_CURVE('',#232,#227,#48,.T.);
#285=EDGE_CURVE('',#231,#233,#49,.T.);
#286=EDGE_CURVE('',#234,#233,#199,.T.);
#287=EDGE_CURVE('',#233,#234,#200,.T.);
#288=EDGE_CURVE('',#235,#235,#201,.T.);
#289=EDGE_CURVE('',#235,#234,#50,.T.);
#290=EDGE_CURVE('',#236,#237,#202,.T.);
#291=EDGE_CURVE('',#237,#238,#51,.T.);
#292=EDGE_CURVE('',#238,#239,#203,.T.);
#293=EDGE_CURVE('',#239,#236,#52,.T.);
#294=EDGE_CURVE('',#238,#240,#28,.T.);
#295=EDGE_CURVE('',#240,#241,#100,.T.);
#296=EDGE_CURVE('',#241,#242,#29,.T.);
#297=EDGE_CURVE('',#242,#235,#53,.T.);
#298=EDGE_CURVE('',#242,#243,#30,.T.);
#299=EDGE_CURVE('',#243,#244,#101,.T.);
#300=EDGE_CURVE('',#244,#239,#31,.T.);
#301=EDGE_CURVE('',#221,#229,#54,.T.);
#302=EDGE_CURVE('',#245,#214,#55,.T.);
#303=EDGE_CURVE('',#246,#245,#102,.T.);
#304=EDGE_CURVE('',#215,#246,#56,.T.);
#305=EDGE_CURVE('',#247,#248,#57,.T.);
#306=EDGE_CURVE('',#248,#249,#204,.T.);
#307=EDGE_CURVE('',#249,#250,#58,.T.);
#308=EDGE_CURVE('',#250,#251,#205,.T.);
#309=EDGE_CURVE('',#251,#252,#59,.T.);
#310=EDGE_CURVE('',#252,#247,#206,.T.);
#311=EDGE_CURVE('',#237,#248,#32,.T.);
#312=EDGE_CURVE('',#249,#236,#33,.T.);
#313=EDGE_CURVE('',#240,#247,#60,.T.);
#314=EDGE_CURVE('',#244,#250,#61,.T.);
#315=EDGE_CURVE('',#243,#251,#62,.T.);
#316=EDGE_CURVE('',#241,#252,#63,.T.);
#317=EDGE_CURVE('',#246,#212,#64,.T.);
#318=EDGE_CURVE('',#212,#216,#65,.T.);
#319=EDGE_CURVE('',#245,#213,#66,.T.);
#320=EDGE_CURVE('',#217,#213,#67,.T.);
#321=EDGE_CURVE('',#211,#253,#68,.T.);
#322=EDGE_CURVE('',#253,#254,#207,.T.);
#323=EDGE_CURVE('',#254,#210,#69,.T.);
#324=EDGE_CURVE('',#216,#254,#208,.T.);
#325=EDGE_CURVE('',#217,#253,#209,.T.);
#326=ORIENTED_EDGE('',*,*,#255,.F.);
#327=ORIENTED_EDGE('',*,*,#256,.T.);
#328=ORIENTED_EDGE('',*,*,#257,.F.);
#329=ORIENTED_EDGE('',*,*,#258,.F.);
#330=ORIENTED_EDGE('',*,*,#259,.T.);
#331=ORIENTED_EDGE('',*,*,#260,.T.);
#332=ORIENTED_EDGE('',*,*,#261,.T.);
#333=ORIENTED_EDGE('',*,*,#262,.F.);
#334=ORIENTED_EDGE('',*,*,#263,.F.);
#335=ORIENTED_EDGE('',*,*,#264,.T.);
#336=ORIENTED_EDGE('',*,*,#265,.F.);
#337=ORIENTED_EDGE('',*,*,#266,.F.);
#338=ORIENTED_EDGE('',*,*,#264,.F.);
#339=ORIENTED_EDGE('',*,*,#267,.F.);
#340=ORIENTED_EDGE('',*,*,#268,.F.);
#341=ORIENTED_EDGE('',*,*,#269,.T.);
#342=ORIENTED_EDGE('',*,*,#270,.F.);
#343=ORIENTED_EDGE('',*,*,#269,.F.);
#344=ORIENTED_EDGE('',*,*,#271,.F.);
#345=ORIENTED_EDGE('',*,*,#272,.F.);
#346=ORIENTED_EDGE('',*,*,#273,.T.);
#347=ORIENTED_EDGE('',*,*,#274,.F.);
#348=ORIENTED_EDGE('',*,*,#273,.F.);
#349=ORIENTED_EDGE('',*,*,#275,.F.);
#350=ORIENTED_EDGE('',*,*,#276,.T.);
#351=ORIENTED_EDGE('',*,*,#277,.F.);
#352=ORIENTED_EDGE('',*,*,#276,.F.);
#353=ORIENTED_EDGE('',*,*,#278,.F.);
#354=ORIENTED_EDGE('',*,*,#279,.T.);
#355=ORIENTED_EDGE('',*,*,#280,.F.);
#356=ORIENTED_EDGE('',*,*,#279,.F.);
#357=ORIENTED_EDGE('',*,*,#271,.T.);
#358=ORIENTED_EDGE('',*,*,#272,.T.);
#359=ORIENTED_EDGE('',*,*,#281,.T.);
#360=ORIENTED_EDGE('',*,*,#265,.T.);
#361=ORIENTED_EDGE('',*,*,#266,.T.);
#362=ORIENTED_EDGE('',*,*,#281,.F.);
#363=ORIENTED_EDGE('',*,*,#282,.F.);
#364=ORIENTED_EDGE('',*,*,#283,.F.);
#365=ORIENTED_EDGE('',*,*,#284,.T.);
#366=ORIENTED_EDGE('',*,*,#275,.T.);
#367=ORIENTED_EDGE('',*,*,#284,.F.);
#368=ORIENTED_EDGE('',*,*,#282,.T.);
#369=ORIENTED_EDGE('',*,*,#283,.T.);
#370=ORIENTED_EDGE('',*,*,#285,.T.);
#371=ORIENTED_EDGE('',*,*,#286,.F.);
#372=ORIENTED_EDGE('',*,*,#287,.F.);
#373=ORIENTED_EDGE('',*,*,#285,.F.);
#374=ORIENTED_EDGE('',*,*,#288,.F.);
#375=ORIENTED_EDGE('',*,*,#289,.T.);
#376=ORIENTED_EDGE('',*,*,#286,.T.);
#377=ORIENTED_EDGE('',*,*,#287,.T.);
#378=ORIENTED_EDGE('',*,*,#289,.F.);
#379=ORIENTED_EDGE('',*,*,#290,.T.);
#380=ORIENTED_EDGE('',*,*,#291,.T.);
#381=ORIENTED_EDGE('',*,*,#292,.T.);
#382=ORIENTED_EDGE('',*,*,#293,.T.);
#383=ORIENTED_EDGE('',*,*,#292,.F.);
#384=ORIENTED_EDGE('',*,*,#294,.T.);
#385=ORIENTED_EDGE('',*,*,#295,.T.);
#386=ORIENTED_EDGE('',*,*,#296,.T.);
#387=ORIENTED_EDGE('',*,*,#297,.T.);
#388=ORIENTED_EDGE('',*,*,#288,.T.);
#389=ORIENTED_EDGE('',*,*,#297,.F.);
#390=ORIENTED_EDGE('',*,*,#298,.T.);
#391=ORIENTED_EDGE('',*,*,#299,.T.);
#392=ORIENTED_EDGE('',*,*,#300,.T.);
#393=ORIENTED_EDGE('',*,*,#267,.T.);
#394=ORIENTED_EDGE('',*,*,#268,.T.);
#395=ORIENTED_EDGE('',*,*,#301,.T.);
#396=ORIENTED_EDGE('',*,*,#278,.T.);
#397=ORIENTED_EDGE('',*,*,#301,.F.);
#398=ORIENTED_EDGE('',*,*,#259,.F.);
#399=ORIENTED_EDGE('',*,*,#302,.F.);
#400=ORIENTED_EDGE('',*,*,#303,.F.);
#401=ORIENTED_EDGE('',*,*,#304,.F.);
#402=ORIENTED_EDGE('',*,*,#280,.T.);
#403=ORIENTED_EDGE('',*,*,#305,.T.);
#404=ORIENTED_EDGE('',*,*,#306,.T.);
#405=ORIENTED_EDGE('',*,*,#307,.T.);
#406=ORIENTED_EDGE('',*,*,#308,.T.);
#407=ORIENTED_EDGE('',*,*,#309,.T.);
#408=ORIENTED_EDGE('',*,*,#310,.T.);
#409=ORIENTED_EDGE('',*,*,#306,.F.);
#410=ORIENTED_EDGE('',*,*,#311,.F.);
#411=ORIENTED_EDGE('',*,*,#290,.F.);
#412=ORIENTED_EDGE('',*,*,#312,.F.);
#413=ORIENTED_EDGE('',*,*,#274,.T.);
#414=ORIENTED_EDGE('',*,*,#277,.T.);
#415=ORIENTED_EDGE('',*,*,#270,.T.);
#416=ORIENTED_EDGE('',*,*,#263,.T.);
#417=ORIENTED_EDGE('',*,*,#291,.F.);
#418=ORIENTED_EDGE('',*,*,#311,.T.);
#419=ORIENTED_EDGE('',*,*,#305,.F.);
#420=ORIENTED_EDGE('',*,*,#313,.F.);
#421=ORIENTED_EDGE('',*,*,#294,.F.);
#422=ORIENTED_EDGE('',*,*,#314,.T.);
#423=ORIENTED_EDGE('',*,*,#307,.F.);
#424=ORIENTED_EDGE('',*,*,#312,.T.);
#425=ORIENTED_EDGE('',*,*,#293,.F.);
#426=ORIENTED_EDGE('',*,*,#300,.F.);
#427=ORIENTED_EDGE('',*,*,#315,.T.);
#428=ORIENTED_EDGE('',*,*,#308,.F.);
#429=ORIENTED_EDGE('',*,*,#314,.F.);
#430=ORIENTED_EDGE('',*,*,#299,.F.);
#431=ORIENTED_EDGE('',*,*,#316,.T.);
#432=ORIENTED_EDGE('',*,*,#309,.F.);
#433=ORIENTED_EDGE('',*,*,#315,.F.);
#434=ORIENTED_EDGE('',*,*,#298,.F.);
#435=ORIENTED_EDGE('',*,*,#296,.F.);
#436=ORIENTED_EDGE('',*,*,#313,.T.);
#437=ORIENTED_EDGE('',*,*,#310,.F.);
#438=ORIENTED_EDGE('',*,*,#316,.F.);
#439=ORIENTED_EDGE('',*,*,#295,.F.);
#440=ORIENTED_EDGE('',*,*,#317,.T.);
#441=ORIENTED_EDGE('',*,*,#318,.T.);
#442=ORIENTED_EDGE('',*,*,#260,.F.);
#443=ORIENTED_EDGE('',*,*,#304,.T.);
#444=ORIENTED_EDGE('',*,*,#319,.T.);
#445=ORIENTED_EDGE('',*,*,#257,.T.);
#446=ORIENTED_EDGE('',*,*,#317,.F.);
#447=ORIENTED_EDGE('',*,*,#303,.T.);
#448=ORIENTED_EDGE('',*,*,#262,.T.);
#449=ORIENTED_EDGE('',*,*,#320,.T.);
#450=ORIENTED_EDGE('',*,*,#319,.F.);
#451=ORIENTED_EDGE('',*,*,#302,.T.);
#452=ORIENTED_EDGE('',*,*,#255,.T.);
#453=ORIENTED_EDGE('',*,*,#321,.T.);
#454=ORIENTED_EDGE('',*,*,#322,.T.);
#455=ORIENTED_EDGE('',*,*,#323,.T.);
#456=ORIENTED_EDGE('',*,*,#324,.F.);
#457=ORIENTED_EDGE('',*,*,#318,.F.);
#458=ORIENTED_EDGE('',*,*,#256,.F.);
#459=ORIENTED_EDGE('',*,*,#323,.F.);
#460=ORIENTED_EDGE('',*,*,#324,.T.);
#461=ORIENTED_EDGE('',*,*,#322,.F.);
#462=ORIENTED_EDGE('',*,*,#325,.F.);
#463=ORIENTED_EDGE('',*,*,#261,.F.);
#464=ORIENTED_EDGE('',*,*,#258,.T.);
#465=ORIENTED_EDGE('',*,*,#320,.F.);
#466=ORIENTED_EDGE('',*,*,#325,.T.);
#467=ORIENTED_EDGE('',*,*,#321,.F.);
#468=TOROIDAL_SURFACE('',#515,3.8,0.2);
#469=TOROIDAL_SURFACE('',#522,12.7,0.2);
#470=TOROIDAL_SURFACE('',#574,3.8,0.2);
#471=ADVANCED_FACE('',(#114),#468,.F.);
#472=ADVANCED_FACE('',(#115),#103,.F.);
#473=ADVANCED_FACE('',(#116),#469,.F.);
#474=ADVANCED_FACE('',(#117),#34,.T.);
#475=ADVANCED_FACE('',(#118),#35,.T.);
#476=ADVANCED_FACE('',(#119),#36,.F.);
#477=ADVANCED_FACE('',(#120),#37,.T.);
#478=ADVANCED_FACE('',(#121),#104,.T.);
#479=ADVANCED_FACE('',(#122),#105,.F.);
#480=ADVANCED_FACE('',(#123),#38,.F.);
#481=ADVANCED_FACE('',(#124),#106,.F.);
#482=ADVANCED_FACE('',(#125),#107,.F.);
#483=ADVANCED_FACE('',(#126),#39,.F.);
#484=ADVANCED_FACE('',(#127,#24),#108,.T.);
#485=ADVANCED_FACE('',(#128,#25),#15,.F.);
#486=ADVANCED_FACE('',(#129),#40,.F.);
#487=ADVANCED_FACE('',(#130,#26),#16,.F.);
#488=ADVANCED_FACE('',(#131,#27),#17,.F.);
#489=ADVANCED_FACE('',(#132),#18,.T.);
#490=ADVANCED_FACE('',(#133),#19,.T.);
#491=ADVANCED_FACE('',(#134),#109,.F.);
#492=ADVANCED_FACE('',(#135),#20,.T.);
#493=ADVANCED_FACE('',(#136),#110,.F.);
#494=ADVANCED_FACE('',(#137),#21,.T.);
#495=ADVANCED_FACE('',(#138),#111,.F.);
#496=ADVANCED_FACE('',(#139),#22,.T.);
#497=ADVANCED_FACE('',(#140),#23,.T.);
#498=ADVANCED_FACE('',(#141),#112,.F.);
#499=ADVANCED_FACE('',(#142),#470,.F.);
#500=ADVANCED_FACE('',(#143),#113,.F.);
#501=CLOSED_SHELL('',(#471,#472,#473,#474,#475,#476,#477,#478,#479,#480,
#481,#482,#483,#484,#485,#486,#487,#488,#489,#490,#491,#492,#493,#494,#495,
#496,#497,#498,#499,#500));
#502=DERIVED_UNIT_ELEMENT(#504,1.);
#503=DERIVED_UNIT_ELEMENT(#960,-3.);
#504=(
MASS_UNIT()
NAMED_UNIT(*)
SI_UNIT(.KILO.,.GRAM.)
);
#505=DERIVED_UNIT((#502,#503));
#506=MEASURE_REPRESENTATION_ITEM('density measure',
POSITIVE_RATIO_MEASURE(7850.),#505);
#507=PROPERTY_DEFINITION_REPRESENTATION(#512,#509);
#508=PROPERTY_DEFINITION_REPRESENTATION(#513,#510);
#509=REPRESENTATION('material name',(#511),#957);
#510=REPRESENTATION('density',(#506),#957);
#511=DESCRIPTIVE_REPRESENTATION_ITEM('Steel','Steel');
#512=PROPERTY_DEFINITION('material property','material name',#967);
#513=PROPERTY_DEFINITION('material property','density of part',#967);
#514=AXIS2_PLACEMENT_3D('',#732,#577,#578);
#515=AXIS2_PLACEMENT_3D('',#733,#579,#580);
#516=AXIS2_PLACEMENT_3D('',#736,#581,#582);
#517=AXIS2_PLACEMENT_3D('',#738,#583,#584);
#518=AXIS2_PLACEMENT_3D('',#740,#585,#586);
#519=AXIS2_PLACEMENT_3D('',#741,#587,#588);
#520=AXIS2_PLACEMENT_3D('',#742,#589,#590);
#521=AXIS2_PLACEMENT_3D('',#766,#592,#593);
#522=AXIS2_PLACEMENT_3D('',#768,#595,#596);
#523=AXIS2_PLACEMENT_3D('',#770,#597,#598);
#524=AXIS2_PLACEMENT_3D('',#772,#599,#600);
#525=AXIS2_PLACEMENT_3D('',#774,#601,#602);
#526=AXIS2_PLACEMENT_3D('',#775,#603,#604);
#527=AXIS2_PLACEMENT_3D('',#776,#605,#606);
#528=AXIS2_PLACEMENT_3D('',#779,#607,#608);
#529=AXIS2_PLACEMENT_3D('',#780,#609,#610);
#530=AXIS2_PLACEMENT_3D('',#783,#612,#613);
#531=AXIS2_PLACEMENT_3D('',#784,#614,#615);
#532=AXIS2_PLACEMENT_3D('',#787,#616,#617);
#533=AXIS2_PLACEMENT_3D('',#788,#618,#619);
#534=AXIS2_PLACEMENT_3D('',#791,#621,#622);
#535=AXIS2_PLACEMENT_3D('',#792,#623,#624);
#536=AXIS2_PLACEMENT_3D('',#794,#625,#626);
#537=AXIS2_PLACEMENT_3D('',#797,#628,#629);
#538=AXIS2_PLACEMENT_3D('',#798,#630,#631);
#539=AXIS2_PLACEMENT_3D('',#800,#632,#633);
#540=AXIS2_PLACEMENT_3D('',#803,#635,#636);
#541=AXIS2_PLACEMENT_3D('',#804,#637,#638);
#542=AXIS2_PLACEMENT_3D('',#806,#640,#641);
#543=AXIS2_PLACEMENT_3D('',#809,#642,#643);
#544=AXIS2_PLACEMENT_3D('',#810,#644,#645);
#545=AXIS2_PLACEMENT_3D('',#812,#647,#648);
#546=AXIS2_PLACEMENT_3D('',#816,#650,#651);
#547=AXIS2_PLACEMENT_3D('',#817,#652,#653);
#548=AXIS2_PLACEMENT_3D('',#818,#654,#655);
#549=AXIS2_PLACEMENT_3D('',#820,#656,#657);
#550=AXIS2_PLACEMENT_3D('',#822,#659,#660);
#551=AXIS2_PLACEMENT_3D('',#825,#661,#662);
#552=AXIS2_PLACEMENT_3D('',#829,#664,#665);
#553=AXIS2_PLACEMENT_3D('',#831,#667,#668);
#554=AXIS2_PLACEMENT_3D('',#882,#670,#671);
#555=AXIS2_PLACEMENT_3D('',#906,#675,#676);
#556=AXIS2_PLACEMENT_3D('',#911,#678,#679);
#557=AXIS2_PLACEMENT_3D('',#915,#681,#682);
#558=AXIS2_PLACEMENT_3D('',#918,#684,#685);
#559=AXIS2_PLACEMENT_3D('',#919,#686,#687);
#560=AXIS2_PLACEMENT_3D('',#926,#688,#689);
#561=AXIS2_PLACEMENT_3D('',#927,#690,#691);
#562=AXIS2_PLACEMENT_3D('',#928,#692,#693);
#563=AXIS2_PLACEMENT_3D('',#930,#695,#696);
#564=AXIS2_PLACEMENT_3D('',#932,#698,#699);
#565=AXIS2_PLACEMENT_3D('',#934,#701,#702);
#566=AXIS2_PLACEMENT_3D('',#936,#704,#705);
#567=AXIS2_PLACEMENT_3D('',#937,#706,#707);
#568=AXIS2_PLACEMENT_3D('',#940,#710,#711);
#569=AXIS2_PLACEMENT_3D('',#942,#713,#714);
#570=AXIS2_PLACEMENT_3D('',#944,#716,#717);
#571=AXIS2_PLACEMENT_3D('',#948,#719,#720);
#572=AXIS2_PLACEMENT_3D('',#950,#722,#723);
#573=AXIS2_PLACEMENT_3D('',#951,#724,#725);
#574=AXIS2_PLACEMENT_3D('',#952,#726,#727);
#575=AXIS2_PLACEMENT_3D('',#953,#728,#729);
#576=AXIS2_PLACEMENT_3D('',#954,#730,#731);
#577=DIRECTION('axis',(0.,0.,1.));
#578=DIRECTION('refdir',(1.,0.,0.));
#579=DIRECTION('center_axis',(0.,0.,1.));
#580=DIRECTION('ref_axis',(1.,0.,0.));
#581=DIRECTION('center_axis',(0.,0.,1.));
#582=DIRECTION('ref_axis',(1.,0.,0.));
#583=DIRECTION('center_axis',(-1.,0.,0.));
#584=DIRECTION('ref_axis',(0.,0.,1.));
#585=DIRECTION('center_axis',(0.,0.,-1.));
#586=DIRECTION('ref_axis',(1.,0.,0.));
#587=DIRECTION('center_axis',(1.,0.,0.));
#588=DIRECTION('ref_axis',(0.,0.,-1.));
#589=DIRECTION('center_axis',(0.,0.,-1.));
#590=DIRECTION('ref_axis',(-1.,0.,0.));
#591=DIRECTION('',(0.,0.,-1.));
#592=DIRECTION('center_axis',(0.,0.,-1.));
#593=DIRECTION('ref_axis',(1.,0.,0.));
#594=DIRECTION('',(0.,0.,-1.));
#595=DIRECTION('center_axis',(1.,9.36536403281669E-17,0.));
#596=DIRECTION('ref_axis',(0.,1.,0.));
#597=DIRECTION('center_axis',(1.,9.36536403281669E-17,0.));
#598=DIRECTION('ref_axis',(-9.36536403281669E-17,1.,0.));
#599=DIRECTION('center_axis',(1.14692630856387E-32,-1.22464679914735E-16,
1.));
#600=DIRECTION('ref_axis',(0.,-1.,-1.22464679914735E-16));
#601=DIRECTION('center_axis',(-1.,-9.36536403281669E-17,0.));
#602=DIRECTION('ref_axis',(-9.36536403281669E-17,1.,0.));
#603=DIRECTION('center_axis',(-1.,-9.36536403281669E-17,0.));
#604=DIRECTION('ref_axis',(-9.36536403281669E-17,1.,0.));
#605=DIRECTION('center_axis',(1.,9.36536403281499E-17,0.));
#606=DIRECTION('ref_axis',(-9.36536403281499E-17,1.,0.));
#607=DIRECTION('center_axis',(1.,9.36536403281499E-17,0.));
#608=DIRECTION('ref_axis',(-9.365364032815E-17,1.,0.));
#609=DIRECTION('center_axis',(1.,9.36536403281499E-17,0.));
#610=DIRECTION('ref_axis',(-9.365364032815E-17,1.,0.));
#611=DIRECTION('',(-0.707106781186537,0.707106781186558,8.65956056235506E-17));
#612=DIRECTION('center_axis',(-1.,-9.36536403281669E-17,0.));
#613=DIRECTION('ref_axis',(-9.36536403281669E-17,1.,0.));
#614=DIRECTION('center_axis',(1.,9.36536403281673E-17,0.));
#615=DIRECTION('ref_axis',(-9.36536403281672E-17,1.,0.));
#616=DIRECTION('center_axis',(1.,9.36536403281673E-17,0.));
#617=DIRECTION('ref_axis',(-9.36536403281673E-17,1.,0.));
#618=DIRECTION('center_axis',(1.,9.36536403281673E-17,0.));
#619=DIRECTION('ref_axis',(-9.36536403281673E-17,1.,0.));
#620=DIRECTION('',(-0.707106781186535,0.70710678118656,8.65956056235508E-17));
#621=DIRECTION('center_axis',(-1.,-9.36536403281669E-17,0.));
#622=DIRECTION('ref_axis',(-9.36536403281669E-17,1.,0.));
#623=DIRECTION('center_axis',(-1.,-9.36536403281737E-17,0.));
#624=DIRECTION('ref_axis',(9.36536403281737E-17,-1.,0.));
#625=DIRECTION('center_axis',(-1.,-9.36536403281737E-17,0.));
#626=DIRECTION('ref_axis',(-9.36536403281737E-17,1.,0.));
#627=DIRECTION('',(-0.70710678118657,0.707106781186525,-8.65956056235466E-17));
#628=DIRECTION('center_axis',(1.,9.36536403281669E-17,0.));
#629=DIRECTION('ref_axis',(-9.36536403281669E-17,1.,0.));
#630=DIRECTION('center_axis',(-1.,-9.3653640328164E-17,0.));
#631=DIRECTION('ref_axis',(9.3653640328164E-17,-1.,0.));
#632=DIRECTION('center_axis',(-1.,-9.3653640328164E-17,0.));
#633=DIRECTION('ref_axis',(9.3653640328164E-17,-1.,0.));
#634=DIRECTION('',(0.707106781186548,-0.707106781186548,8.65956056235493E-17));
#635=DIRECTION('center_axis',(1.,9.36536403281669E-17,0.));
#636=DIRECTION('ref_axis',(9.36536403281669E-17,-1.,0.));
#637=DIRECTION('center_axis',(-1.,-9.36536403281669E-17,0.));
#638=DIRECTION('ref_axis',(9.36536403281669E-17,-1.,0.));
#639=DIRECTION('',(1.,9.36536403281669E-17,0.));
#640=DIRECTION('center_axis',(-1.,-9.36536403281669E-17,0.));
#641=DIRECTION('ref_axis',(9.36536403281669E-17,-1.,0.));
#642=DIRECTION('center_axis',(-1.,-9.36536403281669E-17,0.));
#643=DIRECTION('ref_axis',(9.36536403281669E-17,-1.,0.));
#644=DIRECTION('center_axis',(-1.,-9.36536403281669E-17,0.));
#645=DIRECTION('ref_axis',(9.36536403281669E-17,-1.,0.));
#646=DIRECTION('',(-1.,-9.36536403281669E-17,0.));
#647=DIRECTION('center_axis',(1.,9.36536403281669E-17,0.));
#648=DIRECTION('ref_axis',(-9.36536403281669E-17,1.,0.));
#649=DIRECTION('',(0.707106781186552,-0.707106781186543,-8.65956056235488E-17));
#650=DIRECTION('center_axis',(-1.,-9.36536403281669E-17,0.));
#651=DIRECTION('ref_axis',(9.36536403281669E-17,-1.,0.));
#652=DIRECTION('center_axis',(-1.,-9.36536403281669E-17,0.));
#653=DIRECTION('ref_axis',(9.36536403281669E-17,-1.,0.));
#654=DIRECTION('center_axis',(-1.,-9.36536403281669E-17,0.));
#655=DIRECTION('ref_axis',(9.36536403281669E-17,-1.,0.));
#656=DIRECTION('center_axis',(-1.,-9.36536403281669E-17,0.));
#657=DIRECTION('ref_axis',(9.36536403281669E-17,-1.,0.));
#658=DIRECTION('',(-1.,-9.36536403281669E-17,0.));
#659=DIRECTION('center_axis',(-1.,-9.36536403281669E-17,0.));
#660=DIRECTION('ref_axis',(9.36536403281669E-17,-1.,0.));
#661=DIRECTION('center_axis',(1.,9.36536403281629E-17,0.));
#662=DIRECTION('ref_axis',(9.36536403281629E-17,-1.,0.));
#663=DIRECTION('',(-1.,-9.36536403281669E-17,0.));
#664=DIRECTION('center_axis',(-1.,-9.36536403281669E-17,0.));
#665=DIRECTION('ref_axis',(9.36536403281669E-17,-1.,0.));
#666=DIRECTION('',(1.,9.36536403281669E-17,0.));
#667=DIRECTION('center_axis',(-1.,-9.36536403281669E-17,0.));
#668=DIRECTION('ref_axis',(9.36536403281669E-17,-1.,0.));
#669=DIRECTION('',(-0.707106781186544,0.707106781186551,-8.65956056235498E-17));
#670=DIRECTION('center_axis',(-1.,-9.36536403281669E-17,0.));
#671=DIRECTION('ref_axis',(9.36536403281669E-17,-1.,0.));
#672=DIRECTION('',(1.,9.36536403281669E-17,0.));
#673=DIRECTION('',(-1.,-9.36536403281669E-17,0.));
#674=DIRECTION('',(1.,9.36536403281669E-17,0.));
#675=DIRECTION('center_axis',(-1.,-9.36536403281669E-17,0.));
#676=DIRECTION('ref_axis',(9.36536403281669E-17,-1.,0.));
#677=DIRECTION('',(9.36536403281669E-17,-1.,6.34036358178657E-17));
#678=DIRECTION('center_axis',(-1.,-9.36536403281669E-17,0.));
#679=DIRECTION('ref_axis',(9.36536403281669E-17,-1.,0.));
#680=DIRECTION('',(-9.36536403281669E-17,1.,6.34036358178657E-17));
#681=DIRECTION('center_axis',(-1.,-9.36536403281669E-17,0.));
#682=DIRECTION('ref_axis',(-9.36536403281669E-17,1.,0.));
#683=DIRECTION('',(0.,0.,-1.));
#684=DIRECTION('center_axis',(-1.,-9.36536403281669E-17,0.));
#685=DIRECTION('ref_axis',(-9.36536403281669E-17,1.,0.));
#686=DIRECTION('center_axis',(1.,9.36536403281629E-17,0.));
#687=DIRECTION('ref_axis',(9.36536403281629E-17,-1.,-3.21624529935327E-16));
#688=DIRECTION('center_axis',(1.,9.36536403281669E-17,0.));
#689=DIRECTION('ref_axis',(-9.36536403281669E-17,1.,0.));
#690=DIRECTION('center_axis',(1.,9.36536403281669E-17,0.));
#691=DIRECTION('ref_axis',(-9.36536403281669E-17,1.,0.));
#692=DIRECTION('center_axis',(-5.93798130438448E-33,6.34036358178658E-17,
1.));
#693=DIRECTION('ref_axis',(0.,-1.,6.34036358178658E-17));
#694=DIRECTION('',(1.,9.36536403281669E-17,0.));
#695=DIRECTION('center_axis',(-5.93798130438448E-33,6.34036358178658E-17,
-1.));
#696=DIRECTION('ref_axis',(0.,1.,6.34036358178658E-17));
#697=DIRECTION('',(1.,9.36536403281669E-17,0.));
#698=DIRECTION('center_axis',(1.,9.36536403281669E-17,0.));
#699=DIRECTION('ref_axis',(-9.36536403281669E-17,1.,0.));
#700=DIRECTION('',(1.,9.36536403281669E-17,0.));
#701=DIRECTION('center_axis',(9.36536403281669E-17,-1.,0.));
#702=DIRECTION('ref_axis',(1.,9.36536403281669E-17,0.));
#703=DIRECTION('',(1.,9.36536403281669E-17,0.));
#704=DIRECTION('center_axis',(1.,9.36536403281669E-17,0.));
#705=DIRECTION('ref_axis',(-9.36536403281669E-17,1.,0.));
#706=DIRECTION('center_axis',(0.,1.,0.));
#707=DIRECTION('ref_axis',(0.,0.,1.));
#708=DIRECTION('',(0.,0.,-1.));
#709=DIRECTION('',(-1.,0.,0.));
#710=DIRECTION('center_axis',(0.,0.,-1.));
#711=DIRECTION('ref_axis',(1.,1.22464679914735E-16,0.));
#712=DIRECTION('',(0.,0.,-1.));
#713=DIRECTION('center_axis',(0.,-1.,0.));
#714=DIRECTION('ref_axis',(0.,0.,-1.));
#715=DIRECTION('',(1.,0.,0.));
#716=DIRECTION('center_axis',(0.,0.,1.));
#717=DIRECTION('ref_axis',(1.,0.,0.));
#718=DIRECTION('',(-1.,0.,0.));
#719=DIRECTION('center_axis',(0.,0.,1.));
#720=DIRECTION('ref_axis',(1.,0.,0.));
#721=DIRECTION('',(1.,0.,0.));
#722=DIRECTION('center_axis',(-1.,0.,0.));
#723=DIRECTION('ref_axis',(0.,0.,1.));
#724=DIRECTION('center_axis',(1.,0.,0.));
#725=DIRECTION('ref_axis',(0.,0.,-1.));
#726=DIRECTION('center_axis',(0.,0.,1.));
#727=DIRECTION('ref_axis',(-1.,-1.22464679914735E-16,0.));
#728=DIRECTION('center_axis',(-1.,0.,0.));
#729=DIRECTION('ref_axis',(0.,0.,1.));
#730=DIRECTION('center_axis',(1.,0.,0.));
#731=DIRECTION('ref_axis',(0.,0.,-1.));
#732=CARTESIAN_POINT('',(0.,0.,0.));
#733=CARTESIAN_POINT('Origin',(-71.,0.,11.2));
#734=CARTESIAN_POINT('',(-71.,-3.8,11.));
#735=CARTESIAN_POINT('',(-71.,3.8,11.));
#736=CARTESIAN_POINT('Origin',(-71.,0.,11.));
#737=CARTESIAN_POINT('',(-71.,-4.,11.2));
#738=CARTESIAN_POINT('Origin',(-71.,-3.8,11.2));
#739=CARTESIAN_POINT('',(-71.,4.,11.2));
#740=CARTESIAN_POINT('Origin',(-71.,0.,11.2));
#741=CARTESIAN_POINT('Origin',(-71.,3.8,11.2));
#742=CARTESIAN_POINT('Origin',(-91.,0.,21.));
#743=CARTESIAN_POINT('',(-91.,4.,14.456832294801));
#744=CARTESIAN_POINT('',(-91.,-4.,14.456832294801));
#745=CARTESIAN_POINT('Ctrl Pts',(-91.,4.,14.456832294801));
#746=CARTESIAN_POINT('Ctrl Pts',(-91.5049387601006,4.,14.456832294801));
#747=CARTESIAN_POINT('Ctrl Pts',(-92.041759312972,3.89858565468202,14.4860463797954));
#748=CARTESIAN_POINT('Ctrl Pts',(-93.026490326363,3.48963768728072,14.5899601522112));
#749=CARTESIAN_POINT('Ctrl Pts',(-93.4746274400526,3.1822268094398,14.6629881493455));
#750=CARTESIAN_POINT('Ctrl Pts',(-94.182162229111,2.47469202038142,14.7988391761471));
#751=CARTESIAN_POINT('Ctrl Pts',(-94.4896233569121,2.02652821301275,14.8707167692233));
#752=CARTESIAN_POINT('Ctrl Pts',(-94.8986081285389,1.04170181705203,14.9719701822328));
#753=CARTESIAN_POINT('Ctrl Pts',(-95.,0.504846591812781,15.));
#754=CARTESIAN_POINT('Ctrl Pts',(-95.,-0.50484659181278,15.));
#755=CARTESIAN_POINT('Ctrl Pts',(-94.8986081285389,-1.04170181705203,14.9719701822328));
#756=CARTESIAN_POINT('Ctrl Pts',(-94.4896233569121,-2.02652821301275,14.8707167692234));
#757=CARTESIAN_POINT('Ctrl Pts',(-94.182162229111,-2.47469202038142,14.7988391761471));
#758=CARTESIAN_POINT('Ctrl Pts',(-93.4746274400526,-3.1822268094398,14.6629881493455));
#759=CARTESIAN_POINT('Ctrl Pts',(-93.026490326363,-3.48963768728072,14.5899601522112));
#760=CARTESIAN_POINT('Ctrl Pts',(-92.041759312972,-3.89858565468202,14.4860463797954));
#761=CARTESIAN_POINT('Ctrl Pts',(-91.5049387601006,-4.,14.456832294801));
#762=CARTESIAN_POINT('Ctrl Pts',(-91.,-4.,14.456832294801));
#763=CARTESIAN_POINT('',(-91.,-4.,11.2));
#764=CARTESIAN_POINT('',(-91.,-4.,21.));
#765=CARTESIAN_POINT('',(-91.,4.,11.2));
#766=CARTESIAN_POINT('Origin',(-91.,0.,11.2));
#767=CARTESIAN_POINT('',(-91.,4.,21.));
#768=CARTESIAN_POINT('Origin',(-112.2,-3.16889318428424E-14,0.));
#769=CARTESIAN_POINT('',(-112.,-12.7000000000001,-1.55530143491714E-15));
#770=CARTESIAN_POINT('Origin',(-112.,-3.16702011147767E-14,0.));
#771=CARTESIAN_POINT('',(-112.2,-12.5000000000001,-1.5308084989342E-15));
#772=CARTESIAN_POINT('Origin',(-112.2,-12.7000000000001,-1.55530143491714E-15));
#773=CARTESIAN_POINT('',(-112.2,12.5,1.5308084989342E-15));
#774=CARTESIAN_POINT('Origin',(-112.2,-3.16889318428424E-14,0.));
#775=CARTESIAN_POINT('Origin',(-112.2,-3.16889318428424E-14,0.));
#776=CARTESIAN_POINT('Origin',(-112.,-3.16702011147767E-14,0.));
#777=CARTESIAN_POINT('',(-111.7,15.,1.83697019872103E-15));
#778=CARTESIAN_POINT('',(-111.7,-15.0000000000001,-1.83697019872103E-15));
#779=CARTESIAN_POINT('Origin',(-111.7,-3.16421050226783E-14,0.));
#780=CARTESIAN_POINT('Origin',(-111.7,-3.16421050226783E-14,0.));
#781=CARTESIAN_POINT('',(-112.,-14.7,-1.80023079474661E-15));
#782=CARTESIAN_POINT('',(-112.,-14.7,-1.80023079474661E-15));
#783=CARTESIAN_POINT('Origin',(-112.,-3.16702011147767E-14,0.));
#784=CARTESIAN_POINT('Origin',(-150.,-3.52290394472471E-14,0.));
#785=CARTESIAN_POINT('',(-149.7,12.5,1.5308084989342E-15));
#786=CARTESIAN_POINT('',(-149.7,-12.5000000000001,-1.5308084989342E-15));
#787=CARTESIAN_POINT('Origin',(-149.7,-3.52009433551486E-14,0.));
#788=CARTESIAN_POINT('Origin',(-149.7,-3.52009433551486E-14,0.));
#789=CARTESIAN_POINT('',(-150.,-12.2000000000001,-1.49406909495978E-15));
#790=CARTESIAN_POINT('',(-150.,-12.2000000000001,-1.49406909495978E-15));
#791=CARTESIAN_POINT('Origin',(-150.,-3.52290394472471E-14,0.));
#792=CARTESIAN_POINT('Origin',(-149.7,-3.52009433551486E-14,0.));
#793=CARTESIAN_POINT('',(-149.7,7.99999999999999,-9.79717439317886E-16));
#794=CARTESIAN_POINT('Origin',(-149.7,-3.52009433551486E-14,0.));
#795=CARTESIAN_POINT('',(-150.,8.30000000000005,-1.01645684329231E-15));
#796=CARTESIAN_POINT('',(-149.7,7.99999999999999,-9.79717439317886E-16));
#797=CARTESIAN_POINT('Origin',(-150.,-3.52290394472471E-14,0.));
#798=CARTESIAN_POINT('Origin',(-0.300000000000043,-2.12090894901205E-14,
0.));
#799=CARTESIAN_POINT('',(-0.300000000000045,15.,-1.83697019872103E-15));
#800=CARTESIAN_POINT('Origin',(-0.300000000000043,-2.12090894901205E-14,
0.));
#801=CARTESIAN_POINT('',(-1.38777878078145E-16,14.7,-1.80023079474661E-15));
#802=CARTESIAN_POINT('',(-0.300000000000045,15.,-1.83697019872103E-15));
#803=CARTESIAN_POINT('Origin',(1.08820901374048E-15,-2.1180993398022E-14,
0.));
#804=CARTESIAN_POINT('Origin',(-59.4227480570824,-2.67461500718713E-14,
0.));
#805=CARTESIAN_POINT('',(-59.4227480570824,12.5,-1.5308084989342E-15));
#806=CARTESIAN_POINT('Origin',(-59.4227480570824,-2.67461500718713E-14,
0.));
#807=CARTESIAN_POINT('',(-44.,-8.00000000000005,1.1327982892113E-15));
#808=CARTESIAN_POINT('',(-44.,8.,-9.79717439317886E-16));
#809=CARTESIAN_POINT('Origin',(-44.,-2.53017535724614E-14,0.));
#810=CARTESIAN_POINT('Origin',(-44.,-2.53017535724614E-14,0.));
#811=CARTESIAN_POINT('',(-59.4227480570824,8.,-9.79717439317886E-16));
#812=CARTESIAN_POINT('Origin',(-44.,-2.53017535724614E-14,0.));
#813=CARTESIAN_POINT('',(-41.4999999999999,-10.5000000000001,-1.28587913910472E-15));
#814=CARTESIAN_POINT('',(-44.,-8.00000000000005,-9.79717439317886E-16));
#815=CARTESIAN_POINT('',(-41.4999999999999,10.5,1.28587913910472E-15));
#816=CARTESIAN_POINT('Origin',(-41.4999999999999,-2.5067619471641E-14,0.));
#817=CARTESIAN_POINT('Origin',(-41.4999999999999,-2.5067619471641E-14,0.));
#818=CARTESIAN_POINT('Origin',(-59.4227480570824,-2.67461500718713E-14,
0.));
#819=CARTESIAN_POINT('',(-33.4999999999999,10.5,-1.28587913910472E-15));
#820=CARTESIAN_POINT('Origin',(-33.4999999999999,-2.43183903490156E-14,
0.));
#821=CARTESIAN_POINT('',(-59.4227480570824,10.5,-1.28587913910472E-15));
#822=CARTESIAN_POINT('Origin',(-59.4227480570824,-2.67461500718713E-14,
0.));
#823=CARTESIAN_POINT('',(-0.299999999999981,4.58257569495584,2.));
#824=CARTESIAN_POINT('',(-0.299999999999981,4.58257569495584,-2.));
#825=CARTESIAN_POINT('Origin',(-0.299999999999981,-2.12090894901205E-14,
0.));
#826=CARTESIAN_POINT('',(-28.,4.58257569495584,-2.));
#827=CARTESIAN_POINT('',(-59.4227480570824,4.58257569495584,-2.));
#828=CARTESIAN_POINT('',(-28.,4.58257569495584,2.));
#829=CARTESIAN_POINT('Origin',(-28.,-2.38032953272107E-14,0.));
#830=CARTESIAN_POINT('',(-59.4227480570824,4.58257569495584,2.));
#831=CARTESIAN_POINT('Origin',(-33.4999999999999,-2.43183903490156E-14,
0.));
#832=CARTESIAN_POINT('',(-30.1264016165243,6.84000000000001,-2.));
#833=CARTESIAN_POINT('Ctrl Pts',(-28.,4.58257569495585,-2.));
#834=CARTESIAN_POINT('Ctrl Pts',(-28.8530822316986,5.51336471895128,-2.));
#835=CARTESIAN_POINT('Ctrl Pts',(-30.1264016165244,6.8400000000001,-2.));
#836=CARTESIAN_POINT('',(-30.2377897178628,7.,-1.84000000000004));
#837=CARTESIAN_POINT('Ctrl Pts',(-30.1264016165243,6.84,-2.));
#838=CARTESIAN_POINT('Ctrl Pts',(-30.1314413388455,6.84525074346447,-2.));
#839=CARTESIAN_POINT('Ctrl Pts',(-30.1364604924553,6.85055461926776,-1.99974391040929));
#840=CARTESIAN_POINT('Ctrl Pts',(-30.1613275898631,6.87723681728389,-1.99706894118861));
#841=CARTESIAN_POINT('Ctrl Pts',(-30.1802531278665,6.89887444609453,-1.99043123944101));
#842=CARTESIAN_POINT('Ctrl Pts',(-30.2088062844703,6.93425335816461,-1.97058048118205));
#843=CARTESIAN_POINT('Ctrl Pts',(-30.2211434556156,6.95079770281534,-1.95748258557031));
#844=CARTESIAN_POINT('Ctrl Pts',(-30.2340118538908,6.97120228644487,-1.93218951835192));
#845=CARTESIAN_POINT('Ctrl Pts',(-30.2374287136263,6.97732590326483,-1.92286713669686));
#846=CARTESIAN_POINT('Ctrl Pts',(-30.2419977014268,6.98751898842494,-1.90295257442975));
#847=CARTESIAN_POINT('Ctrl Pts',(-30.2431631352101,6.99160031862386,-1.89236952296001));
#848=CARTESIAN_POINT('Ctrl Pts',(-30.2431631352101,6.99741416519052,-1.87075718028831));
#849=CARTESIAN_POINT('Ctrl Pts',(-30.2419977014268,6.99919324112496,-1.85955480895794));
#850=CARTESIAN_POINT('Ctrl Pts',(-30.2391408211281,6.999927222722,-1.84558564063792));
#851=CARTESIAN_POINT('Ctrl Pts',(-30.2384986548951,7.,-1.8427886615017));
#852=CARTESIAN_POINT('Ctrl Pts',(-30.2377897178627,7.,-1.84000000000004));
#853=CARTESIAN_POINT('',(-30.,7.,-1.26879515509359E-15));
#854=CARTESIAN_POINT('Ctrl Pts',(-30.2377897178628,7.,-1.84000000000004));
#855=CARTESIAN_POINT('Ctrl Pts',(-30.,7.,-0.904634796217071));
#856=CARTESIAN_POINT('Ctrl Pts',(-30.,7.,-1.68033755078402E-15));
#857=CARTESIAN_POINT('',(-33.4999999999999,10.5,-1.28587913910472E-15));
#858=CARTESIAN_POINT('',(-30.2377897178627,7.,1.84));
#859=CARTESIAN_POINT('Ctrl Pts',(-30.,7.,-1.68033755078402E-15));
#860=CARTESIAN_POINT('Ctrl Pts',(-30.,7.,0.904634796217049));
#861=CARTESIAN_POINT('Ctrl Pts',(-30.2377897178627,7.,1.84));
#862=CARTESIAN_POINT('',(-30.1264016165243,6.84000000000001,2.));
#863=CARTESIAN_POINT('Ctrl Pts',(-30.2377897178627,7.,1.84));
#864=CARTESIAN_POINT('Ctrl Pts',(-30.2384986548951,7.,1.84278866150168));
#865=CARTESIAN_POINT('Ctrl Pts',(-30.2391408211281,6.999927222722,1.84558564063791));
#866=CARTESIAN_POINT('Ctrl Pts',(-30.2419977014268,6.99919324112496,1.85955480895795));
#867=CARTESIAN_POINT('Ctrl Pts',(-30.2431631352101,6.99741416519052,1.87075718028831));
#868=CARTESIAN_POINT('Ctrl Pts',(-30.2431631352101,6.99160031862386,1.89236952296001));
#869=CARTESIAN_POINT('Ctrl Pts',(-30.2419977014268,6.98751898842494,1.90295257442975));
#870=CARTESIAN_POINT('Ctrl Pts',(-30.2374287136263,6.97732590326483,1.92286713669686));
#871=CARTESIAN_POINT('Ctrl Pts',(-30.2340118538908,6.97120228644487,1.93218951835192));
#872=CARTESIAN_POINT('Ctrl Pts',(-30.2211434556156,6.95079770281534,1.95748258557031));
#873=CARTESIAN_POINT('Ctrl Pts',(-30.2088062844703,6.93425335816461,1.97058048118205));
#874=CARTESIAN_POINT('Ctrl Pts',(-30.1802531278665,6.89887444609453,1.99043123944101));
#875=CARTESIAN_POINT('Ctrl Pts',(-30.1613275898631,6.87723681728389,1.99706894118861));
#876=CARTESIAN_POINT('Ctrl Pts',(-30.1364604924553,6.85055461926776,1.99974391040929));
#877=CARTESIAN_POINT('Ctrl Pts',(-30.1314413388455,6.84525074346448,2.));
#878=CARTESIAN_POINT('Ctrl Pts',(-30.1264016165243,6.84,2.));
#879=CARTESIAN_POINT('Ctrl Pts',(-30.1264016165243,6.84000000000007,2.));
#880=CARTESIAN_POINT('Ctrl Pts',(-28.8530822316986,5.51336471895121,2.));
#881=CARTESIAN_POINT('Ctrl Pts',(-27.9999999999999,4.58257569495577,2.));
#882=CARTESIAN_POINT('Origin',(-59.4227480570824,-2.67461500718713E-14,
0.));
#883=CARTESIAN_POINT('',(-59.4227480570824,15.,-1.83697019872103E-15));
#884=CARTESIAN_POINT('',(-71.,4.,14.456832294801));
#885=CARTESIAN_POINT('',(-59.4227480570824,4.,14.456832294801));
#886=CARTESIAN_POINT('',(-71.,-4.,14.456832294801));
#887=CARTESIAN_POINT('Ctrl Pts',(-71.,-4.,14.456832294801));
#888=CARTESIAN_POINT('Ctrl Pts',(-70.4950612398994,-4.,14.456832294801));
#889=CARTESIAN_POINT('Ctrl Pts',(-69.958240687028,-3.89858565468202,14.4860463797954));
#890=CARTESIAN_POINT('Ctrl Pts',(-68.9735096736371,-3.48963768728074,14.5899601522112));
#891=CARTESIAN_POINT('Ctrl Pts',(-68.5253725599474,-3.1822268094398,14.6629881493455));
#892=CARTESIAN_POINT('Ctrl Pts',(-67.817837770889,-2.47469202038142,14.7988391761471));
#893=CARTESIAN_POINT('Ctrl Pts',(-67.5103766430879,-2.02652821301275,14.8707167692234));
#894=CARTESIAN_POINT('Ctrl Pts',(-67.1013918714611,-1.04170181705203,14.9719701822328));
#895=CARTESIAN_POINT('Ctrl Pts',(-67.,-0.50484659181278,15.));
#896=CARTESIAN_POINT('Ctrl Pts',(-67.,0.504846591812779,15.));
#897=CARTESIAN_POINT('Ctrl Pts',(-67.1013918714611,1.04170181705203,14.9719701822328));
#898=CARTESIAN_POINT('Ctrl Pts',(-67.5103766430879,2.02652821301275,14.8707167692233));
#899=CARTESIAN_POINT('Ctrl Pts',(-67.817837770889,2.47469202038142,14.7988391761471));
#900=CARTESIAN_POINT('Ctrl Pts',(-68.5253725599474,3.1822268094398,14.6629881493455));
#901=CARTESIAN_POINT('Ctrl Pts',(-68.9735096736371,3.48963768728074,14.5899601522112));
#902=CARTESIAN_POINT('Ctrl Pts',(-69.958240687028,3.89858565468202,14.4860463797954));
#903=CARTESIAN_POINT('Ctrl Pts',(-70.4950612398994,4.,14.456832294801));
#904=CARTESIAN_POINT('Ctrl Pts',(-71.,4.,14.456832294801));
#905=CARTESIAN_POINT('',(-59.4227480570824,-4.,14.456832294801));
#906=CARTESIAN_POINT('Origin',(-3.1659559118203E-16,15.,0.));
#907=CARTESIAN_POINT('',(-6.40590899844662E-16,6.84,-2.));
#908=CARTESIAN_POINT('',(-4.59666721345396E-16,4.90815647672319,-2.));
#909=CARTESIAN_POINT('',(0.,0.,-2.));
#910=CARTESIAN_POINT('',(6.28542292395077E-16,4.90815647672319,2.));
#911=CARTESIAN_POINT('Origin',(1.08820901374048E-15,-2.1180993398022E-14,
0.));
#912=CARTESIAN_POINT('',(-6.40590899844662E-16,6.84,2.));
#913=CARTESIAN_POINT('',(0.,0.,2.));
#914=CARTESIAN_POINT('',(-6.55575482297168E-16,7.,1.84));
#915=CARTESIAN_POINT('Origin',(-6.40590899844662E-16,6.84,1.84));
#916=CARTESIAN_POINT('',(-6.55575482297168E-16,7.,-1.84));
#917=CARTESIAN_POINT('',(-6.55575482297168E-16,7.,-1.84));
#918=CARTESIAN_POINT('Origin',(-6.40590899844662E-16,6.84,-1.84));
#919=CARTESIAN_POINT('Origin',(0.,-2.1180993398022E-14,0.));
#920=CARTESIAN_POINT('Ctrl Pts',(-0.300000000000775,4.58257569495498,-2.));
#921=CARTESIAN_POINT('Ctrl Pts',(-0.155145769197318,4.74062461814342,-2.));
#922=CARTESIAN_POINT('Ctrl Pts',(4.3940754649321E-15,4.90815647672319,-2.));
#923=CARTESIAN_POINT('Ctrl Pts',(-7.76286665471336E-15,4.90815647672318,
2.));
#924=CARTESIAN_POINT('Ctrl Pts',(-0.155145769197313,4.74062461814342,2.));
#925=CARTESIAN_POINT('Ctrl Pts',(-0.300000000000755,4.582575694955,2.));
#926=CARTESIAN_POINT('Origin',(-150.,7.99999999999999,0.));
#927=CARTESIAN_POINT('Origin',(-112.,12.5,0.));
#928=CARTESIAN_POINT('Origin',(-150.001,-1.40481397028654E-14,-2.));
#929=CARTESIAN_POINT('',(-150.001,6.83999999999999,-2.));
#930=CARTESIAN_POINT('Origin',(-150.001,-1.40481397028654E-14,2.));
#931=CARTESIAN_POINT('',(-150.001,6.83999999999999,2.));
#932=CARTESIAN_POINT('Origin',(-150.001,6.83999999999999,1.84));
#933=CARTESIAN_POINT('',(-150.001,6.99999999999999,1.84));
#934=CARTESIAN_POINT('Origin',(-150.001,6.99999999999999,-1.84));
#935=CARTESIAN_POINT('',(-150.001,6.99999999999999,-1.84));
#936=CARTESIAN_POINT('Origin',(-150.001,6.83999999999999,-1.84));
#937=CARTESIAN_POINT('Origin',(-91.,-4.,21.));
#938=CARTESIAN_POINT('',(-71.,-4.,21.));
#939=CARTESIAN_POINT('',(-91.,-4.,11.2));
#940=CARTESIAN_POINT('Origin',(-71.,0.,21.));
#941=CARTESIAN_POINT('',(-71.,4.,21.));
#942=CARTESIAN_POINT('Origin',(-91.,4.,21.));
#943=CARTESIAN_POINT('',(-71.,4.,11.2));
#944=CARTESIAN_POINT('Origin',(-91.,0.,11.));
#945=CARTESIAN_POINT('',(-91.,3.8,11.));
#946=CARTESIAN_POINT('',(-91.,3.8,11.));
#947=CARTESIAN_POINT('',(-91.,-3.8,11.));
#948=CARTESIAN_POINT('Origin',(-91.,0.,11.));
#949=CARTESIAN_POINT('',(-71.,-3.8,11.));
#950=CARTESIAN_POINT('Origin',(-91.,-3.8,11.2));
#951=CARTESIAN_POINT('Origin',(-91.,-3.8,11.2));
#952=CARTESIAN_POINT('Origin',(-91.,0.,11.2));
#953=CARTESIAN_POINT('Origin',(-91.,3.8,11.2));
#954=CARTESIAN_POINT('Origin',(-91.,3.8,11.2));
#955=UNCERTAINTY_MEASURE_WITH_UNIT(LENGTH_MEASURE(0.01),#959,
'DISTANCE_ACCURACY_VALUE',
'Maximum model space distance between geometric entities at asserted c
onnectivities');
#956=UNCERTAINTY_MEASURE_WITH_UNIT(LENGTH_MEASURE(0.01),#959,
'DISTANCE_ACCURACY_VALUE',
'Maximum model space distance between geometric entities at asserted c
onnectivities');
#957=(
GEOMETRIC_REPRESENTATION_CONTEXT(3)
GLOBAL_UNCERTAINTY_ASSIGNED_CONTEXT((#955))
GLOBAL_UNIT_ASSIGNED_CONTEXT((#959,#961,#962))
REPRESENTATION_CONTEXT('','3D')
);
#958=(
GEOMETRIC_REPRESENTATION_CONTEXT(3)
GLOBAL_UNCERTAINTY_ASSIGNED_CONTEXT((#956))
GLOBAL_UNIT_ASSIGNED_CONTEXT((#959,#961,#962))
REPRESENTATION_CONTEXT('','3D')
);
#959=(
LENGTH_UNIT()
NAMED_UNIT(*)
SI_UNIT(.MILLI.,.METRE.)
);
#960=(
LENGTH_UNIT()
NAMED_UNIT(*)
SI_UNIT($,.METRE.)
);
#961=(
NAMED_UNIT(*)
PLANE_ANGLE_UNIT()
SI_UNIT($,.RADIAN.)
);
#962=(
NAMED_UNIT(*)
SI_UNIT($,.STERADIAN.)
SOLID_ANGLE_UNIT()
);
#963=SHAPE_DEFINITION_REPRESENTATION(#964,#965);
#964=PRODUCT_DEFINITION_SHAPE('',$,#967);
#965=SHAPE_REPRESENTATION('',(#514),#957);
#966=PRODUCT_DEFINITION_CONTEXT('part definition',#971,'design');
#967=PRODUCT_DEFINITION('MMP.03.00.00.004 Drive shaft','Drive shaft v1',
#968,#966);
#968=PRODUCT_DEFINITION_FORMATION('',$,#973);
#969=PRODUCT_RELATED_PRODUCT_CATEGORY('Drive shaft v1','Drive shaft v1',
(#973));
#970=APPLICATION_PROTOCOL_DEFINITION('international standard',
'automotive_design',2009,#971);
#971=APPLICATION_CONTEXT(
'Core Data for Automotive Mechanical Design Process');
#972=PRODUCT_CONTEXT('part definition',#971,'mechanical');
#973=PRODUCT('MMP.03.00.00.004 Drive shaft','Drive shaft v1',
'STEP AP203',(#972));
#974=PRESENTATION_STYLE_ASSIGNMENT((#975));
#975=SURFACE_STYLE_USAGE(.BOTH.,#976);
#976=SURFACE_SIDE_STYLE('',(#977));
#977=SURFACE_STYLE_FILL_AREA(#978);
#978=FILL_AREA_STYLE('Steel - Satin',(#979));
#979=FILL_AREA_STYLE_COLOUR('Steel - Satin',#980);
#980=COLOUR_RGB('Steel - Satin',0.627450980392157,0.627450980392157,0.627450980392157);
ENDSEC;
END-ISO-10303-21;
