ISO-10303-21;
HEADER;
/* Generated by software containing ST-Developer
 * from STEP Tools, Inc. (www.steptools.com) 
 */

FILE_DESCRIPTION(
/* description */ ('STEP AP203'),
/* implementation_level */ '2;1');

FILE_NAME(
/* name */ 'Motor bracket.step',
/* time_stamp */ '2026-07-23T10:30:12+08:00',
/* author */ (''),
/* organization */ (''),
/* preprocessor_version */ 'ST-DEVELOPER v20.1',
/* originating_system */ 'Autodesk Translation Framework v15.8.0.0',
/* authorisation */ '');

FILE_SCHEMA (('AUTOMOTIVE_DESIGN { 1 0 10303 214 3 1 1 }'));
ENDSEC;

DATA;
#10=MECHANICAL_DESIGN_GEOMETRIC_PRESENTATION_REPRESENTATION('',(#13),#1652);
#11=SHAPE_REPRESENTATION_RELATIONSHIP('SRR','None',#1659,#12);
#12=ADVANCED_BREP_SHAPE_REPRESENTATION('',(#14),#1651);
#13=STYLED_ITEM('',(#1668),#14);
#14=MANIFOLD_SOLID_BREP('Body1',#968);
#15=FACE_BOUND('',#136,.T.);
#16=FACE_BOUND('',#137,.T.);
#17=FACE_BOUND('',#138,.T.);
#18=FACE_BOUND('',#139,.T.);
#19=FACE_BOUND('',#140,.T.);
#20=FACE_BOUND('',#142,.T.);
#21=FACE_BOUND('',#143,.T.);
#22=FACE_BOUND('',#144,.T.);
#23=FACE_BOUND('',#145,.T.);
#24=FACE_BOUND('',#146,.T.);
#25=FACE_BOUND('',#164,.T.);
#26=FACE_BOUND('',#166,.T.);
#27=FACE_BOUND('',#175,.T.);
#28=FACE_BOUND('',#177,.T.);
#29=PLANE('',#1003);
#30=PLANE('',#1004);
#31=PLANE('',#1005);
#32=PLANE('',#1006);
#33=PLANE('',#1007);
#34=PLANE('',#1008);
#35=PLANE('',#1009);
#36=PLANE('',#1010);
#37=PLANE('',#1011);
#38=PLANE('',#1012);
#39=PLANE('',#1013);
#40=PLANE('',#1014);
#41=PLANE('',#1015);
#42=PLANE('',#1018);
#43=PLANE('',#1023);
#44=PLANE('',#1026);
#45=PLANE('',#1031);
#46=PLANE('',#1034);
#47=PLANE('',#1039);
#48=PLANE('',#1040);
#49=PLANE('',#1041);
#50=PLANE('',#1046);
#51=PLANE('',#1051);
#52=PLANE('',#1052);
#53=PLANE('',#1055);
#54=PLANE('',#1060);
#55=PLANE('',#1061);
#56=PLANE('',#1062);
#57=PLANE('',#1067);
#58=PLANE('',#1072);
#59=PLANE('',#1073);
#60=PLANE('',#1074);
#61=PLANE('',#1075);
#62=PLANE('',#1076);
#63=FACE_OUTER_BOUND('',#120,.T.);
#64=FACE_OUTER_BOUND('',#121,.T.);
#65=FACE_OUTER_BOUND('',#122,.T.);
#66=FACE_OUTER_BOUND('',#123,.T.);
#67=FACE_OUTER_BOUND('',#124,.T.);
#68=FACE_OUTER_BOUND('',#125,.T.);
#69=FACE_OUTER_BOUND('',#126,.T.);
#70=FACE_OUTER_BOUND('',#127,.T.);
#71=FACE_OUTER_BOUND('',#128,.T.);
#72=FACE_OUTER_BOUND('',#129,.T.);
#73=FACE_OUTER_BOUND('',#130,.T.);
#74=FACE_OUTER_BOUND('',#131,.T.);
#75=FACE_OUTER_BOUND('',#132,.T.);
#76=FACE_OUTER_BOUND('',#133,.T.);
#77=FACE_OUTER_BOUND('',#134,.T.);
#78=FACE_OUTER_BOUND('',#135,.T.);
#79=FACE_OUTER_BOUND('',#141,.T.);
#80=FACE_OUTER_BOUND('',#147,.T.);
#81=FACE_OUTER_BOUND('',#148,.T.);
#82=FACE_OUTER_BOUND('',#149,.T.);
#83=FACE_OUTER_BOUND('',#150,.T.);
#84=FACE_OUTER_BOUND('',#151,.T.);
#85=FACE_OUTER_BOUND('',#152,.T.);
#86=FACE_OUTER_BOUND('',#153,.T.);
#87=FACE_OUTER_BOUND('',#154,.T.);
#88=FACE_OUTER_BOUND('',#155,.T.);
#89=FACE_OUTER_BOUND('',#156,.T.);
#90=FACE_OUTER_BOUND('',#157,.T.);
#91=FACE_OUTER_BOUND('',#158,.T.);
#92=FACE_OUTER_BOUND('',#159,.T.);
#93=FACE_OUTER_BOUND('',#160,.T.);
#94=FACE_OUTER_BOUND('',#161,.T.);
#95=FACE_OUTER_BOUND('',#162,.T.);
#96=FACE_OUTER_BOUND('',#163,.T.);
#97=FACE_OUTER_BOUND('',#165,.T.);
#98=FACE_OUTER_BOUND('',#167,.T.);
#99=FACE_OUTER_BOUND('',#168,.T.);
#100=FACE_OUTER_BOUND('',#169,.T.);
#101=FACE_OUTER_BOUND('',#170,.T.);
#102=FACE_OUTER_BOUND('',#171,.T.);
#103=FACE_OUTER_BOUND('',#172,.T.);
#104=FACE_OUTER_BOUND('',#173,.T.);
#105=FACE_OUTER_BOUND('',#174,.T.);
#106=FACE_OUTER_BOUND('',#176,.T.);
#107=FACE_OUTER_BOUND('',#178,.T.);
#108=FACE_OUTER_BOUND('',#179,.T.);
#109=FACE_OUTER_BOUND('',#180,.T.);
#110=FACE_OUTER_BOUND('',#181,.T.);
#111=FACE_OUTER_BOUND('',#182,.T.);
#112=FACE_OUTER_BOUND('',#183,.T.);
#113=FACE_OUTER_BOUND('',#184,.T.);
#114=FACE_OUTER_BOUND('',#185,.T.);
#115=FACE_OUTER_BOUND('',#186,.T.);
#116=FACE_OUTER_BOUND('',#187,.T.);
#117=FACE_OUTER_BOUND('',#188,.T.);
#118=FACE_OUTER_BOUND('',#189,.T.);
#119=FACE_OUTER_BOUND('',#190,.T.);
#120=EDGE_LOOP('',(#622,#623,#624,#625));
#121=EDGE_LOOP('',(#626,#627,#628,#629));
#122=EDGE_LOOP('',(#630,#631,#632,#633));
#123=EDGE_LOOP('',(#634,#635,#636,#637));
#124=EDGE_LOOP('',(#638,#639,#640,#641));
#125=EDGE_LOOP('',(#642,#643,#644,#645));
#126=EDGE_LOOP('',(#646,#647,#648,#649));
#127=EDGE_LOOP('',(#650,#651,#652,#653));
#128=EDGE_LOOP('',(#654,#655,#656,#657));
#129=EDGE_LOOP('',(#658,#659,#660,#661));
#130=EDGE_LOOP('',(#662,#663,#664,#665));
#131=EDGE_LOOP('',(#666,#667,#668,#669));
#132=EDGE_LOOP('',(#670,#671,#672,#673));
#133=EDGE_LOOP('',(#674,#675,#676,#677));
#134=EDGE_LOOP('',(#678,#679,#680,#681));
#135=EDGE_LOOP('',(#682,#683,#684,#685));
#136=EDGE_LOOP('',(#686));
#137=EDGE_LOOP('',(#687));
#138=EDGE_LOOP('',(#688));
#139=EDGE_LOOP('',(#689));
#140=EDGE_LOOP('',(#690));
#141=EDGE_LOOP('',(#691,#692,#693,#694));
#142=EDGE_LOOP('',(#695));
#143=EDGE_LOOP('',(#696));
#144=EDGE_LOOP('',(#697));
#145=EDGE_LOOP('',(#698));
#146=EDGE_LOOP('',(#699));
#147=EDGE_LOOP('',(#700,#701,#702,#703));
#148=EDGE_LOOP('',(#704,#705,#706,#707));
#149=EDGE_LOOP('',(#708,#709,#710,#711));
#150=EDGE_LOOP('',(#712,#713,#714,#715));
#151=EDGE_LOOP('',(#716,#717,#718,#719));
#152=EDGE_LOOP('',(#720,#721,#722,#723));
#153=EDGE_LOOP('',(#724,#725,#726,#727));
#154=EDGE_LOOP('',(#728,#729,#730,#731));
#155=EDGE_LOOP('',(#732,#733,#734,#735));
#156=EDGE_LOOP('',(#736,#737,#738,#739));
#157=EDGE_LOOP('',(#740,#741,#742,#743));
#158=EDGE_LOOP('',(#744,#745,#746,#747));
#159=EDGE_LOOP('',(#748,#749,#750,#751));
#160=EDGE_LOOP('',(#752,#753,#754,#755));
#161=EDGE_LOOP('',(#756,#757,#758,#759));
#162=EDGE_LOOP('',(#760,#761,#762,#763));
#163=EDGE_LOOP('',(#764,#765,#766,#767,#768,#769,#770,#771,#772,#773));
#164=EDGE_LOOP('',(#774));
#165=EDGE_LOOP('',(#775,#776,#777,#778,#779,#780,#781,#782,#783,#784));
#166=EDGE_LOOP('',(#785));
#167=EDGE_LOOP('',(#786,#787,#788,#789));
#168=EDGE_LOOP('',(#790,#791,#792,#793));
#169=EDGE_LOOP('',(#794,#795,#796,#797));
#170=EDGE_LOOP('',(#798,#799,#800,#801));
#171=EDGE_LOOP('',(#802,#803,#804,#805));
#172=EDGE_LOOP('',(#806,#807,#808,#809));
#173=EDGE_LOOP('',(#810,#811,#812,#813));
#174=EDGE_LOOP('',(#814,#815,#816,#817,#818,#819,#820,#821,#822,#823));
#175=EDGE_LOOP('',(#824));
#176=EDGE_LOOP('',(#825,#826,#827,#828,#829,#830,#831,#832,#833,#834));
#177=EDGE_LOOP('',(#835));
#178=EDGE_LOOP('',(#836,#837,#838,#839));
#179=EDGE_LOOP('',(#840,#841,#842,#843));
#180=EDGE_LOOP('',(#844,#845,#846,#847));
#181=EDGE_LOOP('',(#848,#849,#850,#851));
#182=EDGE_LOOP('',(#852,#853,#854,#855));
#183=EDGE_LOOP('',(#856,#857,#858,#859));
#184=EDGE_LOOP('',(#860,#861,#862,#863));
#185=EDGE_LOOP('',(#864,#865,#866,#867));
#186=EDGE_LOOP('',(#868,#869,#870,#871));
#187=EDGE_LOOP('',(#872,#873,#874,#875));
#188=EDGE_LOOP('',(#876,#877,#878,#879));
#189=EDGE_LOOP('',(#880,#881,#882,#883));
#190=EDGE_LOOP('',(#884,#885,#886,#887));
#191=LINE('',#1385,#278);
#192=LINE('',#1391,#279);
#193=LINE('',#1397,#280);
#194=LINE('',#1403,#281);
#195=LINE('',#1409,#282);
#196=LINE('',#1415,#283);
#197=LINE('',#1421,#284);
#198=LINE('',#1426,#285);
#199=LINE('',#1428,#286);
#200=LINE('',#1430,#287);
#201=LINE('',#1431,#288);
#202=LINE('',#1435,#289);
#203=LINE('',#1437,#290);
#204=LINE('',#1439,#291);
#205=LINE('',#1440,#292);
#206=LINE('',#1442,#293);
#207=LINE('',#1443,#294);
#208=LINE('',#1445,#295);
#209=LINE('',#1446,#296);
#210=LINE('',#1450,#297);
#211=LINE('',#1452,#298);
#212=LINE('',#1454,#299);
#213=LINE('',#1455,#300);
#214=LINE('',#1459,#301);
#215=LINE('',#1461,#302);
#216=LINE('',#1463,#303);
#217=LINE('',#1464,#304);
#218=LINE('',#1466,#305);
#219=LINE('',#1467,#306);
#220=LINE('',#1469,#307);
#221=LINE('',#1470,#308);
#222=LINE('',#1474,#309);
#223=LINE('',#1476,#310);
#224=LINE('',#1478,#311);
#225=LINE('',#1479,#312);
#226=LINE('',#1483,#313);
#227=LINE('',#1485,#314);
#228=LINE('',#1487,#315);
#229=LINE('',#1488,#316);
#230=LINE('',#1490,#317);
#231=LINE('',#1491,#318);
#232=LINE('',#1493,#319);
#233=LINE('',#1494,#320);
#234=LINE('',#1514,#321);
#235=LINE('',#1521,#322);
#236=LINE('',#1524,#323);
#237=LINE('',#1526,#324);
#238=LINE('',#1529,#325);
#239=LINE('',#1531,#326);
#240=LINE('',#1532,#327);
#241=LINE('',#1535,#328);
#242=LINE('',#1537,#329);
#243=LINE('',#1538,#330);
#244=LINE('',#1543,#331);
#245=LINE('',#1547,#332);
#246=LINE('',#1551,#333);
#247=LINE('',#1556,#334);
#248=LINE('',#1561,#335);
#249=LINE('',#1565,#336);
#250=LINE('',#1568,#337);
#251=LINE('',#1569,#338);
#252=LINE('',#1573,#339);
#253=LINE('',#1580,#340);
#254=LINE('',#1583,#341);
#255=LINE('',#1585,#342);
#256=LINE('',#1588,#343);
#257=LINE('',#1590,#344);
#258=LINE('',#1591,#345);
#259=LINE('',#1594,#346);
#260=LINE('',#1596,#347);
#261=LINE('',#1597,#348);
#262=LINE('',#1601,#349);
#263=LINE('',#1605,#350);
#264=LINE('',#1609,#351);
#265=LINE('',#1615,#352);
#266=LINE('',#1619,#353);
#267=LINE('',#1624,#354);
#268=LINE('',#1627,#355);
#269=LINE('',#1628,#356);
#270=LINE('',#1630,#357);
#271=LINE('',#1631,#358);
#272=LINE('',#1633,#359);
#273=LINE('',#1634,#360);
#274=LINE('',#1636,#361);
#275=LINE('',#1637,#362);
#276=LINE('',#1639,#363);
#277=LINE('',#1640,#364);
#278=VECTOR('',#1091,5.24999999999999);
#279=VECTOR('',#1098,5.24999999999999);
#280=VECTOR('',#1105,3.54999999999999);
#281=VECTOR('',#1112,3.54999999999999);
#282=VECTOR('',#1119,3.54999999999999);
#283=VECTOR('',#1126,3.54999999999999);
#284=VECTOR('',#1133,17.5);
#285=VECTOR('',#1138,1000.);
#286=VECTOR('',#1139,1000.);
#287=VECTOR('',#1140,1000.);
#288=VECTOR('',#1141,1000.);
#289=VECTOR('',#1144,1000.);
#290=VECTOR('',#1145,1000.);
#291=VECTOR('',#1146,1000.);
#292=VECTOR('',#1147,1000.);
#293=VECTOR('',#1150,1000.);
#294=VECTOR('',#1151,1000.);
#295=VECTOR('',#1154,1000.);
#296=VECTOR('',#1155,1000.);
#297=VECTOR('',#1158,1000.);
#298=VECTOR('',#1159,1000.);
#299=VECTOR('',#1160,1000.);
#300=VECTOR('',#1161,1000.);
#301=VECTOR('',#1164,1000.);
#302=VECTOR('',#1165,1000.);
#303=VECTOR('',#1166,1000.);
#304=VECTOR('',#1167,1000.);
#305=VECTOR('',#1170,1000.);
#306=VECTOR('',#1171,1000.);
#307=VECTOR('',#1174,1000.);
#308=VECTOR('',#1175,1000.);
#309=VECTOR('',#1178,1000.);
#310=VECTOR('',#1179,1000.);
#311=VECTOR('',#1180,1000.);
#312=VECTOR('',#1181,1000.);
#313=VECTOR('',#1184,1000.);
#314=VECTOR('',#1185,1000.);
#315=VECTOR('',#1186,1000.);
#316=VECTOR('',#1187,1000.);
#317=VECTOR('',#1190,1000.);
#318=VECTOR('',#1191,1000.);
#319=VECTOR('',#1194,1000.);
#320=VECTOR('',#1195,1000.);
#321=VECTOR('',#1230,1000.);
#322=VECTOR('',#1239,1000.);
#323=VECTOR('',#1244,1000.);
#324=VECTOR('',#1247,1000.);
#325=VECTOR('',#1250,1000.);
#326=VECTOR('',#1251,1000.);
#327=VECTOR('',#1252,1000.);
#328=VECTOR('',#1255,1000.);
#329=VECTOR('',#1256,1000.);
#330=VECTOR('',#1257,1000.);
#331=VECTOR('',#1262,1000.);
#332=VECTOR('',#1265,1000.);
#333=VECTOR('',#1268,1000.);
#334=VECTOR('',#1273,1000.);
#335=VECTOR('',#1278,1000.);
#336=VECTOR('',#1281,1000.);
#337=VECTOR('',#1286,1000.);
#338=VECTOR('',#1287,1000.);
#339=VECTOR('',#1290,1000.);
#340=VECTOR('',#1299,1000.);
#341=VECTOR('',#1304,1000.);
#342=VECTOR('',#1307,1000.);
#343=VECTOR('',#1310,1000.);
#344=VECTOR('',#1311,1000.);
#345=VECTOR('',#1312,1000.);
#346=VECTOR('',#1315,1000.);
#347=VECTOR('',#1316,1000.);
#348=VECTOR('',#1317,1000.);
#349=VECTOR('',#1320,1000.);
#350=VECTOR('',#1323,1000.);
#351=VECTOR('',#1326,1000.);
#352=VECTOR('',#1333,1000.);
#353=VECTOR('',#1336,1000.);
#354=VECTOR('',#1341,1000.);
#355=VECTOR('',#1346,1000.);
#356=VECTOR('',#1347,1000.);
#357=VECTOR('',#1350,1000.);
#358=VECTOR('',#1351,1000.);
#359=VECTOR('',#1354,1000.);
#360=VECTOR('',#1355,1000.);
#361=VECTOR('',#1358,1000.);
#362=VECTOR('',#1359,1000.);
#363=VECTOR('',#1362,1000.);
#364=VECTOR('',#1363,1000.);
#365=CIRCLE('',#983,5.24999999999998);
#366=CIRCLE('',#984,5.24999999999998);
#367=CIRCLE('',#986,5.24999999999998);
#368=CIRCLE('',#987,5.24999999999998);
#369=CIRCLE('',#989,3.55);
#370=CIRCLE('',#990,3.54999999999999);
#371=CIRCLE('',#992,3.55);
#372=CIRCLE('',#993,3.54999999999998);
#373=CIRCLE('',#995,3.55);
#374=CIRCLE('',#996,3.54999999999998);
#375=CIRCLE('',#998,3.55);
#376=CIRCLE('',#999,3.54999999999999);
#377=CIRCLE('',#1001,17.5);
#378=CIRCLE('',#1002,17.5);
#379=CIRCLE('',#1016,2.4);
#380=CIRCLE('',#1017,4.4);
#381=CIRCLE('',#1019,2.4);
#382=CIRCLE('',#1020,4.4);
#383=CIRCLE('',#1024,2.4);
#384=CIRCLE('',#1025,4.4);
#385=CIRCLE('',#1027,2.4);
#386=CIRCLE('',#1028,4.4);
#387=CIRCLE('',#1032,2.4);
#388=CIRCLE('',#1033,4.4);
#389=CIRCLE('',#1035,2.4);
#390=CIRCLE('',#1036,4.4);
#391=CIRCLE('',#1042,10.);
#392=CIRCLE('',#1043,10.);
#393=CIRCLE('',#1044,10.);
#394=CIRCLE('',#1045,10.);
#395=CIRCLE('',#1047,10.);
#396=CIRCLE('',#1048,10.);
#397=CIRCLE('',#1049,10.);
#398=CIRCLE('',#1050,10.);
#399=CIRCLE('',#1053,2.4);
#400=CIRCLE('',#1054,4.4);
#401=CIRCLE('',#1056,2.4);
#402=CIRCLE('',#1057,4.4);
#403=CIRCLE('',#1063,10.);
#404=CIRCLE('',#1064,10.);
#405=CIRCLE('',#1065,10.);
#406=CIRCLE('',#1066,10.);
#407=CIRCLE('',#1068,10.);
#408=CIRCLE('',#1069,10.);
#409=CIRCLE('',#1070,10.);
#410=CIRCLE('',#1071,10.);
#411=VERTEX_POINT('',#1382);
#412=VERTEX_POINT('',#1384);
#413=VERTEX_POINT('',#1388);
#414=VERTEX_POINT('',#1390);
#415=VERTEX_POINT('',#1394);
#416=VERTEX_POINT('',#1396);
#417=VERTEX_POINT('',#1400);
#418=VERTEX_POINT('',#1402);
#419=VERTEX_POINT('',#1406);
#420=VERTEX_POINT('',#1408);
#421=VERTEX_POINT('',#1412);
#422=VERTEX_POINT('',#1414);
#423=VERTEX_POINT('',#1418);
#424=VERTEX_POINT('',#1420);
#425=VERTEX_POINT('',#1424);
#426=VERTEX_POINT('',#1425);
#427=VERTEX_POINT('',#1427);
#428=VERTEX_POINT('',#1429);
#429=VERTEX_POINT('',#1433);
#430=VERTEX_POINT('',#1434);
#431=VERTEX_POINT('',#1436);
#432=VERTEX_POINT('',#1438);
#433=VERTEX_POINT('',#1448);
#434=VERTEX_POINT('',#1449);
#435=VERTEX_POINT('',#1451);
#436=VERTEX_POINT('',#1453);
#437=VERTEX_POINT('',#1457);
#438=VERTEX_POINT('',#1458);
#439=VERTEX_POINT('',#1460);
#440=VERTEX_POINT('',#1462);
#441=VERTEX_POINT('',#1472);
#442=VERTEX_POINT('',#1473);
#443=VERTEX_POINT('',#1475);
#444=VERTEX_POINT('',#1477);
#445=VERTEX_POINT('',#1481);
#446=VERTEX_POINT('',#1482);
#447=VERTEX_POINT('',#1484);
#448=VERTEX_POINT('',#1486);
#449=VERTEX_POINT('',#1512);
#450=VERTEX_POINT('',#1513);
#451=VERTEX_POINT('',#1518);
#452=VERTEX_POINT('',#1520);
#453=VERTEX_POINT('',#1528);
#454=VERTEX_POINT('',#1530);
#455=VERTEX_POINT('',#1534);
#456=VERTEX_POINT('',#1536);
#457=VERTEX_POINT('',#1540);
#458=VERTEX_POINT('',#1542);
#459=VERTEX_POINT('',#1544);
#460=VERTEX_POINT('',#1546);
#461=VERTEX_POINT('',#1548);
#462=VERTEX_POINT('',#1550);
#463=VERTEX_POINT('',#1554);
#464=VERTEX_POINT('',#1555);
#465=VERTEX_POINT('',#1558);
#466=VERTEX_POINT('',#1560);
#467=VERTEX_POINT('',#1562);
#468=VERTEX_POINT('',#1564);
#469=VERTEX_POINT('',#1571);
#470=VERTEX_POINT('',#1572);
#471=VERTEX_POINT('',#1577);
#472=VERTEX_POINT('',#1579);
#473=VERTEX_POINT('',#1587);
#474=VERTEX_POINT('',#1589);
#475=VERTEX_POINT('',#1593);
#476=VERTEX_POINT('',#1595);
#477=VERTEX_POINT('',#1599);
#478=VERTEX_POINT('',#1600);
#479=VERTEX_POINT('',#1602);
#480=VERTEX_POINT('',#1604);
#481=VERTEX_POINT('',#1606);
#482=VERTEX_POINT('',#1608);
#483=VERTEX_POINT('',#1613);
#484=VERTEX_POINT('',#1614);
#485=VERTEX_POINT('',#1616);
#486=VERTEX_POINT('',#1618);
#487=VERTEX_POINT('',#1621);
#488=VERTEX_POINT('',#1623);
#489=EDGE_CURVE('',#411,#411,#365,.T.);
#490=EDGE_CURVE('',#411,#412,#191,.T.);
#491=EDGE_CURVE('',#412,#412,#366,.T.);
#492=EDGE_CURVE('',#413,#413,#367,.T.);
#493=EDGE_CURVE('',#413,#414,#192,.T.);
#494=EDGE_CURVE('',#414,#414,#368,.T.);
#495=EDGE_CURVE('',#415,#415,#369,.T.);
#496=EDGE_CURVE('',#415,#416,#193,.T.);
#497=EDGE_CURVE('',#416,#416,#370,.T.);
#498=EDGE_CURVE('',#417,#417,#371,.T.);
#499=EDGE_CURVE('',#417,#418,#194,.T.);
#500=EDGE_CURVE('',#418,#418,#372,.T.);
#501=EDGE_CURVE('',#419,#419,#373,.T.);
#502=EDGE_CURVE('',#419,#420,#195,.T.);
#503=EDGE_CURVE('',#420,#420,#374,.T.);
#504=EDGE_CURVE('',#421,#421,#375,.T.);
#505=EDGE_CURVE('',#421,#422,#196,.T.);
#506=EDGE_CURVE('',#422,#422,#376,.T.);
#507=EDGE_CURVE('',#423,#423,#377,.T.);
#508=EDGE_CURVE('',#423,#424,#197,.T.);
#509=EDGE_CURVE('',#424,#424,#378,.T.);
#510=EDGE_CURVE('',#425,#426,#198,.T.);
#511=EDGE_CURVE('',#426,#427,#199,.T.);
#512=EDGE_CURVE('',#427,#428,#200,.T.);
#513=EDGE_CURVE('',#425,#428,#201,.T.);
#514=EDGE_CURVE('',#429,#430,#202,.T.);
#515=EDGE_CURVE('',#431,#429,#203,.T.);
#516=EDGE_CURVE('',#432,#431,#204,.T.);
#517=EDGE_CURVE('',#432,#430,#205,.T.);
#518=EDGE_CURVE('',#425,#429,#206,.T.);
#519=EDGE_CURVE('',#431,#428,#207,.T.);
#520=EDGE_CURVE('',#426,#430,#208,.T.);
#521=EDGE_CURVE('',#427,#432,#209,.T.);
#522=EDGE_CURVE('',#433,#434,#210,.T.);
#523=EDGE_CURVE('',#435,#433,#211,.T.);
#524=EDGE_CURVE('',#436,#435,#212,.T.);
#525=EDGE_CURVE('',#436,#434,#213,.T.);
#526=EDGE_CURVE('',#437,#438,#214,.T.);
#527=EDGE_CURVE('',#438,#439,#215,.T.);
#528=EDGE_CURVE('',#439,#440,#216,.T.);
#529=EDGE_CURVE('',#437,#440,#217,.T.);
#530=EDGE_CURVE('',#437,#433,#218,.T.);
#531=EDGE_CURVE('',#435,#440,#219,.T.);
#532=EDGE_CURVE('',#438,#434,#220,.T.);
#533=EDGE_CURVE('',#439,#436,#221,.T.);
#534=EDGE_CURVE('',#441,#442,#222,.T.);
#535=EDGE_CURVE('',#443,#441,#223,.T.);
#536=EDGE_CURVE('',#443,#444,#224,.T.);
#537=EDGE_CURVE('',#444,#442,#225,.T.);
#538=EDGE_CURVE('',#445,#446,#226,.T.);
#539=EDGE_CURVE('',#447,#446,#227,.T.);
#540=EDGE_CURVE('',#448,#447,#228,.T.);
#541=EDGE_CURVE('',#448,#445,#229,.T.);
#542=EDGE_CURVE('',#442,#446,#230,.T.);
#543=EDGE_CURVE('',#444,#447,#231,.T.);
#544=EDGE_CURVE('',#445,#441,#232,.T.);
#545=EDGE_CURVE('',#448,#443,#233,.T.);
#546=EDGE_CURVE('',#447,#439,#379,.T.);
#547=EDGE_CURVE('',#444,#440,#380,.T.);
#548=EDGE_CURVE('',#436,#448,#381,.T.);
#549=EDGE_CURVE('',#435,#443,#382,.T.);
#550=EDGE_CURVE('',#445,#427,#383,.T.);
#551=EDGE_CURVE('',#441,#428,#384,.T.);
#552=EDGE_CURVE('',#432,#446,#385,.T.);
#553=EDGE_CURVE('',#431,#442,#386,.T.);
#554=EDGE_CURVE('',#449,#450,#234,.T.);
#555=EDGE_CURVE('',#433,#449,#387,.T.);
#556=EDGE_CURVE('',#434,#450,#388,.T.);
#557=EDGE_CURVE('',#451,#437,#389,.T.);
#558=EDGE_CURVE('',#451,#452,#235,.T.);
#559=EDGE_CURVE('',#452,#438,#390,.T.);
#560=EDGE_CURVE('',#452,#450,#236,.T.);
#561=EDGE_CURVE('',#449,#451,#237,.T.);
#562=EDGE_CURVE('',#451,#453,#238,.T.);
#563=EDGE_CURVE('',#453,#454,#239,.T.);
#564=EDGE_CURVE('',#452,#454,#240,.T.);
#565=EDGE_CURVE('',#455,#450,#241,.T.);
#566=EDGE_CURVE('',#455,#456,#242,.T.);
#567=EDGE_CURVE('',#456,#449,#243,.T.);
#568=EDGE_CURVE('',#454,#457,#391,.T.);
#569=EDGE_CURVE('',#457,#458,#244,.T.);
#570=EDGE_CURVE('',#458,#459,#392,.T.);
#571=EDGE_CURVE('',#459,#460,#245,.T.);
#572=EDGE_CURVE('',#460,#461,#393,.T.);
#573=EDGE_CURVE('',#461,#462,#246,.T.);
#574=EDGE_CURVE('',#462,#455,#394,.T.);
#575=EDGE_CURVE('',#463,#464,#247,.T.);
#576=EDGE_CURVE('',#463,#453,#395,.T.);
#577=EDGE_CURVE('',#456,#465,#396,.T.);
#578=EDGE_CURVE('',#466,#465,#248,.T.);
#579=EDGE_CURVE('',#466,#467,#397,.T.);
#580=EDGE_CURVE('',#468,#467,#249,.T.);
#581=EDGE_CURVE('',#468,#464,#398,.T.);
#582=EDGE_CURVE('',#459,#468,#250,.T.);
#583=EDGE_CURVE('',#467,#460,#251,.T.);
#584=EDGE_CURVE('',#469,#470,#252,.T.);
#585=EDGE_CURVE('',#429,#469,#399,.T.);
#586=EDGE_CURVE('',#430,#470,#400,.T.);
#587=EDGE_CURVE('',#471,#425,#401,.T.);
#588=EDGE_CURVE('',#471,#472,#253,.T.);
#589=EDGE_CURVE('',#472,#426,#402,.T.);
#590=EDGE_CURVE('',#472,#470,#254,.T.);
#591=EDGE_CURVE('',#469,#471,#255,.T.);
#592=EDGE_CURVE('',#471,#473,#256,.T.);
#593=EDGE_CURVE('',#473,#474,#257,.T.);
#594=EDGE_CURVE('',#472,#474,#258,.T.);
#595=EDGE_CURVE('',#475,#470,#259,.T.);
#596=EDGE_CURVE('',#475,#476,#260,.T.);
#597=EDGE_CURVE('',#476,#469,#261,.T.);
#598=EDGE_CURVE('',#477,#478,#262,.T.);
#599=EDGE_CURVE('',#478,#479,#403,.T.);
#600=EDGE_CURVE('',#479,#480,#263,.T.);
#601=EDGE_CURVE('',#480,#481,#404,.T.);
#602=EDGE_CURVE('',#481,#482,#264,.T.);
#603=EDGE_CURVE('',#482,#475,#405,.T.);
#604=EDGE_CURVE('',#474,#477,#406,.T.);
#605=EDGE_CURVE('',#483,#484,#265,.T.);
#606=EDGE_CURVE('',#483,#485,#407,.T.);
#607=EDGE_CURVE('',#486,#485,#266,.T.);
#608=EDGE_CURVE('',#486,#473,#408,.T.);
#609=EDGE_CURVE('',#476,#487,#409,.T.);
#610=EDGE_CURVE('',#488,#487,#267,.T.);
#611=EDGE_CURVE('',#488,#484,#410,.T.);
#612=EDGE_CURVE('',#479,#483,#268,.T.);
#613=EDGE_CURVE('',#484,#480,#269,.T.);
#614=EDGE_CURVE('',#481,#488,#270,.T.);
#615=EDGE_CURVE('',#487,#482,#271,.T.);
#616=EDGE_CURVE('',#485,#478,#272,.T.);
#617=EDGE_CURVE('',#477,#486,#273,.T.);
#618=EDGE_CURVE('',#461,#466,#274,.T.);
#619=EDGE_CURVE('',#465,#462,#275,.T.);
#620=EDGE_CURVE('',#457,#463,#276,.T.);
#621=EDGE_CURVE('',#464,#458,#277,.T.);
#622=ORIENTED_EDGE('',*,*,#489,.F.);
#623=ORIENTED_EDGE('',*,*,#490,.T.);
#624=ORIENTED_EDGE('',*,*,#491,.T.);
#625=ORIENTED_EDGE('',*,*,#490,.F.);
#626=ORIENTED_EDGE('',*,*,#492,.F.);
#627=ORIENTED_EDGE('',*,*,#493,.T.);
#628=ORIENTED_EDGE('',*,*,#494,.T.);
#629=ORIENTED_EDGE('',*,*,#493,.F.);
#630=ORIENTED_EDGE('',*,*,#495,.F.);
#631=ORIENTED_EDGE('',*,*,#496,.T.);
#632=ORIENTED_EDGE('',*,*,#497,.T.);
#633=ORIENTED_EDGE('',*,*,#496,.F.);
#634=ORIENTED_EDGE('',*,*,#498,.F.);
#635=ORIENTED_EDGE('',*,*,#499,.T.);
#636=ORIENTED_EDGE('',*,*,#500,.T.);
#637=ORIENTED_EDGE('',*,*,#499,.F.);
#638=ORIENTED_EDGE('',*,*,#501,.F.);
#639=ORIENTED_EDGE('',*,*,#502,.T.);
#640=ORIENTED_EDGE('',*,*,#503,.T.);
#641=ORIENTED_EDGE('',*,*,#502,.F.);
#642=ORIENTED_EDGE('',*,*,#504,.F.);
#643=ORIENTED_EDGE('',*,*,#505,.T.);
#644=ORIENTED_EDGE('',*,*,#506,.T.);
#645=ORIENTED_EDGE('',*,*,#505,.F.);
#646=ORIENTED_EDGE('',*,*,#507,.F.);
#647=ORIENTED_EDGE('',*,*,#508,.T.);
#648=ORIENTED_EDGE('',*,*,#509,.T.);
#649=ORIENTED_EDGE('',*,*,#508,.F.);
#650=ORIENTED_EDGE('',*,*,#510,.T.);
#651=ORIENTED_EDGE('',*,*,#511,.T.);
#652=ORIENTED_EDGE('',*,*,#512,.T.);
#653=ORIENTED_EDGE('',*,*,#513,.F.);
#654=ORIENTED_EDGE('',*,*,#514,.F.);
#655=ORIENTED_EDGE('',*,*,#515,.F.);
#656=ORIENTED_EDGE('',*,*,#516,.F.);
#657=ORIENTED_EDGE('',*,*,#517,.T.);
#658=ORIENTED_EDGE('',*,*,#518,.F.);
#659=ORIENTED_EDGE('',*,*,#513,.T.);
#660=ORIENTED_EDGE('',*,*,#519,.F.);
#661=ORIENTED_EDGE('',*,*,#515,.T.);
#662=ORIENTED_EDGE('',*,*,#511,.F.);
#663=ORIENTED_EDGE('',*,*,#520,.T.);
#664=ORIENTED_EDGE('',*,*,#517,.F.);
#665=ORIENTED_EDGE('',*,*,#521,.F.);
#666=ORIENTED_EDGE('',*,*,#522,.F.);
#667=ORIENTED_EDGE('',*,*,#523,.F.);
#668=ORIENTED_EDGE('',*,*,#524,.F.);
#669=ORIENTED_EDGE('',*,*,#525,.T.);
#670=ORIENTED_EDGE('',*,*,#526,.T.);
#671=ORIENTED_EDGE('',*,*,#527,.T.);
#672=ORIENTED_EDGE('',*,*,#528,.T.);
#673=ORIENTED_EDGE('',*,*,#529,.F.);
#674=ORIENTED_EDGE('',*,*,#530,.F.);
#675=ORIENTED_EDGE('',*,*,#529,.T.);
#676=ORIENTED_EDGE('',*,*,#531,.F.);
#677=ORIENTED_EDGE('',*,*,#523,.T.);
#678=ORIENTED_EDGE('',*,*,#527,.F.);
#679=ORIENTED_EDGE('',*,*,#532,.T.);
#680=ORIENTED_EDGE('',*,*,#525,.F.);
#681=ORIENTED_EDGE('',*,*,#533,.F.);
#682=ORIENTED_EDGE('',*,*,#534,.F.);
#683=ORIENTED_EDGE('',*,*,#535,.F.);
#684=ORIENTED_EDGE('',*,*,#536,.T.);
#685=ORIENTED_EDGE('',*,*,#537,.T.);
#686=ORIENTED_EDGE('',*,*,#501,.T.);
#687=ORIENTED_EDGE('',*,*,#498,.T.);
#688=ORIENTED_EDGE('',*,*,#495,.T.);
#689=ORIENTED_EDGE('',*,*,#504,.T.);
#690=ORIENTED_EDGE('',*,*,#507,.T.);
#691=ORIENTED_EDGE('',*,*,#538,.T.);
#692=ORIENTED_EDGE('',*,*,#539,.F.);
#693=ORIENTED_EDGE('',*,*,#540,.F.);
#694=ORIENTED_EDGE('',*,*,#541,.T.);
#695=ORIENTED_EDGE('',*,*,#503,.F.);
#696=ORIENTED_EDGE('',*,*,#500,.F.);
#697=ORIENTED_EDGE('',*,*,#497,.F.);
#698=ORIENTED_EDGE('',*,*,#506,.F.);
#699=ORIENTED_EDGE('',*,*,#509,.F.);
#700=ORIENTED_EDGE('',*,*,#542,.F.);
#701=ORIENTED_EDGE('',*,*,#537,.F.);
#702=ORIENTED_EDGE('',*,*,#543,.T.);
#703=ORIENTED_EDGE('',*,*,#539,.T.);
#704=ORIENTED_EDGE('',*,*,#544,.F.);
#705=ORIENTED_EDGE('',*,*,#541,.F.);
#706=ORIENTED_EDGE('',*,*,#545,.T.);
#707=ORIENTED_EDGE('',*,*,#535,.T.);
#708=ORIENTED_EDGE('',*,*,#528,.F.);
#709=ORIENTED_EDGE('',*,*,#546,.F.);
#710=ORIENTED_EDGE('',*,*,#543,.F.);
#711=ORIENTED_EDGE('',*,*,#547,.T.);
#712=ORIENTED_EDGE('',*,*,#548,.F.);
#713=ORIENTED_EDGE('',*,*,#524,.T.);
#714=ORIENTED_EDGE('',*,*,#549,.T.);
#715=ORIENTED_EDGE('',*,*,#545,.F.);
#716=ORIENTED_EDGE('',*,*,#536,.F.);
#717=ORIENTED_EDGE('',*,*,#549,.F.);
#718=ORIENTED_EDGE('',*,*,#531,.T.);
#719=ORIENTED_EDGE('',*,*,#547,.F.);
#720=ORIENTED_EDGE('',*,*,#540,.T.);
#721=ORIENTED_EDGE('',*,*,#546,.T.);
#722=ORIENTED_EDGE('',*,*,#533,.T.);
#723=ORIENTED_EDGE('',*,*,#548,.T.);
#724=ORIENTED_EDGE('',*,*,#512,.F.);
#725=ORIENTED_EDGE('',*,*,#550,.F.);
#726=ORIENTED_EDGE('',*,*,#544,.T.);
#727=ORIENTED_EDGE('',*,*,#551,.T.);
#728=ORIENTED_EDGE('',*,*,#552,.F.);
#729=ORIENTED_EDGE('',*,*,#516,.T.);
#730=ORIENTED_EDGE('',*,*,#553,.T.);
#731=ORIENTED_EDGE('',*,*,#542,.T.);
#732=ORIENTED_EDGE('',*,*,#534,.T.);
#733=ORIENTED_EDGE('',*,*,#553,.F.);
#734=ORIENTED_EDGE('',*,*,#519,.T.);
#735=ORIENTED_EDGE('',*,*,#551,.F.);
#736=ORIENTED_EDGE('',*,*,#538,.F.);
#737=ORIENTED_EDGE('',*,*,#550,.T.);
#738=ORIENTED_EDGE('',*,*,#521,.T.);
#739=ORIENTED_EDGE('',*,*,#552,.T.);
#740=ORIENTED_EDGE('',*,*,#554,.F.);
#741=ORIENTED_EDGE('',*,*,#555,.F.);
#742=ORIENTED_EDGE('',*,*,#522,.T.);
#743=ORIENTED_EDGE('',*,*,#556,.T.);
#744=ORIENTED_EDGE('',*,*,#557,.F.);
#745=ORIENTED_EDGE('',*,*,#558,.T.);
#746=ORIENTED_EDGE('',*,*,#559,.T.);
#747=ORIENTED_EDGE('',*,*,#526,.F.);
#748=ORIENTED_EDGE('',*,*,#532,.F.);
#749=ORIENTED_EDGE('',*,*,#559,.F.);
#750=ORIENTED_EDGE('',*,*,#560,.T.);
#751=ORIENTED_EDGE('',*,*,#556,.F.);
#752=ORIENTED_EDGE('',*,*,#530,.T.);
#753=ORIENTED_EDGE('',*,*,#555,.T.);
#754=ORIENTED_EDGE('',*,*,#561,.T.);
#755=ORIENTED_EDGE('',*,*,#557,.T.);
#756=ORIENTED_EDGE('',*,*,#562,.T.);
#757=ORIENTED_EDGE('',*,*,#563,.T.);
#758=ORIENTED_EDGE('',*,*,#564,.F.);
#759=ORIENTED_EDGE('',*,*,#558,.F.);
#760=ORIENTED_EDGE('',*,*,#565,.F.);
#761=ORIENTED_EDGE('',*,*,#566,.T.);
#762=ORIENTED_EDGE('',*,*,#567,.T.);
#763=ORIENTED_EDGE('',*,*,#554,.T.);
#764=ORIENTED_EDGE('',*,*,#564,.T.);
#765=ORIENTED_EDGE('',*,*,#568,.T.);
#766=ORIENTED_EDGE('',*,*,#569,.T.);
#767=ORIENTED_EDGE('',*,*,#570,.T.);
#768=ORIENTED_EDGE('',*,*,#571,.T.);
#769=ORIENTED_EDGE('',*,*,#572,.T.);
#770=ORIENTED_EDGE('',*,*,#573,.T.);
#771=ORIENTED_EDGE('',*,*,#574,.T.);
#772=ORIENTED_EDGE('',*,*,#565,.T.);
#773=ORIENTED_EDGE('',*,*,#560,.F.);
#774=ORIENTED_EDGE('',*,*,#489,.T.);
#775=ORIENTED_EDGE('',*,*,#575,.F.);
#776=ORIENTED_EDGE('',*,*,#576,.T.);
#777=ORIENTED_EDGE('',*,*,#562,.F.);
#778=ORIENTED_EDGE('',*,*,#561,.F.);
#779=ORIENTED_EDGE('',*,*,#567,.F.);
#780=ORIENTED_EDGE('',*,*,#577,.T.);
#781=ORIENTED_EDGE('',*,*,#578,.F.);
#782=ORIENTED_EDGE('',*,*,#579,.T.);
#783=ORIENTED_EDGE('',*,*,#580,.F.);
#784=ORIENTED_EDGE('',*,*,#581,.T.);
#785=ORIENTED_EDGE('',*,*,#491,.F.);
#786=ORIENTED_EDGE('',*,*,#571,.F.);
#787=ORIENTED_EDGE('',*,*,#582,.T.);
#788=ORIENTED_EDGE('',*,*,#580,.T.);
#789=ORIENTED_EDGE('',*,*,#583,.T.);
#790=ORIENTED_EDGE('',*,*,#584,.F.);
#791=ORIENTED_EDGE('',*,*,#585,.F.);
#792=ORIENTED_EDGE('',*,*,#514,.T.);
#793=ORIENTED_EDGE('',*,*,#586,.T.);
#794=ORIENTED_EDGE('',*,*,#587,.F.);
#795=ORIENTED_EDGE('',*,*,#588,.T.);
#796=ORIENTED_EDGE('',*,*,#589,.T.);
#797=ORIENTED_EDGE('',*,*,#510,.F.);
#798=ORIENTED_EDGE('',*,*,#520,.F.);
#799=ORIENTED_EDGE('',*,*,#589,.F.);
#800=ORIENTED_EDGE('',*,*,#590,.T.);
#801=ORIENTED_EDGE('',*,*,#586,.F.);
#802=ORIENTED_EDGE('',*,*,#518,.T.);
#803=ORIENTED_EDGE('',*,*,#585,.T.);
#804=ORIENTED_EDGE('',*,*,#591,.T.);
#805=ORIENTED_EDGE('',*,*,#587,.T.);
#806=ORIENTED_EDGE('',*,*,#592,.T.);
#807=ORIENTED_EDGE('',*,*,#593,.T.);
#808=ORIENTED_EDGE('',*,*,#594,.F.);
#809=ORIENTED_EDGE('',*,*,#588,.F.);
#810=ORIENTED_EDGE('',*,*,#595,.F.);
#811=ORIENTED_EDGE('',*,*,#596,.T.);
#812=ORIENTED_EDGE('',*,*,#597,.T.);
#813=ORIENTED_EDGE('',*,*,#584,.T.);
#814=ORIENTED_EDGE('',*,*,#598,.T.);
#815=ORIENTED_EDGE('',*,*,#599,.T.);
#816=ORIENTED_EDGE('',*,*,#600,.T.);
#817=ORIENTED_EDGE('',*,*,#601,.T.);
#818=ORIENTED_EDGE('',*,*,#602,.T.);
#819=ORIENTED_EDGE('',*,*,#603,.T.);
#820=ORIENTED_EDGE('',*,*,#595,.T.);
#821=ORIENTED_EDGE('',*,*,#590,.F.);
#822=ORIENTED_EDGE('',*,*,#594,.T.);
#823=ORIENTED_EDGE('',*,*,#604,.T.);
#824=ORIENTED_EDGE('',*,*,#492,.T.);
#825=ORIENTED_EDGE('',*,*,#605,.F.);
#826=ORIENTED_EDGE('',*,*,#606,.T.);
#827=ORIENTED_EDGE('',*,*,#607,.F.);
#828=ORIENTED_EDGE('',*,*,#608,.T.);
#829=ORIENTED_EDGE('',*,*,#592,.F.);
#830=ORIENTED_EDGE('',*,*,#591,.F.);
#831=ORIENTED_EDGE('',*,*,#597,.F.);
#832=ORIENTED_EDGE('',*,*,#609,.T.);
#833=ORIENTED_EDGE('',*,*,#610,.F.);
#834=ORIENTED_EDGE('',*,*,#611,.T.);
#835=ORIENTED_EDGE('',*,*,#494,.F.);
#836=ORIENTED_EDGE('',*,*,#600,.F.);
#837=ORIENTED_EDGE('',*,*,#612,.T.);
#838=ORIENTED_EDGE('',*,*,#605,.T.);
#839=ORIENTED_EDGE('',*,*,#613,.T.);
#840=ORIENTED_EDGE('',*,*,#602,.F.);
#841=ORIENTED_EDGE('',*,*,#614,.T.);
#842=ORIENTED_EDGE('',*,*,#610,.T.);
#843=ORIENTED_EDGE('',*,*,#615,.T.);
#844=ORIENTED_EDGE('',*,*,#607,.T.);
#845=ORIENTED_EDGE('',*,*,#616,.T.);
#846=ORIENTED_EDGE('',*,*,#598,.F.);
#847=ORIENTED_EDGE('',*,*,#617,.T.);
#848=ORIENTED_EDGE('',*,*,#573,.F.);
#849=ORIENTED_EDGE('',*,*,#618,.T.);
#850=ORIENTED_EDGE('',*,*,#578,.T.);
#851=ORIENTED_EDGE('',*,*,#619,.T.);
#852=ORIENTED_EDGE('',*,*,#569,.F.);
#853=ORIENTED_EDGE('',*,*,#620,.T.);
#854=ORIENTED_EDGE('',*,*,#575,.T.);
#855=ORIENTED_EDGE('',*,*,#621,.T.);
#856=ORIENTED_EDGE('',*,*,#599,.F.);
#857=ORIENTED_EDGE('',*,*,#616,.F.);
#858=ORIENTED_EDGE('',*,*,#606,.F.);
#859=ORIENTED_EDGE('',*,*,#612,.F.);
#860=ORIENTED_EDGE('',*,*,#604,.F.);
#861=ORIENTED_EDGE('',*,*,#593,.F.);
#862=ORIENTED_EDGE('',*,*,#608,.F.);
#863=ORIENTED_EDGE('',*,*,#617,.F.);
#864=ORIENTED_EDGE('',*,*,#601,.F.);
#865=ORIENTED_EDGE('',*,*,#613,.F.);
#866=ORIENTED_EDGE('',*,*,#611,.F.);
#867=ORIENTED_EDGE('',*,*,#614,.F.);
#868=ORIENTED_EDGE('',*,*,#603,.F.);
#869=ORIENTED_EDGE('',*,*,#615,.F.);
#870=ORIENTED_EDGE('',*,*,#609,.F.);
#871=ORIENTED_EDGE('',*,*,#596,.F.);
#872=ORIENTED_EDGE('',*,*,#568,.F.);
#873=ORIENTED_EDGE('',*,*,#563,.F.);
#874=ORIENTED_EDGE('',*,*,#576,.F.);
#875=ORIENTED_EDGE('',*,*,#620,.F.);
#876=ORIENTED_EDGE('',*,*,#570,.F.);
#877=ORIENTED_EDGE('',*,*,#621,.F.);
#878=ORIENTED_EDGE('',*,*,#581,.F.);
#879=ORIENTED_EDGE('',*,*,#582,.F.);
#880=ORIENTED_EDGE('',*,*,#572,.F.);
#881=ORIENTED_EDGE('',*,*,#583,.F.);
#882=ORIENTED_EDGE('',*,*,#579,.F.);
#883=ORIENTED_EDGE('',*,*,#618,.F.);
#884=ORIENTED_EDGE('',*,*,#574,.F.);
#885=ORIENTED_EDGE('',*,*,#619,.F.);
#886=ORIENTED_EDGE('',*,*,#577,.F.);
#887=ORIENTED_EDGE('',*,*,#566,.F.);
#888=CYLINDRICAL_SURFACE('',#982,5.24999999999998);
#889=CYLINDRICAL_SURFACE('',#985,5.24999999999999);
#890=CYLINDRICAL_SURFACE('',#988,3.54999999999999);
#891=CYLINDRICAL_SURFACE('',#991,3.54999999999999);
#892=CYLINDRICAL_SURFACE('',#994,3.54999999999999);
#893=CYLINDRICAL_SURFACE('',#997,3.54999999999999);
#894=CYLINDRICAL_SURFACE('',#1000,17.5);
#895=CYLINDRICAL_SURFACE('',#1021,4.4);
#896=CYLINDRICAL_SURFACE('',#1022,2.4);
#897=CYLINDRICAL_SURFACE('',#1029,4.4);
#898=CYLINDRICAL_SURFACE('',#1030,2.4);
#899=CYLINDRICAL_SURFACE('',#1037,4.4);
#900=CYLINDRICAL_SURFACE('',#1038,2.4);
#901=CYLINDRICAL_SURFACE('',#1058,4.4);
#902=CYLINDRICAL_SURFACE('',#1059,2.4);
#903=CYLINDRICAL_SURFACE('',#1077,10.);
#904=CYLINDRICAL_SURFACE('',#1078,10.);
#905=CYLINDRICAL_SURFACE('',#1079,10.);
#906=CYLINDRICAL_SURFACE('',#1080,10.);
#907=CYLINDRICAL_SURFACE('',#1081,10.);
#908=CYLINDRICAL_SURFACE('',#1082,10.);
#909=CYLINDRICAL_SURFACE('',#1083,10.);
#910=CYLINDRICAL_SURFACE('',#1084,10.);
#911=ADVANCED_FACE('',(#63),#888,.F.);
#912=ADVANCED_FACE('',(#64),#889,.F.);
#913=ADVANCED_FACE('',(#65),#890,.F.);
#914=ADVANCED_FACE('',(#66),#891,.F.);
#915=ADVANCED_FACE('',(#67),#892,.F.);
#916=ADVANCED_FACE('',(#68),#893,.F.);
#917=ADVANCED_FACE('',(#69),#894,.F.);
#918=ADVANCED_FACE('',(#70),#29,.F.);
#919=ADVANCED_FACE('',(#71),#30,.F.);
#920=ADVANCED_FACE('',(#72),#31,.F.);
#921=ADVANCED_FACE('',(#73),#32,.T.);
#922=ADVANCED_FACE('',(#74),#33,.F.);
#923=ADVANCED_FACE('',(#75),#34,.F.);
#924=ADVANCED_FACE('',(#76),#35,.F.);
#925=ADVANCED_FACE('',(#77),#36,.T.);
#926=ADVANCED_FACE('',(#78,#15,#16,#17,#18,#19),#37,.T.);
#927=ADVANCED_FACE('',(#79,#20,#21,#22,#23,#24),#38,.F.);
#928=ADVANCED_FACE('',(#80),#39,.T.);
#929=ADVANCED_FACE('',(#81),#40,.T.);
#930=ADVANCED_FACE('',(#82),#41,.T.);
#931=ADVANCED_FACE('',(#83),#42,.F.);
#932=ADVANCED_FACE('',(#84),#895,.T.);
#933=ADVANCED_FACE('',(#85),#896,.F.);
#934=ADVANCED_FACE('',(#86),#43,.T.);
#935=ADVANCED_FACE('',(#87),#44,.F.);
#936=ADVANCED_FACE('',(#88),#897,.T.);
#937=ADVANCED_FACE('',(#89),#898,.F.);
#938=ADVANCED_FACE('',(#90),#45,.T.);
#939=ADVANCED_FACE('',(#91),#46,.F.);
#940=ADVANCED_FACE('',(#92),#899,.T.);
#941=ADVANCED_FACE('',(#93),#900,.F.);
#942=ADVANCED_FACE('',(#94),#47,.F.);
#943=ADVANCED_FACE('',(#95),#48,.F.);
#944=ADVANCED_FACE('',(#96,#25),#49,.F.);
#945=ADVANCED_FACE('',(#97,#26),#50,.T.);
#946=ADVANCED_FACE('',(#98),#51,.F.);
#947=ADVANCED_FACE('',(#99),#52,.T.);
#948=ADVANCED_FACE('',(#100),#53,.F.);
#949=ADVANCED_FACE('',(#101),#901,.T.);
#950=ADVANCED_FACE('',(#102),#902,.F.);
#951=ADVANCED_FACE('',(#103),#54,.F.);
#952=ADVANCED_FACE('',(#104),#55,.F.);
#953=ADVANCED_FACE('',(#105,#27),#56,.F.);
#954=ADVANCED_FACE('',(#106,#28),#57,.T.);
#955=ADVANCED_FACE('',(#107),#58,.F.);
#956=ADVANCED_FACE('',(#108),#59,.F.);
#957=ADVANCED_FACE('',(#109),#60,.F.);
#958=ADVANCED_FACE('',(#110),#61,.F.);
#959=ADVANCED_FACE('',(#111),#62,.F.);
#960=ADVANCED_FACE('',(#112),#903,.T.);
#961=ADVANCED_FACE('',(#113),#904,.T.);
#962=ADVANCED_FACE('',(#114),#905,.T.);
#963=ADVANCED_FACE('',(#115),#906,.T.);
#964=ADVANCED_FACE('',(#116),#907,.T.);
#965=ADVANCED_FACE('',(#117),#908,.T.);
#966=ADVANCED_FACE('',(#118),#909,.T.);
#967=ADVANCED_FACE('',(#119),#910,.T.);
#968=CLOSED_SHELL('',(#911,#912,#913,#914,#915,#916,#917,#918,#919,#920,
#921,#922,#923,#924,#925,#926,#927,#928,#929,#930,#931,#932,#933,#934,#935,
#936,#937,#938,#939,#940,#941,#942,#943,#944,#945,#946,#947,#948,#949,#950,
#951,#952,#953,#954,#955,#956,#957,#958,#959,#960,#961,#962,#963,#964,#965,
#966,#967));
#969=DERIVED_UNIT_ELEMENT(#971,1.);
#970=DERIVED_UNIT_ELEMENT(#1654,-3.);
#971=(
MASS_UNIT()
NAMED_UNIT(*)
SI_UNIT(.KILO.,.GRAM.)
);
#972=DERIVED_UNIT((#969,#970));
#973=MEASURE_REPRESENTATION_ITEM('density measure',
POSITIVE_RATIO_MEASURE(7850.),#972);
#974=PROPERTY_DEFINITION_REPRESENTATION(#979,#976);
#975=PROPERTY_DEFINITION_REPRESENTATION(#980,#977);
#976=REPRESENTATION('material name',(#978),#1651);
#977=REPRESENTATION('density',(#973),#1651);
#978=DESCRIPTIVE_REPRESENTATION_ITEM('Steel','Steel');
#979=PROPERTY_DEFINITION('material property','material name',#1661);
#980=PROPERTY_DEFINITION('material property','density of part',#1661);
#981=AXIS2_PLACEMENT_3D('',#1380,#1085,#1086);
#982=AXIS2_PLACEMENT_3D('',#1381,#1087,#1088);
#983=AXIS2_PLACEMENT_3D('',#1383,#1089,#1090);
#984=AXIS2_PLACEMENT_3D('',#1386,#1092,#1093);
#985=AXIS2_PLACEMENT_3D('',#1387,#1094,#1095);
#986=AXIS2_PLACEMENT_3D('',#1389,#1096,#1097);
#987=AXIS2_PLACEMENT_3D('',#1392,#1099,#1100);
#988=AXIS2_PLACEMENT_3D('',#1393,#1101,#1102);
#989=AXIS2_PLACEMENT_3D('',#1395,#1103,#1104);
#990=AXIS2_PLACEMENT_3D('',#1398,#1106,#1107);
#991=AXIS2_PLACEMENT_3D('',#1399,#1108,#1109);
#992=AXIS2_PLACEMENT_3D('',#1401,#1110,#1111);
#993=AXIS2_PLACEMENT_3D('',#1404,#1113,#1114);
#994=AXIS2_PLACEMENT_3D('',#1405,#1115,#1116);
#995=AXIS2_PLACEMENT_3D('',#1407,#1117,#1118);
#996=AXIS2_PLACEMENT_3D('',#1410,#1120,#1121);
#997=AXIS2_PLACEMENT_3D('',#1411,#1122,#1123);
#998=AXIS2_PLACEMENT_3D('',#1413,#1124,#1125);
#999=AXIS2_PLACEMENT_3D('',#1416,#1127,#1128);
#1000=AXIS2_PLACEMENT_3D('',#1417,#1129,#1130);
#1001=AXIS2_PLACEMENT_3D('',#1419,#1131,#1132);
#1002=AXIS2_PLACEMENT_3D('',#1422,#1134,#1135);
#1003=AXIS2_PLACEMENT_3D('',#1423,#1136,#1137);
#1004=AXIS2_PLACEMENT_3D('',#1432,#1142,#1143);
#1005=AXIS2_PLACEMENT_3D('',#1441,#1148,#1149);
#1006=AXIS2_PLACEMENT_3D('',#1444,#1152,#1153);
#1007=AXIS2_PLACEMENT_3D('',#1447,#1156,#1157);
#1008=AXIS2_PLACEMENT_3D('',#1456,#1162,#1163);
#1009=AXIS2_PLACEMENT_3D('',#1465,#1168,#1169);
#1010=AXIS2_PLACEMENT_3D('',#1468,#1172,#1173);
#1011=AXIS2_PLACEMENT_3D('',#1471,#1176,#1177);
#1012=AXIS2_PLACEMENT_3D('',#1480,#1182,#1183);
#1013=AXIS2_PLACEMENT_3D('',#1489,#1188,#1189);
#1014=AXIS2_PLACEMENT_3D('',#1492,#1192,#1193);
#1015=AXIS2_PLACEMENT_3D('',#1495,#1196,#1197);
#1016=AXIS2_PLACEMENT_3D('',#1496,#1198,#1199);
#1017=AXIS2_PLACEMENT_3D('',#1497,#1200,#1201);
#1018=AXIS2_PLACEMENT_3D('',#1498,#1202,#1203);
#1019=AXIS2_PLACEMENT_3D('',#1499,#1204,#1205);
#1020=AXIS2_PLACEMENT_3D('',#1500,#1206,#1207);
#1021=AXIS2_PLACEMENT_3D('',#1501,#1208,#1209);
#1022=AXIS2_PLACEMENT_3D('',#1502,#1210,#1211);
#1023=AXIS2_PLACEMENT_3D('',#1503,#1212,#1213);
#1024=AXIS2_PLACEMENT_3D('',#1504,#1214,#1215);
#1025=AXIS2_PLACEMENT_3D('',#1505,#1216,#1217);
#1026=AXIS2_PLACEMENT_3D('',#1506,#1218,#1219);
#1027=AXIS2_PLACEMENT_3D('',#1507,#1220,#1221);
#1028=AXIS2_PLACEMENT_3D('',#1508,#1222,#1223);
#1029=AXIS2_PLACEMENT_3D('',#1509,#1224,#1225);
#1030=AXIS2_PLACEMENT_3D('',#1510,#1226,#1227);
#1031=AXIS2_PLACEMENT_3D('',#1511,#1228,#1229);
#1032=AXIS2_PLACEMENT_3D('',#1515,#1231,#1232);
#1033=AXIS2_PLACEMENT_3D('',#1516,#1233,#1234);
#1034=AXIS2_PLACEMENT_3D('',#1517,#1235,#1236);
#1035=AXIS2_PLACEMENT_3D('',#1519,#1237,#1238);
#1036=AXIS2_PLACEMENT_3D('',#1522,#1240,#1241);
#1037=AXIS2_PLACEMENT_3D('',#1523,#1242,#1243);
#1038=AXIS2_PLACEMENT_3D('',#1525,#1245,#1246);
#1039=AXIS2_PLACEMENT_3D('',#1527,#1248,#1249);
#1040=AXIS2_PLACEMENT_3D('',#1533,#1253,#1254);
#1041=AXIS2_PLACEMENT_3D('',#1539,#1258,#1259);
#1042=AXIS2_PLACEMENT_3D('',#1541,#1260,#1261);
#1043=AXIS2_PLACEMENT_3D('',#1545,#1263,#1264);
#1044=AXIS2_PLACEMENT_3D('',#1549,#1266,#1267);
#1045=AXIS2_PLACEMENT_3D('',#1552,#1269,#1270);
#1046=AXIS2_PLACEMENT_3D('',#1553,#1271,#1272);
#1047=AXIS2_PLACEMENT_3D('',#1557,#1274,#1275);
#1048=AXIS2_PLACEMENT_3D('',#1559,#1276,#1277);
#1049=AXIS2_PLACEMENT_3D('',#1563,#1279,#1280);
#1050=AXIS2_PLACEMENT_3D('',#1566,#1282,#1283);
#1051=AXIS2_PLACEMENT_3D('',#1567,#1284,#1285);
#1052=AXIS2_PLACEMENT_3D('',#1570,#1288,#1289);
#1053=AXIS2_PLACEMENT_3D('',#1574,#1291,#1292);
#1054=AXIS2_PLACEMENT_3D('',#1575,#1293,#1294);
#1055=AXIS2_PLACEMENT_3D('',#1576,#1295,#1296);
#1056=AXIS2_PLACEMENT_3D('',#1578,#1297,#1298);
#1057=AXIS2_PLACEMENT_3D('',#1581,#1300,#1301);
#1058=AXIS2_PLACEMENT_3D('',#1582,#1302,#1303);
#1059=AXIS2_PLACEMENT_3D('',#1584,#1305,#1306);
#1060=AXIS2_PLACEMENT_3D('',#1586,#1308,#1309);
#1061=AXIS2_PLACEMENT_3D('',#1592,#1313,#1314);
#1062=AXIS2_PLACEMENT_3D('',#1598,#1318,#1319);
#1063=AXIS2_PLACEMENT_3D('',#1603,#1321,#1322);
#1064=AXIS2_PLACEMENT_3D('',#1607,#1324,#1325);
#1065=AXIS2_PLACEMENT_3D('',#1610,#1327,#1328);
#1066=AXIS2_PLACEMENT_3D('',#1611,#1329,#1330);
#1067=AXIS2_PLACEMENT_3D('',#1612,#1331,#1332);
#1068=AXIS2_PLACEMENT_3D('',#1617,#1334,#1335);
#1069=AXIS2_PLACEMENT_3D('',#1620,#1337,#1338);
#1070=AXIS2_PLACEMENT_3D('',#1622,#1339,#1340);
#1071=AXIS2_PLACEMENT_3D('',#1625,#1342,#1343);
#1072=AXIS2_PLACEMENT_3D('',#1626,#1344,#1345);
#1073=AXIS2_PLACEMENT_3D('',#1629,#1348,#1349);
#1074=AXIS2_PLACEMENT_3D('',#1632,#1352,#1353);
#1075=AXIS2_PLACEMENT_3D('',#1635,#1356,#1357);
#1076=AXIS2_PLACEMENT_3D('',#1638,#1360,#1361);
#1077=AXIS2_PLACEMENT_3D('',#1641,#1364,#1365);
#1078=AXIS2_PLACEMENT_3D('',#1642,#1366,#1367);
#1079=AXIS2_PLACEMENT_3D('',#1643,#1368,#1369);
#1080=AXIS2_PLACEMENT_3D('',#1644,#1370,#1371);
#1081=AXIS2_PLACEMENT_3D('',#1645,#1372,#1373);
#1082=AXIS2_PLACEMENT_3D('',#1646,#1374,#1375);
#1083=AXIS2_PLACEMENT_3D('',#1647,#1376,#1377);
#1084=AXIS2_PLACEMENT_3D('',#1648,#1378,#1379);
#1085=DIRECTION('axis',(0.,0.,1.));
#1086=DIRECTION('refdir',(1.,0.,0.));
#1087=DIRECTION('center_axis',(0.,-9.70017266651368E-18,-1.));
#1088=DIRECTION('ref_axis',(0.,1.,-9.70017266651368E-18));
#1089=DIRECTION('center_axis',(0.,-9.70017266651368E-18,-1.));
#1090=DIRECTION('ref_axis',(0.,1.,-9.70017266651368E-18));
#1091=DIRECTION('',(0.,-9.70017266651368E-18,-1.));
#1092=DIRECTION('center_axis',(0.,0.,-1.));
#1093=DIRECTION('ref_axis',(-1.,0.,0.));
#1094=DIRECTION('center_axis',(0.,-9.70017266651368E-18,-1.));
#1095=DIRECTION('ref_axis',(0.,1.,-9.70017266651368E-18));
#1096=DIRECTION('center_axis',(0.,-9.70017266651368E-18,-1.));
#1097=DIRECTION('ref_axis',(0.,1.,-9.70017266651368E-18));
#1098=DIRECTION('',(0.,-9.70017266651368E-18,-1.));
#1099=DIRECTION('center_axis',(0.,0.,-1.));
#1100=DIRECTION('ref_axis',(-1.,0.,0.));
#1101=DIRECTION('center_axis',(0.,0.,1.));
#1102=DIRECTION('ref_axis',(1.,0.,0.));
#1103=DIRECTION('center_axis',(0.,0.,1.));
#1104=DIRECTION('ref_axis',(1.,0.,0.));
#1105=DIRECTION('',(0.,0.,1.));
#1106=DIRECTION('center_axis',(0.,0.,1.));
#1107=DIRECTION('ref_axis',(1.,0.,0.));
#1108=DIRECTION('center_axis',(0.,0.,1.));
#1109=DIRECTION('ref_axis',(1.,0.,0.));
#1110=DIRECTION('center_axis',(0.,0.,1.));
#1111=DIRECTION('ref_axis',(1.,0.,0.));
#1112=DIRECTION('',(0.,0.,1.));
#1113=DIRECTION('center_axis',(0.,0.,1.));
#1114=DIRECTION('ref_axis',(1.,0.,0.));
#1115=DIRECTION('center_axis',(0.,0.,1.));
#1116=DIRECTION('ref_axis',(1.,0.,0.));
#1117=DIRECTION('center_axis',(0.,0.,1.));
#1118=DIRECTION('ref_axis',(1.,0.,0.));
#1119=DIRECTION('',(0.,0.,1.));
#1120=DIRECTION('center_axis',(0.,0.,1.));
#1121=DIRECTION('ref_axis',(1.,0.,0.));
#1122=DIRECTION('center_axis',(0.,0.,1.));
#1123=DIRECTION('ref_axis',(1.,0.,0.));
#1124=DIRECTION('center_axis',(0.,0.,1.));
#1125=DIRECTION('ref_axis',(1.,0.,0.));
#1126=DIRECTION('',(0.,0.,1.));
#1127=DIRECTION('center_axis',(0.,0.,1.));
#1128=DIRECTION('ref_axis',(1.,0.,0.));
#1129=DIRECTION('center_axis',(0.,0.,1.));
#1130=DIRECTION('ref_axis',(1.,0.,0.));
#1131=DIRECTION('center_axis',(0.,0.,1.));
#1132=DIRECTION('ref_axis',(1.,0.,0.));
#1133=DIRECTION('',(0.,0.,1.));
#1134=DIRECTION('center_axis',(0.,0.,1.));
#1135=DIRECTION('ref_axis',(1.,0.,0.));
#1136=DIRECTION('center_axis',(5.22601621165184E-32,-1.,1.81313860163756E-46));
#1137=DIRECTION('ref_axis',(1.,5.22601621165184E-32,0.));
#1138=DIRECTION('',(1.,0.,3.61400724161835E-15));
#1139=DIRECTION('',(3.46944695195361E-15,-3.88938454866321E-62,-1.));
#1140=DIRECTION('',(-1.,-5.22601621165184E-32,-3.49148133884313E-15));
#1141=DIRECTION('',(3.46944695195361E-15,-3.88938454866321E-62,-1.));
#1142=DIRECTION('center_axis',(8.07567285923482E-30,1.,-2.32793253995865E-15));
#1143=DIRECTION('ref_axis',(0.,2.32793253995865E-15,1.));
#1144=DIRECTION('',(1.,0.,3.61400724161835E-15));
#1145=DIRECTION('',(-3.46944695195361E-15,2.32793253995865E-15,1.));
#1146=DIRECTION('',(-1.,-5.22601621165154E-32,-3.49148133884313E-15));
#1147=DIRECTION('',(-3.46944695195361E-15,2.32793253995865E-15,1.));
#1148=DIRECTION('center_axis',(1.,0.,3.46944695195361E-15));
#1149=DIRECTION('ref_axis',(3.46944695195361E-15,0.,-1.));
#1150=DIRECTION('',(0.,-1.,0.));
#1151=DIRECTION('',(0.,1.,0.));
#1152=DIRECTION('center_axis',(1.,0.,3.46944695195361E-15));
#1153=DIRECTION('ref_axis',(3.46944695195361E-15,0.,-1.));
#1154=DIRECTION('',(0.,-1.,0.));
#1155=DIRECTION('',(0.,-1.,0.));
#1156=DIRECTION('center_axis',(-5.22601621165184E-32,-1.,1.81313860163756E-46));
#1157=DIRECTION('ref_axis',(1.,-5.22601621165184E-32,0.));
#1158=DIRECTION('',(-1.,0.,3.61400724161835E-15));
#1159=DIRECTION('',(3.46944695195361E-15,0.,1.));
#1160=DIRECTION('',(1.,-5.22601621165184E-32,-3.49148133884313E-15));
#1161=DIRECTION('',(3.46944695195361E-15,0.,1.));
#1162=DIRECTION('center_axis',(0.,1.,-1.49679053229121E-17));
#1163=DIRECTION('ref_axis',(0.,1.49679053229121E-17,1.));
#1164=DIRECTION('',(-1.,0.,3.61400724161835E-15));
#1165=DIRECTION('',(-3.46944695195361E-15,-1.49679053229121E-17,-1.));
#1166=DIRECTION('',(1.,-5.22601621165184E-32,-3.49148133884313E-15));
#1167=DIRECTION('',(-3.46944695195361E-15,-1.49679053229121E-17,-1.));
#1168=DIRECTION('center_axis',(-1.,5.19303534997076E-32,3.46944695195361E-15));
#1169=DIRECTION('ref_axis',(3.46944695195361E-15,0.,1.));
#1170=DIRECTION('',(0.,1.,0.));
#1171=DIRECTION('',(-5.19303534997076E-32,-1.,1.81313860163756E-46));
#1172=DIRECTION('center_axis',(-1.,5.19303534997076E-32,3.46944695195361E-15));
#1173=DIRECTION('ref_axis',(3.46944695195361E-15,0.,1.));
#1174=DIRECTION('',(0.,1.,0.));
#1175=DIRECTION('',(5.19303534997076E-32,1.,-1.81313860163756E-46));
#1176=DIRECTION('center_axis',(0.,-1.49679053229121E-17,-1.));
#1177=DIRECTION('ref_axis',(0.,1.,-1.49679053229121E-17));
#1178=DIRECTION('',(0.,-1.,1.49679053229121E-17));
#1179=DIRECTION('',(-1.,0.,0.));
#1180=DIRECTION('',(0.,-1.,1.49679053229121E-17));
#1181=DIRECTION('',(-1.,0.,0.));
#1182=DIRECTION('center_axis',(0.,-1.49679053229121E-17,-1.));
#1183=DIRECTION('ref_axis',(0.,1.,-1.49679053229121E-17));
#1184=DIRECTION('',(0.,-1.,1.49679053229121E-17));
#1185=DIRECTION('',(-1.,0.,0.));
#1186=DIRECTION('',(0.,-1.,1.49679053229121E-17));
#1187=DIRECTION('',(-1.,0.,0.));
#1188=DIRECTION('center_axis',(0.,-1.,0.));
#1189=DIRECTION('ref_axis',(0.,0.,-1.));
#1190=DIRECTION('',(0.,0.,1.));
#1191=DIRECTION('',(0.,0.,1.));
#1192=DIRECTION('center_axis',(0.,1.,0.));
#1193=DIRECTION('ref_axis',(0.,0.,1.));
#1194=DIRECTION('',(0.,0.,-1.));
#1195=DIRECTION('',(0.,0.,-1.));
#1196=DIRECTION('center_axis',(0.,-1.,0.));
#1197=DIRECTION('ref_axis',(0.,0.,-1.));
#1198=DIRECTION('center_axis',(0.,-1.,0.));
#1199=DIRECTION('ref_axis',(0.,0.,1.));
#1200=DIRECTION('center_axis',(0.,-1.,0.));
#1201=DIRECTION('ref_axis',(0.,0.,1.));
#1202=DIRECTION('center_axis',(0.,-1.,0.));
#1203=DIRECTION('ref_axis',(0.,0.,-1.));
#1204=DIRECTION('center_axis',(0.,1.,0.));
#1205=DIRECTION('ref_axis',(0.,0.,1.));
#1206=DIRECTION('center_axis',(0.,1.,0.));
#1207=DIRECTION('ref_axis',(0.,0.,1.));
#1208=DIRECTION('center_axis',(0.,1.,0.));
#1209=DIRECTION('ref_axis',(1.,0.,-3.44973418518115E-15));
#1210=DIRECTION('center_axis',(0.,1.,0.));
#1211=DIRECTION('ref_axis',(1.,0.,-3.43330687953743E-15));
#1212=DIRECTION('center_axis',(0.,1.,0.));
#1213=DIRECTION('ref_axis',(0.,0.,1.));
#1214=DIRECTION('center_axis',(0.,1.,0.));
#1215=DIRECTION('ref_axis',(0.,0.,-1.));
#1216=DIRECTION('center_axis',(0.,1.,0.));
#1217=DIRECTION('ref_axis',(0.,0.,-1.));
#1218=DIRECTION('center_axis',(0.,1.,0.));
#1219=DIRECTION('ref_axis',(0.,0.,1.));
#1220=DIRECTION('center_axis',(0.,-1.,0.));
#1221=DIRECTION('ref_axis',(0.,0.,-1.));
#1222=DIRECTION('center_axis',(0.,-1.,0.));
#1223=DIRECTION('ref_axis',(0.,0.,-1.));
#1224=DIRECTION('center_axis',(0.,-1.,0.));
#1225=DIRECTION('ref_axis',(-1.,0.,-3.44973418518115E-15));
#1226=DIRECTION('center_axis',(0.,-1.,0.));
#1227=DIRECTION('ref_axis',(-1.,0.,-3.43330687953743E-15));
#1228=DIRECTION('center_axis',(0.,1.,0.));
#1229=DIRECTION('ref_axis',(0.,0.,1.));
#1230=DIRECTION('',(0.,0.,1.));
#1231=DIRECTION('center_axis',(0.,1.,0.));
#1232=DIRECTION('ref_axis',(0.,0.,-1.));
#1233=DIRECTION('center_axis',(0.,1.,0.));
#1234=DIRECTION('ref_axis',(0.,0.,-1.));
#1235=DIRECTION('center_axis',(0.,1.,0.));
#1236=DIRECTION('ref_axis',(0.,0.,1.));
#1237=DIRECTION('center_axis',(0.,-1.,0.));
#1238=DIRECTION('ref_axis',(0.,0.,-1.));
#1239=DIRECTION('',(0.,2.16300191554825E-32,1.));
#1240=DIRECTION('center_axis',(0.,-1.,0.));
#1241=DIRECTION('ref_axis',(0.,0.,-1.));
#1242=DIRECTION('center_axis',(0.,-1.,0.));
#1243=DIRECTION('ref_axis',(0.,0.,1.));
#1244=DIRECTION('',(0.,1.,0.));
#1245=DIRECTION('center_axis',(0.,-1.,0.));
#1246=DIRECTION('ref_axis',(0.,0.,1.));
#1247=DIRECTION('',(0.,-1.,0.));
#1248=DIRECTION('center_axis',(-9.81648332850589E-16,1.,-2.16300191554825E-32));
#1249=DIRECTION('ref_axis',(-1.,-9.81648332850589E-16,0.));
#1250=DIRECTION('',(1.,9.81648332850589E-16,0.));
#1251=DIRECTION('',(1.29780114932895E-32,2.16300191554825E-32,1.));
#1252=DIRECTION('',(1.,9.81648332850589E-16,0.));
#1253=DIRECTION('center_axis',(0.,-1.,0.));
#1254=DIRECTION('ref_axis',(0.,0.,-1.));
#1255=DIRECTION('',(-1.,0.,0.));
#1256=DIRECTION('',(0.,0.,-1.));
#1257=DIRECTION('',(-1.,0.,0.));
#1258=DIRECTION('center_axis',(0.,0.,-1.));
#1259=DIRECTION('ref_axis',(-1.,0.,0.));
#1260=DIRECTION('center_axis',(0.,0.,1.));
#1261=DIRECTION('ref_axis',(-1.,8.67361737988403E-16,0.));
#1262=DIRECTION('',(0.514495755427527,0.857492925712544,0.));
#1263=DIRECTION('center_axis',(0.,0.,1.));
#1264=DIRECTION('ref_axis',(-1.,0.,0.));
#1265=DIRECTION('',(0.,1.,0.));
#1266=DIRECTION('center_axis',(0.,0.,1.));
#1267=DIRECTION('ref_axis',(-1.,0.,0.));
#1268=DIRECTION('',(-0.316227766016838,0.948683298050514,0.));
#1269=DIRECTION('center_axis',(0.,0.,1.));
#1270=DIRECTION('ref_axis',(-1.,0.,0.));
#1271=DIRECTION('center_axis',(0.,0.,-1.));
#1272=DIRECTION('ref_axis',(-1.,0.,0.));
#1273=DIRECTION('',(0.514495755427527,0.857492925712544,0.));
#1274=DIRECTION('center_axis',(0.,0.,-1.));
#1275=DIRECTION('ref_axis',(-1.,0.,0.));
#1276=DIRECTION('center_axis',(0.,0.,-1.));
#1277=DIRECTION('ref_axis',(-1.,0.,0.));
#1278=DIRECTION('',(-0.316227766016838,0.948683298050514,0.));
#1279=DIRECTION('center_axis',(0.,0.,-1.));
#1280=DIRECTION('ref_axis',(-1.,0.,0.));
#1281=DIRECTION('',(0.,1.,0.));
#1282=DIRECTION('center_axis',(0.,0.,-1.));
#1283=DIRECTION('ref_axis',(-1.,0.,0.));
#1284=DIRECTION('center_axis',(-1.,0.,-2.20343868895204E-17));
#1285=DIRECTION('ref_axis',(-2.20343868895204E-17,0.,1.));
#1286=DIRECTION('',(2.20343868895204E-17,3.67239781492006E-17,-1.));
#1287=DIRECTION('',(-2.20343868895204E-17,6.6103160668561E-17,1.));
#1288=DIRECTION('center_axis',(0.,-1.,0.));
#1289=DIRECTION('ref_axis',(0.,0.,-1.));
#1290=DIRECTION('',(0.,-3.28690683834096E-32,1.));
#1291=DIRECTION('center_axis',(0.,-1.,0.));
#1292=DIRECTION('ref_axis',(0.,0.,1.));
#1293=DIRECTION('center_axis',(0.,-1.,0.));
#1294=DIRECTION('ref_axis',(-1.5770213417971E-15,0.,1.));
#1295=DIRECTION('center_axis',(0.,-1.,0.));
#1296=DIRECTION('ref_axis',(0.,0.,-1.));
#1297=DIRECTION('center_axis',(0.,1.,0.));
#1298=DIRECTION('ref_axis',(0.,0.,1.));
#1299=DIRECTION('',(0.,0.,1.));
#1300=DIRECTION('center_axis',(0.,1.,0.));
#1301=DIRECTION('ref_axis',(0.,0.,1.));
#1302=DIRECTION('center_axis',(0.,1.,0.));
#1303=DIRECTION('ref_axis',(0.,0.,1.));
#1304=DIRECTION('',(0.,-1.,0.));
#1305=DIRECTION('center_axis',(0.,1.,0.));
#1306=DIRECTION('ref_axis',(0.,0.,1.));
#1307=DIRECTION('',(0.,1.,0.));
#1308=DIRECTION('center_axis',(0.,-1.,0.));
#1309=DIRECTION('ref_axis',(0.,0.,-1.));
#1310=DIRECTION('',(-1.,0.,0.));
#1311=DIRECTION('',(0.,0.,1.));
#1312=DIRECTION('',(-1.,0.,0.));
#1313=DIRECTION('center_axis',(-1.49171694897677E-15,1.,3.28690683834096E-32));
#1314=DIRECTION('ref_axis',(-1.,-1.49171694897677E-15,0.));
#1315=DIRECTION('',(1.,1.49171694897677E-15,0.));
#1316=DIRECTION('',(-1.97214410300458E-32,3.28690683834096E-32,-1.));
#1317=DIRECTION('',(1.,1.49171694897677E-15,0.));
#1318=DIRECTION('center_axis',(0.,0.,-1.));
#1319=DIRECTION('ref_axis',(-1.,0.,0.));
#1320=DIRECTION('',(-0.316227766016838,-0.948683298050514,0.));
#1321=DIRECTION('center_axis',(0.,0.,1.));
#1322=DIRECTION('ref_axis',(-1.,5.55111512312579E-15,0.));
#1323=DIRECTION('',(0.,-1.,0.));
#1324=DIRECTION('center_axis',(0.,0.,1.));
#1325=DIRECTION('ref_axis',(-1.,0.,0.));
#1326=DIRECTION('',(0.514495755427527,-0.857492925712544,0.));
#1327=DIRECTION('center_axis',(0.,0.,1.));
#1328=DIRECTION('ref_axis',(-1.,0.,0.));
#1329=DIRECTION('center_axis',(0.,0.,1.));
#1330=DIRECTION('ref_axis',(-1.,1.38777878078145E-15,0.));
#1331=DIRECTION('center_axis',(0.,0.,-1.));
#1332=DIRECTION('ref_axis',(-1.,0.,0.));
#1333=DIRECTION('',(0.,-1.,0.));
#1334=DIRECTION('center_axis',(0.,0.,-1.));
#1335=DIRECTION('ref_axis',(-1.,0.,0.));
#1336=DIRECTION('',(-0.316227766016838,-0.948683298050514,0.));
#1337=DIRECTION('center_axis',(0.,0.,-1.));
#1338=DIRECTION('ref_axis',(-1.,0.,0.));
#1339=DIRECTION('center_axis',(0.,0.,-1.));
#1340=DIRECTION('ref_axis',(-1.,0.,0.));
#1341=DIRECTION('',(0.514495755427527,-0.857492925712544,0.));
#1342=DIRECTION('center_axis',(0.,0.,-1.));
#1343=DIRECTION('ref_axis',(-1.,0.,0.));
#1344=DIRECTION('center_axis',(1.,0.,-2.20343868895207E-17));
#1345=DIRECTION('ref_axis',(-2.20343868895207E-17,0.,-1.));
#1346=DIRECTION('',(-2.20343868895207E-17,-6.61031606685622E-17,-1.));
#1347=DIRECTION('',(2.20343868895207E-17,-3.67239781492012E-17,1.));
#1348=DIRECTION('center_axis',(0.857492925712544,0.514495755427527,0.));
#1349=DIRECTION('ref_axis',(-0.514495755427527,0.857492925712544,0.));
#1350=DIRECTION('',(-2.20343868895207E-17,3.67239781492012E-17,-1.));
#1351=DIRECTION('',(1.97214410300458E-32,-3.28690683834096E-32,1.));
#1352=DIRECTION('center_axis',(0.948683298050514,-0.316227766016838,0.));
#1353=DIRECTION('ref_axis',(0.316227766016838,0.948683298050514,0.));
#1354=DIRECTION('',(2.20343868895207E-17,6.61031606685622E-17,1.));
#1355=DIRECTION('',(0.,0.,-1.));
#1356=DIRECTION('center_axis',(-0.948683298050514,-0.316227766016838,0.));
#1357=DIRECTION('ref_axis',(0.316227766016838,-0.948683298050514,0.));
#1358=DIRECTION('',(2.20343868895204E-17,-6.6103160668561E-17,-1.));
#1359=DIRECTION('',(0.,0.,1.));
#1360=DIRECTION('center_axis',(-0.857492925712544,0.514495755427527,0.));
#1361=DIRECTION('ref_axis',(-0.514495755427527,-0.857492925712544,0.));
#1362=DIRECTION('',(-1.29780114932895E-32,-2.16300191554825E-32,-1.));
#1363=DIRECTION('',(-2.20343868895204E-17,-3.67239781492006E-17,1.));
#1364=DIRECTION('center_axis',(-2.20343868895207E-17,-6.61031606685622E-17,
-1.));
#1365=DIRECTION('ref_axis',(-1.45654261679125E-33,1.,-6.61031606685622E-17));
#1366=DIRECTION('center_axis',(0.,0.,-1.));
#1367=DIRECTION('ref_axis',(-1.,0.,0.));
#1368=DIRECTION('center_axis',(-2.20343868895207E-17,3.67239781492012E-17,
-1.));
#1369=DIRECTION('ref_axis',(8.09190342661806E-34,1.,3.67239781492012E-17));
#1370=DIRECTION('center_axis',(-1.97214410300458E-32,3.28690683834096E-32,
-1.));
#1371=DIRECTION('ref_axis',(6.48225393835954E-64,1.,3.28690683834096E-32));
#1372=DIRECTION('center_axis',(-1.29780114932895E-32,-2.16300191554825E-32,
-1.));
#1373=DIRECTION('ref_axis',(-2.80714637199925E-64,1.,-2.16300191554825E-32));
#1374=DIRECTION('center_axis',(2.20343868895204E-17,3.67239781492006E-17,
-1.));
#1375=DIRECTION('ref_axis',(-8.09190342661777E-34,1.,3.67239781492006E-17));
#1376=DIRECTION('center_axis',(2.20343868895204E-17,-6.6103160668561E-17,
-1.));
#1377=DIRECTION('ref_axis',(1.4565426167912E-33,1.,-6.6103160668561E-17));
#1378=DIRECTION('center_axis',(0.,0.,-1.));
#1379=DIRECTION('ref_axis',(-1.,0.,0.));
#1380=CARTESIAN_POINT('',(0.,0.,0.));
#1381=CARTESIAN_POINT('Origin',(58.5,35.,-2.));
#1382=CARTESIAN_POINT('',(58.5,29.75,18.));
#1383=CARTESIAN_POINT('Origin',(58.5,35.,18.));
#1384=CARTESIAN_POINT('',(58.5,29.75,16.));
#1385=CARTESIAN_POINT('',(58.5,29.75,-2.));
#1386=CARTESIAN_POINT('Origin',(58.5,35.,16.));
#1387=CARTESIAN_POINT('Origin',(-58.5,35.,-2.));
#1388=CARTESIAN_POINT('',(-58.5,29.75,18.));
#1389=CARTESIAN_POINT('Origin',(-58.5,35.,18.));
#1390=CARTESIAN_POINT('',(-58.5,29.75,16.));
#1391=CARTESIAN_POINT('',(-58.5,29.75,-2.));
#1392=CARTESIAN_POINT('Origin',(-58.5,35.,16.));
#1393=CARTESIAN_POINT('Origin',(-33.2340187157677,83.2340187157677,0.));
#1394=CARTESIAN_POINT('',(-36.7840187157677,83.2340187157677,-2.));
#1395=CARTESIAN_POINT('Origin',(-33.2340187157677,83.2340187157677,-2.));
#1396=CARTESIAN_POINT('',(-36.7840187157677,83.2340187157677,1.12055182121983E-15));
#1397=CARTESIAN_POINT('',(-36.7840187157677,83.2340187157677,0.));
#1398=CARTESIAN_POINT('Origin',(-33.2340187157677,83.2340187157677,1.12055182121983E-15));
#1399=CARTESIAN_POINT('Origin',(33.2340187157677,83.2340187157677,0.));
#1400=CARTESIAN_POINT('',(29.6840187157677,83.2340187157677,-2.));
#1401=CARTESIAN_POINT('Origin',(33.2340187157677,83.2340187157677,-2.));
#1402=CARTESIAN_POINT('',(29.6840187157677,83.2340187157677,1.12055182121983E-15));
#1403=CARTESIAN_POINT('',(29.6840187157677,83.2340187157677,0.));
#1404=CARTESIAN_POINT('Origin',(33.2340187157677,83.2340187157677,1.12055182121983E-15));
#1405=CARTESIAN_POINT('Origin',(33.2340187157677,16.7659812842323,0.));
#1406=CARTESIAN_POINT('',(29.6840187157677,16.7659812842323,-2.));
#1407=CARTESIAN_POINT('Origin',(33.2340187157677,16.7659812842323,-2.));
#1408=CARTESIAN_POINT('',(29.6840187157677,16.7659812842323,1.12055182121983E-15));
#1409=CARTESIAN_POINT('',(29.6840187157677,16.7659812842323,0.));
#1410=CARTESIAN_POINT('Origin',(33.2340187157677,16.7659812842323,1.12055182121983E-15));
#1411=CARTESIAN_POINT('Origin',(-33.2340187157677,16.7659812842323,0.));
#1412=CARTESIAN_POINT('',(-36.7840187157677,16.7659812842323,-2.));
#1413=CARTESIAN_POINT('Origin',(-33.2340187157677,16.7659812842323,-2.));
#1414=CARTESIAN_POINT('',(-36.7840187157677,16.7659812842323,1.12055182121983E-15));
#1415=CARTESIAN_POINT('',(-36.7840187157677,16.7659812842323,0.));
#1416=CARTESIAN_POINT('Origin',(-33.2340187157677,16.7659812842323,1.12055182121983E-15));
#1417=CARTESIAN_POINT('Origin',(0.,35.,-2.));
#1418=CARTESIAN_POINT('',(-17.5,35.,-2.));
#1419=CARTESIAN_POINT('Origin',(0.,35.,-2.));
#1420=CARTESIAN_POINT('',(-17.5,35.,0.));
#1421=CARTESIAN_POINT('',(-17.5,35.,-2.));
#1422=CARTESIAN_POINT('Origin',(0.,35.,0.));
#1423=CARTESIAN_POINT('Origin',(-45.,90.,-8.33007415674838E-15));
#1424=CARTESIAN_POINT('',(-45.0000000000001,90.,13.6));
#1425=CARTESIAN_POINT('',(-43.,90.,13.6));
#1426=CARTESIAN_POINT('',(-45.0000000000001,90.,13.6));
#1427=CARTESIAN_POINT('',(-43.,90.,2.39999999999999));
#1428=CARTESIAN_POINT('',(-43.,90.,-1.39118025284115E-15));
#1429=CARTESIAN_POINT('',(-45.,90.,2.39999999999999));
#1430=CARTESIAN_POINT('',(-45.,90.,2.39999999999999));
#1431=CARTESIAN_POINT('',(-45.,90.,-1.47842508927003E-13));
#1432=CARTESIAN_POINT('Origin',(-45.0000000000001,4.19027857192558E-14,
18.));
#1433=CARTESIAN_POINT('',(-45.0000000000001,4.16333634234434E-14,13.6));
#1434=CARTESIAN_POINT('',(-43.,3.16598825434377E-14,13.6));
#1435=CARTESIAN_POINT('',(-45.0000000000001,4.16333634234434E-14,13.6));
#1436=CARTESIAN_POINT('',(-45.,1.39675952397519E-15,2.39999999999999));
#1437=CARTESIAN_POINT('',(-45.,-3.32905214714347E-28,-1.47842508927003E-13));
#1438=CARTESIAN_POINT('',(-43.,1.39675952397519E-15,2.39999999999999));
#1439=CARTESIAN_POINT('',(-43.,0.,2.39999999999999));
#1440=CARTESIAN_POINT('',(-43.0000000000001,4.19027857192558E-14,18.));
#1441=CARTESIAN_POINT('Origin',(-45.,-1.04520324233037E-31,-1.47842508927003E-13));
#1442=CARTESIAN_POINT('',(-45.0000000000001,90.,13.6));
#1443=CARTESIAN_POINT('',(-45.,90.,2.39999999999999));
#1444=CARTESIAN_POINT('Origin',(-43.,0.,-1.40859546249317E-13));
#1445=CARTESIAN_POINT('',(-43.,90.,13.6));
#1446=CARTESIAN_POINT('',(-43.,90.,2.39999999999999));
#1447=CARTESIAN_POINT('Origin',(45.0000000000001,90.,18.));
#1448=CARTESIAN_POINT('',(45.0000000000001,89.9999999999999,13.6));
#1449=CARTESIAN_POINT('',(43.,90.,13.6));
#1450=CARTESIAN_POINT('',(45.0000000000001,89.9999999999999,13.6));
#1451=CARTESIAN_POINT('',(45.,90.,2.39999999999999));
#1452=CARTESIAN_POINT('',(45.,90.,-1.47842508927003E-13));
#1453=CARTESIAN_POINT('',(43.,90.,2.39999999999999));
#1454=CARTESIAN_POINT('',(43.,90.,2.39999999999999));
#1455=CARTESIAN_POINT('',(43.0000000000001,90.,18.));
#1456=CARTESIAN_POINT('Origin',(45.,-1.04520324233037E-31,-6.98296267768629E-15));
#1457=CARTESIAN_POINT('',(45.0000000000001,6.56344573663455E-16,13.6));
#1458=CARTESIAN_POINT('',(43.,6.56344573663455E-16,13.6));
#1459=CARTESIAN_POINT('',(45.0000000000001,6.56344573663455E-16,13.6));
#1460=CARTESIAN_POINT('',(43.,0.,2.39999999999999));
#1461=CARTESIAN_POINT('',(43.,-6.59617233621797E-34,-4.40687737790617E-17));
#1462=CARTESIAN_POINT('',(45.,0.,2.39999999999999));
#1463=CARTESIAN_POINT('',(45.,3.59229727749888E-17,2.39999999999999));
#1464=CARTESIAN_POINT('',(45.,-2.21289267632117E-30,-1.47842508927003E-13));
#1465=CARTESIAN_POINT('Origin',(45.,-2.21289267632117E-30,-1.47842508927003E-13));
#1466=CARTESIAN_POINT('',(45.0000000000001,0.,13.6));
#1467=CARTESIAN_POINT('',(45.,1.34678238613434E-16,2.39999999999999));
#1468=CARTESIAN_POINT('Origin',(43.,-2.10837235208813E-30,-1.40859546249317E-13));
#1469=CARTESIAN_POINT('',(43.,0.,13.6));
#1470=CARTESIAN_POINT('',(43.,1.34678238613434E-16,2.39999999999999));
#1471=CARTESIAN_POINT('Origin',(40.6,90.,-2.));
#1472=CARTESIAN_POINT('',(-40.6,90.,-2.));
#1473=CARTESIAN_POINT('',(-40.6,1.39675952397519E-15,-2.));
#1474=CARTESIAN_POINT('',(-40.6,90.,-2.));
#1475=CARTESIAN_POINT('',(40.6,90.,-2.));
#1476=CARTESIAN_POINT('',(40.6,90.,-2.));
#1477=CARTESIAN_POINT('',(40.6,0.,-2.));
#1478=CARTESIAN_POINT('',(40.6,90.,-2.));
#1479=CARTESIAN_POINT('',(40.6,0.,-2.));
#1480=CARTESIAN_POINT('Origin',(40.6,90.,-1.34711147906209E-15));
#1481=CARTESIAN_POINT('',(-40.6,90.,-1.34711147906209E-15));
#1482=CARTESIAN_POINT('',(-40.6,0.,0.));
#1483=CARTESIAN_POINT('',(-40.6,90.,-1.34711147906209E-15));
#1484=CARTESIAN_POINT('',(40.6,0.,1.30104260698261E-15));
#1485=CARTESIAN_POINT('',(40.6,0.,0.));
#1486=CARTESIAN_POINT('',(40.6,90.,1.30104260698261E-15));
#1487=CARTESIAN_POINT('',(40.6,90.,-1.34711147906209E-15));
#1488=CARTESIAN_POINT('',(40.6,90.,-1.34711147906209E-15));
#1489=CARTESIAN_POINT('Origin',(40.6,0.,-2.));
#1490=CARTESIAN_POINT('',(-40.6,0.,-2.));
#1491=CARTESIAN_POINT('',(40.6,0.,-2.));
#1492=CARTESIAN_POINT('Origin',(40.6,90.,-1.34711147906209E-15));
#1493=CARTESIAN_POINT('',(-40.6,90.,-1.34711147906209E-15));
#1494=CARTESIAN_POINT('',(40.6,90.,-1.34711147906209E-15));
#1495=CARTESIAN_POINT('Origin',(40.6,0.,2.4));
#1496=CARTESIAN_POINT('Origin',(40.6,0.,2.4));
#1497=CARTESIAN_POINT('Origin',(40.6,0.,2.4));
#1498=CARTESIAN_POINT('Origin',(40.6,90.,2.4));
#1499=CARTESIAN_POINT('Origin',(40.6,90.,2.4));
#1500=CARTESIAN_POINT('Origin',(40.6,90.,2.4));
#1501=CARTESIAN_POINT('Origin',(40.6,90.,2.4));
#1502=CARTESIAN_POINT('Origin',(40.6,90.,2.4));
#1503=CARTESIAN_POINT('Origin',(-40.6,90.,2.4));
#1504=CARTESIAN_POINT('Origin',(-40.6,90.,2.4));
#1505=CARTESIAN_POINT('Origin',(-40.6,90.,2.4));
#1506=CARTESIAN_POINT('Origin',(-40.6,1.39675952397519E-15,2.4));
#1507=CARTESIAN_POINT('Origin',(-40.6,1.39675952397519E-15,2.4));
#1508=CARTESIAN_POINT('Origin',(-40.6,1.39675952397519E-15,2.4));
#1509=CARTESIAN_POINT('Origin',(-40.6,0.,2.4));
#1510=CARTESIAN_POINT('Origin',(-40.6,0.,2.4));
#1511=CARTESIAN_POINT('Origin',(47.4,89.9999999999999,13.6));
#1512=CARTESIAN_POINT('',(47.4,89.9999999999999,16.));
#1513=CARTESIAN_POINT('',(47.4,89.9999999999999,18.));
#1514=CARTESIAN_POINT('',(47.4,89.9999999999999,18.));
#1515=CARTESIAN_POINT('Origin',(47.4,89.9999999999999,13.6));
#1516=CARTESIAN_POINT('Origin',(47.4,89.9999999999999,13.6));
#1517=CARTESIAN_POINT('Origin',(47.4,6.56344573663455E-16,13.6));
#1518=CARTESIAN_POINT('',(47.4,6.56344573663455E-16,16.));
#1519=CARTESIAN_POINT('Origin',(47.4,6.56344573663455E-16,13.6));
#1520=CARTESIAN_POINT('',(47.4,6.56344573663455E-16,18.));
#1521=CARTESIAN_POINT('',(47.4,0.,16.));
#1522=CARTESIAN_POINT('Origin',(47.4,6.56344573663455E-16,13.6));
#1523=CARTESIAN_POINT('Origin',(47.4,0.,13.6));
#1524=CARTESIAN_POINT('',(47.4,89.9999999999999,18.));
#1525=CARTESIAN_POINT('Origin',(47.4,0.,13.6));
#1526=CARTESIAN_POINT('',(47.4,89.9999999999999,16.));
#1527=CARTESIAN_POINT('Origin',(73.0000000000001,2.77555756156289E-14,18.));
#1528=CARTESIAN_POINT('',(52.3380962103095,7.47285220695988E-15,16.));
#1529=CARTESIAN_POINT('',(73.0000000000001,2.77555756156289E-14,16.));
#1530=CARTESIAN_POINT('',(52.3380962103095,7.47285220695988E-15,18.));
#1531=CARTESIAN_POINT('',(52.3380962103095,7.47285220695988E-15,18.));
#1532=CARTESIAN_POINT('',(-6.98296267768622E-15,-4.39047526824641E-14,18.));
#1533=CARTESIAN_POINT('Origin',(45.0000000000001,89.9999999999999,18.));
#1534=CARTESIAN_POINT('',(50.7924077994388,89.9999999999999,18.));
#1535=CARTESIAN_POINT('',(-6.98296267768627E-15,89.9999999999999,18.));
#1536=CARTESIAN_POINT('',(50.7924077994388,89.9999999999999,16.));
#1537=CARTESIAN_POINT('',(50.7924077994388,89.9999999999999,18.));
#1538=CARTESIAN_POINT('',(45.0000000000001,89.9999999999999,16.));
#1539=CARTESIAN_POINT('Origin',(-6.98296267768627E-15,0.,18.));
#1540=CARTESIAN_POINT('',(60.9130254674349,4.85504244572475,18.));
#1541=CARTESIAN_POINT('Origin',(52.3380962103095,10.,18.));
#1542=CARTESIAN_POINT('',(71.5749292571255,22.6248820952091,18.));
#1543=CARTESIAN_POINT('',(73.0000000000001,25.,18.));
#1544=CARTESIAN_POINT('',(73.0000000000001,27.7698396494843,18.));
#1545=CARTESIAN_POINT('Origin',(63.0000000000001,27.7698396494843,18.));
#1546=CARTESIAN_POINT('',(73.0000000000001,43.3772233983162,18.));
#1547=CARTESIAN_POINT('',(73.0000000000001,0.,18.));
#1548=CARTESIAN_POINT('',(72.4868329805052,46.5395010584846,18.));
#1549=CARTESIAN_POINT('Origin',(63.0000000000001,43.3772233983162,18.));
#1550=CARTESIAN_POINT('',(60.2792407799439,83.1622776601683,18.));
#1551=CARTESIAN_POINT('',(58.0000000000001,89.9999999999999,18.));
#1552=CARTESIAN_POINT('Origin',(50.7924077994388,79.9999999999999,18.));
#1553=CARTESIAN_POINT('Origin',(-6.93889390390723E-15,0.,16.));
#1554=CARTESIAN_POINT('',(60.9130254674349,4.85504244572475,16.));
#1555=CARTESIAN_POINT('',(71.5749292571255,22.6248820952091,16.));
#1556=CARTESIAN_POINT('',(73.0000000000001,25.,16.));
#1557=CARTESIAN_POINT('Origin',(52.3380962103095,10.,16.));
#1558=CARTESIAN_POINT('',(60.2792407799439,83.1622776601683,16.));
#1559=CARTESIAN_POINT('Origin',(50.7924077994388,79.9999999999999,16.));
#1560=CARTESIAN_POINT('',(72.4868329805052,46.5395010584846,16.));
#1561=CARTESIAN_POINT('',(58.0000000000001,89.9999999999999,16.));
#1562=CARTESIAN_POINT('',(73.0000000000001,43.3772233983162,16.));
#1563=CARTESIAN_POINT('Origin',(63.0000000000001,43.3772233983162,16.));
#1564=CARTESIAN_POINT('',(73.0000000000001,27.7698396494843,16.));
#1565=CARTESIAN_POINT('',(73.0000000000001,89.9999999999999,16.));
#1566=CARTESIAN_POINT('Origin',(63.0000000000001,27.7698396494843,16.));
#1567=CARTESIAN_POINT('Origin',(73.0000000000001,89.9999999999999,18.));
#1568=CARTESIAN_POINT('',(73.0000000000001,27.7698396494843,18.));
#1569=CARTESIAN_POINT('',(73.0000000000001,43.3772233983162,18.));
#1570=CARTESIAN_POINT('Origin',(-47.4,4.16333634234434E-14,13.6));
#1571=CARTESIAN_POINT('',(-47.4,4.16333634234434E-14,16.));
#1572=CARTESIAN_POINT('',(-47.4,4.16333634234434E-14,18.));
#1573=CARTESIAN_POINT('',(-47.4,3.81879538938053E-14,18.));
#1574=CARTESIAN_POINT('Origin',(-47.4,4.16333634234434E-14,13.6));
#1575=CARTESIAN_POINT('Origin',(-47.4,4.16333634234434E-14,13.6));
#1576=CARTESIAN_POINT('Origin',(-47.4,90.,13.6));
#1577=CARTESIAN_POINT('',(-47.4,90.,16.));
#1578=CARTESIAN_POINT('Origin',(-47.4,90.,13.6));
#1579=CARTESIAN_POINT('',(-47.4,90.,18.));
#1580=CARTESIAN_POINT('',(-47.4,90.,16.));
#1581=CARTESIAN_POINT('Origin',(-47.4,90.,13.6));
#1582=CARTESIAN_POINT('Origin',(-47.4,90.,13.6));
#1583=CARTESIAN_POINT('',(-47.4,2.08840208310284E-14,18.));
#1584=CARTESIAN_POINT('Origin',(-47.4,90.,13.6));
#1585=CARTESIAN_POINT('',(-47.4,2.08840208310284E-14,16.));
#1586=CARTESIAN_POINT('Origin',(-73.0000000000001,90.,18.));
#1587=CARTESIAN_POINT('',(-50.7924077994388,90.,16.));
#1588=CARTESIAN_POINT('',(-73.0000000000001,90.,16.));
#1589=CARTESIAN_POINT('',(-50.7924077994388,90.,18.));
#1590=CARTESIAN_POINT('',(-50.7924077994388,90.,18.));
#1591=CARTESIAN_POINT('',(6.98296267768627E-15,90.,18.));
#1592=CARTESIAN_POINT('Origin',(-45.0000000000001,4.17680745713496E-14,
18.));
#1593=CARTESIAN_POINT('',(-52.3380962103095,3.08217120812088E-14,18.));
#1594=CARTESIAN_POINT('',(6.9829626776861E-15,1.08895337275304E-13,18.));
#1595=CARTESIAN_POINT('',(-52.3380962103095,3.08217120812088E-14,16.));
#1596=CARTESIAN_POINT('',(-52.3380962103095,3.08217120812088E-14,18.));
#1597=CARTESIAN_POINT('',(-45.0000000000001,4.17680745713496E-14,16.));
#1598=CARTESIAN_POINT('Origin',(6.98296267768627E-15,0.,18.));
#1599=CARTESIAN_POINT('',(-60.2792407799439,83.1622776601684,18.));
#1600=CARTESIAN_POINT('',(-72.4868329805052,46.5395010584846,18.));
#1601=CARTESIAN_POINT('',(-58.0000000000001,89.9999999999999,18.));
#1602=CARTESIAN_POINT('',(-73.0000000000001,43.3772233983162,18.));
#1603=CARTESIAN_POINT('Origin',(-63.0000000000001,43.3772233983162,18.));
#1604=CARTESIAN_POINT('',(-73.0000000000001,27.7698396494843,18.));
#1605=CARTESIAN_POINT('',(-73.0000000000001,0.,18.));
#1606=CARTESIAN_POINT('',(-71.5749292571255,22.6248820952091,18.));
#1607=CARTESIAN_POINT('Origin',(-63.0000000000001,27.7698396494843,18.));
#1608=CARTESIAN_POINT('',(-60.9130254674349,4.85504244572477,18.));
#1609=CARTESIAN_POINT('',(-73.0000000000001,25.,18.));
#1610=CARTESIAN_POINT('Origin',(-52.3380962103095,10.,18.));
#1611=CARTESIAN_POINT('Origin',(-50.7924077994388,80.,18.));
#1612=CARTESIAN_POINT('Origin',(6.93889390390723E-15,0.,16.));
#1613=CARTESIAN_POINT('',(-73.0000000000001,43.3772233983162,16.));
#1614=CARTESIAN_POINT('',(-73.0000000000001,27.7698396494843,16.));
#1615=CARTESIAN_POINT('',(-73.0000000000001,0.,16.));
#1616=CARTESIAN_POINT('',(-72.4868329805052,46.5395010584846,16.));
#1617=CARTESIAN_POINT('Origin',(-63.0000000000001,43.3772233983162,16.));
#1618=CARTESIAN_POINT('',(-60.2792407799439,83.1622776601684,16.));
#1619=CARTESIAN_POINT('',(-58.0000000000001,89.9999999999999,16.));
#1620=CARTESIAN_POINT('Origin',(-50.7924077994388,80.,16.));
#1621=CARTESIAN_POINT('',(-60.9130254674349,4.85504244572477,16.));
#1622=CARTESIAN_POINT('Origin',(-52.3380962103095,10.,16.));
#1623=CARTESIAN_POINT('',(-71.5749292571255,22.6248820952091,16.));
#1624=CARTESIAN_POINT('',(-73.0000000000001,25.,16.));
#1625=CARTESIAN_POINT('Origin',(-63.0000000000001,27.7698396494843,16.));
#1626=CARTESIAN_POINT('Origin',(-73.0000000000001,0.,18.));
#1627=CARTESIAN_POINT('',(-73.0000000000001,43.3772233983162,18.));
#1628=CARTESIAN_POINT('',(-73.0000000000001,27.7698396494843,18.));
#1629=CARTESIAN_POINT('Origin',(-73.0000000000001,25.,18.));
#1630=CARTESIAN_POINT('',(-71.5749292571255,22.6248820952091,18.));
#1631=CARTESIAN_POINT('',(-60.9130254674349,4.85504244572477,18.));
#1632=CARTESIAN_POINT('Origin',(-58.0000000000001,89.9999999999999,18.));
#1633=CARTESIAN_POINT('',(-72.4868329805052,46.5395010584846,18.));
#1634=CARTESIAN_POINT('',(-60.2792407799439,83.1622776601684,18.));
#1635=CARTESIAN_POINT('Origin',(58.0000000000001,89.9999999999999,18.));
#1636=CARTESIAN_POINT('',(72.4868329805052,46.5395010584846,18.));
#1637=CARTESIAN_POINT('',(60.2792407799439,83.1622776601683,18.));
#1638=CARTESIAN_POINT('Origin',(73.0000000000001,25.,18.));
#1639=CARTESIAN_POINT('',(60.9130254674349,4.85504244572474,18.));
#1640=CARTESIAN_POINT('',(71.5749292571255,22.6248820952091,18.));
#1641=CARTESIAN_POINT('Origin',(-63.0000000000001,43.3772233983162,18.));
#1642=CARTESIAN_POINT('Origin',(-50.7924077994388,80.,18.));
#1643=CARTESIAN_POINT('Origin',(-63.0000000000001,27.7698396494843,18.));
#1644=CARTESIAN_POINT('Origin',(-52.3380962103095,10.,18.));
#1645=CARTESIAN_POINT('Origin',(52.3380962103095,10.,18.));
#1646=CARTESIAN_POINT('Origin',(63.0000000000001,27.7698396494843,18.));
#1647=CARTESIAN_POINT('Origin',(63.0000000000001,43.3772233983162,18.));
#1648=CARTESIAN_POINT('Origin',(50.7924077994388,79.9999999999999,18.));
#1649=UNCERTAINTY_MEASURE_WITH_UNIT(LENGTH_MEASURE(0.01),#1653,
'DISTANCE_ACCURACY_VALUE',
'Maximum model space distance between geometric entities at asserted c
onnectivities');
#1650=UNCERTAINTY_MEASURE_WITH_UNIT(LENGTH_MEASURE(0.01),#1653,
'DISTANCE_ACCURACY_VALUE',
'Maximum model space distance between geometric entities at asserted c
onnectivities');
#1651=(
GEOMETRIC_REPRESENTATION_CONTEXT(3)
GLOBAL_UNCERTAINTY_ASSIGNED_CONTEXT((#1649))
GLOBAL_UNIT_ASSIGNED_CONTEXT((#1653,#1655,#1656))
REPRESENTATION_CONTEXT('','3D')
);
#1652=(
GEOMETRIC_REPRESENTATION_CONTEXT(3)
GLOBAL_UNCERTAINTY_ASSIGNED_CONTEXT((#1650))
GLOBAL_UNIT_ASSIGNED_CONTEXT((#1653,#1655,#1656))
REPRESENTATION_CONTEXT('','3D')
);
#1653=(
LENGTH_UNIT()
NAMED_UNIT(*)
SI_UNIT(.MILLI.,.METRE.)
);
#1654=(
LENGTH_UNIT()
NAMED_UNIT(*)
SI_UNIT($,.METRE.)
);
#1655=(
NAMED_UNIT(*)
PLANE_ANGLE_UNIT()
SI_UNIT($,.RADIAN.)
);
#1656=(
NAMED_UNIT(*)
SI_UNIT($,.STERADIAN.)
SOLID_ANGLE_UNIT()
);
#1657=SHAPE_DEFINITION_REPRESENTATION(#1658,#1659);
#1658=PRODUCT_DEFINITION_SHAPE('',$,#1661);
#1659=SHAPE_REPRESENTATION('',(#981),#1651);
#1660=PRODUCT_DEFINITION_CONTEXT('part definition',#1665,'design');
#1661=PRODUCT_DEFINITION('MMP.03.00.00.003 Motor bracket',
'Motor bracket v1',#1662,#1660);
#1662=PRODUCT_DEFINITION_FORMATION('',$,#1667);
#1663=PRODUCT_RELATED_PRODUCT_CATEGORY('Motor bracket v1',
'Motor bracket v1',(#1667));
#1664=APPLICATION_PROTOCOL_DEFINITION('international standard',
'automotive_design',2009,#1665);
#1665=APPLICATION_CONTEXT(
'Core Data for Automotive Mechanical Design Process');
#1666=PRODUCT_CONTEXT('part definition',#1665,'mechanical');
#1667=PRODUCT('MMP.03.00.00.003 Motor bracket','Motor bracket v1',
'STEP AP203',(#1666));
#1668=PRESENTATION_STYLE_ASSIGNMENT((#1669));
#1669=SURFACE_STYLE_USAGE(.BOTH.,#1670);
#1670=SURFACE_SIDE_STYLE('',(#1671));
#1671=SURFACE_STYLE_FILL_AREA(#1672);
#1672=FILL_AREA_STYLE('Steel - Satin',(#1673));
#1673=FILL_AREA_STYLE_COLOUR('Steel - Satin',#1674);
#1674=COLOUR_RGB('Steel - Satin',0.627450980392157,0.627450980392157,0.627450980392157);
ENDSEC;
END-ISO-10303-21;
