ISO-10303-21;
HEADER;
/* Generated by software containing ST-Developer
 * from STEP Tools, Inc. (www.steptools.com) 
 */

FILE_DESCRIPTION(
/* description */ ('STEP AP203'),
/* implementation_level */ '2;1');

FILE_NAME(
/* name */ 'Adapter.step',
/* time_stamp */ '2026-07-23T10:32:51+08:00',
/* author */ (''),
/* organization */ (''),
/* preprocessor_version */ 'ST-DEVELOPER v20.1',
/* originating_system */ 'Autodesk Translation Framework v15.8.0.0',
/* authorisation */ '');

FILE_SCHEMA (('AUTOMOTIVE_DESIGN { 1 0 10303 214 3 1 1 }'));
ENDSEC;

DATA;
#10=MECHANICAL_DESIGN_GEOMETRIC_PRESENTATION_REPRESENTATION('',(#13),#285);
#11=SHAPE_REPRESENTATION_RELATIONSHIP('SRR','None',#292,#12);
#12=ADVANCED_BREP_SHAPE_REPRESENTATION('',(#14),#284);
#13=STYLED_ITEM('',(#301),#14);
#14=MANIFOLD_SOLID_BREP('Body1',#153);
#15=FACE_BOUND('',#42,.T.);
#16=FACE_BOUND('',#44,.T.);
#17=FACE_BOUND('',#46,.T.);
#18=FACE_BOUND('',#48,.T.);
#19=PLANE('',#185);
#20=PLANE('',#186);
#21=PLANE('',#187);
#22=PLANE('',#188);
#23=CONICAL_SURFACE('',#170,3.15000000000002,0.785398163397449);
#24=CONICAL_SURFACE('',#174,7.7820508075689,0.261799387799147);
#25=FACE_OUTER_BOUND('',#35,.T.);
#26=FACE_OUTER_BOUND('',#36,.T.);
#27=FACE_OUTER_BOUND('',#37,.T.);
#28=FACE_OUTER_BOUND('',#38,.T.);
#29=FACE_OUTER_BOUND('',#39,.T.);
#30=FACE_OUTER_BOUND('',#40,.T.);
#31=FACE_OUTER_BOUND('',#41,.T.);
#32=FACE_OUTER_BOUND('',#43,.T.);
#33=FACE_OUTER_BOUND('',#45,.T.);
#34=FACE_OUTER_BOUND('',#47,.T.);
#35=EDGE_LOOP('',(#103,#104,#105,#106));
#36=EDGE_LOOP('',(#107,#108,#109,#110,#111));
#37=EDGE_LOOP('',(#112,#113,#114,#115,#116));
#38=EDGE_LOOP('',(#117,#118,#119,#120,#121));
#39=EDGE_LOOP('',(#122,#123,#124,#125));
#40=EDGE_LOOP('',(#126,#127,#128,#129,#130));
#41=EDGE_LOOP('',(#131));
#42=EDGE_LOOP('',(#132));
#43=EDGE_LOOP('',(#133));
#44=EDGE_LOOP('',(#134));
#45=EDGE_LOOP('',(#135));
#46=EDGE_LOOP('',(#136));
#47=EDGE_LOOP('',(#137));
#48=EDGE_LOOP('',(#138));
#49=LINE('',#246,#55);
#50=LINE('',#254,#56);
#51=LINE('',#262,#57);
#52=LINE('',#266,#58);
#53=LINE('',#272,#59);
#54=LINE('',#276,#60);
#55=VECTOR('',#195,2.15000000000001);
#56=VECTOR('',#204,3.15000000000002);
#57=VECTOR('',#213,7.7820508075689);
#58=VECTOR('',#218,2.95000000000001);
#59=VECTOR('',#225,6.00000000000003);
#60=VECTOR('',#230,8.05000000000004);
#61=CIRCLE('',#168,2.15000000000001);
#62=CIRCLE('',#169,2.15000000000001);
#63=CIRCLE('',#171,2.95000000000001);
#64=CIRCLE('',#172,2.95000000000001);
#65=CIRCLE('',#173,3.15000000000002);
#66=CIRCLE('',#175,8.05000000000004);
#67=CIRCLE('',#176,8.05000000000004);
#68=CIRCLE('',#177,7.7820508075689);
#69=CIRCLE('',#179,2.95000000000001);
#70=CIRCLE('',#181,6.00000000000003);
#71=CIRCLE('',#182,6.00000000000003);
#72=CIRCLE('',#184,8.05000000000004);
#73=VERTEX_POINT('',#243);
#74=VERTEX_POINT('',#245);
#75=VERTEX_POINT('',#249);
#76=VERTEX_POINT('',#250);
#77=VERTEX_POINT('',#253);
#78=VERTEX_POINT('',#257);
#79=VERTEX_POINT('',#258);
#80=VERTEX_POINT('',#261);
#81=VERTEX_POINT('',#265);
#82=VERTEX_POINT('',#269);
#83=VERTEX_POINT('',#271);
#84=VERTEX_POINT('',#275);
#85=EDGE_CURVE('',#73,#73,#61,.T.);
#86=EDGE_CURVE('',#73,#74,#49,.T.);
#87=EDGE_CURVE('',#74,#74,#62,.T.);
#88=EDGE_CURVE('',#75,#76,#63,.T.);
#89=EDGE_CURVE('',#76,#75,#64,.T.);
#90=EDGE_CURVE('',#76,#77,#50,.T.);
#91=EDGE_CURVE('',#77,#77,#65,.T.);
#92=EDGE_CURVE('',#78,#79,#66,.T.);
#93=EDGE_CURVE('',#79,#78,#67,.T.);
#94=EDGE_CURVE('',#79,#80,#51,.T.);
#95=EDGE_CURVE('',#80,#80,#68,.T.);
#96=EDGE_CURVE('',#75,#81,#52,.T.);
#97=EDGE_CURVE('',#81,#81,#69,.T.);
#98=EDGE_CURVE('',#82,#82,#70,.T.);
#99=EDGE_CURVE('',#82,#83,#53,.T.);
#100=EDGE_CURVE('',#83,#83,#71,.T.);
#101=EDGE_CURVE('',#78,#84,#54,.T.);
#102=EDGE_CURVE('',#84,#84,#72,.T.);
#103=ORIENTED_EDGE('',*,*,#85,.F.);
#104=ORIENTED_EDGE('',*,*,#86,.T.);
#105=ORIENTED_EDGE('',*,*,#87,.T.);
#106=ORIENTED_EDGE('',*,*,#86,.F.);
#107=ORIENTED_EDGE('',*,*,#88,.F.);
#108=ORIENTED_EDGE('',*,*,#89,.F.);
#109=ORIENTED_EDGE('',*,*,#90,.T.);
#110=ORIENTED_EDGE('',*,*,#91,.F.);
#111=ORIENTED_EDGE('',*,*,#90,.F.);
#112=ORIENTED_EDGE('',*,*,#92,.F.);
#113=ORIENTED_EDGE('',*,*,#93,.F.);
#114=ORIENTED_EDGE('',*,*,#94,.T.);
#115=ORIENTED_EDGE('',*,*,#95,.F.);
#116=ORIENTED_EDGE('',*,*,#94,.F.);
#117=ORIENTED_EDGE('',*,*,#88,.T.);
#118=ORIENTED_EDGE('',*,*,#89,.T.);
#119=ORIENTED_EDGE('',*,*,#96,.T.);
#120=ORIENTED_EDGE('',*,*,#97,.T.);
#121=ORIENTED_EDGE('',*,*,#96,.F.);
#122=ORIENTED_EDGE('',*,*,#98,.F.);
#123=ORIENTED_EDGE('',*,*,#99,.T.);
#124=ORIENTED_EDGE('',*,*,#100,.T.);
#125=ORIENTED_EDGE('',*,*,#99,.F.);
#126=ORIENTED_EDGE('',*,*,#92,.T.);
#127=ORIENTED_EDGE('',*,*,#93,.T.);
#128=ORIENTED_EDGE('',*,*,#101,.T.);
#129=ORIENTED_EDGE('',*,*,#102,.T.);
#130=ORIENTED_EDGE('',*,*,#101,.F.);
#131=ORIENTED_EDGE('',*,*,#95,.T.);
#132=ORIENTED_EDGE('',*,*,#87,.F.);
#133=ORIENTED_EDGE('',*,*,#102,.F.);
#134=ORIENTED_EDGE('',*,*,#98,.T.);
#135=ORIENTED_EDGE('',*,*,#100,.F.);
#136=ORIENTED_EDGE('',*,*,#91,.T.);
#137=ORIENTED_EDGE('',*,*,#97,.F.);
#138=ORIENTED_EDGE('',*,*,#85,.T.);
#139=CYLINDRICAL_SURFACE('',#167,2.15000000000001);
#140=CYLINDRICAL_SURFACE('',#178,2.95000000000001);
#141=CYLINDRICAL_SURFACE('',#180,6.00000000000003);
#142=CYLINDRICAL_SURFACE('',#183,8.05000000000004);
#143=ADVANCED_FACE('',(#25),#139,.F.);
#144=ADVANCED_FACE('',(#26),#23,.F.);
#145=ADVANCED_FACE('',(#27),#24,.T.);
#146=ADVANCED_FACE('',(#28),#140,.F.);
#147=ADVANCED_FACE('',(#29),#141,.T.);
#148=ADVANCED_FACE('',(#30),#142,.T.);
#149=ADVANCED_FACE('',(#31,#15),#19,.F.);
#150=ADVANCED_FACE('',(#32,#16),#20,.F.);
#151=ADVANCED_FACE('',(#33,#17),#21,.F.);
#152=ADVANCED_FACE('',(#34,#18),#22,.F.);
#153=CLOSED_SHELL('',(#143,#144,#145,#146,#147,#148,#149,#150,#151,#152));
#154=DERIVED_UNIT_ELEMENT(#156,1.);
#155=DERIVED_UNIT_ELEMENT(#287,-3.);
#156=(
MASS_UNIT()
NAMED_UNIT(*)
SI_UNIT(.KILO.,.GRAM.)
);
#157=DERIVED_UNIT((#154,#155));
#158=MEASURE_REPRESENTATION_ITEM('density measure',
POSITIVE_RATIO_MEASURE(7850.),#157);
#159=PROPERTY_DEFINITION_REPRESENTATION(#164,#161);
#160=PROPERTY_DEFINITION_REPRESENTATION(#165,#162);
#161=REPRESENTATION('material name',(#163),#284);
#162=REPRESENTATION('density',(#158),#284);
#163=DESCRIPTIVE_REPRESENTATION_ITEM('Steel','Steel');
#164=PROPERTY_DEFINITION('material property','material name',#294);
#165=PROPERTY_DEFINITION('material property','density of part',#294);
#166=AXIS2_PLACEMENT_3D('',#241,#189,#190);
#167=AXIS2_PLACEMENT_3D('',#242,#191,#192);
#168=AXIS2_PLACEMENT_3D('',#244,#193,#194);
#169=AXIS2_PLACEMENT_3D('',#247,#196,#197);
#170=AXIS2_PLACEMENT_3D('',#248,#198,#199);
#171=AXIS2_PLACEMENT_3D('',#251,#200,#201);
#172=AXIS2_PLACEMENT_3D('',#252,#202,#203);
#173=AXIS2_PLACEMENT_3D('',#255,#205,#206);
#174=AXIS2_PLACEMENT_3D('',#256,#207,#208);
#175=AXIS2_PLACEMENT_3D('',#259,#209,#210);
#176=AXIS2_PLACEMENT_3D('',#260,#211,#212);
#177=AXIS2_PLACEMENT_3D('',#263,#214,#215);
#178=AXIS2_PLACEMENT_3D('',#264,#216,#217);
#179=AXIS2_PLACEMENT_3D('',#267,#219,#220);
#180=AXIS2_PLACEMENT_3D('',#268,#221,#222);
#181=AXIS2_PLACEMENT_3D('',#270,#223,#224);
#182=AXIS2_PLACEMENT_3D('',#273,#226,#227);
#183=AXIS2_PLACEMENT_3D('',#274,#228,#229);
#184=AXIS2_PLACEMENT_3D('',#277,#231,#232);
#185=AXIS2_PLACEMENT_3D('',#278,#233,#234);
#186=AXIS2_PLACEMENT_3D('',#279,#235,#236);
#187=AXIS2_PLACEMENT_3D('',#280,#237,#238);
#188=AXIS2_PLACEMENT_3D('',#281,#239,#240);
#189=DIRECTION('axis',(0.,0.,1.));
#190=DIRECTION('refdir',(1.,0.,0.));
#191=DIRECTION('center_axis',(-1.,-1.23259516440783E-31,1.67632942359465E-30));
#192=DIRECTION('ref_axis',(1.67632942359465E-30,7.49011457173507E-31,1.));
#193=DIRECTION('center_axis',(-1.,-1.23259516440783E-31,1.67632942359465E-30));
#194=DIRECTION('ref_axis',(1.67632942359465E-30,7.49011457173507E-31,1.));
#195=DIRECTION('',(-1.,-1.23259516440783E-31,1.67632942359465E-30));
#196=DIRECTION('center_axis',(-1.,-1.23259516440783E-31,1.67632942359465E-30));
#197=DIRECTION('ref_axis',(1.67632942359465E-30,7.49011457173507E-31,1.));
#198=DIRECTION('center_axis',(1.,1.23259516440783E-31,-1.67632942359465E-30));
#199=DIRECTION('ref_axis',(-1.67632942359465E-30,-7.49011457173507E-31,
-1.));
#200=DIRECTION('center_axis',(1.,1.23259516440783E-31,-1.67632942359465E-30));
#201=DIRECTION('ref_axis',(1.67632942359465E-30,7.49011457173507E-31,1.));
#202=DIRECTION('center_axis',(1.,1.23259516440783E-31,-1.67632942359465E-30));
#203=DIRECTION('ref_axis',(1.67632942359465E-30,7.49011457173507E-31,1.));
#204=DIRECTION('',(0.707106781186547,-8.65956056235488E-17,0.707106781186548));
#205=DIRECTION('center_axis',(-1.,-1.23259516440783E-31,1.67632942359465E-30));
#206=DIRECTION('ref_axis',(1.67632942359465E-30,7.49011457173507E-31,1.));
#207=DIRECTION('center_axis',(1.,1.23259516440783E-31,-1.67632942359465E-30));
#208=DIRECTION('ref_axis',(-1.67632942359465E-30,-7.49011457173507E-31,
-1.));
#209=DIRECTION('center_axis',(1.,1.23259516440783E-31,-1.67632942359465E-30));
#210=DIRECTION('ref_axis',(-1.67632942359465E-30,-7.49011457173507E-31,
-1.));
#211=DIRECTION('center_axis',(1.,1.23259516440783E-31,-1.67632942359465E-30));
#212=DIRECTION('ref_axis',(-1.67632942359465E-30,-7.49011457173507E-31,
-1.));
#213=DIRECTION('',(-0.965925826289069,3.1696191514317E-17,-0.258819045102518));
#214=DIRECTION('center_axis',(-1.,-1.23259516440783E-31,1.67632942359465E-30));
#215=DIRECTION('ref_axis',(-1.67632942359465E-30,-7.49011457173507E-31,
-1.));
#216=DIRECTION('center_axis',(-1.,-1.23259516440783E-31,1.67632942359465E-30));
#217=DIRECTION('ref_axis',(1.67632942359465E-30,7.49011457173507E-31,1.));
#218=DIRECTION('',(-1.,-1.23259516440783E-31,1.67632942359465E-30));
#219=DIRECTION('center_axis',(-1.,-1.23259516440783E-31,1.67632942359465E-30));
#220=DIRECTION('ref_axis',(1.67632942359465E-30,7.49011457173507E-31,1.));
#221=DIRECTION('center_axis',(-1.,-1.23259516440783E-31,1.67632942359465E-30));
#222=DIRECTION('ref_axis',(1.67632942359465E-30,7.49011457173507E-31,1.));
#223=DIRECTION('center_axis',(-1.,-1.23259516440783E-31,1.67632942359465E-30));
#224=DIRECTION('ref_axis',(1.67632942359465E-30,7.49011457173507E-31,1.));
#225=DIRECTION('',(1.,1.23259516440783E-31,-1.67632942359465E-30));
#226=DIRECTION('center_axis',(-1.,-1.23259516440783E-31,1.67632942359465E-30));
#227=DIRECTION('ref_axis',(1.67632942359465E-30,7.49011457173507E-31,1.));
#228=DIRECTION('center_axis',(-1.,-1.23259516440783E-31,1.67632942359465E-30));
#229=DIRECTION('ref_axis',(1.67632942359465E-30,7.49011457173507E-31,1.));
#230=DIRECTION('',(1.,1.23259516440783E-31,-1.67632942359465E-30));
#231=DIRECTION('center_axis',(-1.,-1.23259516440783E-31,1.67632942359465E-30));
#232=DIRECTION('ref_axis',(1.67632942359465E-30,7.49011457173507E-31,1.));
#233=DIRECTION('center_axis',(1.,1.23259516440783E-31,1.67632942359464E-30));
#234=DIRECTION('ref_axis',(1.67632942359464E-30,-7.49011457173507E-31,-1.));
#235=DIRECTION('center_axis',(-1.,-1.23259516440783E-31,-1.67632942359464E-30));
#236=DIRECTION('ref_axis',(-1.67632942359464E-30,7.49011457173507E-31,1.));
#237=DIRECTION('center_axis',(-1.,-1.23259516440783E-31,-1.67632942359464E-30));
#238=DIRECTION('ref_axis',(-1.67632942359464E-30,7.49011457173507E-31,1.));
#239=DIRECTION('center_axis',(-1.,-1.23259516440783E-31,-1.67632942359464E-30));
#240=DIRECTION('ref_axis',(-1.67632942359464E-30,7.49011457173507E-31,1.));
#241=CARTESIAN_POINT('',(0.,0.,0.));
#242=CARTESIAN_POINT('Origin',(0.,0.,0.));
#243=CARTESIAN_POINT('',(11.5,-2.63299061816682E-16,-2.15000000000001));
#244=CARTESIAN_POINT('Origin',(11.5,0.,2.77555756156289E-13));
#245=CARTESIAN_POINT('',(-3.60410826072851E-30,-2.63299061816683E-16,-2.15000000000001));
#246=CARTESIAN_POINT('',(-3.60410826072851E-30,-2.63299061816683E-16,-2.15000000000001));
#247=CARTESIAN_POINT('Origin',(0.,0.,0.));
#248=CARTESIAN_POINT('Origin',(14.,0.,2.77555756156289E-13));
#249=CARTESIAN_POINT('',(13.8,3.61270805748452E-16,-2.94999999999972));
#250=CARTESIAN_POINT('',(13.8,-3.6127080574847E-16,2.9500000000003));
#251=CARTESIAN_POINT('Origin',(13.8,0.,2.77555756156289E-13));
#252=CARTESIAN_POINT('Origin',(13.8,0.,2.77555756156289E-13));
#253=CARTESIAN_POINT('',(14.,-3.85763741731416E-16,3.1500000000003));
#254=CARTESIAN_POINT('',(14.,-3.85763741731416E-16,3.15000000000029));
#255=CARTESIAN_POINT('Origin',(14.,0.,2.77555756156289E-13));
#256=CARTESIAN_POINT('Origin',(0.,0.,0.));
#257=CARTESIAN_POINT('',(1.00000000000011,9.85840673313615E-16,-8.05));
#258=CARTESIAN_POINT('',(1.00000000000011,-9.85840673313619E-16,8.05000000000005));
#259=CARTESIAN_POINT('Origin',(1.00000000000011,0.,0.));
#260=CARTESIAN_POINT('Origin',(1.00000000000011,0.,0.));
#261=CARTESIAN_POINT('',(1.29869247104971E-29,-9.53026361229127E-16,7.7820508075689));
#262=CARTESIAN_POINT('',(1.30452807446363E-29,-9.53026361229127E-16,7.7820508075689));
#263=CARTESIAN_POINT('Origin',(0.,0.,0.));
#264=CARTESIAN_POINT('Origin',(-5.88192419825073,0.,0.));
#265=CARTESIAN_POINT('',(11.5,-3.61270805748471E-16,-2.95000000000001));
#266=CARTESIAN_POINT('',(-5.88192419825073,-3.61270805748473E-16,-2.95000000000001));
#267=CARTESIAN_POINT('Origin',(11.5,0.,2.77555756156289E-13));
#268=CARTESIAN_POINT('Origin',(-5.88192419825073,0.,0.));
#269=CARTESIAN_POINT('',(10.5,-7.34788079488418E-16,-6.00000000000003));
#270=CARTESIAN_POINT('Origin',(10.5,0.,2.77555756156289E-13));
#271=CARTESIAN_POINT('',(14.,-7.34788079488417E-16,-6.00000000000003));
#272=CARTESIAN_POINT('',(-5.88192419825073,-7.3478807948842E-16,-6.00000000000003));
#273=CARTESIAN_POINT('Origin',(14.,0.,2.77555756156289E-13));
#274=CARTESIAN_POINT('Origin',(-5.88192419825073,0.,0.));
#275=CARTESIAN_POINT('',(10.5,-9.85840673313628E-16,-8.05000000000004));
#276=CARTESIAN_POINT('',(-5.88192419825073,-9.8584067331363E-16,-8.05000000000004));
#277=CARTESIAN_POINT('Origin',(10.5,0.,2.77555756156289E-13));
#278=CARTESIAN_POINT('Origin',(0.,0.,0.));
#279=CARTESIAN_POINT('Origin',(10.5,8.04999999999985,0.));
#280=CARTESIAN_POINT('Origin',(14.,2.95000000000001,0.));
#281=CARTESIAN_POINT('Origin',(11.5,2.94999999999999,0.));
#282=UNCERTAINTY_MEASURE_WITH_UNIT(LENGTH_MEASURE(0.01),#286,
'DISTANCE_ACCURACY_VALUE',
'Maximum model space distance between geometric entities at asserted c
onnectivities');
#283=UNCERTAINTY_MEASURE_WITH_UNIT(LENGTH_MEASURE(0.01),#286,
'DISTANCE_ACCURACY_VALUE',
'Maximum model space distance between geometric entities at asserted c
onnectivities');
#284=(
GEOMETRIC_REPRESENTATION_CONTEXT(3)
GLOBAL_UNCERTAINTY_ASSIGNED_CONTEXT((#282))
GLOBAL_UNIT_ASSIGNED_CONTEXT((#286,#288,#289))
REPRESENTATION_CONTEXT('','3D')
);
#285=(
GEOMETRIC_REPRESENTATION_CONTEXT(3)
GLOBAL_UNCERTAINTY_ASSIGNED_CONTEXT((#283))
GLOBAL_UNIT_ASSIGNED_CONTEXT((#286,#288,#289))
REPRESENTATION_CONTEXT('','3D')
);
#286=(
LENGTH_UNIT()
NAMED_UNIT(*)
SI_UNIT(.MILLI.,.METRE.)
);
#287=(
LENGTH_UNIT()
NAMED_UNIT(*)
SI_UNIT($,.METRE.)
);
#288=(
NAMED_UNIT(*)
PLANE_ANGLE_UNIT()
SI_UNIT($,.RADIAN.)
);
#289=(
NAMED_UNIT(*)
SI_UNIT($,.STERADIAN.)
SOLID_ANGLE_UNIT()
);
#290=SHAPE_DEFINITION_REPRESENTATION(#291,#292);
#291=PRODUCT_DEFINITION_SHAPE('',$,#294);
#292=SHAPE_REPRESENTATION('',(#166),#284);
#293=PRODUCT_DEFINITION_CONTEXT('part definition',#298,'design');
#294=PRODUCT_DEFINITION('PT1.00.00.241 Adapter','Adapter v1',#295,#293);
#295=PRODUCT_DEFINITION_FORMATION('',$,#300);
#296=PRODUCT_RELATED_PRODUCT_CATEGORY('Adapter v1','Adapter v1',(#300));
#297=APPLICATION_PROTOCOL_DEFINITION('international standard',
'automotive_design',2009,#298);
#298=APPLICATION_CONTEXT(
'Core Data for Automotive Mechanical Design Process');
#299=PRODUCT_CONTEXT('part definition',#298,'mechanical');
#300=PRODUCT('PT1.00.00.241 Adapter','Adapter v1','STEP AP203',(#299));
#301=PRESENTATION_STYLE_ASSIGNMENT((#302));
#302=SURFACE_STYLE_USAGE(.BOTH.,#303);
#303=SURFACE_SIDE_STYLE('',(#304));
#304=SURFACE_STYLE_FILL_AREA(#305);
#305=FILL_AREA_STYLE('Steel - Satin',(#306));
#306=FILL_AREA_STYLE_COLOUR('Steel - Satin',#307);
#307=COLOUR_RGB('Steel - Satin',0.627450980392157,0.627450980392157,0.627450980392157);
ENDSEC;
END-ISO-10303-21;
