ISO-10303-21;
HEADER;
/* Generated by software containing ST-Developer
 * from STEP Tools, Inc. (www.steptools.com) 
 */

FILE_DESCRIPTION(
/* description */ ('STEP AP203'),
/* implementation_level */ '2;1');

FILE_NAME(
/* name */ 'Side_Cover.step',
/* time_stamp */ '2026-07-23T10:34:06+08:00',
/* author */ (''),
/* organization */ (''),
/* preprocessor_version */ 'ST-DEVELOPER v20.1',
/* originating_system */ 'Autodesk Translation Framework v15.8.0.0',
/* authorisation */ '');

FILE_SCHEMA (('AUTOMOTIVE_DESIGN { 1 0 10303 214 3 1 1 }'));
ENDSEC;

DATA;
#10=MECHANICAL_DESIGN_GEOMETRIC_PRESENTATION_REPRESENTATION('',(#13),#759);
#11=SHAPE_REPRESENTATION_RELATIONSHIP('SRR','None',#766,#12);
#12=ADVANCED_BREP_SHAPE_REPRESENTATION('',(#14),#758);
#13=STYLED_ITEM('',(#775),#14);
#14=MANIFOLD_SOLID_BREP('Body1',#459);
#15=FACE_BOUND('',#77,.T.);
#16=FACE_BOUND('',#78,.T.);
#17=FACE_BOUND('',#81,.T.);
#18=FACE_BOUND('',#82,.T.);
#19=FACE_BOUND('',#83,.T.);
#20=FACE_BOUND('',#84,.T.);
#21=FACE_BOUND('',#87,.T.);
#22=FACE_BOUND('',#88,.T.);
#23=FACE_BOUND('',#91,.T.);
#24=FACE_BOUND('',#92,.T.);
#25=FACE_BOUND('',#95,.T.);
#26=FACE_BOUND('',#96,.T.);
#27=FACE_BOUND('',#97,.T.);
#28=FACE_BOUND('',#98,.T.);
#29=FACE_BOUND('',#101,.T.);
#30=FACE_BOUND('',#102,.T.);
#31=PLANE('',#497);
#32=PLANE('',#498);
#33=PLANE('',#499);
#34=PLANE('',#500);
#35=PLANE('',#501);
#36=PLANE('',#502);
#37=PLANE('',#503);
#38=PLANE('',#504);
#39=PLANE('',#505);
#40=PLANE('',#506);
#41=PLANE('',#507);
#42=PLANE('',#508);
#43=PLANE('',#509);
#44=PLANE('',#510);
#45=FACE_OUTER_BOUND('',#67,.T.);
#46=FACE_OUTER_BOUND('',#68,.T.);
#47=FACE_OUTER_BOUND('',#69,.T.);
#48=FACE_OUTER_BOUND('',#70,.T.);
#49=FACE_OUTER_BOUND('',#71,.T.);
#50=FACE_OUTER_BOUND('',#72,.T.);
#51=FACE_OUTER_BOUND('',#73,.T.);
#52=FACE_OUTER_BOUND('',#74,.T.);
#53=FACE_OUTER_BOUND('',#75,.T.);
#54=FACE_OUTER_BOUND('',#76,.T.);
#55=FACE_OUTER_BOUND('',#79,.T.);
#56=FACE_OUTER_BOUND('',#80,.T.);
#57=FACE_OUTER_BOUND('',#85,.T.);
#58=FACE_OUTER_BOUND('',#86,.T.);
#59=FACE_OUTER_BOUND('',#89,.T.);
#60=FACE_OUTER_BOUND('',#90,.T.);
#61=FACE_OUTER_BOUND('',#93,.T.);
#62=FACE_OUTER_BOUND('',#94,.T.);
#63=FACE_OUTER_BOUND('',#99,.T.);
#64=FACE_OUTER_BOUND('',#100,.T.);
#65=FACE_OUTER_BOUND('',#103,.T.);
#66=FACE_OUTER_BOUND('',#104,.T.);
#67=EDGE_LOOP('',(#309,#310,#311,#312));
#68=EDGE_LOOP('',(#313,#314,#315,#316));
#69=EDGE_LOOP('',(#317,#318,#319,#320));
#70=EDGE_LOOP('',(#321,#322,#323,#324));
#71=EDGE_LOOP('',(#325,#326,#327,#328));
#72=EDGE_LOOP('',(#329,#330,#331,#332));
#73=EDGE_LOOP('',(#333,#334,#335,#336));
#74=EDGE_LOOP('',(#337,#338,#339,#340));
#75=EDGE_LOOP('',(#341,#342,#343,#344));
#76=EDGE_LOOP('',(#345,#346,#347,#348));
#77=EDGE_LOOP('',(#349));
#78=EDGE_LOOP('',(#350));
#79=EDGE_LOOP('',(#351,#352,#353,#354));
#80=EDGE_LOOP('',(#355,#356,#357,#358));
#81=EDGE_LOOP('',(#359));
#82=EDGE_LOOP('',(#360));
#83=EDGE_LOOP('',(#361));
#84=EDGE_LOOP('',(#362));
#85=EDGE_LOOP('',(#363,#364,#365,#366));
#86=EDGE_LOOP('',(#367,#368,#369,#370));
#87=EDGE_LOOP('',(#371));
#88=EDGE_LOOP('',(#372));
#89=EDGE_LOOP('',(#373,#374,#375,#376));
#90=EDGE_LOOP('',(#377,#378,#379,#380));
#91=EDGE_LOOP('',(#381));
#92=EDGE_LOOP('',(#382));
#93=EDGE_LOOP('',(#383,#384,#385,#386));
#94=EDGE_LOOP('',(#387,#388,#389,#390));
#95=EDGE_LOOP('',(#391));
#96=EDGE_LOOP('',(#392));
#97=EDGE_LOOP('',(#393));
#98=EDGE_LOOP('',(#394));
#99=EDGE_LOOP('',(#395,#396,#397,#398));
#100=EDGE_LOOP('',(#399,#400,#401,#402));
#101=EDGE_LOOP('',(#403));
#102=EDGE_LOOP('',(#404));
#103=EDGE_LOOP('',(#405,#406,#407,#408,#409,#410,#411,#412,#413,#414,#415,
#416));
#104=EDGE_LOOP('',(#417,#418,#419,#420,#421,#422,#423,#424,#425,#426,#427,
#428));
#105=LINE('',#638,#149);
#106=LINE('',#644,#150);
#107=LINE('',#650,#151);
#108=LINE('',#656,#152);
#109=LINE('',#662,#153);
#110=LINE('',#668,#154);
#111=LINE('',#674,#155);
#112=LINE('',#680,#156);
#113=LINE('',#685,#157);
#114=LINE('',#687,#158);
#115=LINE('',#689,#159);
#116=LINE('',#690,#160);
#117=LINE('',#693,#161);
#118=LINE('',#695,#162);
#119=LINE('',#696,#163);
#120=LINE('',#699,#164);
#121=LINE('',#701,#165);
#122=LINE('',#702,#166);
#123=LINE('',#705,#167);
#124=LINE('',#707,#168);
#125=LINE('',#708,#169);
#126=LINE('',#711,#170);
#127=LINE('',#713,#171);
#128=LINE('',#714,#172);
#129=LINE('',#717,#173);
#130=LINE('',#719,#174);
#131=LINE('',#720,#175);
#132=LINE('',#723,#176);
#133=LINE('',#725,#177);
#134=LINE('',#726,#178);
#135=LINE('',#729,#179);
#136=LINE('',#731,#180);
#137=LINE('',#732,#181);
#138=LINE('',#735,#182);
#139=LINE('',#737,#183);
#140=LINE('',#738,#184);
#141=LINE('',#741,#185);
#142=LINE('',#743,#186);
#143=LINE('',#744,#187);
#144=LINE('',#747,#188);
#145=LINE('',#749,#189);
#146=LINE('',#750,#190);
#147=LINE('',#752,#191);
#148=LINE('',#753,#192);
#149=VECTOR('',#517,2.20000000000001);
#150=VECTOR('',#524,2.20000000000001);
#151=VECTOR('',#531,2.20000000000001);
#152=VECTOR('',#538,2.20000000000001);
#153=VECTOR('',#545,1.2);
#154=VECTOR('',#552,1.2);
#155=VECTOR('',#559,1.2);
#156=VECTOR('',#566,1.2);
#157=VECTOR('',#571,1000.);
#158=VECTOR('',#572,1000.);
#159=VECTOR('',#573,1000.);
#160=VECTOR('',#574,1000.);
#161=VECTOR('',#577,1000.);
#162=VECTOR('',#578,1000.);
#163=VECTOR('',#579,1000.);
#164=VECTOR('',#582,1000.);
#165=VECTOR('',#583,1000.);
#166=VECTOR('',#584,1000.);
#167=VECTOR('',#587,1000.);
#168=VECTOR('',#588,1000.);
#169=VECTOR('',#589,1000.);
#170=VECTOR('',#592,1000.);
#171=VECTOR('',#593,1000.);
#172=VECTOR('',#594,1000.);
#173=VECTOR('',#597,1000.);
#174=VECTOR('',#598,1000.);
#175=VECTOR('',#599,1000.);
#176=VECTOR('',#602,1000.);
#177=VECTOR('',#603,1000.);
#178=VECTOR('',#604,1000.);
#179=VECTOR('',#607,1000.);
#180=VECTOR('',#608,1000.);
#181=VECTOR('',#609,1000.);
#182=VECTOR('',#612,1000.);
#183=VECTOR('',#613,1000.);
#184=VECTOR('',#614,1000.);
#185=VECTOR('',#617,1000.);
#186=VECTOR('',#618,1000.);
#187=VECTOR('',#619,1000.);
#188=VECTOR('',#622,1000.);
#189=VECTOR('',#623,1000.);
#190=VECTOR('',#624,1000.);
#191=VECTOR('',#627,1000.);
#192=VECTOR('',#628,1000.);
#193=CIRCLE('',#474,2.20000000000001);
#194=CIRCLE('',#475,2.20000000000001);
#195=CIRCLE('',#477,2.20000000000001);
#196=CIRCLE('',#478,2.20000000000001);
#197=CIRCLE('',#480,2.20000000000001);
#198=CIRCLE('',#481,2.20000000000001);
#199=CIRCLE('',#483,2.20000000000001);
#200=CIRCLE('',#484,2.20000000000001);
#201=CIRCLE('',#486,1.2);
#202=CIRCLE('',#487,1.2);
#203=CIRCLE('',#489,1.2);
#204=CIRCLE('',#490,1.2);
#205=CIRCLE('',#492,1.2);
#206=CIRCLE('',#493,1.2);
#207=CIRCLE('',#495,1.2);
#208=CIRCLE('',#496,1.2);
#209=VERTEX_POINT('',#635);
#210=VERTEX_POINT('',#637);
#211=VERTEX_POINT('',#641);
#212=VERTEX_POINT('',#643);
#213=VERTEX_POINT('',#647);
#214=VERTEX_POINT('',#649);
#215=VERTEX_POINT('',#653);
#216=VERTEX_POINT('',#655);
#217=VERTEX_POINT('',#659);
#218=VERTEX_POINT('',#661);
#219=VERTEX_POINT('',#665);
#220=VERTEX_POINT('',#667);
#221=VERTEX_POINT('',#671);
#222=VERTEX_POINT('',#673);
#223=VERTEX_POINT('',#677);
#224=VERTEX_POINT('',#679);
#225=VERTEX_POINT('',#683);
#226=VERTEX_POINT('',#684);
#227=VERTEX_POINT('',#686);
#228=VERTEX_POINT('',#688);
#229=VERTEX_POINT('',#692);
#230=VERTEX_POINT('',#694);
#231=VERTEX_POINT('',#698);
#232=VERTEX_POINT('',#700);
#233=VERTEX_POINT('',#704);
#234=VERTEX_POINT('',#706);
#235=VERTEX_POINT('',#710);
#236=VERTEX_POINT('',#712);
#237=VERTEX_POINT('',#716);
#238=VERTEX_POINT('',#718);
#239=VERTEX_POINT('',#722);
#240=VERTEX_POINT('',#724);
#241=VERTEX_POINT('',#728);
#242=VERTEX_POINT('',#730);
#243=VERTEX_POINT('',#734);
#244=VERTEX_POINT('',#736);
#245=VERTEX_POINT('',#740);
#246=VERTEX_POINT('',#742);
#247=VERTEX_POINT('',#746);
#248=VERTEX_POINT('',#748);
#249=EDGE_CURVE('',#209,#209,#193,.T.);
#250=EDGE_CURVE('',#209,#210,#105,.T.);
#251=EDGE_CURVE('',#210,#210,#194,.T.);
#252=EDGE_CURVE('',#211,#211,#195,.T.);
#253=EDGE_CURVE('',#211,#212,#106,.T.);
#254=EDGE_CURVE('',#212,#212,#196,.T.);
#255=EDGE_CURVE('',#213,#213,#197,.T.);
#256=EDGE_CURVE('',#213,#214,#107,.T.);
#257=EDGE_CURVE('',#214,#214,#198,.T.);
#258=EDGE_CURVE('',#215,#215,#199,.T.);
#259=EDGE_CURVE('',#215,#216,#108,.T.);
#260=EDGE_CURVE('',#216,#216,#200,.T.);
#261=EDGE_CURVE('',#217,#217,#201,.T.);
#262=EDGE_CURVE('',#217,#218,#109,.T.);
#263=EDGE_CURVE('',#218,#218,#202,.T.);
#264=EDGE_CURVE('',#219,#219,#203,.T.);
#265=EDGE_CURVE('',#219,#220,#110,.T.);
#266=EDGE_CURVE('',#220,#220,#204,.T.);
#267=EDGE_CURVE('',#221,#221,#205,.T.);
#268=EDGE_CURVE('',#221,#222,#111,.T.);
#269=EDGE_CURVE('',#222,#222,#206,.T.);
#270=EDGE_CURVE('',#223,#223,#207,.T.);
#271=EDGE_CURVE('',#223,#224,#112,.T.);
#272=EDGE_CURVE('',#224,#224,#208,.T.);
#273=EDGE_CURVE('',#225,#226,#113,.T.);
#274=EDGE_CURVE('',#227,#226,#114,.T.);
#275=EDGE_CURVE('',#228,#227,#115,.T.);
#276=EDGE_CURVE('',#228,#225,#116,.T.);
#277=EDGE_CURVE('',#226,#229,#117,.T.);
#278=EDGE_CURVE('',#230,#229,#118,.T.);
#279=EDGE_CURVE('',#227,#230,#119,.T.);
#280=EDGE_CURVE('',#229,#231,#120,.T.);
#281=EDGE_CURVE('',#232,#231,#121,.T.);
#282=EDGE_CURVE('',#230,#232,#122,.T.);
#283=EDGE_CURVE('',#231,#233,#123,.T.);
#284=EDGE_CURVE('',#234,#233,#124,.T.);
#285=EDGE_CURVE('',#232,#234,#125,.T.);
#286=EDGE_CURVE('',#233,#235,#126,.T.);
#287=EDGE_CURVE('',#236,#235,#127,.T.);
#288=EDGE_CURVE('',#234,#236,#128,.T.);
#289=EDGE_CURVE('',#235,#237,#129,.T.);
#290=EDGE_CURVE('',#238,#237,#130,.T.);
#291=EDGE_CURVE('',#236,#238,#131,.T.);
#292=EDGE_CURVE('',#237,#239,#132,.T.);
#293=EDGE_CURVE('',#240,#239,#133,.T.);
#294=EDGE_CURVE('',#238,#240,#134,.T.);
#295=EDGE_CURVE('',#239,#241,#135,.T.);
#296=EDGE_CURVE('',#242,#241,#136,.T.);
#297=EDGE_CURVE('',#240,#242,#137,.T.);
#298=EDGE_CURVE('',#241,#243,#138,.T.);
#299=EDGE_CURVE('',#244,#243,#139,.T.);
#300=EDGE_CURVE('',#242,#244,#140,.T.);
#301=EDGE_CURVE('',#243,#245,#141,.T.);
#302=EDGE_CURVE('',#246,#245,#142,.T.);
#303=EDGE_CURVE('',#244,#246,#143,.T.);
#304=EDGE_CURVE('',#245,#247,#144,.T.);
#305=EDGE_CURVE('',#248,#247,#145,.T.);
#306=EDGE_CURVE('',#246,#248,#146,.T.);
#307=EDGE_CURVE('',#247,#225,#147,.T.);
#308=EDGE_CURVE('',#248,#228,#148,.T.);
#309=ORIENTED_EDGE('',*,*,#249,.T.);
#310=ORIENTED_EDGE('',*,*,#250,.T.);
#311=ORIENTED_EDGE('',*,*,#251,.T.);
#312=ORIENTED_EDGE('',*,*,#250,.F.);
#313=ORIENTED_EDGE('',*,*,#252,.T.);
#314=ORIENTED_EDGE('',*,*,#253,.T.);
#315=ORIENTED_EDGE('',*,*,#254,.T.);
#316=ORIENTED_EDGE('',*,*,#253,.F.);
#317=ORIENTED_EDGE('',*,*,#255,.T.);
#318=ORIENTED_EDGE('',*,*,#256,.T.);
#319=ORIENTED_EDGE('',*,*,#257,.T.);
#320=ORIENTED_EDGE('',*,*,#256,.F.);
#321=ORIENTED_EDGE('',*,*,#258,.T.);
#322=ORIENTED_EDGE('',*,*,#259,.T.);
#323=ORIENTED_EDGE('',*,*,#260,.T.);
#324=ORIENTED_EDGE('',*,*,#259,.F.);
#325=ORIENTED_EDGE('',*,*,#261,.F.);
#326=ORIENTED_EDGE('',*,*,#262,.T.);
#327=ORIENTED_EDGE('',*,*,#263,.F.);
#328=ORIENTED_EDGE('',*,*,#262,.F.);
#329=ORIENTED_EDGE('',*,*,#264,.F.);
#330=ORIENTED_EDGE('',*,*,#265,.T.);
#331=ORIENTED_EDGE('',*,*,#266,.F.);
#332=ORIENTED_EDGE('',*,*,#265,.F.);
#333=ORIENTED_EDGE('',*,*,#267,.F.);
#334=ORIENTED_EDGE('',*,*,#268,.T.);
#335=ORIENTED_EDGE('',*,*,#269,.F.);
#336=ORIENTED_EDGE('',*,*,#268,.F.);
#337=ORIENTED_EDGE('',*,*,#270,.F.);
#338=ORIENTED_EDGE('',*,*,#271,.T.);
#339=ORIENTED_EDGE('',*,*,#272,.F.);
#340=ORIENTED_EDGE('',*,*,#271,.F.);
#341=ORIENTED_EDGE('',*,*,#273,.T.);
#342=ORIENTED_EDGE('',*,*,#274,.F.);
#343=ORIENTED_EDGE('',*,*,#275,.F.);
#344=ORIENTED_EDGE('',*,*,#276,.T.);
#345=ORIENTED_EDGE('',*,*,#277,.T.);
#346=ORIENTED_EDGE('',*,*,#278,.F.);
#347=ORIENTED_EDGE('',*,*,#279,.F.);
#348=ORIENTED_EDGE('',*,*,#274,.T.);
#349=ORIENTED_EDGE('',*,*,#263,.T.);
#350=ORIENTED_EDGE('',*,*,#266,.T.);
#351=ORIENTED_EDGE('',*,*,#280,.T.);
#352=ORIENTED_EDGE('',*,*,#281,.F.);
#353=ORIENTED_EDGE('',*,*,#282,.F.);
#354=ORIENTED_EDGE('',*,*,#278,.T.);
#355=ORIENTED_EDGE('',*,*,#283,.T.);
#356=ORIENTED_EDGE('',*,*,#284,.F.);
#357=ORIENTED_EDGE('',*,*,#285,.F.);
#358=ORIENTED_EDGE('',*,*,#281,.T.);
#359=ORIENTED_EDGE('',*,*,#258,.F.);
#360=ORIENTED_EDGE('',*,*,#249,.F.);
#361=ORIENTED_EDGE('',*,*,#252,.F.);
#362=ORIENTED_EDGE('',*,*,#255,.F.);
#363=ORIENTED_EDGE('',*,*,#286,.T.);
#364=ORIENTED_EDGE('',*,*,#287,.F.);
#365=ORIENTED_EDGE('',*,*,#288,.F.);
#366=ORIENTED_EDGE('',*,*,#284,.T.);
#367=ORIENTED_EDGE('',*,*,#289,.T.);
#368=ORIENTED_EDGE('',*,*,#290,.F.);
#369=ORIENTED_EDGE('',*,*,#291,.F.);
#370=ORIENTED_EDGE('',*,*,#287,.T.);
#371=ORIENTED_EDGE('',*,*,#269,.T.);
#372=ORIENTED_EDGE('',*,*,#272,.T.);
#373=ORIENTED_EDGE('',*,*,#292,.T.);
#374=ORIENTED_EDGE('',*,*,#293,.F.);
#375=ORIENTED_EDGE('',*,*,#294,.F.);
#376=ORIENTED_EDGE('',*,*,#290,.T.);
#377=ORIENTED_EDGE('',*,*,#295,.T.);
#378=ORIENTED_EDGE('',*,*,#296,.F.);
#379=ORIENTED_EDGE('',*,*,#297,.F.);
#380=ORIENTED_EDGE('',*,*,#293,.T.);
#381=ORIENTED_EDGE('',*,*,#267,.T.);
#382=ORIENTED_EDGE('',*,*,#270,.T.);
#383=ORIENTED_EDGE('',*,*,#298,.T.);
#384=ORIENTED_EDGE('',*,*,#299,.F.);
#385=ORIENTED_EDGE('',*,*,#300,.F.);
#386=ORIENTED_EDGE('',*,*,#296,.T.);
#387=ORIENTED_EDGE('',*,*,#301,.T.);
#388=ORIENTED_EDGE('',*,*,#302,.F.);
#389=ORIENTED_EDGE('',*,*,#303,.F.);
#390=ORIENTED_EDGE('',*,*,#299,.T.);
#391=ORIENTED_EDGE('',*,*,#260,.F.);
#392=ORIENTED_EDGE('',*,*,#257,.F.);
#393=ORIENTED_EDGE('',*,*,#254,.F.);
#394=ORIENTED_EDGE('',*,*,#251,.F.);
#395=ORIENTED_EDGE('',*,*,#304,.T.);
#396=ORIENTED_EDGE('',*,*,#305,.F.);
#397=ORIENTED_EDGE('',*,*,#306,.F.);
#398=ORIENTED_EDGE('',*,*,#302,.T.);
#399=ORIENTED_EDGE('',*,*,#307,.T.);
#400=ORIENTED_EDGE('',*,*,#276,.F.);
#401=ORIENTED_EDGE('',*,*,#308,.F.);
#402=ORIENTED_EDGE('',*,*,#305,.T.);
#403=ORIENTED_EDGE('',*,*,#261,.T.);
#404=ORIENTED_EDGE('',*,*,#264,.T.);
#405=ORIENTED_EDGE('',*,*,#275,.T.);
#406=ORIENTED_EDGE('',*,*,#279,.T.);
#407=ORIENTED_EDGE('',*,*,#282,.T.);
#408=ORIENTED_EDGE('',*,*,#285,.T.);
#409=ORIENTED_EDGE('',*,*,#288,.T.);
#410=ORIENTED_EDGE('',*,*,#291,.T.);
#411=ORIENTED_EDGE('',*,*,#294,.T.);
#412=ORIENTED_EDGE('',*,*,#297,.T.);
#413=ORIENTED_EDGE('',*,*,#300,.T.);
#414=ORIENTED_EDGE('',*,*,#303,.T.);
#415=ORIENTED_EDGE('',*,*,#306,.T.);
#416=ORIENTED_EDGE('',*,*,#308,.T.);
#417=ORIENTED_EDGE('',*,*,#273,.F.);
#418=ORIENTED_EDGE('',*,*,#307,.F.);
#419=ORIENTED_EDGE('',*,*,#304,.F.);
#420=ORIENTED_EDGE('',*,*,#301,.F.);
#421=ORIENTED_EDGE('',*,*,#298,.F.);
#422=ORIENTED_EDGE('',*,*,#295,.F.);
#423=ORIENTED_EDGE('',*,*,#292,.F.);
#424=ORIENTED_EDGE('',*,*,#289,.F.);
#425=ORIENTED_EDGE('',*,*,#286,.F.);
#426=ORIENTED_EDGE('',*,*,#283,.F.);
#427=ORIENTED_EDGE('',*,*,#280,.F.);
#428=ORIENTED_EDGE('',*,*,#277,.F.);
#429=CYLINDRICAL_SURFACE('',#473,2.20000000000001);
#430=CYLINDRICAL_SURFACE('',#476,2.20000000000001);
#431=CYLINDRICAL_SURFACE('',#479,2.20000000000001);
#432=CYLINDRICAL_SURFACE('',#482,2.20000000000001);
#433=CYLINDRICAL_SURFACE('',#485,1.2);
#434=CYLINDRICAL_SURFACE('',#488,1.2);
#435=CYLINDRICAL_SURFACE('',#491,1.2);
#436=CYLINDRICAL_SURFACE('',#494,1.2);
#437=ADVANCED_FACE('',(#45),#429,.F.);
#438=ADVANCED_FACE('',(#46),#430,.F.);
#439=ADVANCED_FACE('',(#47),#431,.F.);
#440=ADVANCED_FACE('',(#48),#432,.F.);
#441=ADVANCED_FACE('',(#49),#433,.F.);
#442=ADVANCED_FACE('',(#50),#434,.F.);
#443=ADVANCED_FACE('',(#51),#435,.F.);
#444=ADVANCED_FACE('',(#52),#436,.F.);
#445=ADVANCED_FACE('',(#53),#31,.F.);
#446=ADVANCED_FACE('',(#54,#15,#16),#32,.F.);
#447=ADVANCED_FACE('',(#55),#33,.F.);
#448=ADVANCED_FACE('',(#56,#17,#18,#19,#20),#34,.F.);
#449=ADVANCED_FACE('',(#57),#35,.F.);
#450=ADVANCED_FACE('',(#58,#21,#22),#36,.F.);
#451=ADVANCED_FACE('',(#59),#37,.F.);
#452=ADVANCED_FACE('',(#60,#23,#24),#38,.F.);
#453=ADVANCED_FACE('',(#61),#39,.F.);
#454=ADVANCED_FACE('',(#62,#25,#26,#27,#28),#40,.F.);
#455=ADVANCED_FACE('',(#63),#41,.F.);
#456=ADVANCED_FACE('',(#64,#29,#30),#42,.F.);
#457=ADVANCED_FACE('',(#65),#43,.F.);
#458=ADVANCED_FACE('',(#66),#44,.T.);
#459=CLOSED_SHELL('',(#437,#438,#439,#440,#441,#442,#443,#444,#445,#446,
#447,#448,#449,#450,#451,#452,#453,#454,#455,#456,#457,#458));
#460=DERIVED_UNIT_ELEMENT(#462,1.);
#461=DERIVED_UNIT_ELEMENT(#761,-3.);
#462=(
MASS_UNIT()
NAMED_UNIT(*)
SI_UNIT(.KILO.,.GRAM.)
);
#463=DERIVED_UNIT((#460,#461));
#464=MEASURE_REPRESENTATION_ITEM('density measure',
POSITIVE_RATIO_MEASURE(7850.),#463);
#465=PROPERTY_DEFINITION_REPRESENTATION(#470,#467);
#466=PROPERTY_DEFINITION_REPRESENTATION(#471,#468);
#467=REPRESENTATION('material name',(#469),#758);
#468=REPRESENTATION('density',(#464),#758);
#469=DESCRIPTIVE_REPRESENTATION_ITEM('Steel','Steel');
#470=PROPERTY_DEFINITION('material property','material name',#768);
#471=PROPERTY_DEFINITION('material property','density of part',#768);
#472=AXIS2_PLACEMENT_3D('',#633,#511,#512);
#473=AXIS2_PLACEMENT_3D('',#634,#513,#514);
#474=AXIS2_PLACEMENT_3D('',#636,#515,#516);
#475=AXIS2_PLACEMENT_3D('',#639,#518,#519);
#476=AXIS2_PLACEMENT_3D('',#640,#520,#521);
#477=AXIS2_PLACEMENT_3D('',#642,#522,#523);
#478=AXIS2_PLACEMENT_3D('',#645,#525,#526);
#479=AXIS2_PLACEMENT_3D('',#646,#527,#528);
#480=AXIS2_PLACEMENT_3D('',#648,#529,#530);
#481=AXIS2_PLACEMENT_3D('',#651,#532,#533);
#482=AXIS2_PLACEMENT_3D('',#652,#534,#535);
#483=AXIS2_PLACEMENT_3D('',#654,#536,#537);
#484=AXIS2_PLACEMENT_3D('',#657,#539,#540);
#485=AXIS2_PLACEMENT_3D('',#658,#541,#542);
#486=AXIS2_PLACEMENT_3D('',#660,#543,#544);
#487=AXIS2_PLACEMENT_3D('',#663,#546,#547);
#488=AXIS2_PLACEMENT_3D('',#664,#548,#549);
#489=AXIS2_PLACEMENT_3D('',#666,#550,#551);
#490=AXIS2_PLACEMENT_3D('',#669,#553,#554);
#491=AXIS2_PLACEMENT_3D('',#670,#555,#556);
#492=AXIS2_PLACEMENT_3D('',#672,#557,#558);
#493=AXIS2_PLACEMENT_3D('',#675,#560,#561);
#494=AXIS2_PLACEMENT_3D('',#676,#562,#563);
#495=AXIS2_PLACEMENT_3D('',#678,#564,#565);
#496=AXIS2_PLACEMENT_3D('',#681,#567,#568);
#497=AXIS2_PLACEMENT_3D('',#682,#569,#570);
#498=AXIS2_PLACEMENT_3D('',#691,#575,#576);
#499=AXIS2_PLACEMENT_3D('',#697,#580,#581);
#500=AXIS2_PLACEMENT_3D('',#703,#585,#586);
#501=AXIS2_PLACEMENT_3D('',#709,#590,#591);
#502=AXIS2_PLACEMENT_3D('',#715,#595,#596);
#503=AXIS2_PLACEMENT_3D('',#721,#600,#601);
#504=AXIS2_PLACEMENT_3D('',#727,#605,#606);
#505=AXIS2_PLACEMENT_3D('',#733,#610,#611);
#506=AXIS2_PLACEMENT_3D('',#739,#615,#616);
#507=AXIS2_PLACEMENT_3D('',#745,#620,#621);
#508=AXIS2_PLACEMENT_3D('',#751,#625,#626);
#509=AXIS2_PLACEMENT_3D('',#754,#629,#630);
#510=AXIS2_PLACEMENT_3D('',#755,#631,#632);
#511=DIRECTION('axis',(0.,0.,1.));
#512=DIRECTION('refdir',(1.,0.,0.));
#513=DIRECTION('center_axis',(-1.42580011724121E-16,1.,7.39557098644699E-32));
#514=DIRECTION('ref_axis',(-1.,-1.42580011724121E-16,-2.08679724462271E-51));
#515=DIRECTION('center_axis',(1.13752359080446E-16,-1.,-1.23259516440783E-32));
#516=DIRECTION('ref_axis',(-1.,-1.13752359080446E-16,-1.40210607742541E-48));
#517=DIRECTION('',(-1.42580011724121E-16,1.,7.39557098644699E-32));
#518=DIRECTION('center_axis',(-1.42580011724121E-16,1.,7.39557098644699E-32));
#519=DIRECTION('ref_axis',(-1.,-1.42580011724121E-16,-1.05446059795418E-47));
#520=DIRECTION('center_axis',(-1.42580011724121E-16,1.,7.39557098644699E-32));
#521=DIRECTION('ref_axis',(-1.,-1.42580011724121E-16,-2.08679724462271E-51));
#522=DIRECTION('center_axis',(1.13752359080446E-16,-1.,-1.23259516440783E-32));
#523=DIRECTION('ref_axis',(-1.,-1.13752359080446E-16,-1.40210607742541E-48));
#524=DIRECTION('',(-1.42580011724121E-16,1.,7.39557098644699E-32));
#525=DIRECTION('center_axis',(-1.42580011724121E-16,1.,7.39557098644699E-32));
#526=DIRECTION('ref_axis',(-1.,-1.42580011724121E-16,-1.05446059795418E-47));
#527=DIRECTION('center_axis',(-1.42580011724121E-16,1.,7.39557098644699E-32));
#528=DIRECTION('ref_axis',(-1.,-1.42580011724121E-16,-2.08679724462271E-51));
#529=DIRECTION('center_axis',(1.13752359080446E-16,-1.,-1.23259516440783E-32));
#530=DIRECTION('ref_axis',(-1.,-1.13752359080446E-16,-1.40210607742541E-48));
#531=DIRECTION('',(-1.42580011724121E-16,1.,7.39557098644699E-32));
#532=DIRECTION('center_axis',(-1.42580011724121E-16,1.,7.39557098644699E-32));
#533=DIRECTION('ref_axis',(-1.,-1.42580011724121E-16,-1.05446059795418E-47));
#534=DIRECTION('center_axis',(-1.42580011724121E-16,1.,7.39557098644699E-32));
#535=DIRECTION('ref_axis',(-1.,-1.42580011724121E-16,-2.08679724462271E-51));
#536=DIRECTION('center_axis',(1.13752359080446E-16,-1.,-1.23259516440783E-32));
#537=DIRECTION('ref_axis',(-1.,-1.13752359080446E-16,-1.40210607742541E-48));
#538=DIRECTION('',(-1.42580011724121E-16,1.,7.39557098644699E-32));
#539=DIRECTION('center_axis',(-1.42580011724121E-16,1.,7.39557098644699E-32));
#540=DIRECTION('ref_axis',(-1.,-1.42580011724121E-16,-1.05446059795418E-47));
#541=DIRECTION('center_axis',(2.46519032881566E-31,1.,1.23259516440783E-32));
#542=DIRECTION('ref_axis',(-3.03858167864314E-63,-1.23259516440783E-32,
1.));
#543=DIRECTION('center_axis',(2.46519032881566E-31,1.,1.23259516440783E-32));
#544=DIRECTION('ref_axis',(-3.03858167864314E-63,-1.23259516440783E-32,
1.));
#545=DIRECTION('',(2.46519032881566E-31,1.,1.23259516440783E-32));
#546=DIRECTION('center_axis',(-2.46519032881566E-31,-1.,-1.23259516440783E-32));
#547=DIRECTION('ref_axis',(3.03858167864314E-63,1.23259516440783E-32,-1.));
#548=DIRECTION('center_axis',(2.46519032881566E-31,1.,1.23259516440783E-32));
#549=DIRECTION('ref_axis',(-3.03858167864314E-63,-1.23259516440783E-32,
1.));
#550=DIRECTION('center_axis',(2.46519032881566E-31,1.,1.23259516440783E-32));
#551=DIRECTION('ref_axis',(-6.07716335728626E-63,-1.23259516440783E-32,
1.));
#552=DIRECTION('',(2.46519032881566E-31,1.,1.23259516440783E-32));
#553=DIRECTION('center_axis',(-2.46519032881566E-31,-1.,-1.23259516440783E-32));
#554=DIRECTION('ref_axis',(3.03858167864314E-63,1.23259516440783E-32,-1.));
#555=DIRECTION('center_axis',(2.46519032881566E-31,1.,1.23259516440783E-32));
#556=DIRECTION('ref_axis',(-3.03858167864314E-63,-1.23259516440783E-32,
1.));
#557=DIRECTION('center_axis',(2.46519032881566E-31,1.,1.23259516440783E-32));
#558=DIRECTION('ref_axis',(-3.03858167864314E-63,-1.23259516440783E-32,
1.));
#559=DIRECTION('',(2.46519032881566E-31,1.,1.23259516440783E-32));
#560=DIRECTION('center_axis',(2.89120579329469E-16,-1.,-1.23259516440783E-32));
#561=DIRECTION('ref_axis',(1.,2.89120579329469E-16,-8.90921570030708E-49));
#562=DIRECTION('center_axis',(2.46519032881566E-31,1.,1.23259516440783E-32));
#563=DIRECTION('ref_axis',(-3.03858167864314E-63,-1.23259516440783E-32,
1.));
#564=DIRECTION('center_axis',(2.46519032881566E-31,1.,1.23259516440783E-32));
#565=DIRECTION('ref_axis',(-3.03858167864314E-63,-1.23259516440783E-32,
1.));
#566=DIRECTION('',(2.46519032881566E-31,1.,1.23259516440783E-32));
#567=DIRECTION('center_axis',(2.89120579329469E-16,-1.,-1.23259516440783E-32));
#568=DIRECTION('ref_axis',(1.,2.89120579329469E-16,-8.90921570030708E-49));
#569=DIRECTION('center_axis',(-1.,-4.95635278850518E-16,-1.16045824520998E-30));
#570=DIRECTION('ref_axis',(4.95635278850518E-16,-1.,-1.23259516440783E-32));
#571=DIRECTION('',(-4.95635278850518E-16,1.,1.23259516440783E-32));
#572=DIRECTION('',(1.17506784196267E-30,-1.23259516440783E-32,-1.));
#573=DIRECTION('',(-4.95635278850518E-16,1.,1.23259516440783E-32));
#574=DIRECTION('',(1.17506784196267E-30,-1.23259516440783E-32,-1.));
#575=DIRECTION('center_axis',(-2.46519032881566E-31,-1.,1.23259516440783E-32));
#576=DIRECTION('ref_axis',(1.17506784196267E-30,-1.23259516440783E-32,-1.));
#577=DIRECTION('',(-1.,-2.95822839457878E-31,-1.19151487370035E-30));
#578=DIRECTION('',(1.17506784196267E-30,-1.23259516440783E-32,-1.));
#579=DIRECTION('',(-1.,-2.95822839457878E-31,-1.19151487370035E-30));
#580=DIRECTION('center_axis',(-1.,-2.95822839457878E-31,-1.17506784196267E-30));
#581=DIRECTION('ref_axis',(-1.17506784196267E-30,1.23259516440783E-32,1.));
#582=DIRECTION('',(2.46519032881566E-31,1.,1.23259516440783E-32));
#583=DIRECTION('',(1.17506784196267E-30,-1.23259516440783E-32,-1.));
#584=DIRECTION('',(2.46519032881566E-31,1.,1.23259516440783E-32));
#585=DIRECTION('center_axis',(-1.13752359080446E-16,1.,1.23259516440783E-32));
#586=DIRECTION('ref_axis',(-1.,-1.13752359080446E-16,-1.18438712289928E-30));
#587=DIRECTION('',(1.,1.13752359080446E-16,1.18438712289928E-30));
#588=DIRECTION('',(1.17506784196267E-30,-1.23259516440783E-32,-1.));
#589=DIRECTION('',(1.,1.13752359080446E-16,1.18438712289928E-30));
#590=DIRECTION('center_axis',(1.,2.95822839457878E-31,1.17506784196267E-30));
#591=DIRECTION('ref_axis',(1.17506784196267E-30,-1.23259516440783E-32,-1.));
#592=DIRECTION('',(-2.46519032881566E-31,-1.,-1.23259516440783E-32));
#593=DIRECTION('',(1.17506784196267E-30,-1.23259516440783E-32,-1.));
#594=DIRECTION('',(-2.46519032881566E-31,-1.,-1.23259516440783E-32));
#595=DIRECTION('center_axis',(2.89120579329467E-16,-1.,-1.23259516440783E-32));
#596=DIRECTION('ref_axis',(1.,2.89120579329467E-16,1.17339850708097E-30));
#597=DIRECTION('',(-1.,-2.89120579329467E-16,-1.17339850708097E-30));
#598=DIRECTION('',(1.17506784196267E-30,-1.23259516440783E-32,-1.));
#599=DIRECTION('',(-1.,-2.89120579329467E-16,-1.17339850708097E-30));
#600=DIRECTION('center_axis',(1.,4.95635278850518E-16,1.16045824520998E-30));
#601=DIRECTION('ref_axis',(-4.95635278850518E-16,1.,1.23259516440783E-32));
#602=DIRECTION('',(4.95635278850518E-16,-1.,-1.23259516440783E-32));
#603=DIRECTION('',(1.17506784196267E-30,-1.23259516440783E-32,-1.));
#604=DIRECTION('',(4.95635278850518E-16,-1.,-1.23259516440783E-32));
#605=DIRECTION('center_axis',(-1.29268273243331E-16,1.,1.23259516440783E-32));
#606=DIRECTION('ref_axis',(-1.,-1.29268273243331E-16,-1.18341489190119E-30));
#607=DIRECTION('',(1.,1.29268273243331E-16,1.18341489190119E-30));
#608=DIRECTION('',(1.17506784196267E-30,-1.23259516440783E-32,-1.));
#609=DIRECTION('',(1.,1.29268273243331E-16,1.18341489190119E-30));
#610=DIRECTION('center_axis',(-1.,-2.95822839457878E-31,-1.17506784196267E-30));
#611=DIRECTION('ref_axis',(-1.17506784196267E-30,1.23259516440783E-32,1.));
#612=DIRECTION('',(2.46519032881566E-31,1.,1.23259516440783E-32));
#613=DIRECTION('',(1.17506784196267E-30,-1.23259516440783E-32,-1.));
#614=DIRECTION('',(2.46519032881566E-31,1.,1.23259516440783E-32));
#615=DIRECTION('center_axis',(1.18816676436767E-16,-1.,-1.23259516440783E-32));
#616=DIRECTION('ref_axis',(1.,1.18816676436767E-16,1.184069791528E-30));
#617=DIRECTION('',(-1.,-1.18816676436767E-16,-1.184069791528E-30));
#618=DIRECTION('',(1.17506784196267E-30,-1.23259516440783E-32,-1.));
#619=DIRECTION('',(-1.,-1.18816676436767E-16,-1.184069791528E-30));
#620=DIRECTION('center_axis',(1.,2.95822839457878E-31,1.17506784196267E-30));
#621=DIRECTION('ref_axis',(1.17506784196267E-30,-1.23259516440783E-32,-1.));
#622=DIRECTION('',(-2.46519032881566E-31,-1.,-1.23259516440783E-32));
#623=DIRECTION('',(1.17506784196267E-30,-1.23259516440783E-32,-1.));
#624=DIRECTION('',(-2.46519032881566E-31,-1.,-1.23259516440783E-32));
#625=DIRECTION('center_axis',(-1.15661086586139E-16,1.,1.23259516440783E-32));
#626=DIRECTION('ref_axis',(-1.,-1.15661086586139E-16,-1.18426752156426E-30));
#627=DIRECTION('',(1.,1.15661086586139E-16,1.18426752156426E-30));
#628=DIRECTION('',(1.,1.15661086586139E-16,1.18426752156426E-30));
#629=DIRECTION('center_axis',(1.19151487370035E-30,-1.23259516440783E-32,
-1.));
#630=DIRECTION('ref_axis',(-1.,-2.95822839457878E-31,-1.19151487370035E-30));
#631=DIRECTION('center_axis',(1.19151487370035E-30,-1.23259516440783E-32,
-1.));
#632=DIRECTION('ref_axis',(-1.,-2.95822839457878E-31,-1.19151487370035E-30));
#633=CARTESIAN_POINT('',(0.,0.,0.));
#634=CARTESIAN_POINT('Origin',(11.9999999999999,-0.000999999998974044,-6.00000000000028));
#635=CARTESIAN_POINT('',(14.1999999999999,6.00000000000106,-6.00000000000028));
#636=CARTESIAN_POINT('Origin',(12.,6.00000000000106,-6.00000000000028));
#637=CARTESIAN_POINT('',(14.1999999999999,7.00000000000106,-6.00000000000028));
#638=CARTESIAN_POINT('',(14.1999999999999,-0.00099999999897373,-6.00000000000028));
#639=CARTESIAN_POINT('Origin',(12.,7.00000000000106,-6.00000000000028));
#640=CARTESIAN_POINT('Origin',(12.,-0.000999999999973245,6.00000000000001));
#641=CARTESIAN_POINT('',(14.2,6.00000000000006,6.00000000000001));
#642=CARTESIAN_POINT('Origin',(12.,6.00000000000006,6.00000000000001));
#643=CARTESIAN_POINT('',(14.2,7.00000000000006,6.00000000000001));
#644=CARTESIAN_POINT('',(14.2,-0.000999999999972931,6.00000000000001));
#645=CARTESIAN_POINT('Origin',(12.,7.00000000000006,6.00000000000001));
#646=CARTESIAN_POINT('Origin',(-12.,-0.00100000000002876,6.00000000000001));
#647=CARTESIAN_POINT('',(-9.79999999999999,6.00000000000001,6.00000000000001));
#648=CARTESIAN_POINT('Origin',(-12.,6.00000000000001,6.00000000000001));
#649=CARTESIAN_POINT('',(-9.79999999999999,7.00000000000001,6.00000000000001));
#650=CARTESIAN_POINT('',(-9.79999999999999,-0.00100000000002844,6.00000000000001));
#651=CARTESIAN_POINT('Origin',(-12.,7.00000000000001,6.00000000000001));
#652=CARTESIAN_POINT('Origin',(-12.,-0.00100000000113898,-6.00000000000028));
#653=CARTESIAN_POINT('',(-9.79999999999999,5.9999999999989,-6.00000000000028));
#654=CARTESIAN_POINT('Origin',(-12.,5.9999999999989,-6.00000000000028));
#655=CARTESIAN_POINT('',(-9.79999999999999,6.9999999999989,-6.00000000000028));
#656=CARTESIAN_POINT('',(-9.79999999999999,-0.00100000000113866,-6.00000000000028));
#657=CARTESIAN_POINT('Origin',(-12.,6.9999999999989,-6.00000000000028));
#658=CARTESIAN_POINT('Origin',(-12.,6.9999999999989,-6.00000000000028));
#659=CARTESIAN_POINT('',(-12.,-1.11022302462516E-12,-7.20000000000029));
#660=CARTESIAN_POINT('Origin',(-12.,-1.11022302462516E-12,-6.00000000000028));
#661=CARTESIAN_POINT('',(-12.,3.49999999999895,-7.20000000000029));
#662=CARTESIAN_POINT('',(-12.,6.9999999999989,-7.20000000000029));
#663=CARTESIAN_POINT('Origin',(-12.,3.49999999999895,-6.00000000000028));
#664=CARTESIAN_POINT('Origin',(-12.,7.00000000000001,6.00000000000001));
#665=CARTESIAN_POINT('',(-12.,0.,4.8));
#666=CARTESIAN_POINT('Origin',(-12.,0.,6.00000000000001));
#667=CARTESIAN_POINT('',(-12.,3.49999999999995,4.8));
#668=CARTESIAN_POINT('',(-12.,7.00000000000001,4.8));
#669=CARTESIAN_POINT('Origin',(-12.,3.49999999999995,6.00000000000001));
#670=CARTESIAN_POINT('Origin',(12.,7.00000000000006,6.00000000000001));
#671=CARTESIAN_POINT('',(12.,5.55111512312578E-14,4.8));
#672=CARTESIAN_POINT('Origin',(12.,5.55111512312578E-14,6.00000000000001));
#673=CARTESIAN_POINT('',(12.,3.5,4.8));
#674=CARTESIAN_POINT('',(12.,7.00000000000006,4.8));
#675=CARTESIAN_POINT('Origin',(12.,3.5,6.00000000000001));
#676=CARTESIAN_POINT('Origin',(12.,7.00000000000106,-6.00000000000028));
#677=CARTESIAN_POINT('',(12.,1.0547118733939E-12,-7.20000000000029));
#678=CARTESIAN_POINT('Origin',(11.9999999999999,1.0547118733939E-12,-6.00000000000028));
#679=CARTESIAN_POINT('',(12.,3.50000000000011,-7.20000000000029));
#680=CARTESIAN_POINT('',(12.,7.00000000000106,-7.20000000000029));
#681=CARTESIAN_POINT('Origin',(11.9999999999999,3.50000000000011,-6.00000000000028));
#682=CARTESIAN_POINT('Origin',(-9.25000000000013,3.49999999999995,12.5000000000003));
#683=CARTESIAN_POINT('',(-9.24999999999999,-1.11022302462516E-12,-12.5));
#684=CARTESIAN_POINT('',(-9.24999999999999,3.49999999999895,-12.5));
#685=CARTESIAN_POINT('',(-9.24999999999999,3.49999999999895,-12.5));
#686=CARTESIAN_POINT('',(-9.25000000000013,3.49999999999995,12.5000000000003));
#687=CARTESIAN_POINT('',(-9.25000000000013,3.49999999999995,12.5000000000003));
#688=CARTESIAN_POINT('',(-9.25000000000013,0.,12.5000000000003));
#689=CARTESIAN_POINT('',(-9.25000000000013,3.49999999999995,12.5000000000003));
#690=CARTESIAN_POINT('',(-9.25000000000013,0.,12.5000000000003));
#691=CARTESIAN_POINT('Origin',(-15.2500000000001,3.49999999999995,12.5));
#692=CARTESIAN_POINT('',(-15.25,3.49999999999895,-12.5000000000003));
#693=CARTESIAN_POINT('',(-15.25,3.49999999999895,-12.5000000000003));
#694=CARTESIAN_POINT('',(-15.2500000000001,3.49999999999995,12.5));
#695=CARTESIAN_POINT('',(-15.2500000000001,3.49999999999995,12.5));
#696=CARTESIAN_POINT('',(-15.2500000000001,3.49999999999995,12.5));
#697=CARTESIAN_POINT('Origin',(-15.2500000000001,6.00000000000001,12.5));
#698=CARTESIAN_POINT('',(-15.25,5.9999999999989,-12.5000000000003));
#699=CARTESIAN_POINT('',(-15.25,5.9999999999989,-12.5000000000003));
#700=CARTESIAN_POINT('',(-15.2500000000001,6.00000000000001,12.5));
#701=CARTESIAN_POINT('',(-15.2500000000001,6.00000000000001,12.5));
#702=CARTESIAN_POINT('',(-15.2500000000001,6.00000000000001,12.5));
#703=CARTESIAN_POINT('Origin',(15.2500000000003,6.00000000000006,12.5000000000003));
#704=CARTESIAN_POINT('',(15.2500000000003,5.99999999999995,-12.5));
#705=CARTESIAN_POINT('',(15.2500000000003,5.99999999999995,-12.5));
#706=CARTESIAN_POINT('',(15.2500000000003,6.00000000000006,12.5000000000003));
#707=CARTESIAN_POINT('',(15.2500000000003,6.00000000000006,12.5000000000003));
#708=CARTESIAN_POINT('',(15.2500000000003,6.00000000000006,12.5000000000003));
#709=CARTESIAN_POINT('Origin',(15.2500000000003,3.5,12.5000000000003));
#710=CARTESIAN_POINT('',(15.2500000000002,3.5,-12.5));
#711=CARTESIAN_POINT('',(15.2500000000002,3.5,-12.5));
#712=CARTESIAN_POINT('',(15.2500000000003,3.5,12.5000000000003));
#713=CARTESIAN_POINT('',(15.2500000000003,3.5,12.5000000000003));
#714=CARTESIAN_POINT('',(15.2500000000003,3.5,12.5000000000003));
#715=CARTESIAN_POINT('Origin',(9.25000000000029,3.5,12.5));
#716=CARTESIAN_POINT('',(9.25000000000009,3.5,-12.5000000000003));
#717=CARTESIAN_POINT('',(9.25000000000009,3.5,-12.5000000000003));
#718=CARTESIAN_POINT('',(9.25000000000029,3.5,12.5));
#719=CARTESIAN_POINT('',(9.25000000000029,3.5,12.5));
#720=CARTESIAN_POINT('',(9.25000000000029,3.5,12.5));
#721=CARTESIAN_POINT('Origin',(9.25000000000029,5.55111512312578E-14,12.5));
#722=CARTESIAN_POINT('',(9.25000000000009,-5.55111512312578E-14,-12.5000000000003));
#723=CARTESIAN_POINT('',(9.25000000000009,-5.55111512312578E-14,-12.5000000000003));
#724=CARTESIAN_POINT('',(9.25000000000029,5.55111512312578E-14,12.5));
#725=CARTESIAN_POINT('',(9.25000000000029,5.55111512312578E-14,12.5));
#726=CARTESIAN_POINT('',(9.25000000000029,5.55111512312578E-14,12.5));
#727=CARTESIAN_POINT('Origin',(18.2500000000002,5.55111512312578E-14,12.5000000000005));
#728=CARTESIAN_POINT('',(18.2500000000002,-5.55111512312578E-14,-12.5000000000001));
#729=CARTESIAN_POINT('',(18.2500000000002,-5.55111512312578E-14,-12.5000000000001));
#730=CARTESIAN_POINT('',(18.2500000000002,5.55111512312578E-14,12.5000000000005));
#731=CARTESIAN_POINT('',(18.2500000000002,5.55111512312578E-14,12.5000000000005));
#732=CARTESIAN_POINT('',(18.2500000000002,5.55111512312578E-14,12.5000000000005));
#733=CARTESIAN_POINT('Origin',(18.2500000000002,7.00000000000006,12.5000000000005));
#734=CARTESIAN_POINT('',(18.2500000000002,6.99999999999995,-12.5));
#735=CARTESIAN_POINT('',(18.2500000000002,6.99999999999995,-12.5));
#736=CARTESIAN_POINT('',(18.2500000000002,7.00000000000006,12.5000000000005));
#737=CARTESIAN_POINT('',(18.2500000000002,7.00000000000006,12.5000000000005));
#738=CARTESIAN_POINT('',(18.2500000000002,7.00000000000006,12.5000000000005));
#739=CARTESIAN_POINT('Origin',(-18.2500000000001,7.00000000000001,12.5000000000003));
#740=CARTESIAN_POINT('',(-18.25,6.9999999999989,-12.5000000000003));
#741=CARTESIAN_POINT('',(-18.25,6.9999999999989,-12.5000000000003));
#742=CARTESIAN_POINT('',(-18.2500000000001,7.00000000000001,12.5000000000003));
#743=CARTESIAN_POINT('',(-18.2500000000001,7.00000000000001,12.5000000000003));
#744=CARTESIAN_POINT('',(-18.2500000000001,7.00000000000001,12.5000000000003));
#745=CARTESIAN_POINT('Origin',(-18.2500000000001,0.,12.5000000000001));
#746=CARTESIAN_POINT('',(-18.25,-1.11022302462516E-12,-12.5000000000005));
#747=CARTESIAN_POINT('',(-18.25,-1.11022302462516E-12,-12.5000000000005));
#748=CARTESIAN_POINT('',(-18.2500000000001,0.,12.5000000000001));
#749=CARTESIAN_POINT('',(-18.2500000000001,0.,12.5000000000001));
#750=CARTESIAN_POINT('',(-18.2500000000001,0.,12.5000000000001));
#751=CARTESIAN_POINT('Origin',(-9.25000000000013,0.,12.5000000000003));
#752=CARTESIAN_POINT('',(-9.24999999999999,-1.11022302462516E-12,-12.5));
#753=CARTESIAN_POINT('',(-9.25000000000013,0.,12.5000000000003));
#754=CARTESIAN_POINT('Origin',(-1.38777878078145E-13,5.55111512312578E-14,
12.5));
#755=CARTESIAN_POINT('Origin',(0.,-1.11022302462516E-12,-12.5000000000003));
#756=UNCERTAINTY_MEASURE_WITH_UNIT(LENGTH_MEASURE(0.01),#760,
'DISTANCE_ACCURACY_VALUE',
'Maximum model space distance between geometric entities at asserted c
onnectivities');
#757=UNCERTAINTY_MEASURE_WITH_UNIT(LENGTH_MEASURE(0.01),#760,
'DISTANCE_ACCURACY_VALUE',
'Maximum model space distance between geometric entities at asserted c
onnectivities');
#758=(
GEOMETRIC_REPRESENTATION_CONTEXT(3)
GLOBAL_UNCERTAINTY_ASSIGNED_CONTEXT((#756))
GLOBAL_UNIT_ASSIGNED_CONTEXT((#760,#762,#763))
REPRESENTATION_CONTEXT('','3D')
);
#759=(
GEOMETRIC_REPRESENTATION_CONTEXT(3)
GLOBAL_UNCERTAINTY_ASSIGNED_CONTEXT((#757))
GLOBAL_UNIT_ASSIGNED_CONTEXT((#760,#762,#763))
REPRESENTATION_CONTEXT('','3D')
);
#760=(
LENGTH_UNIT()
NAMED_UNIT(*)
SI_UNIT(.MILLI.,.METRE.)
);
#761=(
LENGTH_UNIT()
NAMED_UNIT(*)
SI_UNIT($,.METRE.)
);
#762=(
NAMED_UNIT(*)
PLANE_ANGLE_UNIT()
SI_UNIT($,.RADIAN.)
);
#763=(
NAMED_UNIT(*)
SI_UNIT($,.STERADIAN.)
SOLID_ANGLE_UNIT()
);
#764=SHAPE_DEFINITION_REPRESENTATION(#765,#766);
#765=PRODUCT_DEFINITION_SHAPE('',$,#768);
#766=SHAPE_REPRESENTATION('',(#472),#758);
#767=PRODUCT_DEFINITION_CONTEXT('part definition',#772,'design');
#768=PRODUCT_DEFINITION('PT1.00.00.243 Cover','Side_Cover v1',#769,#767);
#769=PRODUCT_DEFINITION_FORMATION('',$,#774);
#770=PRODUCT_RELATED_PRODUCT_CATEGORY('Side_Cover v1','Side_Cover v1',(#774));
#771=APPLICATION_PROTOCOL_DEFINITION('international standard',
'automotive_design',2009,#772);
#772=APPLICATION_CONTEXT(
'Core Data for Automotive Mechanical Design Process');
#773=PRODUCT_CONTEXT('part definition',#772,'mechanical');
#774=PRODUCT('PT1.00.00.243 Cover','Side_Cover v1','STEP AP203',(#773));
#775=PRESENTATION_STYLE_ASSIGNMENT((#776));
#776=SURFACE_STYLE_USAGE(.BOTH.,#777);
#777=SURFACE_SIDE_STYLE('',(#778));
#778=SURFACE_STYLE_FILL_AREA(#779);
#779=FILL_AREA_STYLE('Steel - Satin',(#780));
#780=FILL_AREA_STYLE_COLOUR('Steel - Satin',#781);
#781=COLOUR_RGB('Steel - Satin',0.627450980392157,0.627450980392157,0.627450980392157);
ENDSEC;
END-ISO-10303-21;
